<svg width="265" height="265" viewBox="0 0 265 265" fill="none" xmlns="http://www.w3.org/2000/svg">
<g filter="url(#filter0_f_324_6409)">
<circle cx="132.5" cy="132.5" r="115.5" fill="url(#paint0_linear_324_6409)"/>
</g>
<circle cx="133.5" cy="133.094" r="94.2586" fill="white"/>
<path opacity="0.77" d="M133.255 220.769C181.862 220.769 221.265 181.366 221.265 132.759C221.265 84.1531 181.862 44.75 133.255 44.75C84.6492 44.75 45.2461 84.1531 45.2461 132.759C45.2461 181.366 84.6492 220.769 133.255 220.769Z" fill="url(#paint1_linear_324_6409)" stroke="#6C999F" stroke-width="3.91801" stroke-miterlimit="10"/>
<path d="M82.4378 101.252C80.8325 101.252 79.5818 100.916 78.6858 100.244C77.8085 99.572 77.1925 98.6667 76.8378 97.528C76.5018 96.3893 76.3338 95.12 76.3338 93.72V85.712C76.3338 84.1813 76.5018 82.8467 76.8378 81.708C77.1925 80.5693 77.8085 79.692 78.6858 79.076C79.5818 78.4413 80.8325 78.124 82.4378 78.124C83.8565 78.124 84.9765 78.3853 85.7978 78.908C86.6378 79.4307 87.2352 80.1773 87.5898 81.148C87.9632 82.1187 88.1498 83.2853 88.1498 84.648V86.44H85.1538V84.844C85.1538 84.004 85.1072 83.2667 85.0138 82.632C84.9392 81.9787 84.7152 81.4747 84.3418 81.12C83.9685 80.7653 83.3432 80.588 82.4658 80.588C81.5698 80.588 80.9165 80.784 80.5058 81.176C80.0952 81.5493 79.8245 82.0907 79.6938 82.8C79.5818 83.4907 79.5258 84.3027 79.5258 85.236V94.224C79.5258 95.3627 79.6192 96.268 79.8058 96.94C79.9925 97.5933 80.3005 98.06 80.7298 98.34C81.1592 98.62 81.7378 98.76 82.4658 98.76C83.3245 98.76 83.9405 98.5733 84.3138 98.2C84.6872 97.808 84.9205 97.276 85.0138 96.604C85.1072 95.932 85.1538 95.148 85.1538 94.252V92.572H88.1498V94.252C88.1498 95.6333 87.9818 96.856 87.6458 97.92C87.3098 98.9653 86.7312 99.7867 85.9098 100.384C85.0885 100.963 83.9312 101.252 82.4378 101.252ZM90.534 101V78.32H93.698V98.732H99.494V101H90.534ZM101.201 101V78.32H104.309V101H101.201ZM107.348 101V78.32H109.504L115.944 93.384V78.32H118.576V101H116.56L110.036 85.516V101H107.348ZM121.679 101V78.32H124.787V101H121.679ZM133.511 101.252C131.905 101.252 130.655 100.916 129.758 100.244C128.881 99.572 128.265 98.6667 127.91 97.528C127.575 96.3893 127.407 95.12 127.407 93.72V85.712C127.407 84.1813 127.575 82.8467 127.91 81.708C128.265 80.5693 128.881 79.692 129.758 79.076C130.655 78.4413 131.905 78.124 133.511 78.124C134.929 78.124 136.049 78.3853 136.871 78.908C137.711 79.4307 138.308 80.1773 138.663 81.148C139.036 82.1187 139.223 83.2853 139.223 84.648V86.44H136.227V84.844C136.227 84.004 136.18 83.2667 136.087 82.632C136.012 81.9787 135.788 81.4747 135.415 81.12C135.041 80.7653 134.416 80.588 133.539 80.588C132.643 80.588 131.989 80.784 131.579 81.176C131.168 81.5493 130.897 82.0907 130.767 82.8C130.655 83.4907 130.599 84.3027 130.599 85.236V94.224C130.599 95.3627 130.692 96.268 130.879 96.94C131.065 97.5933 131.373 98.06 131.803 98.34C132.232 98.62 132.811 98.76 133.539 98.76C134.397 98.76 135.013 98.5733 135.387 98.2C135.76 97.808 135.993 97.276 136.087 96.604C136.18 95.932 136.227 95.148 136.227 94.252V92.572H139.223V94.252C139.223 95.6333 139.055 96.856 138.719 97.92C138.383 98.9653 137.804 99.7867 136.983 100.384C136.161 100.963 135.004 101.252 133.511 101.252ZM140.375 101L145.191 78.32H148.243L153.087 101H150.091L149.055 95.288H144.435L143.343 101H140.375ZM144.855 93.02H148.635L146.731 82.8L144.855 93.02ZM154.758 101V78.32H157.922V98.732H163.718V101H154.758ZM175.785 101.252C174.759 101.252 173.872 101.037 173.125 100.608C172.397 100.16 171.837 99.5533 171.445 98.788C171.072 98.0227 170.885 97.1453 170.885 96.156C170.885 94.7187 171.203 93.4773 171.837 92.432C172.491 91.368 173.275 90.4253 174.189 89.604C173.853 88.932 173.489 88.26 173.097 87.588C172.724 86.8973 172.397 86.188 172.117 85.46C171.856 84.7133 171.725 83.9387 171.725 83.136C171.725 82.128 171.921 81.2507 172.313 80.504C172.705 79.7573 173.265 79.1787 173.993 78.768C174.721 78.3387 175.58 78.124 176.569 78.124C177.484 78.124 178.296 78.292 179.005 78.628C179.733 78.964 180.312 79.4493 180.741 80.084C181.171 80.7 181.385 81.4467 181.385 82.324C181.385 83.3133 181.152 84.2653 180.685 85.18C180.237 86.076 179.687 86.916 179.033 87.7C178.38 88.4653 177.745 89.1467 177.129 89.744L180.545 95.12C180.751 94.728 180.919 94.2893 181.049 93.804C181.199 93.3 181.32 92.768 181.413 92.208C181.525 91.648 181.609 91.1067 181.665 90.584H184.633C184.633 91.312 184.521 92.0773 184.297 92.88C184.092 93.6827 183.821 94.448 183.485 95.176C183.149 95.8853 182.804 96.492 182.449 96.996C182.692 97.2947 183.009 97.5653 183.401 97.808C183.793 98.032 184.213 98.144 184.661 98.144V101.224C184.587 101.224 184.512 101.224 184.437 101.224C184.381 101.224 184.325 101.224 184.269 101.224C183.728 101.205 183.243 101.084 182.813 100.86C182.384 100.617 181.992 100.328 181.637 99.992C181.301 99.656 180.975 99.3387 180.657 99.04C180.153 99.6747 179.491 100.207 178.669 100.636C177.867 101.047 176.905 101.252 175.785 101.252ZM175.785 98.76C176.495 98.76 177.092 98.592 177.577 98.256C178.063 97.9013 178.483 97.5093 178.837 97.08L175.365 91.732C174.917 92.3107 174.553 92.992 174.273 93.776C174.012 94.5413 173.881 95.3347 173.881 96.156C173.881 96.5853 173.937 97.0053 174.049 97.416C174.161 97.808 174.357 98.1347 174.637 98.396C174.917 98.6387 175.3 98.76 175.785 98.76ZM176.093 88.12C176.485 87.6533 176.849 87.1027 177.185 86.468C177.54 85.8333 177.829 85.1613 178.053 84.452C178.277 83.724 178.389 83.0147 178.389 82.324C178.389 81.7827 178.221 81.3627 177.885 81.064C177.549 80.7467 177.111 80.588 176.569 80.588C175.897 80.588 175.421 80.8493 175.141 81.372C174.861 81.8947 174.721 82.4827 174.721 83.136C174.721 83.9947 174.861 84.8533 175.141 85.712C175.44 86.552 175.757 87.3547 176.093 88.12ZM59.3686 128V107.672H55.5326V105.32H66.2566V107.672H62.5326V128H59.3686ZM67.813 128V105.32H72.377C73.889 105.32 75.1397 105.525 76.129 105.936C77.1183 106.328 77.8463 106.972 78.313 107.868C78.7983 108.745 79.041 109.903 79.041 111.34C79.041 112.217 78.9477 113.02 78.761 113.748C78.5743 114.457 78.2757 115.064 77.865 115.568C77.4543 116.053 76.913 116.408 76.241 116.632L79.461 128H76.409L73.441 117.36H70.977V128H67.813ZM70.977 115.092H72.181C73.077 115.092 73.805 114.98 74.365 114.756C74.925 114.532 75.3357 114.149 75.597 113.608C75.8583 113.067 75.989 112.311 75.989 111.34C75.989 110.015 75.7463 109.063 75.261 108.484C74.7757 107.887 73.8143 107.588 72.377 107.588H70.977V115.092ZM80.4705 128L85.2865 105.32H88.3385L93.1825 128H90.1865L89.1505 122.288H84.5305L83.4385 128H80.4705ZM84.9505 120.02H88.7305L86.8265 109.8L84.9505 120.02ZM94.8538 128V105.32H97.0098L103.45 120.384V105.32H106.082V128H104.066L97.5418 112.516V128H94.8538ZM114.365 128.252C113.058 128.252 111.966 127.972 111.089 127.412C110.23 126.852 109.577 126.077 109.129 125.088C108.681 124.099 108.419 122.951 108.345 121.644L111.145 120.888C111.201 121.691 111.322 122.465 111.509 123.212C111.714 123.959 112.041 124.575 112.489 125.06C112.937 125.527 113.562 125.76 114.365 125.76C115.186 125.76 115.802 125.536 116.213 125.088C116.642 124.621 116.857 123.959 116.857 123.1C116.857 122.073 116.623 121.252 116.157 120.636C115.69 120.001 115.102 119.367 114.393 118.732L110.585 115.372C109.838 114.719 109.287 114.009 108.933 113.244C108.578 112.46 108.401 111.499 108.401 110.36C108.401 108.699 108.877 107.411 109.829 106.496C110.781 105.581 112.078 105.124 113.721 105.124C114.617 105.124 115.401 105.245 116.073 105.488C116.763 105.712 117.333 106.067 117.781 106.552C118.247 107.037 118.611 107.653 118.873 108.4C119.153 109.128 119.339 109.987 119.433 110.976L116.745 111.704C116.689 110.957 116.577 110.276 116.409 109.66C116.241 109.025 115.942 108.521 115.513 108.148C115.102 107.756 114.505 107.56 113.721 107.56C112.937 107.56 112.321 107.775 111.873 108.204C111.443 108.615 111.229 109.231 111.229 110.052C111.229 110.743 111.341 111.312 111.565 111.76C111.807 112.208 112.19 112.665 112.713 113.132L116.549 116.492C117.407 117.239 118.163 118.135 118.817 119.18C119.47 120.207 119.797 121.429 119.797 122.848C119.797 123.968 119.563 124.939 119.097 125.76C118.63 126.563 117.986 127.179 117.165 127.608C116.362 128.037 115.429 128.252 114.365 128.252ZM121.621 128V105.32H124.785V125.732H130.581V128H121.621ZM130.888 128L135.704 105.32H138.756L143.6 128H140.604L139.568 122.288H134.948L133.856 128H130.888ZM135.368 120.02H139.148L137.244 109.8L135.368 120.02ZM146.615 128V107.672H142.779V105.32H153.503V107.672H149.779V128H146.615ZM155.227 128V105.32H158.335V128H155.227ZM167.171 128.252C165.64 128.252 164.417 127.953 163.503 127.356C162.588 126.759 161.935 125.909 161.543 124.808C161.151 123.688 160.955 122.381 160.955 120.888V112.292C160.955 110.799 161.151 109.52 161.543 108.456C161.953 107.373 162.607 106.552 163.503 105.992C164.417 105.413 165.64 105.124 167.171 105.124C168.701 105.124 169.915 105.413 170.811 105.992C171.707 106.571 172.351 107.392 172.743 108.456C173.153 109.52 173.359 110.799 173.359 112.292V120.916C173.359 122.391 173.153 123.679 172.743 124.78C172.351 125.881 171.707 126.74 170.811 127.356C169.915 127.953 168.701 128.252 167.171 128.252ZM167.171 125.76C168.011 125.76 168.645 125.592 169.075 125.256C169.504 124.901 169.793 124.416 169.943 123.8C170.092 123.165 170.167 122.428 170.167 121.588V111.648C170.167 110.808 170.092 110.089 169.943 109.492C169.793 108.876 169.504 108.409 169.075 108.092C168.645 107.756 168.011 107.588 167.171 107.588C166.331 107.588 165.687 107.756 165.239 108.092C164.809 108.409 164.52 108.876 164.371 109.492C164.221 110.089 164.147 110.808 164.147 111.648V121.588C164.147 122.428 164.221 123.165 164.371 123.8C164.52 124.416 164.809 124.901 165.239 125.256C165.687 125.592 166.331 125.76 167.171 125.76ZM175.838 128V105.32H177.994L184.434 120.384V105.32H187.066V128H185.05L178.526 112.516V128H175.838ZM188.769 128L193.585 105.32H196.637L201.481 128H198.485L197.449 122.288H192.829L191.737 128H188.769ZM193.249 120.02H197.029L195.125 109.8L193.249 120.02ZM203.153 128V105.32H206.317V125.732H212.113V128H203.153ZM107.594 156V133.32H112.522C114.202 133.32 115.528 133.581 116.498 134.104C117.488 134.608 118.188 135.373 118.598 136.4C119.028 137.427 119.242 138.705 119.242 140.236V148.58C119.242 150.185 119.028 151.539 118.598 152.64C118.188 153.741 117.506 154.581 116.554 155.16C115.621 155.72 114.361 156 112.774 156H107.594ZM110.758 153.732H112.55C113.708 153.732 114.529 153.508 115.014 153.06C115.5 152.612 115.789 151.959 115.882 151.1C115.994 150.241 116.05 149.205 116.05 147.992V140.628C116.05 139.452 115.976 138.5 115.826 137.772C115.677 137.044 115.35 136.512 114.846 136.176C114.342 135.84 113.549 135.672 112.466 135.672H110.758V153.732ZM120.361 156L125.177 133.32H128.229L133.073 156H130.077L129.041 150.288H124.421L123.329 156H120.361ZM124.841 148.02H128.621L126.717 137.8L124.841 148.02ZM136.088 156V135.672H132.252V133.32H142.976V135.672H139.252V156H136.088ZM142.152 156L146.968 133.32H150.02L154.864 156H151.868L150.832 150.288H146.212L145.12 156H142.152ZM146.632 148.02H150.412L148.508 137.8L146.632 148.02ZM88.0411 184.252C86.4358 184.252 85.1851 183.916 84.2891 183.244C83.4118 182.572 82.7958 181.667 82.4411 180.528C82.1051 179.389 81.9371 178.12 81.9371 176.72V168.712C81.9371 167.181 82.1051 165.847 82.4411 164.708C82.7958 163.569 83.4118 162.692 84.2891 162.076C85.1851 161.441 86.4358 161.124 88.0411 161.124C89.4598 161.124 90.5798 161.385 91.4011 161.908C92.2411 162.431 92.8385 163.177 93.1931 164.148C93.5665 165.119 93.7531 166.285 93.7531 167.648V169.44H90.7571V167.844C90.7571 167.004 90.7105 166.267 90.6171 165.632C90.5425 164.979 90.3185 164.475 89.9451 164.12C89.5718 163.765 88.9465 163.588 88.0691 163.588C87.1731 163.588 86.5198 163.784 86.1091 164.176C85.6985 164.549 85.4278 165.091 85.2971 165.8C85.1851 166.491 85.1291 167.303 85.1291 168.236V177.224C85.1291 178.363 85.2225 179.268 85.4091 179.94C85.5958 180.593 85.9038 181.06 86.3331 181.34C86.7625 181.62 87.3411 181.76 88.0691 181.76C88.9278 181.76 89.5438 181.573 89.9171 181.2C90.2905 180.808 90.5238 180.276 90.6171 179.604C90.7105 178.932 90.7571 178.148 90.7571 177.252V175.572H93.7531V177.252C93.7531 178.633 93.5851 179.856 93.2491 180.92C92.9131 181.965 92.3345 182.787 91.5131 183.384C90.6918 183.963 89.5345 184.252 88.0411 184.252ZM101.933 184.252C100.403 184.252 99.1799 183.953 98.2653 183.356C97.3506 182.759 96.6973 181.909 96.3053 180.808C95.9133 179.688 95.7173 178.381 95.7173 176.888V168.292C95.7173 166.799 95.9133 165.52 96.3053 164.456C96.7159 163.373 97.3693 162.552 98.2653 161.992C99.1799 161.413 100.403 161.124 101.933 161.124C103.464 161.124 104.677 161.413 105.573 161.992C106.469 162.571 107.113 163.392 107.505 164.456C107.916 165.52 108.121 166.799 108.121 168.292V176.916C108.121 178.391 107.916 179.679 107.505 180.78C107.113 181.881 106.469 182.74 105.573 183.356C104.677 183.953 103.464 184.252 101.933 184.252ZM101.933 181.76C102.773 181.76 103.408 181.592 103.837 181.256C104.267 180.901 104.556 180.416 104.705 179.8C104.855 179.165 104.929 178.428 104.929 177.588V167.648C104.929 166.808 104.855 166.089 104.705 165.492C104.556 164.876 104.267 164.409 103.837 164.092C103.408 163.756 102.773 163.588 101.933 163.588C101.093 163.588 100.449 163.756 100.001 164.092C99.5719 164.409 99.2826 164.876 99.1333 165.492C98.9839 166.089 98.9093 166.808 98.9093 167.648V177.588C98.9093 178.428 98.9839 179.165 99.1333 179.8C99.2826 180.416 99.5719 180.901 100.001 181.256C100.449 181.592 101.093 181.76 101.933 181.76ZM110.545 184L110.965 161.32H114.073L118.077 179.716L122.109 161.32H125.189L125.609 184H123.061L122.809 167.536L118.973 184H117.181L113.373 167.536L113.121 184H110.545ZM128.399 184L128.819 161.32H131.927L135.931 179.716L139.963 161.32H143.043L143.463 184H140.915L140.663 167.536L136.827 184H135.035L131.227 167.536L130.975 184H128.399ZM152.106 184.252C150.575 184.252 149.352 183.953 148.438 183.356C147.523 182.759 146.87 181.909 146.478 180.808C146.086 179.688 145.89 178.381 145.89 176.888V168.292C145.89 166.799 146.086 165.52 146.478 164.456C146.888 163.373 147.542 162.552 148.438 161.992C149.352 161.413 150.575 161.124 152.106 161.124C153.636 161.124 154.85 161.413 155.746 161.992C156.642 162.571 157.286 163.392 157.678 164.456C158.088 165.52 158.294 166.799 158.294 168.292V176.916C158.294 178.391 158.088 179.679 157.678 180.78C157.286 181.881 156.642 182.74 155.746 183.356C154.85 183.953 153.636 184.252 152.106 184.252ZM152.106 181.76C152.946 181.76 153.58 181.592 154.01 181.256C154.439 180.901 154.728 180.416 154.878 179.8C155.027 179.165 155.102 178.428 155.102 177.588V167.648C155.102 166.808 155.027 166.089 154.878 165.492C154.728 164.876 154.439 164.409 154.01 164.092C153.58 163.756 152.946 163.588 152.106 163.588C151.266 163.588 150.622 163.756 150.174 164.092C149.744 164.409 149.455 164.876 149.306 165.492C149.156 166.089 149.082 166.808 149.082 167.648V177.588C149.082 178.428 149.156 179.165 149.306 179.8C149.455 180.416 149.744 180.901 150.174 181.256C150.622 181.592 151.266 181.76 152.106 181.76ZM160.774 184V161.32H162.93L169.37 176.384V161.32H172.002V184H169.986L163.462 168.516V184H160.774ZM180.285 184.252C178.978 184.252 177.886 183.972 177.009 183.412C176.15 182.852 175.497 182.077 175.049 181.088C174.601 180.099 174.339 178.951 174.265 177.644L177.065 176.888C177.121 177.691 177.242 178.465 177.429 179.212C177.634 179.959 177.961 180.575 178.409 181.06C178.857 181.527 179.482 181.76 180.285 181.76C181.106 181.76 181.722 181.536 182.133 181.088C182.562 180.621 182.777 179.959 182.777 179.1C182.777 178.073 182.543 177.252 182.077 176.636C181.61 176.001 181.022 175.367 180.313 174.732L176.505 171.372C175.758 170.719 175.207 170.009 174.853 169.244C174.498 168.46 174.321 167.499 174.321 166.36C174.321 164.699 174.797 163.411 175.749 162.496C176.701 161.581 177.998 161.124 179.641 161.124C180.537 161.124 181.321 161.245 181.993 161.488C182.683 161.712 183.253 162.067 183.701 162.552C184.167 163.037 184.531 163.653 184.793 164.4C185.073 165.128 185.259 165.987 185.353 166.976L182.665 167.704C182.609 166.957 182.497 166.276 182.329 165.66C182.161 165.025 181.862 164.521 181.433 164.148C181.022 163.756 180.425 163.56 179.641 163.56C178.857 163.56 178.241 163.775 177.793 164.204C177.363 164.615 177.149 165.231 177.149 166.052C177.149 166.743 177.261 167.312 177.485 167.76C177.727 168.208 178.11 168.665 178.633 169.132L182.469 172.492C183.327 173.239 184.083 174.135 184.737 175.18C185.39 176.207 185.717 177.429 185.717 178.848C185.717 179.968 185.483 180.939 185.017 181.76C184.55 182.563 183.906 183.179 183.085 183.608C182.282 184.037 181.349 184.252 180.285 184.252Z" fill="url(#paint2_linear_324_6409)"/>
<mask id="path-5-inside-1_324_6409" fill="white">
<path d="M248.465 122.4C246.121 98.1202 236.15 75.2055 219.981 56.941C203.812 38.6765 182.275 26.0001 158.459 20.7289C134.642 15.4577 109.768 17.8624 87.4015 27.5982C65.0354 37.334 46.326 53.901 33.955 74.9245C21.5841 95.948 16.1869 120.348 18.5372 144.628C20.8874 168.908 30.8643 191.82 47.0379 210.081C63.2114 228.341 84.751 241.012 108.569 246.277C132.387 251.543 157.261 249.132 179.625 239.39L175.012 228.801C154.885 237.568 132.499 239.738 111.062 235C89.6259 230.261 70.2402 218.857 55.6841 202.422C41.1279 185.988 32.1486 165.367 30.0334 143.515C27.9182 121.664 32.7757 99.7032 43.9095 80.7821C55.0433 61.8609 71.8818 46.9506 92.0113 38.1884C112.141 29.4261 134.528 27.262 155.963 32.006C177.398 36.7501 196.781 48.1589 211.333 64.5969C225.885 81.0349 234.859 101.658 236.969 123.51L248.465 122.4Z"/>
</mask>
<path d="M248.465 122.4C246.121 98.1202 236.15 75.2055 219.981 56.941C203.812 38.6765 182.275 26.0001 158.459 20.7289C134.642 15.4577 109.768 17.8624 87.4015 27.5982C65.0354 37.334 46.326 53.901 33.955 74.9245C21.5841 95.948 16.1869 120.348 18.5372 144.628C20.8874 168.908 30.8643 191.82 47.0379 210.081C63.2114 228.341 84.751 241.012 108.569 246.277C132.387 251.543 157.261 249.132 179.625 239.39L175.012 228.801C154.885 237.568 132.499 239.738 111.062 235C89.6259 230.261 70.2402 218.857 55.6841 202.422C41.1279 185.988 32.1486 165.367 30.0334 143.515C27.9182 121.664 32.7757 99.7032 43.9095 80.7821C55.0433 61.8609 71.8818 46.9506 92.0113 38.1884C112.141 29.4261 134.528 27.262 155.963 32.006C177.398 36.7501 196.781 48.1589 211.333 64.5969C225.885 81.0349 234.859 101.658 236.969 123.51L248.465 122.4Z" stroke="white" stroke-width="24" mask="url(#path-5-inside-1_324_6409)"/>
<defs>
<filter id="filter0_f_324_6409" x="0" y="0" width="265" height="265" filterUnits="userSpaceOnUse" color-interpolation-filters="sRGB">
<feFlood flood-opacity="0" result="BackgroundImageFix"/>
<feBlend mode="normal" in="SourceGraphic" in2="BackgroundImageFix" result="shape"/>
<feGaussianBlur stdDeviation="8.5" result="effect1_foregroundBlur_324_6409"/>
</filter>
<linearGradient id="paint0_linear_324_6409" x1="135.5" y1="14" x2="132.5" y2="248" gradientUnits="userSpaceOnUse">
<stop stop-color="#36516A"/>
<stop offset="1" stop-color="#D9D9D9" stop-opacity="0"/>
<stop offset="1" stop-color="#2D4962"/>
</linearGradient>
<linearGradient id="paint1_linear_324_6409" x1="133.255" y1="220.769" x2="133.255" y2="44.75" gradientUnits="userSpaceOnUse">
<stop stop-color="#88B5D2"/>
<stop offset="0.02" stop-color="#8BB6D3"/>
<stop offset="0.48" stop-color="#C9DDEA"/>
<stop offset="0.82" stop-color="#F0F5F9"/>
<stop offset="1" stop-color="white"/>
</linearGradient>
<linearGradient id="paint2_linear_324_6409" x1="133.5" y1="74" x2="133.5" y2="187" gradientUnits="userSpaceOnUse">
<stop stop-color="#008693"/>
<stop offset="1" stop-color="#005383"/>
</linearGradient>
</defs>
</svg>
