<svg width="265" height="265" viewBox="0 0 265 265" fill="none" xmlns="http://www.w3.org/2000/svg">
<g filter="url(#filter0_f_335_3491)">
<circle cx="132.5" cy="132.5" r="115.5" fill="url(#paint0_linear_335_3491)"/>
</g>
<circle cx="133.5" cy="133.094" r="94.2586" fill="white"/>
<path opacity="0.77" d="M133.255 221.769C181.862 221.769 221.265 182.366 221.265 133.759C221.265 85.1531 181.862 45.75 133.255 45.75C84.6492 45.75 45.2461 85.1531 45.2461 133.759C45.2461 182.366 84.6492 221.769 133.255 221.769Z" fill="url(#paint1_linear_335_3491)" stroke="#6C999F" stroke-width="3.91801" stroke-miterlimit="10"/>
<path d="M82.4378 104.252C80.8325 104.252 79.5818 103.916 78.6858 103.244C77.8085 102.572 77.1925 101.667 76.8378 100.528C76.5018 99.3893 76.3338 98.12 76.3338 96.72V88.712C76.3338 87.1813 76.5018 85.8467 76.8378 84.708C77.1925 83.5693 77.8085 82.692 78.6858 82.076C79.5818 81.4413 80.8325 81.124 82.4378 81.124C83.8565 81.124 84.9765 81.3853 85.7978 81.908C86.6378 82.4307 87.2352 83.1773 87.5898 84.148C87.9632 85.1187 88.1498 86.2853 88.1498 87.648V89.44H85.1538V87.844C85.1538 87.004 85.1072 86.2667 85.0138 85.632C84.9392 84.9787 84.7152 84.4747 84.3418 84.12C83.9685 83.7653 83.3432 83.588 82.4658 83.588C81.5698 83.588 80.9165 83.784 80.5058 84.176C80.0952 84.5493 79.8245 85.0907 79.6938 85.8C79.5818 86.4907 79.5258 87.3027 79.5258 88.236V97.224C79.5258 98.3627 79.6192 99.268 79.8058 99.94C79.9925 100.593 80.3005 101.06 80.7298 101.34C81.1592 101.62 81.7378 101.76 82.4658 101.76C83.3245 101.76 83.9405 101.573 84.3138 101.2C84.6872 100.808 84.9205 100.276 85.0138 99.604C85.1072 98.932 85.1538 98.148 85.1538 97.252V95.572H88.1498V97.252C88.1498 98.6333 87.9818 99.856 87.6458 100.92C87.3098 101.965 86.7312 102.787 85.9098 103.384C85.0885 103.963 83.9312 104.252 82.4378 104.252ZM90.534 104V81.32H93.698V101.732H99.494V104H90.534ZM101.201 104V81.32H104.309V104H101.201ZM107.348 104V81.32H109.504L115.944 96.384V81.32H118.576V104H116.56L110.036 88.516V104H107.348ZM121.679 104V81.32H124.787V104H121.679ZM133.511 104.252C131.905 104.252 130.655 103.916 129.758 103.244C128.881 102.572 128.265 101.667 127.91 100.528C127.575 99.3893 127.407 98.12 127.407 96.72V88.712C127.407 87.1813 127.575 85.8467 127.91 84.708C128.265 83.5693 128.881 82.692 129.758 82.076C130.655 81.4413 131.905 81.124 133.511 81.124C134.929 81.124 136.049 81.3853 136.871 81.908C137.711 82.4307 138.308 83.1773 138.663 84.148C139.036 85.1187 139.223 86.2853 139.223 87.648V89.44H136.227V87.844C136.227 87.004 136.18 86.2667 136.087 85.632C136.012 84.9787 135.788 84.4747 135.415 84.12C135.041 83.7653 134.416 83.588 133.539 83.588C132.643 83.588 131.989 83.784 131.579 84.176C131.168 84.5493 130.897 85.0907 130.767 85.8C130.655 86.4907 130.599 87.3027 130.599 88.236V97.224C130.599 98.3627 130.692 99.268 130.879 99.94C131.065 100.593 131.373 101.06 131.803 101.34C132.232 101.62 132.811 101.76 133.539 101.76C134.397 101.76 135.013 101.573 135.387 101.2C135.76 100.808 135.993 100.276 136.087 99.604C136.18 98.932 136.227 98.148 136.227 97.252V95.572H139.223V97.252C139.223 98.6333 139.055 99.856 138.719 100.92C138.383 101.965 137.804 102.787 136.983 103.384C136.161 103.963 135.004 104.252 133.511 104.252ZM140.375 104L145.191 81.32H148.243L153.087 104H150.091L149.055 98.288H144.435L143.343 104H140.375ZM144.855 96.02H148.635L146.731 85.8L144.855 96.02ZM154.758 104V81.32H157.922V101.732H163.718V104H154.758ZM175.785 104.252C174.759 104.252 173.872 104.037 173.125 103.608C172.397 103.16 171.837 102.553 171.445 101.788C171.072 101.023 170.885 100.145 170.885 99.156C170.885 97.7187 171.203 96.4773 171.837 95.432C172.491 94.368 173.275 93.4253 174.189 92.604C173.853 91.932 173.489 91.26 173.097 90.588C172.724 89.8973 172.397 89.188 172.117 88.46C171.856 87.7133 171.725 86.9387 171.725 86.136C171.725 85.128 171.921 84.2507 172.313 83.504C172.705 82.7573 173.265 82.1787 173.993 81.768C174.721 81.3387 175.58 81.124 176.569 81.124C177.484 81.124 178.296 81.292 179.005 81.628C179.733 81.964 180.312 82.4493 180.741 83.084C181.171 83.7 181.385 84.4467 181.385 85.324C181.385 86.3133 181.152 87.2653 180.685 88.18C180.237 89.076 179.687 89.916 179.033 90.7C178.38 91.4653 177.745 92.1467 177.129 92.744L180.545 98.12C180.751 97.728 180.919 97.2893 181.049 96.804C181.199 96.3 181.32 95.768 181.413 95.208C181.525 94.648 181.609 94.1067 181.665 93.584H184.633C184.633 94.312 184.521 95.0773 184.297 95.88C184.092 96.6827 183.821 97.448 183.485 98.176C183.149 98.8853 182.804 99.492 182.449 99.996C182.692 100.295 183.009 100.565 183.401 100.808C183.793 101.032 184.213 101.144 184.661 101.144V104.224C184.587 104.224 184.512 104.224 184.437 104.224C184.381 104.224 184.325 104.224 184.269 104.224C183.728 104.205 183.243 104.084 182.813 103.86C182.384 103.617 181.992 103.328 181.637 102.992C181.301 102.656 180.975 102.339 180.657 102.04C180.153 102.675 179.491 103.207 178.669 103.636C177.867 104.047 176.905 104.252 175.785 104.252ZM175.785 101.76C176.495 101.76 177.092 101.592 177.577 101.256C178.063 100.901 178.483 100.509 178.837 100.08L175.365 94.732C174.917 95.3107 174.553 95.992 174.273 96.776C174.012 97.5413 173.881 98.3347 173.881 99.156C173.881 99.5853 173.937 100.005 174.049 100.416C174.161 100.808 174.357 101.135 174.637 101.396C174.917 101.639 175.3 101.76 175.785 101.76ZM176.093 91.12C176.485 90.6533 176.849 90.1027 177.185 89.468C177.54 88.8333 177.829 88.1613 178.053 87.452C178.277 86.724 178.389 86.0147 178.389 85.324C178.389 84.7827 178.221 84.3627 177.885 84.064C177.549 83.7467 177.111 83.588 176.569 83.588C175.897 83.588 175.421 83.8493 175.141 84.372C174.861 84.8947 174.721 85.4827 174.721 86.136C174.721 86.9947 174.861 87.8533 175.141 88.712C175.44 89.552 175.757 90.3547 176.093 91.12ZM59.3686 131V110.672H55.5326V108.32H66.2566V110.672H62.5326V131H59.3686ZM67.813 131V108.32H72.377C73.889 108.32 75.1397 108.525 76.129 108.936C77.1183 109.328 77.8463 109.972 78.313 110.868C78.7983 111.745 79.041 112.903 79.041 114.34C79.041 115.217 78.9477 116.02 78.761 116.748C78.5743 117.457 78.2757 118.064 77.865 118.568C77.4543 119.053 76.913 119.408 76.241 119.632L79.461 131H76.409L73.441 120.36H70.977V131H67.813ZM70.977 118.092H72.181C73.077 118.092 73.805 117.98 74.365 117.756C74.925 117.532 75.3357 117.149 75.597 116.608C75.8583 116.067 75.989 115.311 75.989 114.34C75.989 113.015 75.7463 112.063 75.261 111.484C74.7757 110.887 73.8143 110.588 72.377 110.588H70.977V118.092ZM80.4705 131L85.2865 108.32H88.3385L93.1825 131H90.1865L89.1505 125.288H84.5305L83.4385 131H80.4705ZM84.9505 123.02H88.7305L86.8265 112.8L84.9505 123.02ZM94.8538 131V108.32H97.0098L103.45 123.384V108.32H106.082V131H104.066L97.5418 115.516V131H94.8538ZM114.365 131.252C113.058 131.252 111.966 130.972 111.089 130.412C110.23 129.852 109.577 129.077 109.129 128.088C108.681 127.099 108.419 125.951 108.345 124.644L111.145 123.888C111.201 124.691 111.322 125.465 111.509 126.212C111.714 126.959 112.041 127.575 112.489 128.06C112.937 128.527 113.562 128.76 114.365 128.76C115.186 128.76 115.802 128.536 116.213 128.088C116.642 127.621 116.857 126.959 116.857 126.1C116.857 125.073 116.623 124.252 116.157 123.636C115.69 123.001 115.102 122.367 114.393 121.732L110.585 118.372C109.838 117.719 109.287 117.009 108.933 116.244C108.578 115.46 108.401 114.499 108.401 113.36C108.401 111.699 108.877 110.411 109.829 109.496C110.781 108.581 112.078 108.124 113.721 108.124C114.617 108.124 115.401 108.245 116.073 108.488C116.763 108.712 117.333 109.067 117.781 109.552C118.247 110.037 118.611 110.653 118.873 111.4C119.153 112.128 119.339 112.987 119.433 113.976L116.745 114.704C116.689 113.957 116.577 113.276 116.409 112.66C116.241 112.025 115.942 111.521 115.513 111.148C115.102 110.756 114.505 110.56 113.721 110.56C112.937 110.56 112.321 110.775 111.873 111.204C111.443 111.615 111.229 112.231 111.229 113.052C111.229 113.743 111.341 114.312 111.565 114.76C111.807 115.208 112.19 115.665 112.713 116.132L116.549 119.492C117.407 120.239 118.163 121.135 118.817 122.18C119.47 123.207 119.797 124.429 119.797 125.848C119.797 126.968 119.563 127.939 119.097 128.76C118.63 129.563 117.986 130.179 117.165 130.608C116.362 131.037 115.429 131.252 114.365 131.252ZM121.621 131V108.32H124.785V128.732H130.581V131H121.621ZM130.888 131L135.704 108.32H138.756L143.6 131H140.604L139.568 125.288H134.948L133.856 131H130.888ZM135.368 123.02H139.148L137.244 112.8L135.368 123.02ZM146.615 131V110.672H142.779V108.32H153.503V110.672H149.779V131H146.615ZM155.227 131V108.32H158.335V131H155.227ZM167.171 131.252C165.64 131.252 164.417 130.953 163.503 130.356C162.588 129.759 161.935 128.909 161.543 127.808C161.151 126.688 160.955 125.381 160.955 123.888V115.292C160.955 113.799 161.151 112.52 161.543 111.456C161.953 110.373 162.607 109.552 163.503 108.992C164.417 108.413 165.64 108.124 167.171 108.124C168.701 108.124 169.915 108.413 170.811 108.992C171.707 109.571 172.351 110.392 172.743 111.456C173.153 112.52 173.359 113.799 173.359 115.292V123.916C173.359 125.391 173.153 126.679 172.743 127.78C172.351 128.881 171.707 129.74 170.811 130.356C169.915 130.953 168.701 131.252 167.171 131.252ZM167.171 128.76C168.011 128.76 168.645 128.592 169.075 128.256C169.504 127.901 169.793 127.416 169.943 126.8C170.092 126.165 170.167 125.428 170.167 124.588V114.648C170.167 113.808 170.092 113.089 169.943 112.492C169.793 111.876 169.504 111.409 169.075 111.092C168.645 110.756 168.011 110.588 167.171 110.588C166.331 110.588 165.687 110.756 165.239 111.092C164.809 111.409 164.52 111.876 164.371 112.492C164.221 113.089 164.147 113.808 164.147 114.648V124.588C164.147 125.428 164.221 126.165 164.371 126.8C164.52 127.416 164.809 127.901 165.239 128.256C165.687 128.592 166.331 128.76 167.171 128.76ZM175.838 131V108.32H177.994L184.434 123.384V108.32H187.066V131H185.05L178.526 115.516V131H175.838ZM188.769 131L193.585 108.32H196.637L201.481 131H198.485L197.449 125.288H192.829L191.737 131H188.769ZM193.249 123.02H197.029L195.125 112.8L193.249 123.02ZM203.153 131V108.32H206.317V128.732H212.113V131H203.153ZM107.594 159V136.32H112.522C114.202 136.32 115.528 136.581 116.498 137.104C117.488 137.608 118.188 138.373 118.598 139.4C119.028 140.427 119.242 141.705 119.242 143.236V151.58C119.242 153.185 119.028 154.539 118.598 155.64C118.188 156.741 117.506 157.581 116.554 158.16C115.621 158.72 114.361 159 112.774 159H107.594ZM110.758 156.732H112.55C113.708 156.732 114.529 156.508 115.014 156.06C115.5 155.612 115.789 154.959 115.882 154.1C115.994 153.241 116.05 152.205 116.05 150.992V143.628C116.05 142.452 115.976 141.5 115.826 140.772C115.677 140.044 115.35 139.512 114.846 139.176C114.342 138.84 113.549 138.672 112.466 138.672H110.758V156.732ZM120.361 159L125.177 136.32H128.229L133.073 159H130.077L129.041 153.288H124.421L123.329 159H120.361ZM124.841 151.02H128.621L126.717 140.8L124.841 151.02ZM136.088 159V138.672H132.252V136.32H142.976V138.672H139.252V159H136.088ZM142.152 159L146.968 136.32H150.02L154.864 159H151.868L150.832 153.288H146.212L145.12 159H142.152ZM146.632 151.02H150.412L148.508 140.8L146.632 151.02ZM88.0411 187.252C86.4358 187.252 85.1851 186.916 84.2891 186.244C83.4118 185.572 82.7958 184.667 82.4411 183.528C82.1051 182.389 81.9371 181.12 81.9371 179.72V171.712C81.9371 170.181 82.1051 168.847 82.4411 167.708C82.7958 166.569 83.4118 165.692 84.2891 165.076C85.1851 164.441 86.4358 164.124 88.0411 164.124C89.4598 164.124 90.5798 164.385 91.4011 164.908C92.2411 165.431 92.8385 166.177 93.1931 167.148C93.5665 168.119 93.7531 169.285 93.7531 170.648V172.44H90.7571V170.844C90.7571 170.004 90.7105 169.267 90.6171 168.632C90.5425 167.979 90.3185 167.475 89.9451 167.12C89.5718 166.765 88.9465 166.588 88.0691 166.588C87.1731 166.588 86.5198 166.784 86.1091 167.176C85.6985 167.549 85.4278 168.091 85.2971 168.8C85.1851 169.491 85.1291 170.303 85.1291 171.236V180.224C85.1291 181.363 85.2225 182.268 85.4091 182.94C85.5958 183.593 85.9038 184.06 86.3331 184.34C86.7625 184.62 87.3411 184.76 88.0691 184.76C88.9278 184.76 89.5438 184.573 89.9171 184.2C90.2905 183.808 90.5238 183.276 90.6171 182.604C90.7105 181.932 90.7571 181.148 90.7571 180.252V178.572H93.7531V180.252C93.7531 181.633 93.5851 182.856 93.2491 183.92C92.9131 184.965 92.3345 185.787 91.5131 186.384C90.6918 186.963 89.5345 187.252 88.0411 187.252ZM101.933 187.252C100.403 187.252 99.1799 186.953 98.2653 186.356C97.3506 185.759 96.6973 184.909 96.3053 183.808C95.9133 182.688 95.7173 181.381 95.7173 179.888V171.292C95.7173 169.799 95.9133 168.52 96.3053 167.456C96.7159 166.373 97.3693 165.552 98.2653 164.992C99.1799 164.413 100.403 164.124 101.933 164.124C103.464 164.124 104.677 164.413 105.573 164.992C106.469 165.571 107.113 166.392 107.505 167.456C107.916 168.52 108.121 169.799 108.121 171.292V179.916C108.121 181.391 107.916 182.679 107.505 183.78C107.113 184.881 106.469 185.74 105.573 186.356C104.677 186.953 103.464 187.252 101.933 187.252ZM101.933 184.76C102.773 184.76 103.408 184.592 103.837 184.256C104.267 183.901 104.556 183.416 104.705 182.8C104.855 182.165 104.929 181.428 104.929 180.588V170.648C104.929 169.808 104.855 169.089 104.705 168.492C104.556 167.876 104.267 167.409 103.837 167.092C103.408 166.756 102.773 166.588 101.933 166.588C101.093 166.588 100.449 166.756 100.001 167.092C99.5719 167.409 99.2826 167.876 99.1333 168.492C98.9839 169.089 98.9093 169.808 98.9093 170.648V180.588C98.9093 181.428 98.9839 182.165 99.1333 182.8C99.2826 183.416 99.5719 183.901 100.001 184.256C100.449 184.592 101.093 184.76 101.933 184.76ZM110.545 187L110.965 164.32H114.073L118.077 182.716L122.109 164.32H125.189L125.609 187H123.061L122.809 170.536L118.973 187H117.181L113.373 170.536L113.121 187H110.545ZM128.399 187L128.819 164.32H131.927L135.931 182.716L139.963 164.32H143.043L143.463 187H140.915L140.663 170.536L136.827 187H135.035L131.227 170.536L130.975 187H128.399ZM152.106 187.252C150.575 187.252 149.352 186.953 148.438 186.356C147.523 185.759 146.87 184.909 146.478 183.808C146.086 182.688 145.89 181.381 145.89 179.888V171.292C145.89 169.799 146.086 168.52 146.478 167.456C146.888 166.373 147.542 165.552 148.438 164.992C149.352 164.413 150.575 164.124 152.106 164.124C153.636 164.124 154.85 164.413 155.746 164.992C156.642 165.571 157.286 166.392 157.678 167.456C158.088 168.52 158.294 169.799 158.294 171.292V179.916C158.294 181.391 158.088 182.679 157.678 183.78C157.286 184.881 156.642 185.74 155.746 186.356C154.85 186.953 153.636 187.252 152.106 187.252ZM152.106 184.76C152.946 184.76 153.58 184.592 154.01 184.256C154.439 183.901 154.728 183.416 154.878 182.8C155.027 182.165 155.102 181.428 155.102 180.588V170.648C155.102 169.808 155.027 169.089 154.878 168.492C154.728 167.876 154.439 167.409 154.01 167.092C153.58 166.756 152.946 166.588 152.106 166.588C151.266 166.588 150.622 166.756 150.174 167.092C149.744 167.409 149.455 167.876 149.306 168.492C149.156 169.089 149.082 169.808 149.082 170.648V180.588C149.082 181.428 149.156 182.165 149.306 182.8C149.455 183.416 149.744 183.901 150.174 184.256C150.622 184.592 151.266 184.76 152.106 184.76ZM160.774 187V164.32H162.93L169.37 179.384V164.32H172.002V187H169.986L163.462 171.516V187H160.774ZM180.285 187.252C178.978 187.252 177.886 186.972 177.009 186.412C176.15 185.852 175.497 185.077 175.049 184.088C174.601 183.099 174.339 181.951 174.265 180.644L177.065 179.888C177.121 180.691 177.242 181.465 177.429 182.212C177.634 182.959 177.961 183.575 178.409 184.06C178.857 184.527 179.482 184.76 180.285 184.76C181.106 184.76 181.722 184.536 182.133 184.088C182.562 183.621 182.777 182.959 182.777 182.1C182.777 181.073 182.543 180.252 182.077 179.636C181.61 179.001 181.022 178.367 180.313 177.732L176.505 174.372C175.758 173.719 175.207 173.009 174.853 172.244C174.498 171.46 174.321 170.499 174.321 169.36C174.321 167.699 174.797 166.411 175.749 165.496C176.701 164.581 177.998 164.124 179.641 164.124C180.537 164.124 181.321 164.245 181.993 164.488C182.683 164.712 183.253 165.067 183.701 165.552C184.167 166.037 184.531 166.653 184.793 167.4C185.073 168.128 185.259 168.987 185.353 169.976L182.665 170.704C182.609 169.957 182.497 169.276 182.329 168.66C182.161 168.025 181.862 167.521 181.433 167.148C181.022 166.756 180.425 166.56 179.641 166.56C178.857 166.56 178.241 166.775 177.793 167.204C177.363 167.615 177.149 168.231 177.149 169.052C177.149 169.743 177.261 170.312 177.485 170.76C177.727 171.208 178.11 171.665 178.633 172.132L182.469 175.492C183.327 176.239 184.083 177.135 184.737 178.18C185.39 179.207 185.717 180.429 185.717 181.848C185.717 182.968 185.483 183.939 185.017 184.76C184.55 185.563 183.906 186.179 183.085 186.608C182.282 187.037 181.349 187.252 180.285 187.252Z" fill="url(#paint2_linear_335_3491)"/>
<mask id="path-5-inside-1_335_3491" fill="white">
<path d="M66.0919 39.711C46.284 53.9474 31.492 74.0895 23.8361 97.2502C16.1803 120.411 16.0538 145.401 23.4747 168.638C30.8956 191.875 45.4829 212.165 65.1457 226.602C84.8084 241.038 108.537 248.878 132.93 248.999C157.323 249.119 181.127 241.514 200.932 227.272C220.736 213.031 235.523 192.885 243.173 169.723C250.823 146.56 250.944 121.57 243.517 98.3351C236.09 75.0999 221.498 54.8127 201.831 40.3814L194.998 49.6932C212.698 62.6814 225.831 80.94 232.515 101.852C239.199 122.763 239.091 145.254 232.206 166.1C225.321 186.947 212.012 205.078 194.189 217.895C176.365 230.712 154.94 237.557 132.987 237.449C111.033 237.34 89.6776 230.284 71.9811 217.292C54.2847 204.299 41.1561 186.037 34.4772 165.124C27.7984 144.211 27.9123 121.72 34.8025 100.875C41.6928 80.0306 55.0056 61.9027 72.8327 49.0899L66.0919 39.711Z"/>
</mask>
<path d="M66.0919 39.711C46.284 53.9474 31.492 74.0895 23.8361 97.2502C16.1803 120.411 16.0538 145.401 23.4747 168.638C30.8956 191.875 45.4829 212.165 65.1457 226.602C84.8084 241.038 108.537 248.878 132.93 248.999C157.323 249.119 181.127 241.514 200.932 227.272C220.736 213.031 235.523 192.885 243.173 169.723C250.823 146.56 250.944 121.57 243.517 98.3351C236.09 75.0999 221.498 54.8127 201.831 40.3814L194.998 49.6932C212.698 62.6814 225.831 80.94 232.515 101.852C239.199 122.763 239.091 145.254 232.206 166.1C225.321 186.947 212.012 205.078 194.189 217.895C176.365 230.712 154.94 237.557 132.987 237.449C111.033 237.34 89.6776 230.284 71.9811 217.292C54.2847 204.299 41.1561 186.037 34.4772 165.124C27.7984 144.211 27.9123 121.72 34.8025 100.875C41.6928 80.0306 55.0056 61.9027 72.8327 49.0899L66.0919 39.711Z" stroke="white" stroke-width="24" mask="url(#path-5-inside-1_335_3491)"/>
<defs>
<filter id="filter0_f_335_3491" x="0" y="0" width="265" height="265" filterUnits="userSpaceOnUse" color-interpolation-filters="sRGB">
<feFlood flood-opacity="0" result="BackgroundImageFix"/>
<feBlend mode="normal" in="SourceGraphic" in2="BackgroundImageFix" result="shape"/>
<feGaussianBlur stdDeviation="8.5" result="effect1_foregroundBlur_335_3491"/>
</filter>
<linearGradient id="paint0_linear_335_3491" x1="135.5" y1="14" x2="132.5" y2="248" gradientUnits="userSpaceOnUse">
<stop stop-color="#36516A"/>
<stop offset="1" stop-color="#D9D9D9" stop-opacity="0"/>
<stop offset="1" stop-color="#2D4962"/>
</linearGradient>
<linearGradient id="paint1_linear_335_3491" x1="133.255" y1="221.769" x2="133.255" y2="45.75" gradientUnits="userSpaceOnUse">
<stop stop-color="#88B5D2"/>
<stop offset="0.02" stop-color="#8BB6D3"/>
<stop offset="0.48" stop-color="#C9DDEA"/>
<stop offset="0.82" stop-color="#F0F5F9"/>
<stop offset="1" stop-color="white"/>
</linearGradient>
<linearGradient id="paint2_linear_335_3491" x1="133.5" y1="77" x2="133.5" y2="190" gradientUnits="userSpaceOnUse">
<stop stop-color="#008693"/>
<stop offset="1" stop-color="#005383"/>
</linearGradient>
</defs>
</svg>
