<svg width="265" height="265" viewBox="0 0 265 265" fill="none" xmlns="http://www.w3.org/2000/svg">
<g filter="url(#filter0_f_323_10536)">
<circle cx="132.5" cy="132.5" r="115.5" fill="url(#paint0_linear_323_10536)"/>
</g>
<circle cx="133.5" cy="133.094" r="94.2586" fill="white"/>
<path opacity="0.77" d="M133.255 220.77C181.862 220.77 221.265 181.367 221.265 132.76C221.265 84.1541 181.862 44.751 133.255 44.751C84.6492 44.751 45.2461 84.1541 45.2461 132.76C45.2461 181.367 84.6492 220.77 133.255 220.77Z" fill="url(#paint1_linear_323_10536)" stroke="#6C999F" stroke-width="3.91801" stroke-miterlimit="10"/>
<mask id="path-4-inside-1_323_10536" fill="white">
<path d="M201.262 227.034C221.016 212.723 235.732 192.525 243.3 169.335C250.868 146.146 250.901 121.156 243.392 97.947C235.883 74.7383 221.219 54.5026 201.502 40.1408C181.785 25.779 158.027 18.0284 133.634 18.0001C109.241 17.9718 85.4651 25.6672 65.7147 39.9832C45.9643 54.2992 31.2534 74.5007 23.6909 97.692C16.1284 120.883 16.1025 145.873 23.6169 169.08C31.1314 192.287 45.8003 212.519 65.521 226.876L72.3189 217.539C54.5703 204.617 41.3682 186.409 34.6052 165.522C27.8422 144.636 27.8656 122.145 34.6718 101.273C41.4781 80.4007 54.7178 62.2193 72.4932 49.3349C90.2686 36.4504 111.667 29.5246 133.621 29.5501C155.575 29.5756 176.957 36.5511 194.702 49.4767C212.447 62.4024 225.645 80.6144 232.403 101.502C239.161 122.39 239.132 144.881 232.32 165.752C225.509 186.622 212.264 204.8 194.486 217.68L201.262 227.034Z"/>
</mask>
<path d="M201.262 227.034C221.016 212.723 235.732 192.525 243.3 169.335C250.868 146.146 250.901 121.156 243.392 97.947C235.883 74.7383 221.219 54.5026 201.502 40.1408C181.785 25.779 158.027 18.0284 133.634 18.0001C109.241 17.9718 85.4651 25.6672 65.7147 39.9832C45.9643 54.2992 31.2534 74.5007 23.6909 97.692C16.1284 120.883 16.1025 145.873 23.6169 169.08C31.1314 192.287 45.8003 212.519 65.521 226.876L72.3189 217.539C54.5703 204.617 41.3682 186.409 34.6052 165.522C27.8422 144.636 27.8656 122.145 34.6718 101.273C41.4781 80.4007 54.7178 62.2193 72.4932 49.3349C90.2686 36.4504 111.667 29.5246 133.621 29.5501C155.575 29.5756 176.957 36.5511 194.702 49.4767C212.447 62.4024 225.645 80.6144 232.403 101.502C239.161 122.39 239.132 144.881 232.32 165.752C225.509 186.622 212.264 204.8 194.486 217.68L201.262 227.034Z" stroke="white" stroke-width="24" mask="url(#path-4-inside-1_323_10536)"/>
<path d="M82.4378 103.252C80.8325 103.252 79.5818 102.916 78.6858 102.244C77.8085 101.572 77.1925 100.667 76.8378 99.528C76.5018 98.3893 76.3338 97.12 76.3338 95.72V87.712C76.3338 86.1813 76.5018 84.8467 76.8378 83.708C77.1925 82.5693 77.8085 81.692 78.6858 81.076C79.5818 80.4413 80.8325 80.124 82.4378 80.124C83.8565 80.124 84.9765 80.3853 85.7978 80.908C86.6378 81.4307 87.2352 82.1773 87.5898 83.148C87.9632 84.1187 88.1498 85.2853 88.1498 86.648V88.44H85.1538V86.844C85.1538 86.004 85.1072 85.2667 85.0138 84.632C84.9392 83.9787 84.7152 83.4747 84.3418 83.12C83.9685 82.7653 83.3432 82.588 82.4658 82.588C81.5698 82.588 80.9165 82.784 80.5058 83.176C80.0952 83.5493 79.8245 84.0907 79.6938 84.8C79.5818 85.4907 79.5258 86.3027 79.5258 87.236V96.224C79.5258 97.3627 79.6192 98.268 79.8058 98.94C79.9925 99.5933 80.3005 100.06 80.7298 100.34C81.1592 100.62 81.7378 100.76 82.4658 100.76C83.3245 100.76 83.9405 100.573 84.3138 100.2C84.6872 99.808 84.9205 99.276 85.0138 98.604C85.1072 97.932 85.1538 97.148 85.1538 96.252V94.572H88.1498V96.252C88.1498 97.6333 87.9818 98.856 87.6458 99.92C87.3098 100.965 86.7312 101.787 85.9098 102.384C85.0885 102.963 83.9312 103.252 82.4378 103.252ZM90.534 103V80.32H93.698V100.732H99.494V103H90.534ZM101.201 103V80.32H104.309V103H101.201ZM107.348 103V80.32H109.504L115.944 95.384V80.32H118.576V103H116.56L110.036 87.516V103H107.348ZM121.679 103V80.32H124.787V103H121.679ZM133.511 103.252C131.905 103.252 130.655 102.916 129.758 102.244C128.881 101.572 128.265 100.667 127.91 99.528C127.575 98.3893 127.407 97.12 127.407 95.72V87.712C127.407 86.1813 127.575 84.8467 127.91 83.708C128.265 82.5693 128.881 81.692 129.758 81.076C130.655 80.4413 131.905 80.124 133.511 80.124C134.929 80.124 136.049 80.3853 136.871 80.908C137.711 81.4307 138.308 82.1773 138.663 83.148C139.036 84.1187 139.223 85.2853 139.223 86.648V88.44H136.227V86.844C136.227 86.004 136.18 85.2667 136.087 84.632C136.012 83.9787 135.788 83.4747 135.415 83.12C135.041 82.7653 134.416 82.588 133.539 82.588C132.643 82.588 131.989 82.784 131.579 83.176C131.168 83.5493 130.897 84.0907 130.767 84.8C130.655 85.4907 130.599 86.3027 130.599 87.236V96.224C130.599 97.3627 130.692 98.268 130.879 98.94C131.065 99.5933 131.373 100.06 131.803 100.34C132.232 100.62 132.811 100.76 133.539 100.76C134.397 100.76 135.013 100.573 135.387 100.2C135.76 99.808 135.993 99.276 136.087 98.604C136.18 97.932 136.227 97.148 136.227 96.252V94.572H139.223V96.252C139.223 97.6333 139.055 98.856 138.719 99.92C138.383 100.965 137.804 101.787 136.983 102.384C136.161 102.963 135.004 103.252 133.511 103.252ZM140.375 103L145.191 80.32H148.243L153.087 103H150.091L149.055 97.288H144.435L143.343 103H140.375ZM144.855 95.02H148.635L146.731 84.8L144.855 95.02ZM154.758 103V80.32H157.922V100.732H163.718V103H154.758ZM175.785 103.252C174.759 103.252 173.872 103.037 173.125 102.608C172.397 102.16 171.837 101.553 171.445 100.788C171.072 100.023 170.885 99.1453 170.885 98.156C170.885 96.7187 171.203 95.4773 171.837 94.432C172.491 93.368 173.275 92.4253 174.189 91.604C173.853 90.932 173.489 90.26 173.097 89.588C172.724 88.8973 172.397 88.188 172.117 87.46C171.856 86.7133 171.725 85.9387 171.725 85.136C171.725 84.128 171.921 83.2507 172.313 82.504C172.705 81.7573 173.265 81.1787 173.993 80.768C174.721 80.3387 175.58 80.124 176.569 80.124C177.484 80.124 178.296 80.292 179.005 80.628C179.733 80.964 180.312 81.4493 180.741 82.084C181.171 82.7 181.385 83.4467 181.385 84.324C181.385 85.3133 181.152 86.2653 180.685 87.18C180.237 88.076 179.687 88.916 179.033 89.7C178.38 90.4653 177.745 91.1467 177.129 91.744L180.545 97.12C180.751 96.728 180.919 96.2893 181.049 95.804C181.199 95.3 181.32 94.768 181.413 94.208C181.525 93.648 181.609 93.1067 181.665 92.584H184.633C184.633 93.312 184.521 94.0773 184.297 94.88C184.092 95.6827 183.821 96.448 183.485 97.176C183.149 97.8853 182.804 98.492 182.449 98.996C182.692 99.2947 183.009 99.5653 183.401 99.808C183.793 100.032 184.213 100.144 184.661 100.144V103.224C184.587 103.224 184.512 103.224 184.437 103.224C184.381 103.224 184.325 103.224 184.269 103.224C183.728 103.205 183.243 103.084 182.813 102.86C182.384 102.617 181.992 102.328 181.637 101.992C181.301 101.656 180.975 101.339 180.657 101.04C180.153 101.675 179.491 102.207 178.669 102.636C177.867 103.047 176.905 103.252 175.785 103.252ZM175.785 100.76C176.495 100.76 177.092 100.592 177.577 100.256C178.063 99.9013 178.483 99.5093 178.837 99.08L175.365 93.732C174.917 94.3107 174.553 94.992 174.273 95.776C174.012 96.5413 173.881 97.3347 173.881 98.156C173.881 98.5853 173.937 99.0053 174.049 99.416C174.161 99.808 174.357 100.135 174.637 100.396C174.917 100.639 175.3 100.76 175.785 100.76ZM176.093 90.12C176.485 89.6533 176.849 89.1027 177.185 88.468C177.54 87.8333 177.829 87.1613 178.053 86.452C178.277 85.724 178.389 85.0147 178.389 84.324C178.389 83.7827 178.221 83.3627 177.885 83.064C177.549 82.7467 177.111 82.588 176.569 82.588C175.897 82.588 175.421 82.8493 175.141 83.372C174.861 83.8947 174.721 84.4827 174.721 85.136C174.721 85.9947 174.861 86.8533 175.141 87.712C175.44 88.552 175.757 89.3547 176.093 90.12ZM59.3686 130V109.672H55.5326V107.32H66.2566V109.672H62.5326V130H59.3686ZM67.813 130V107.32H72.377C73.889 107.32 75.1397 107.525 76.129 107.936C77.1183 108.328 77.8463 108.972 78.313 109.868C78.7983 110.745 79.041 111.903 79.041 113.34C79.041 114.217 78.9477 115.02 78.761 115.748C78.5743 116.457 78.2757 117.064 77.865 117.568C77.4543 118.053 76.913 118.408 76.241 118.632L79.461 130H76.409L73.441 119.36H70.977V130H67.813ZM70.977 117.092H72.181C73.077 117.092 73.805 116.98 74.365 116.756C74.925 116.532 75.3357 116.149 75.597 115.608C75.8583 115.067 75.989 114.311 75.989 113.34C75.989 112.015 75.7463 111.063 75.261 110.484C74.7757 109.887 73.8143 109.588 72.377 109.588H70.977V117.092ZM80.4705 130L85.2865 107.32H88.3385L93.1825 130H90.1865L89.1505 124.288H84.5305L83.4385 130H80.4705ZM84.9505 122.02H88.7305L86.8265 111.8L84.9505 122.02ZM94.8538 130V107.32H97.0098L103.45 122.384V107.32H106.082V130H104.066L97.5418 114.516V130H94.8538ZM114.365 130.252C113.058 130.252 111.966 129.972 111.089 129.412C110.23 128.852 109.577 128.077 109.129 127.088C108.681 126.099 108.419 124.951 108.345 123.644L111.145 122.888C111.201 123.691 111.322 124.465 111.509 125.212C111.714 125.959 112.041 126.575 112.489 127.06C112.937 127.527 113.562 127.76 114.365 127.76C115.186 127.76 115.802 127.536 116.213 127.088C116.642 126.621 116.857 125.959 116.857 125.1C116.857 124.073 116.623 123.252 116.157 122.636C115.69 122.001 115.102 121.367 114.393 120.732L110.585 117.372C109.838 116.719 109.287 116.009 108.933 115.244C108.578 114.46 108.401 113.499 108.401 112.36C108.401 110.699 108.877 109.411 109.829 108.496C110.781 107.581 112.078 107.124 113.721 107.124C114.617 107.124 115.401 107.245 116.073 107.488C116.763 107.712 117.333 108.067 117.781 108.552C118.247 109.037 118.611 109.653 118.873 110.4C119.153 111.128 119.339 111.987 119.433 112.976L116.745 113.704C116.689 112.957 116.577 112.276 116.409 111.66C116.241 111.025 115.942 110.521 115.513 110.148C115.102 109.756 114.505 109.56 113.721 109.56C112.937 109.56 112.321 109.775 111.873 110.204C111.443 110.615 111.229 111.231 111.229 112.052C111.229 112.743 111.341 113.312 111.565 113.76C111.807 114.208 112.19 114.665 112.713 115.132L116.549 118.492C117.407 119.239 118.163 120.135 118.817 121.18C119.47 122.207 119.797 123.429 119.797 124.848C119.797 125.968 119.563 126.939 119.097 127.76C118.63 128.563 117.986 129.179 117.165 129.608C116.362 130.037 115.429 130.252 114.365 130.252ZM121.621 130V107.32H124.785V127.732H130.581V130H121.621ZM130.888 130L135.704 107.32H138.756L143.6 130H140.604L139.568 124.288H134.948L133.856 130H130.888ZM135.368 122.02H139.148L137.244 111.8L135.368 122.02ZM146.615 130V109.672H142.779V107.32H153.503V109.672H149.779V130H146.615ZM155.227 130V107.32H158.335V130H155.227ZM167.171 130.252C165.64 130.252 164.417 129.953 163.503 129.356C162.588 128.759 161.935 127.909 161.543 126.808C161.151 125.688 160.955 124.381 160.955 122.888V114.292C160.955 112.799 161.151 111.52 161.543 110.456C161.953 109.373 162.607 108.552 163.503 107.992C164.417 107.413 165.64 107.124 167.171 107.124C168.701 107.124 169.915 107.413 170.811 107.992C171.707 108.571 172.351 109.392 172.743 110.456C173.153 111.52 173.359 112.799 173.359 114.292V122.916C173.359 124.391 173.153 125.679 172.743 126.78C172.351 127.881 171.707 128.74 170.811 129.356C169.915 129.953 168.701 130.252 167.171 130.252ZM167.171 127.76C168.011 127.76 168.645 127.592 169.075 127.256C169.504 126.901 169.793 126.416 169.943 125.8C170.092 125.165 170.167 124.428 170.167 123.588V113.648C170.167 112.808 170.092 112.089 169.943 111.492C169.793 110.876 169.504 110.409 169.075 110.092C168.645 109.756 168.011 109.588 167.171 109.588C166.331 109.588 165.687 109.756 165.239 110.092C164.809 110.409 164.52 110.876 164.371 111.492C164.221 112.089 164.147 112.808 164.147 113.648V123.588C164.147 124.428 164.221 125.165 164.371 125.8C164.52 126.416 164.809 126.901 165.239 127.256C165.687 127.592 166.331 127.76 167.171 127.76ZM175.838 130V107.32H177.994L184.434 122.384V107.32H187.066V130H185.05L178.526 114.516V130H175.838ZM188.769 130L193.585 107.32H196.637L201.481 130H198.485L197.449 124.288H192.829L191.737 130H188.769ZM193.249 122.02H197.029L195.125 111.8L193.249 122.02ZM203.153 130V107.32H206.317V127.732H212.113V130H203.153ZM107.594 158V135.32H112.522C114.202 135.32 115.528 135.581 116.498 136.104C117.488 136.608 118.188 137.373 118.598 138.4C119.028 139.427 119.242 140.705 119.242 142.236V150.58C119.242 152.185 119.028 153.539 118.598 154.64C118.188 155.741 117.506 156.581 116.554 157.16C115.621 157.72 114.361 158 112.774 158H107.594ZM110.758 155.732H112.55C113.708 155.732 114.529 155.508 115.014 155.06C115.5 154.612 115.789 153.959 115.882 153.1C115.994 152.241 116.05 151.205 116.05 149.992V142.628C116.05 141.452 115.976 140.5 115.826 139.772C115.677 139.044 115.35 138.512 114.846 138.176C114.342 137.84 113.549 137.672 112.466 137.672H110.758V155.732ZM120.361 158L125.177 135.32H128.229L133.073 158H130.077L129.041 152.288H124.421L123.329 158H120.361ZM124.841 150.02H128.621L126.717 139.8L124.841 150.02ZM136.088 158V137.672H132.252V135.32H142.976V137.672H139.252V158H136.088ZM142.152 158L146.968 135.32H150.02L154.864 158H151.868L150.832 152.288H146.212L145.12 158H142.152ZM146.632 150.02H150.412L148.508 139.8L146.632 150.02ZM88.0411 186.252C86.4358 186.252 85.1851 185.916 84.2891 185.244C83.4118 184.572 82.7958 183.667 82.4411 182.528C82.1051 181.389 81.9371 180.12 81.9371 178.72V170.712C81.9371 169.181 82.1051 167.847 82.4411 166.708C82.7958 165.569 83.4118 164.692 84.2891 164.076C85.1851 163.441 86.4358 163.124 88.0411 163.124C89.4598 163.124 90.5798 163.385 91.4011 163.908C92.2411 164.431 92.8385 165.177 93.1931 166.148C93.5665 167.119 93.7531 168.285 93.7531 169.648V171.44H90.7571V169.844C90.7571 169.004 90.7105 168.267 90.6171 167.632C90.5425 166.979 90.3185 166.475 89.9451 166.12C89.5718 165.765 88.9465 165.588 88.0691 165.588C87.1731 165.588 86.5198 165.784 86.1091 166.176C85.6985 166.549 85.4278 167.091 85.2971 167.8C85.1851 168.491 85.1291 169.303 85.1291 170.236V179.224C85.1291 180.363 85.2225 181.268 85.4091 181.94C85.5958 182.593 85.9038 183.06 86.3331 183.34C86.7625 183.62 87.3411 183.76 88.0691 183.76C88.9278 183.76 89.5438 183.573 89.9171 183.2C90.2905 182.808 90.5238 182.276 90.6171 181.604C90.7105 180.932 90.7571 180.148 90.7571 179.252V177.572H93.7531V179.252C93.7531 180.633 93.5851 181.856 93.2491 182.92C92.9131 183.965 92.3345 184.787 91.5131 185.384C90.6918 185.963 89.5345 186.252 88.0411 186.252ZM101.933 186.252C100.403 186.252 99.1799 185.953 98.2653 185.356C97.3506 184.759 96.6973 183.909 96.3053 182.808C95.9133 181.688 95.7173 180.381 95.7173 178.888V170.292C95.7173 168.799 95.9133 167.52 96.3053 166.456C96.7159 165.373 97.3693 164.552 98.2653 163.992C99.1799 163.413 100.403 163.124 101.933 163.124C103.464 163.124 104.677 163.413 105.573 163.992C106.469 164.571 107.113 165.392 107.505 166.456C107.916 167.52 108.121 168.799 108.121 170.292V178.916C108.121 180.391 107.916 181.679 107.505 182.78C107.113 183.881 106.469 184.74 105.573 185.356C104.677 185.953 103.464 186.252 101.933 186.252ZM101.933 183.76C102.773 183.76 103.408 183.592 103.837 183.256C104.267 182.901 104.556 182.416 104.705 181.8C104.855 181.165 104.929 180.428 104.929 179.588V169.648C104.929 168.808 104.855 168.089 104.705 167.492C104.556 166.876 104.267 166.409 103.837 166.092C103.408 165.756 102.773 165.588 101.933 165.588C101.093 165.588 100.449 165.756 100.001 166.092C99.5719 166.409 99.2826 166.876 99.1333 167.492C98.9839 168.089 98.9093 168.808 98.9093 169.648V179.588C98.9093 180.428 98.9839 181.165 99.1333 181.8C99.2826 182.416 99.5719 182.901 100.001 183.256C100.449 183.592 101.093 183.76 101.933 183.76ZM110.545 186L110.965 163.32H114.073L118.077 181.716L122.109 163.32H125.189L125.609 186H123.061L122.809 169.536L118.973 186H117.181L113.373 169.536L113.121 186H110.545ZM128.399 186L128.819 163.32H131.927L135.931 181.716L139.963 163.32H143.043L143.463 186H140.915L140.663 169.536L136.827 186H135.035L131.227 169.536L130.975 186H128.399ZM152.106 186.252C150.575 186.252 149.352 185.953 148.438 185.356C147.523 184.759 146.87 183.909 146.478 182.808C146.086 181.688 145.89 180.381 145.89 178.888V170.292C145.89 168.799 146.086 167.52 146.478 166.456C146.888 165.373 147.542 164.552 148.438 163.992C149.352 163.413 150.575 163.124 152.106 163.124C153.636 163.124 154.85 163.413 155.746 163.992C156.642 164.571 157.286 165.392 157.678 166.456C158.088 167.52 158.294 168.799 158.294 170.292V178.916C158.294 180.391 158.088 181.679 157.678 182.78C157.286 183.881 156.642 184.74 155.746 185.356C154.85 185.953 153.636 186.252 152.106 186.252ZM152.106 183.76C152.946 183.76 153.58 183.592 154.01 183.256C154.439 182.901 154.728 182.416 154.878 181.8C155.027 181.165 155.102 180.428 155.102 179.588V169.648C155.102 168.808 155.027 168.089 154.878 167.492C154.728 166.876 154.439 166.409 154.01 166.092C153.58 165.756 152.946 165.588 152.106 165.588C151.266 165.588 150.622 165.756 150.174 166.092C149.744 166.409 149.455 166.876 149.306 167.492C149.156 168.089 149.082 168.808 149.082 169.648V179.588C149.082 180.428 149.156 181.165 149.306 181.8C149.455 182.416 149.744 182.901 150.174 183.256C150.622 183.592 151.266 183.76 152.106 183.76ZM160.774 186V163.32H162.93L169.37 178.384V163.32H172.002V186H169.986L163.462 170.516V186H160.774ZM180.285 186.252C178.978 186.252 177.886 185.972 177.009 185.412C176.15 184.852 175.497 184.077 175.049 183.088C174.601 182.099 174.339 180.951 174.265 179.644L177.065 178.888C177.121 179.691 177.242 180.465 177.429 181.212C177.634 181.959 177.961 182.575 178.409 183.06C178.857 183.527 179.482 183.76 180.285 183.76C181.106 183.76 181.722 183.536 182.133 183.088C182.562 182.621 182.777 181.959 182.777 181.1C182.777 180.073 182.543 179.252 182.077 178.636C181.61 178.001 181.022 177.367 180.313 176.732L176.505 173.372C175.758 172.719 175.207 172.009 174.853 171.244C174.498 170.46 174.321 169.499 174.321 168.36C174.321 166.699 174.797 165.411 175.749 164.496C176.701 163.581 177.998 163.124 179.641 163.124C180.537 163.124 181.321 163.245 181.993 163.488C182.683 163.712 183.253 164.067 183.701 164.552C184.167 165.037 184.531 165.653 184.793 166.4C185.073 167.128 185.259 167.987 185.353 168.976L182.665 169.704C182.609 168.957 182.497 168.276 182.329 167.66C182.161 167.025 181.862 166.521 181.433 166.148C181.022 165.756 180.425 165.56 179.641 165.56C178.857 165.56 178.241 165.775 177.793 166.204C177.363 166.615 177.149 167.231 177.149 168.052C177.149 168.743 177.261 169.312 177.485 169.76C177.727 170.208 178.11 170.665 178.633 171.132L182.469 174.492C183.327 175.239 184.083 176.135 184.737 177.18C185.39 178.207 185.717 179.429 185.717 180.848C185.717 181.968 185.483 182.939 185.017 183.76C184.55 184.563 183.906 185.179 183.085 185.608C182.282 186.037 181.349 186.252 180.285 186.252Z" fill="url(#paint2_linear_323_10536)"/>
<defs>
<filter id="filter0_f_323_10536" x="0" y="0" width="265" height="265" filterUnits="userSpaceOnUse" color-interpolation-filters="sRGB">
<feFlood flood-opacity="0" result="BackgroundImageFix"/>
<feBlend mode="normal" in="SourceGraphic" in2="BackgroundImageFix" result="shape"/>
<feGaussianBlur stdDeviation="8.5" result="effect1_foregroundBlur_323_10536"/>
</filter>
<linearGradient id="paint0_linear_323_10536" x1="135.5" y1="14" x2="132.5" y2="248" gradientUnits="userSpaceOnUse">
<stop stop-color="#36516A"/>
<stop offset="1" stop-color="#D9D9D9" stop-opacity="0"/>
<stop offset="1" stop-color="#2D4962"/>
</linearGradient>
<linearGradient id="paint1_linear_323_10536" x1="133.255" y1="220.77" x2="133.255" y2="44.751" gradientUnits="userSpaceOnUse">
<stop stop-color="#88B5D2"/>
<stop offset="0.02" stop-color="#8BB6D3"/>
<stop offset="0.48" stop-color="#C9DDEA"/>
<stop offset="0.82" stop-color="#F0F5F9"/>
<stop offset="1" stop-color="white"/>
</linearGradient>
<linearGradient id="paint2_linear_323_10536" x1="133.5" y1="76" x2="133.5" y2="189" gradientUnits="userSpaceOnUse">
<stop stop-color="#008693"/>
<stop offset="1" stop-color="#005383"/>
</linearGradient>
</defs>
</svg>
