<svg width="265" height="265" viewBox="0 0 265 265" fill="none" xmlns="http://www.w3.org/2000/svg">
<g filter="url(#filter0_f_324_9515)">
<circle cx="132.5" cy="132.5" r="115.5" fill="url(#paint0_linear_324_9515)"/>
</g>
<circle cx="133.5" cy="133.094" r="94.2586" fill="white"/>
<path opacity="0.77" d="M133.255 220.77C181.862 220.77 221.265 181.367 221.265 132.76C221.265 84.1541 181.862 44.751 133.255 44.751C84.6492 44.751 45.2461 84.1541 45.2461 132.76C45.2461 181.367 84.6492 220.77 133.255 220.77Z" fill="url(#paint1_linear_324_9515)" stroke="#6C999F" stroke-width="3.91801" stroke-miterlimit="10"/>
<path d="M72.16 109.243C70.612 109.243 69.406 108.919 68.542 108.271C67.696 107.623 67.102 106.75 66.76 105.652C66.436 104.554 66.274 103.33 66.274 101.98V94.258C66.274 92.782 66.436 91.495 66.76 90.397C67.102 89.299 67.696 88.453 68.542 87.859C69.406 87.247 70.612 86.941 72.16 86.941C73.528 86.941 74.608 87.193 75.4 87.697C76.21 88.201 76.786 88.921 77.128 89.857C77.488 90.793 77.668 91.918 77.668 93.232V94.96H74.779V93.421C74.779 92.611 74.734 91.9 74.644 91.288C74.572 90.658 74.356 90.172 73.996 89.83C73.636 89.488 73.033 89.317 72.187 89.317C71.323 89.317 70.693 89.506 70.297 89.884C69.901 90.244 69.64 90.766 69.514 91.45C69.406 92.116 69.352 92.899 69.352 93.799V102.466C69.352 103.564 69.442 104.437 69.622 105.085C69.802 105.715 70.099 106.165 70.513 106.435C70.927 106.705 71.485 106.84 72.187 106.84C73.015 106.84 73.609 106.66 73.969 106.3C74.329 105.922 74.554 105.409 74.644 104.761C74.734 104.113 74.779 103.357 74.779 102.493V100.873H77.668V102.493C77.668 103.825 77.506 105.004 77.182 106.03C76.858 107.038 76.3 107.83 75.508 108.406C74.716 108.964 73.6 109.243 72.16 109.243ZM79.967 109V87.13H83.018V106.813H88.607V109H79.967ZM90.253 109V87.13H93.25V109H90.253ZM96.1807 109V87.13H98.2597L104.47 101.656V87.13H107.008V109H105.064L98.7727 94.069V109H96.1807ZM110 109V87.13H112.997V109H110ZM121.409 109.243C119.861 109.243 118.655 108.919 117.791 108.271C116.945 107.623 116.351 106.75 116.009 105.652C115.685 104.554 115.523 103.33 115.523 101.98V94.258C115.523 92.782 115.685 91.495 116.009 90.397C116.351 89.299 116.945 88.453 117.791 87.859C118.655 87.247 119.861 86.941 121.409 86.941C122.777 86.941 123.857 87.193 124.649 87.697C125.459 88.201 126.035 88.921 126.377 89.857C126.737 90.793 126.917 91.918 126.917 93.232V94.96H124.028V93.421C124.028 92.611 123.983 91.9 123.893 91.288C123.821 90.658 123.605 90.172 123.245 89.83C122.885 89.488 122.282 89.317 121.436 89.317C120.572 89.317 119.942 89.506 119.546 89.884C119.15 90.244 118.889 90.766 118.763 91.45C118.655 92.116 118.601 92.899 118.601 93.799V102.466C118.601 103.564 118.691 104.437 118.871 105.085C119.051 105.715 119.348 106.165 119.762 106.435C120.176 106.705 120.734 106.84 121.436 106.84C122.264 106.84 122.858 106.66 123.218 106.3C123.578 105.922 123.803 105.409 123.893 104.761C123.983 104.113 124.028 103.357 124.028 102.493V100.873H126.917V102.493C126.917 103.825 126.755 105.004 126.431 106.03C126.107 107.038 125.549 107.83 124.757 108.406C123.965 108.964 122.849 109.243 121.409 109.243ZM128.028 109L132.672 87.13H135.615L140.286 109H137.397L136.398 103.492H131.943L130.89 109H128.028ZM132.348 101.305H135.993L134.157 91.45L132.348 101.305ZM141.897 109V87.13H144.948V106.813H150.537V109H141.897ZM156.396 109L161.04 87.13H163.983L168.654 109H165.765L164.766 103.492H160.311L159.258 109H156.396ZM160.716 101.305H164.361L162.525 91.45L160.716 101.305ZM170.265 109V87.13H172.344L178.554 101.656V87.13H181.092V109H179.148L172.857 94.069V109H170.265ZM183.922 109V87.13H188.674C190.294 87.13 191.572 87.382 192.508 87.886C193.462 88.372 194.137 89.11 194.533 90.1C194.947 91.09 195.154 92.323 195.154 93.799V101.845C195.154 103.393 194.947 104.698 194.533 105.76C194.137 106.822 193.48 107.632 192.562 108.19C191.662 108.73 190.447 109 188.917 109H183.922ZM186.973 106.813H188.701C189.817 106.813 190.609 106.597 191.077 106.165C191.545 105.733 191.824 105.103 191.914 104.275C192.022 103.447 192.076 102.448 192.076 101.278V94.177C192.076 93.043 192.004 92.125 191.86 91.423C191.716 90.721 191.401 90.208 190.915 89.884C190.429 89.56 189.664 89.398 188.62 89.398H186.973V106.813ZM62.0161 137V117.398H58.3171V115.13H68.6581V117.398H65.0671V137H62.0161ZM70.159 137V115.13H74.56C76.018 115.13 77.224 115.328 78.178 115.724C79.132 116.102 79.834 116.723 80.284 117.587C80.752 118.433 80.986 119.549 80.986 120.935C80.986 121.781 80.896 122.555 80.716 123.257C80.536 123.941 80.248 124.526 79.852 125.012C79.456 125.48 78.934 125.822 78.286 126.038L81.391 137H78.448L75.586 126.74H73.21V137H70.159ZM73.21 124.553H74.371C75.235 124.553 75.937 124.445 76.477 124.229C77.017 124.013 77.413 123.644 77.665 123.122C77.917 122.6 78.043 121.871 78.043 120.935C78.043 119.657 77.809 118.739 77.341 118.181C76.873 117.605 75.946 117.317 74.56 117.317H73.21V124.553ZM82.3644 137L87.0084 115.13H89.9514L94.6224 137H91.7334L90.7344 131.492H86.2794L85.2264 137H82.3644ZM86.6844 129.305H90.3294L88.4934 119.45L86.6844 129.305ZM96.234 137V115.13H98.313L104.523 129.656V115.13H107.061V137H105.117L98.826 122.069V137H96.234ZM115.048 137.243C113.788 137.243 112.735 136.973 111.889 136.433C111.061 135.893 110.431 135.146 109.999 134.192C109.567 133.238 109.315 132.131 109.243 130.871L111.943 130.142C111.997 130.916 112.114 131.663 112.294 132.383C112.492 133.103 112.807 133.697 113.239 134.165C113.671 134.615 114.274 134.84 115.048 134.84C115.84 134.84 116.434 134.624 116.83 134.192C117.244 133.742 117.451 133.103 117.451 132.275C117.451 131.285 117.226 130.493 116.776 129.899C116.326 129.287 115.759 128.675 115.075 128.063L111.403 124.823C110.683 124.193 110.152 123.509 109.81 122.771C109.468 122.015 109.297 121.088 109.297 119.99C109.297 118.388 109.756 117.146 110.674 116.264C111.592 115.382 112.843 114.941 114.427 114.941C115.291 114.941 116.047 115.058 116.695 115.292C117.361 115.508 117.91 115.85 118.342 116.318C118.792 116.786 119.143 117.38 119.395 118.1C119.665 118.802 119.845 119.63 119.935 120.584L117.343 121.286C117.289 120.566 117.181 119.909 117.019 119.315C116.857 118.703 116.569 118.217 116.155 117.857C115.759 117.479 115.183 117.29 114.427 117.29C113.671 117.29 113.077 117.497 112.645 117.911C112.231 118.307 112.024 118.901 112.024 119.693C112.024 120.359 112.132 120.908 112.348 121.34C112.582 121.772 112.951 122.213 113.455 122.663L117.154 125.903C117.982 126.623 118.711 127.487 119.341 128.495C119.971 129.485 120.286 130.664 120.286 132.032C120.286 133.112 120.061 134.048 119.611 134.84C119.161 135.614 118.54 136.208 117.748 136.622C116.974 137.036 116.074 137.243 115.048 137.243ZM122.045 137V115.13H125.096V134.813H130.685V137H122.045ZM130.981 137L135.625 115.13H138.568L143.239 137H140.35L139.351 131.492H134.896L133.843 137H130.981ZM135.301 129.305H138.946L137.11 119.45L135.301 129.305ZM146.146 137V117.398H142.447V115.13H152.788V117.398H149.197V137H146.146ZM154.451 137V115.13H157.448V137H154.451ZM165.968 137.243C164.492 137.243 163.313 136.955 162.431 136.379C161.549 135.803 160.919 134.984 160.541 133.922C160.163 132.842 159.974 131.582 159.974 130.142V121.853C159.974 120.413 160.163 119.18 160.541 118.154C160.937 117.11 161.567 116.318 162.431 115.778C163.313 115.22 164.492 114.941 165.968 114.941C167.444 114.941 168.614 115.22 169.478 115.778C170.342 116.336 170.963 117.128 171.341 118.154C171.737 119.18 171.935 120.413 171.935 121.853V130.169C171.935 131.591 171.737 132.833 171.341 133.895C170.963 134.957 170.342 135.785 169.478 136.379C168.614 136.955 167.444 137.243 165.968 137.243ZM165.968 134.84C166.778 134.84 167.39 134.678 167.804 134.354C168.218 134.012 168.497 133.544 168.641 132.95C168.785 132.338 168.857 131.627 168.857 130.817V121.232C168.857 120.422 168.785 119.729 168.641 119.153C168.497 118.559 168.218 118.109 167.804 117.803C167.39 117.479 166.778 117.317 165.968 117.317C165.158 117.317 164.537 117.479 164.105 117.803C163.691 118.109 163.412 118.559 163.268 119.153C163.124 119.729 163.052 120.422 163.052 121.232V130.817C163.052 131.627 163.124 132.338 163.268 132.95C163.412 133.544 163.691 134.012 164.105 134.354C164.537 134.678 165.158 134.84 165.968 134.84ZM174.326 137V115.13H176.405L182.615 129.656V115.13H185.153V137H183.209L176.918 122.069V137H174.326ZM186.795 137L191.439 115.13H194.382L199.053 137H196.164L195.165 131.492H190.71L189.657 137H186.795ZM191.115 129.305H194.76L192.924 119.45L191.115 129.305ZM200.665 137V115.13H203.716V134.813H209.305V137H200.665ZM108.52 165V143.13H113.272C114.892 143.13 116.17 143.382 117.106 143.886C118.06 144.372 118.735 145.11 119.131 146.1C119.545 147.09 119.752 148.323 119.752 149.799V157.845C119.752 159.393 119.545 160.698 119.131 161.76C118.735 162.822 118.078 163.632 117.16 164.19C116.26 164.73 115.045 165 113.515 165H108.52ZM111.571 162.813H113.299C114.415 162.813 115.207 162.597 115.675 162.165C116.143 161.733 116.422 161.103 116.512 160.275C116.62 159.447 116.674 158.448 116.674 157.278V150.177C116.674 149.043 116.602 148.125 116.458 147.423C116.314 146.721 115.999 146.208 115.513 145.884C115.027 145.56 114.262 145.398 113.218 145.398H111.571V162.813ZM120.83 165L125.474 143.13H128.417L133.088 165H130.199L129.2 159.492H124.745L123.692 165H120.83ZM125.15 157.305H128.795L126.959 147.45L125.15 157.305ZM135.996 165V145.398H132.297V143.13H142.638V145.398H139.047V165H135.996ZM141.843 165L146.487 143.13H149.43L154.101 165H151.212L150.213 159.492H145.758L144.705 165H141.843ZM146.163 157.305H149.808L147.972 147.45L146.163 157.305ZM89.6647 192.243C88.1167 192.243 86.9107 191.919 86.0467 191.271C85.2007 190.623 84.6067 189.75 84.2647 188.652C83.9407 187.554 83.7787 186.33 83.7787 184.98V177.258C83.7787 175.782 83.9407 174.495 84.2647 173.397C84.6067 172.299 85.2007 171.453 86.0467 170.859C86.9107 170.247 88.1167 169.941 89.6647 169.941C91.0327 169.941 92.1127 170.193 92.9047 170.697C93.7147 171.201 94.2907 171.921 94.6327 172.857C94.9927 173.793 95.1727 174.918 95.1727 176.232V177.96H92.2837V176.421C92.2837 175.611 92.2387 174.9 92.1487 174.288C92.0767 173.658 91.8607 173.172 91.5007 172.83C91.1407 172.488 90.5377 172.317 89.6917 172.317C88.8277 172.317 88.1977 172.506 87.8017 172.884C87.4057 173.244 87.1447 173.766 87.0187 174.45C86.9107 175.116 86.8567 175.899 86.8567 176.799V185.466C86.8567 186.564 86.9467 187.437 87.1267 188.085C87.3067 188.715 87.6037 189.165 88.0177 189.435C88.4317 189.705 88.9897 189.84 89.6917 189.84C90.5197 189.84 91.1137 189.66 91.4737 189.3C91.8337 188.922 92.0587 188.409 92.1487 187.761C92.2387 187.113 92.2837 186.357 92.2837 185.493V183.873H95.1727V185.493C95.1727 186.825 95.0107 188.004 94.6867 189.03C94.3627 190.038 93.8047 190.83 93.0127 191.406C92.2207 191.964 91.1047 192.243 89.6647 192.243ZM103.061 192.243C101.585 192.243 100.406 191.955 99.5237 191.379C98.6417 190.803 98.0117 189.984 97.6337 188.922C97.2557 187.842 97.0667 186.582 97.0667 185.142V176.853C97.0667 175.413 97.2557 174.18 97.6337 173.154C98.0297 172.11 98.6597 171.318 99.5237 170.778C100.406 170.22 101.585 169.941 103.061 169.941C104.537 169.941 105.707 170.22 106.571 170.778C107.435 171.336 108.056 172.128 108.434 173.154C108.83 174.18 109.028 175.413 109.028 176.853V185.169C109.028 186.591 108.83 187.833 108.434 188.895C108.056 189.957 107.435 190.785 106.571 191.379C105.707 191.955 104.537 192.243 103.061 192.243ZM103.061 189.84C103.871 189.84 104.483 189.678 104.897 189.354C105.311 189.012 105.59 188.544 105.734 187.95C105.878 187.338 105.95 186.627 105.95 185.817V176.232C105.95 175.422 105.878 174.729 105.734 174.153C105.59 173.559 105.311 173.109 104.897 172.803C104.483 172.479 103.871 172.317 103.061 172.317C102.251 172.317 101.63 172.479 101.198 172.803C100.784 173.109 100.505 173.559 100.361 174.153C100.217 174.729 100.145 175.422 100.145 176.232V185.817C100.145 186.627 100.217 187.338 100.361 187.95C100.505 188.544 100.784 189.012 101.198 189.354C101.63 189.678 102.251 189.84 103.061 189.84ZM111.365 192L111.77 170.13H114.767L118.628 187.869L122.516 170.13H125.486L125.891 192H123.434L123.191 176.124L119.492 192H117.764L114.092 176.124L113.849 192H111.365ZM128.582 192L128.987 170.13H131.984L135.845 187.869L139.733 170.13H142.703L143.108 192H140.651L140.408 176.124L136.709 192H134.981L131.309 176.124L131.066 192H128.582ZM151.441 192.243C149.965 192.243 148.786 191.955 147.904 191.379C147.022 190.803 146.392 189.984 146.014 188.922C145.636 187.842 145.447 186.582 145.447 185.142V176.853C145.447 175.413 145.636 174.18 146.014 173.154C146.41 172.11 147.04 171.318 147.904 170.778C148.786 170.22 149.965 169.941 151.441 169.941C152.917 169.941 154.087 170.22 154.951 170.778C155.815 171.336 156.436 172.128 156.814 173.154C157.21 174.18 157.408 175.413 157.408 176.853V185.169C157.408 186.591 157.21 187.833 156.814 188.895C156.436 189.957 155.815 190.785 154.951 191.379C154.087 191.955 152.917 192.243 151.441 192.243ZM151.441 189.84C152.251 189.84 152.863 189.678 153.277 189.354C153.691 189.012 153.97 188.544 154.114 187.95C154.258 187.338 154.33 186.627 154.33 185.817V176.232C154.33 175.422 154.258 174.729 154.114 174.153C153.97 173.559 153.691 173.109 153.277 172.803C152.863 172.479 152.251 172.317 151.441 172.317C150.631 172.317 150.01 172.479 149.578 172.803C149.164 173.109 148.885 173.559 148.741 174.153C148.597 174.729 148.525 175.422 148.525 176.232V185.817C148.525 186.627 148.597 187.338 148.741 187.95C148.885 188.544 149.164 189.012 149.578 189.354C150.01 189.678 150.631 189.84 151.441 189.84ZM159.799 192V170.13H161.878L168.088 184.656V170.13H170.626V192H168.682L162.391 177.069V192H159.799ZM178.614 192.243C177.354 192.243 176.301 191.973 175.455 191.433C174.627 190.893 173.997 190.146 173.565 189.192C173.133 188.238 172.881 187.131 172.809 185.871L175.509 185.142C175.563 185.916 175.68 186.663 175.86 187.383C176.058 188.103 176.373 188.697 176.805 189.165C177.237 189.615 177.84 189.84 178.614 189.84C179.406 189.84 180 189.624 180.396 189.192C180.81 188.742 181.017 188.103 181.017 187.275C181.017 186.285 180.792 185.493 180.342 184.899C179.892 184.287 179.325 183.675 178.641 183.063L174.969 179.823C174.249 179.193 173.718 178.509 173.376 177.771C173.034 177.015 172.863 176.088 172.863 174.99C172.863 173.388 173.322 172.146 174.24 171.264C175.158 170.382 176.409 169.941 177.993 169.941C178.857 169.941 179.613 170.058 180.261 170.292C180.927 170.508 181.476 170.85 181.908 171.318C182.358 171.786 182.709 172.38 182.961 173.1C183.231 173.802 183.411 174.63 183.501 175.584L180.909 176.286C180.855 175.566 180.747 174.909 180.585 174.315C180.423 173.703 180.135 173.217 179.721 172.857C179.325 172.479 178.749 172.29 177.993 172.29C177.237 172.29 176.643 172.497 176.211 172.911C175.797 173.307 175.59 173.901 175.59 174.693C175.59 175.359 175.698 175.908 175.914 176.34C176.148 176.772 176.517 177.213 177.021 177.663L180.72 180.903C181.548 181.623 182.277 182.487 182.907 183.495C183.537 184.485 183.852 185.664 183.852 187.032C183.852 188.112 183.627 189.048 183.177 189.84C182.727 190.614 182.106 191.208 181.314 191.622C180.54 192.036 179.64 192.243 178.614 192.243Z" fill="url(#paint2_linear_324_9515)"/>
<mask id="path-5-inside-1_324_9515" fill="white">
<path d="M201.262 227.034C221.016 212.723 235.732 192.525 243.3 169.335C250.868 146.146 250.901 121.156 243.392 97.947C235.883 74.7383 221.219 54.5026 201.502 40.1408C181.785 25.779 158.027 18.0284 133.634 18.0001C109.241 17.9718 85.4651 25.6672 65.7147 39.9832C45.9643 54.2992 31.2534 74.5007 23.6909 97.692C16.1284 120.883 16.1025 145.873 23.6169 169.08C31.1314 192.287 45.8003 212.519 65.521 226.876L72.3189 217.539C54.5703 204.617 41.3682 186.409 34.6052 165.522C27.8422 144.636 27.8656 122.145 34.6718 101.273C41.4781 80.4007 54.7178 62.2193 72.4932 49.3349C90.2686 36.4504 111.667 29.5246 133.621 29.5501C155.575 29.5756 176.957 36.5511 194.702 49.4767C212.447 62.4024 225.645 80.6144 232.403 101.502C239.161 122.39 239.132 144.881 232.32 165.752C225.509 186.622 212.264 204.8 194.486 217.68L201.262 227.034Z"/>
</mask>
<path d="M201.262 227.034C221.016 212.723 235.732 192.525 243.3 169.335C250.868 146.146 250.901 121.156 243.392 97.947C235.883 74.7383 221.219 54.5026 201.502 40.1408C181.785 25.779 158.027 18.0284 133.634 18.0001C109.241 17.9718 85.4651 25.6672 65.7147 39.9832C45.9643 54.2992 31.2534 74.5007 23.6909 97.692C16.1284 120.883 16.1025 145.873 23.6169 169.08C31.1314 192.287 45.8003 212.519 65.521 226.876L72.3189 217.539C54.5703 204.617 41.3682 186.409 34.6052 165.522C27.8422 144.636 27.8656 122.145 34.6718 101.273C41.4781 80.4007 54.7178 62.2193 72.4932 49.3349C90.2686 36.4504 111.667 29.5246 133.621 29.5501C155.575 29.5756 176.957 36.5511 194.702 49.4767C212.447 62.4024 225.645 80.6144 232.403 101.502C239.161 122.39 239.132 144.881 232.32 165.752C225.509 186.622 212.264 204.8 194.486 217.68L201.262 227.034Z" stroke="white" stroke-width="24" mask="url(#path-5-inside-1_324_9515)"/>
<defs>
<filter id="filter0_f_324_9515" x="0" y="0" width="265" height="265" filterUnits="userSpaceOnUse" color-interpolation-filters="sRGB">
<feFlood flood-opacity="0" result="BackgroundImageFix"/>
<feBlend mode="normal" in="SourceGraphic" in2="BackgroundImageFix" result="shape"/>
<feGaussianBlur stdDeviation="8.5" result="effect1_foregroundBlur_324_9515"/>
</filter>
<linearGradient id="paint0_linear_324_9515" x1="135.5" y1="14" x2="132.5" y2="248" gradientUnits="userSpaceOnUse">
<stop stop-color="#36516A"/>
<stop offset="1" stop-color="#D9D9D9" stop-opacity="0"/>
<stop offset="1" stop-color="#2D4962"/>
</linearGradient>
<linearGradient id="paint1_linear_324_9515" x1="133.255" y1="220.77" x2="133.255" y2="44.751" gradientUnits="userSpaceOnUse">
<stop stop-color="#88B5D2"/>
<stop offset="0.02" stop-color="#8BB6D3"/>
<stop offset="0.48" stop-color="#C9DDEA"/>
<stop offset="0.82" stop-color="#F0F5F9"/>
<stop offset="1" stop-color="white"/>
</linearGradient>
<linearGradient id="paint2_linear_324_9515" x1="133.5" y1="83" x2="133.5" y2="196" gradientUnits="userSpaceOnUse">
<stop stop-color="#008693"/>
<stop offset="1" stop-color="#005383"/>
</linearGradient>
</defs>
</svg>
