<svg width="20" height="20" viewBox="0 0 20 20" fill="none" xmlns="http://www.w3.org/2000/svg">
<path d="M11.0527 12.2107V4.10547H9.05273V12.2107L6.42116 9.68442L5.05273 11.0528L10.0001 16.0002L14.9475 11.0528L13.5791 9.68442L11.0527 12.2107Z" fill="#004D73"/>
<path d="M16.9476 0.105469H3.05284C1.36863 0.105469 0.105469 1.36863 0.105469 3.05284V16.9476C0.105469 18.6318 1.36863 19.8949 3.05284 19.8949H16.9476C18.6318 19.8949 19.8949 18.6318 19.8949 16.9476V3.05284C19.8949 1.36863 18.6318 0.105469 16.9476 0.105469ZM18.0002 16.9476C18.0002 17.5792 17.5792 17.8949 17.0528 17.8949H3.05284C2.42126 17.8949 2.10547 17.4739 2.10547 16.9476V3.05284C2.10547 2.42126 2.42126 2.10547 3.05284 2.10547H16.9476C17.5792 2.10547 17.8949 2.52652 17.8949 3.05284V16.9476H18.0002Z" fill="#004D73"/>
</svg>
