<svg width="33" height="22" viewBox="0 0 33 22" fill="none" xmlns="http://www.w3.org/2000/svg">
<path d="M31.9959 11.715C31.6012 11.715 31.2376 11.7213 30.8709 11.7056C30.815 11.7056 30.7311 11.6023 30.7186 11.5365C30.4358 10.0898 29.7801 8.85601 28.6894 7.86648C27.9094 7.15877 26.9958 6.73916 25.964 6.57632C25.6906 6.53248 25.4171 6.5137 25.0908 6.47612C25.4668 7.32787 25.8087 8.14517 25.905 9.09087C25.4357 9.09087 25.0007 9.10026 24.5656 9.08147C24.5066 9.08147 24.4258 8.94682 24.404 8.86227C24.171 7.94789 23.8478 7.07109 23.3319 6.27884C22.1013 4.38119 20.4139 3.13175 18.1951 2.65577C17.2908 2.46162 16.3896 2.45223 15.4697 2.5994C13.5275 2.90942 11.9053 3.77682 10.625 5.28617C10.5691 5.35193 10.5193 5.41769 10.451 5.50537C12.4585 6.05651 13.8631 7.331 14.9476 9.06581C14.8731 9.07834 14.8296 9.09087 14.7861 9.09087C14.4753 9.09087 14.1614 9.06581 13.8538 9.09713C13.5492 9.12844 13.3752 8.99692 13.195 8.77146C12.4958 7.89466 11.6225 7.25585 10.5722 6.87381C7.94626 5.92499 4.99716 6.92078 3.43405 9.20673C2.70998 10.2652 2.31221 11.4394 2.23452 12.7077C2.07293 15.36 3.51795 18.0092 5.95119 19.1271C8.05813 20.0947 10.0843 19.8693 11.9892 18.5572C12.5766 18.1532 13.1017 17.6741 13.4964 17.0635C13.599 16.9069 13.7264 16.8474 13.9159 16.8537C14.2888 16.8693 14.6617 16.8568 15.0937 16.8568C14.7021 17.6052 14.2049 18.2284 13.6891 18.839C14.2049 19.4747 17.2224 19.6375 18.8974 19.1208C21.2001 18.4131 23.9472 15.7389 24.0902 14.0417C24.0031 14.0417 23.9161 14.0417 23.8322 14.0417C21.7688 14.0417 19.7054 14.0417 17.6419 14.0417C17.4327 14.0417 17.327 13.9352 17.3249 13.7223C17.3249 13.4498 17.3249 13.1774 17.3187 12.905C17.3156 12.7609 17.3747 12.6983 17.5145 12.6983C17.7849 12.6983 18.0552 12.6826 18.3256 12.6826C20.8117 12.6826 23.2946 12.6826 25.7807 12.6826C25.8428 12.6826 25.905 12.692 26.0013 12.6983C25.4357 15.2097 24.3294 17.3672 22.2815 18.9925C22.9186 19.3056 23.565 19.5154 24.2486 19.5655C26.5887 19.7409 28.3662 18.7263 29.7397 16.885C30.0878 16.4153 30.3986 15.9205 30.5602 15.3475C30.5788 15.2848 30.6565 15.194 30.7093 15.194C31.104 15.1815 31.4986 15.1878 31.9306 15.1878C31.884 15.3318 31.8529 15.4383 31.8156 15.5416C31.2842 17.0447 30.4638 18.3599 29.2021 19.3432C27.8907 20.3672 26.4177 20.9903 24.7272 20.9308C23.4593 20.887 22.2629 20.5582 21.1628 19.9037C21.0416 19.8317 20.9701 19.8348 20.8458 19.9037C19.9478 20.4016 18.9968 20.7429 17.9713 20.8807C16.3461 21.0968 14.7674 20.9308 13.2416 20.3139C13.0272 20.2262 12.8096 20.1417 12.6139 20.0258C12.4056 19.9006 12.2409 19.9413 12.0452 20.054C11.7562 20.22 11.4547 20.3672 11.1502 20.5018C10.1744 20.9371 9.14579 21.0404 8.09232 20.9872C6.09414 20.8901 4.43469 20.0478 3.09843 18.5885C1.82432 17.1825 1.09404 15.5228 1.01013 13.5939C0.916906 11.43 1.46073 9.4729 2.89954 7.83516C3.95923 6.62643 5.25199 5.74336 6.84307 5.39891C7.37447 5.28304 7.92762 5.24233 8.47455 5.22355C8.76045 5.21415 8.94069 5.13273 9.10539 4.90101C9.9693 3.69541 11.0694 2.75598 12.3652 2.05767C14.0309 1.16208 15.8147 0.842669 17.6948 1.07126C20.3952 1.40006 22.4835 2.7779 24.1306 4.89788C24.2797 5.08889 24.404 5.18284 24.6526 5.16092C25.7248 5.0701 26.7471 5.28304 27.6981 5.77781C29.1773 6.54501 30.3644 7.63162 31.1692 9.11592C31.5763 9.86746 31.8467 10.6691 31.9959 11.5115C32.0052 11.571 31.9959 11.6367 31.9959 11.7213V11.715Z" fill="#004D73" stroke="#004D73" stroke-width="0.5"/>
</svg>
