<svg width="21" height="18" viewBox="0 0 21 18" fill="none" xmlns="http://www.w3.org/2000/svg">
<path d="M0.000180079 8.98102C0.000180013 9.74236 0.606177 10.359 1.35436 10.359L16.2064 10.359L10.7016 15.5816C10.1362 16.0811 10.0787 16.9527 10.5696 17.5246C11.0605 18.0999 11.917 18.1584 12.479 17.6589C12.5027 17.6382 12.5264 17.6141 12.5501 17.59L20.5702 9.9904C21.1187 9.47021 21.1458 8.59863 20.6379 8.04399C20.6176 8.01988 20.5939 7.99921 20.5702 7.97509L12.5501 0.368583C12.0016 -0.151608 11.1451 -0.120604 10.6373 0.434037C10.1295 0.988679 10.1566 1.8637 10.7016 2.38045L16.2064 7.59959L1.35436 7.59959C0.606177 7.59959 0.000180146 8.21624 0.000180079 8.97758L0.000180079 8.98102Z" fill="#00846A"/>
</svg>
