<svg width="30" height="34" viewBox="0 0 30 34" fill="none" xmlns="http://www.w3.org/2000/svg">
<path d="M25.1892 28.7842H5.64681C3.17593 28.7842 1.1543 26.8383 1.1543 24.46V4.5684C1.1543 2.19006 3.17593 0.244141 5.64681 0.244141H25.1892C27.6601 0.244141 29.6818 2.19006 29.6818 4.5684V24.46C29.6818 26.8383 27.6601 28.7842 25.1892 28.7842Z" fill="#0A4A6D"/>
<path d="M8.19434 23.1191H23.2038" stroke="white" stroke-width="2" stroke-linecap="round"/>
<path d="M21.6433 11.439C21.1941 10.8985 20.4079 10.8985 19.8463 11.3309L16.8139 14.2498V6.89852C16.8139 6.79042 16.8139 6.79042 16.8139 6.68231C16.7016 6.14178 16.14 5.70935 15.5784 5.81746C15.0169 5.92556 14.5676 6.4661 14.6799 7.00663V14.3579L11.5352 11.3309C11.4229 11.2228 11.4229 11.1147 11.3105 11.1147C10.749 10.6822 9.96279 10.7904 9.51354 11.3309C9.06428 11.8714 9.1766 12.6282 9.73816 13.0606L14.7922 17.9254C15.0169 18.1416 15.3538 18.2497 15.6907 18.2497C16.0277 18.2497 16.3646 18.1416 16.5892 17.9254L21.6433 13.0606C22.0926 12.6282 22.0926 11.8714 21.6433 11.439Z" fill="white"/>
</svg>
