<svg width="48" height="32" viewBox="0 0 48 32" fill="none" xmlns="http://www.w3.org/2000/svg">
<path d="M40.5187 14.3114C39.7177 10.4396 36.2464 7.6359 32.3746 7.6359C31.3066 7.6359 30.105 7.90292 29.1704 8.30344C27.1678 2.56255 20.7594 -0.374652 15.152 1.62799C10.6127 3.3636 7.67546 7.36888 7.67546 12.0417C7.67546 12.8428 7.80897 13.6438 7.94248 14.3114C3.9372 15.1124 1 18.5836 1 22.5889C1 26.8612 4.73826 31 8.61002 31H12.4818H14.2174L36.6469 30.8665H35.0448L39.5841 30.733C43.8564 30.1989 47.0607 26.8612 47.0607 22.5889C47.0607 18.7172 44.3905 15.3794 40.5187 14.3114ZM38.6496 29.3979L36.7804 29.5314L36.914 29.3979H10.0786V29.5314L8.87704 29.3979C6.60738 29.3979 3.00264 26.3272 3.00264 22.8559C3.00264 19.2512 5.80633 16.4475 9.27757 16.1805C9.54459 16.1805 9.8116 16.047 10.0786 15.78C10.2121 15.5129 10.3456 15.2459 10.2121 14.9789C9.94511 14.0443 9.67809 13.1098 9.8116 12.1752C9.8116 7.10186 13.9504 3.09659 19.0237 3.09659C23.1625 3.09659 26.7673 6.03379 27.8353 10.0391C27.9688 10.3061 28.1024 10.5731 28.3694 10.7066C28.6364 10.8401 28.9034 10.8401 29.1704 10.5731C30.2385 10.0391 31.3066 9.63854 32.5082 9.63854C35.8459 9.63854 38.6496 12.0417 39.0501 15.3794C39.1836 15.78 39.4506 16.1805 39.8512 16.1805C43.4559 16.7145 45.9926 20.0522 45.4585 23.657C44.791 26.9947 41.9873 29.3979 38.6496 29.3979Z" fill="#035877" stroke="#42779A" stroke-width="0.5" stroke-miterlimit="10"/>
<path d="M32.642 17.651H30.7729V14.9809C30.7729 14.4468 30.3724 14.1798 29.9719 14.0463H23.964L22.2283 12.1772L21.9613 11.9102H16.7545H16.621C16.3539 12.0437 16.0869 12.4442 16.0869 12.7112V24.46C16.0869 24.9941 16.4874 25.2611 16.888 25.3946H29.9719C30.2389 25.3946 30.3724 25.2611 30.5059 25.1276L33.4431 19.1196C33.5766 18.8526 33.5766 18.4521 33.4431 18.1851C33.1761 17.7846 32.9091 17.651 32.642 17.651ZM31.307 19.3867L30.7729 20.5883V19.5202H31.307V19.3867ZM29.0373 23.659H17.8225V13.5123H21.2938L22.8959 15.5149C23.0294 15.6484 23.2964 15.7819 23.5634 15.7819H29.1708L29.0373 23.659Z" fill="#035877" stroke="#035877" stroke-width="0.25" stroke-miterlimit="10"/>
</svg>
