<svg width="19" height="23" viewBox="0 0 19 23" fill="none" xmlns="http://www.w3.org/2000/svg">
<path d="M6.84331 12.084C6.52814 11.7695 6.07791 11.7695 5.76274 12.084C5.44758 12.3984 5.44758 12.8477 5.76274 13.1621L8.55421 15.9473C8.59923 15.9922 8.68928 16.082 8.77933 16.082C8.82435 16.082 8.86938 16.127 8.9144 16.127C8.9144 16.127 8.9144 16.127 8.95942 16.127C9.00445 16.127 9.04947 16.127 9.0945 16.127C9.13952 16.127 9.18454 16.127 9.22957 16.127C9.22957 16.127 9.22957 16.127 9.27459 16.127C9.31961 16.127 9.36464 16.127 9.40966 16.082C9.49971 16.0371 9.58976 15.9922 9.63478 15.9473L12.4262 13.1621C12.5613 13.0273 12.6514 12.8477 12.6514 12.623C12.6514 12.4434 12.5613 12.2188 12.4262 12.084C12.1111 11.7695 11.6608 11.7695 11.3457 12.084L9.81487 13.6113V8.40039C9.81487 7.99609 9.45468 7.63672 9.04947 7.63672C8.64426 7.63672 8.28407 7.99609 8.28407 8.40039V13.5664L6.84331 12.084Z" fill="#42779A"/>
<path d="M4.14258 18.1934C4.14258 18.5977 4.50277 18.957 4.90798 18.957H13.2824C13.6876 18.957 14.0478 18.5977 14.0478 18.1934C14.0478 17.7891 13.6876 17.4297 13.2824 17.4297H4.90798C4.50277 17.4297 4.14258 17.7891 4.14258 18.1934Z" fill="#42779A"/>
<path d="M16.4336 0H6.30332C5.67299 0 5.08768 0.224609 4.63744 0.673828L0.675355 4.62695C0.225119 5.07617 0 5.66016 0 6.28906V20.6191C0 21.6074 0.810426 22.416 1.84597 22.416H16.4336C17.4692 22.416 18.2796 21.6074 18.2796 20.6191V1.75195C18.2796 0.808594 17.4242 0 16.4336 0ZM6.30332 1.48242H16.4336C16.6137 1.48242 16.7938 1.61719 16.7938 1.79688V20.6641C16.7938 20.8438 16.6588 20.9785 16.4336 20.9785H1.80095C1.62085 20.9785 1.44076 20.8438 1.44076 20.6641V6.28906C1.44076 6.06445 1.53081 5.83984 1.7109 5.70508L5.67299 1.75195C5.85308 1.57227 6.0782 1.48242 6.30332 1.48242Z" fill="#42779A"/>
<path d="M2.83669 7.09766H5.26797C6.25849 7.09766 7.06892 6.28906 7.06892 5.30078V2.83008C7.06892 2.42578 6.70873 2.06641 6.30352 2.06641C5.8983 2.06641 5.58314 2.42578 5.58314 2.83008V5.25586C5.58314 5.43555 5.44807 5.57031 5.26797 5.57031H2.83669C2.43148 5.57031 2.07129 5.92969 2.07129 6.33398C2.07129 6.73828 2.38645 7.09766 2.83669 7.09766Z" fill="#42779A"/>
</svg>
