<svg width="20" height="24" viewBox="0 0 20 24" fill="none" xmlns="http://www.w3.org/2000/svg">
<path d="M16.8421 0H2.94737C1.26316 0 0 1.52909 0 3.56787V20.3878C0 22.4266 1.26316 23.9557 2.94737 23.9557H16.8421C18.5263 23.9557 19.7895 22.4266 19.7895 20.3878V3.56787C19.7895 1.52909 18.5263 0 16.8421 0ZM17.8947 20.3878C17.8947 21.1524 17.4737 21.5346 16.9474 21.5346H2.94737C2.31579 21.5346 2 21.0249 2 20.3878V3.56787C2 2.80332 2.31579 2.42105 2.94737 2.42105H16.8421C17.4737 2.42105 17.7895 2.93075 17.7895 3.56787V20.3878H17.8947Z" fill="white"/>
<path d="M10.6819 15.3365H8.84589C8.84589 15.0031 8.84589 14.7808 8.84589 14.7808C8.84589 14.114 8.93769 13.4472 9.1213 13.0027C9.3049 12.4471 9.67211 12.0026 10.3147 11.3358C10.8656 10.7801 11.2328 10.3356 11.3246 10.2245C11.5082 9.8911 11.6 9.66884 11.6 9.33545C11.6 8.89093 11.4164 8.44641 11.141 8.11302C10.8655 7.77963 10.4065 7.55737 9.85572 7.55737C9.3049 7.55737 8.93769 7.77963 8.57048 8.11302C8.20327 8.44641 8.01966 9.00206 7.83606 9.77997L6 9.55771C6.0918 8.55754 6.45901 7.6685 7.10163 6.89059C7.74425 6.11269 8.66228 5.7793 9.76392 5.7793C10.9574 5.7793 11.8754 6.11269 12.518 6.89059C13.1606 7.6685 13.5278 8.44641 13.5278 9.44658C13.5278 10.0022 13.436 10.4467 13.1606 11.0024C12.8852 11.4469 12.3344 12.1137 11.5082 13.0027C11.0492 13.4472 10.7737 13.7806 10.6819 14.0029C10.6819 14.114 10.6819 14.6697 10.6819 15.3365ZM8.84589 18.5592V16.1144H10.8655V18.5592H8.84589Z" fill="white"/>
</svg>
