<svg width="94" height="94" viewBox="0 0 94 94" fill="none" xmlns="http://www.w3.org/2000/svg">
<g filter="url(#filter0_d_4083_40129)">
<path d="M46.675 81.35C68.0346 81.35 85.35 64.0346 85.35 42.675C85.35 21.3154 68.0346 4 46.675 4C25.3154 4 8 21.3154 8 42.675C8 64.0346 25.3154 81.35 46.675 81.35Z" fill="white"/>
</g>
<path d="M46.6775 78.1714C66.2829 78.1714 82.1763 62.2781 82.1763 42.6726C82.1763 23.0672 66.2829 7.17383 46.6775 7.17383C27.0721 7.17383 11.1787 23.0672 11.1787 42.6726C11.1787 62.2781 27.0721 78.1714 46.6775 78.1714Z" fill="#10A075"/>
<mask id="mask0_4083_40129" style="mask-type:luminance" maskUnits="userSpaceOnUse" x="11" y="7" width="72" height="72">
<path d="M46.6853 78.1695C66.2908 78.1695 82.1841 62.2761 82.1841 42.6707C82.1841 23.0652 66.2908 7.17188 46.6853 7.17188C27.0799 7.17188 11.1865 23.0652 11.1865 42.6707C11.1865 62.2761 27.0799 78.1695 46.6853 78.1695Z" fill="white"/>
</mask>
<g mask="url(#mask0_4083_40129)">
<path d="M14.3604 62.291L37.4346 80.7878L18.8444 84.4311L14.3604 62.291Z" fill="#10A075"/>
</g>
<mask id="mask1_4083_40129" style="mask-type:luminance" maskUnits="userSpaceOnUse" x="11" y="7" width="72" height="72">
<path d="M46.6853 78.1695C66.2908 78.1695 82.1841 62.2761 82.1841 42.6707C82.1841 23.0652 66.2908 7.17188 46.6853 7.17188C27.0799 7.17188 11.1865 23.0652 11.1865 42.6707C11.1865 62.2761 27.0799 78.1695 46.6853 78.1695Z" fill="white"/>
</mask>
<g mask="url(#mask1_4083_40129)">
<path d="M14.2686 61.7305L37.9033 80.6943L37.4362 80.7877L14.362 62.291L14.2686 61.7305Z" fill="#10A075"/>
</g>
<mask id="mask2_4083_40129" style="mask-type:luminance" maskUnits="userSpaceOnUse" x="11" y="7" width="72" height="72">
<path d="M46.6853 78.1695C66.2908 78.1695 82.1841 62.2761 82.1841 42.6707C82.1841 23.0652 66.2908 7.17188 46.6853 7.17188C27.0799 7.17188 11.1865 23.0652 11.1865 42.6707C11.1865 62.2761 27.0799 78.1695 46.6853 78.1695Z" fill="white"/>
</mask>
<g mask="url(#mask2_4083_40129)">
<path d="M14.1719 61.1699L38.3671 80.6008L37.9 80.6943L14.2653 61.7304L14.1719 61.1699Z" fill="#10A075"/>
</g>
<mask id="mask3_4083_40129" style="mask-type:luminance" maskUnits="userSpaceOnUse" x="11" y="7" width="72" height="72">
<path d="M46.6853 78.1695C66.2908 78.1695 82.1841 62.2761 82.1841 42.6707C82.1841 23.0652 66.2908 7.17188 46.6853 7.17188C27.0799 7.17188 11.1865 23.0652 11.1865 42.6707C11.1865 62.2761 27.0799 78.1695 46.6853 78.1695Z" fill="white"/>
</mask>
<g mask="url(#mask3_4083_40129)">
<path d="M14.0801 60.6074L38.8358 80.5054L38.3687 80.5988L14.1735 61.1679L14.0801 60.6074Z" fill="#10A075"/>
</g>
<mask id="mask4_4083_40129" style="mask-type:luminance" maskUnits="userSpaceOnUse" x="11" y="7" width="72" height="72">
<path d="M46.6853 78.1695C66.2908 78.1695 82.1841 62.2761 82.1841 42.6707C82.1841 23.0652 66.2908 7.17188 46.6853 7.17188C27.0799 7.17188 11.1865 23.0652 11.1865 42.6707C11.1865 62.2761 27.0799 78.1695 46.6853 78.1695Z" fill="white"/>
</mask>
<g mask="url(#mask4_4083_40129)">
<path d="M13.9873 60.0469L39.3036 80.412L38.8365 80.5054L14.0807 60.6074L13.9873 60.0469Z" fill="#10A075"/>
</g>
<mask id="mask5_4083_40129" style="mask-type:luminance" maskUnits="userSpaceOnUse" x="11" y="7" width="72" height="72">
<path d="M46.6853 78.1695C66.2908 78.1695 82.1841 62.2761 82.1841 42.6707C82.1841 23.0652 66.2908 7.17188 46.6853 7.17188C27.0799 7.17188 11.1865 23.0652 11.1865 42.6707C11.1865 62.2761 27.0799 78.1695 46.6853 78.1695Z" fill="white"/>
</mask>
<g mask="url(#mask5_4083_40129)">
<path d="M13.7988 59.582L39.769 80.3208L39.3019 80.4142L13.9857 60.0491L13.7988 59.582Z" fill="#10A075"/>
</g>
<mask id="mask6_4083_40129" style="mask-type:luminance" maskUnits="userSpaceOnUse" x="11" y="7" width="72" height="72">
<path d="M46.6853 78.1695C66.2908 78.1695 82.1841 62.2761 82.1841 42.6707C82.1841 23.0652 66.2908 7.17188 46.6853 7.17188C27.0799 7.17188 11.1865 23.0652 11.1865 42.6707C11.1865 62.2761 27.0799 78.1695 46.6853 78.1695Z" fill="white"/>
</mask>
<g mask="url(#mask6_4083_40129)">
<path d="M13.7041 59.0215L40.2348 80.2273L39.7677 80.3208L13.7975 59.582L13.7041 59.0215Z" fill="#10A075"/>
</g>
<mask id="mask7_4083_40129" style="mask-type:luminance" maskUnits="userSpaceOnUse" x="11" y="7" width="72" height="72">
<path d="M46.6853 78.1695C66.2908 78.1695 82.1841 62.2761 82.1841 42.6707C82.1841 23.0652 66.2908 7.17188 46.6853 7.17188C27.0799 7.17188 11.1865 23.0652 11.1865 42.6707C11.1865 62.2761 27.0799 78.1695 46.6853 78.1695Z" fill="white"/>
</mask>
<g mask="url(#mask7_4083_40129)">
<path d="M13.6104 58.4609L40.7015 80.1339L40.2344 80.2273L13.7038 59.0214L13.6104 58.4609Z" fill="#10A075"/>
</g>
<mask id="mask8_4083_40129" style="mask-type:luminance" maskUnits="userSpaceOnUse" x="11" y="7" width="72" height="72">
<path d="M46.6853 78.1695C66.2908 78.1695 82.1841 62.2761 82.1841 42.6707C82.1841 23.0652 66.2908 7.17188 46.6853 7.17188C27.0799 7.17188 11.1865 23.0652 11.1865 42.6707C11.1865 62.2761 27.0799 78.1695 46.6853 78.1695Z" fill="white"/>
</mask>
<g mask="url(#mask8_4083_40129)">
<path d="M13.5195 57.9004L41.1712 80.0404L40.7041 80.1338L13.6129 58.4609L13.5195 57.9004Z" fill="#10A075"/>
</g>
<mask id="mask9_4083_40129" style="mask-type:luminance" maskUnits="userSpaceOnUse" x="11" y="7" width="72" height="72">
<path d="M46.6853 78.1695C66.2908 78.1695 82.1841 62.2761 82.1841 42.6707C82.1841 23.0652 66.2908 7.17188 46.6853 7.17188C27.0799 7.17188 11.1865 23.0652 11.1865 42.6707C11.1865 62.2761 27.0799 78.1695 46.6853 78.1695Z" fill="white"/>
</mask>
<g mask="url(#mask9_4083_40129)">
<path d="M13.4268 57.3379L41.639 79.945L41.1719 80.0384L13.5202 57.8984L13.4268 57.3379Z" fill="#10A075"/>
</g>
<mask id="mask10_4083_40129" style="mask-type:luminance" maskUnits="userSpaceOnUse" x="11" y="7" width="72" height="72">
<path d="M46.6853 78.1695C66.2908 78.1695 82.1841 62.2761 82.1841 42.6707C82.1841 23.0652 66.2908 7.17188 46.6853 7.17188C27.0799 7.17188 11.1865 23.0652 11.1865 42.6707C11.1865 62.2761 27.0799 78.1695 46.6853 78.1695Z" fill="white"/>
</mask>
<g mask="url(#mask10_4083_40129)">
<path d="M13.2383 56.7793L42.1044 79.8535L41.6373 79.9469L13.4251 57.3398L13.2383 56.7793Z" fill="#10A075"/>
</g>
<mask id="mask11_4083_40129" style="mask-type:luminance" maskUnits="userSpaceOnUse" x="11" y="7" width="72" height="72">
<path d="M46.6853 78.1695C66.2908 78.1695 82.1841 62.2761 82.1841 42.6707C82.1841 23.0652 66.2908 7.17188 46.6853 7.17188C27.0799 7.17188 11.1865 23.0652 11.1865 42.6707C11.1865 62.2761 27.0799 78.1695 46.6853 78.1695Z" fill="white"/>
</mask>
<g mask="url(#mask11_4083_40129)">
<path d="M13.1455 56.2168L42.5721 79.7581L42.1051 79.8515L13.2389 56.7773L13.1455 56.2168Z" fill="#10A075"/>
</g>
<mask id="mask12_4083_40129" style="mask-type:luminance" maskUnits="userSpaceOnUse" x="11" y="7" width="72" height="72">
<path d="M46.6853 78.1695C66.2908 78.1695 82.1841 62.2761 82.1841 42.6707C82.1841 23.0652 66.2908 7.17188 46.6853 7.17188C27.0799 7.17188 11.1865 23.0652 11.1865 42.6707C11.1865 62.2761 27.0799 78.1695 46.6853 78.1695Z" fill="white"/>
</mask>
<g mask="url(#mask12_4083_40129)">
<path d="M13.0507 55.6562L43.0378 79.6646L42.5707 79.7581L13.1441 56.2168L13.0507 55.6562Z" fill="#10A075"/>
</g>
<mask id="mask13_4083_40129" style="mask-type:luminance" maskUnits="userSpaceOnUse" x="11" y="7" width="72" height="72">
<path d="M46.6853 78.1695C66.2908 78.1695 82.1841 62.2761 82.1841 42.6707C82.1841 23.0652 66.2908 7.17188 46.6853 7.17188C27.0799 7.17188 11.1865 23.0652 11.1865 42.6707C11.1865 62.2761 27.0799 78.1695 46.6853 78.1695Z" fill="white"/>
</mask>
<g mask="url(#mask13_4083_40129)">
<path d="M12.957 55.0957L43.5047 79.5712L43.0376 79.6646L13.0504 55.6562L12.957 55.0957Z" fill="#10A075"/>
</g>
<mask id="mask14_4083_40129" style="mask-type:luminance" maskUnits="userSpaceOnUse" x="11" y="7" width="72" height="72">
<path d="M46.6853 78.1695C66.2908 78.1695 82.1841 62.2761 82.1841 42.6707C82.1841 23.0652 66.2908 7.17188 46.6853 7.17188C27.0799 7.17188 11.1865 23.0652 11.1865 42.6707C11.1865 62.2761 27.0799 78.1695 46.6853 78.1695Z" fill="white"/>
</mask>
<g mask="url(#mask14_4083_40129)">
<path d="M12.8662 54.5352L43.9744 79.4777L43.5073 79.5711L12.9596 55.0957L12.8662 54.5352Z" fill="#10A075"/>
</g>
<mask id="mask15_4083_40129" style="mask-type:luminance" maskUnits="userSpaceOnUse" x="11" y="7" width="72" height="72">
<path d="M46.6853 78.1695C66.2908 78.1695 82.1841 62.2761 82.1841 42.6707C82.1841 23.0652 66.2908 7.17188 46.6853 7.17188C27.0799 7.17188 11.1865 23.0652 11.1865 42.6707C11.1865 62.2761 27.0799 78.1695 46.6853 78.1695Z" fill="white"/>
</mask>
<g mask="url(#mask15_4083_40129)">
<path d="M12.7705 53.9766L44.4392 79.3862L43.9721 79.4796L12.8639 54.5371L12.7705 53.9766Z" fill="#10A075"/>
</g>
<mask id="mask16_4083_40129" style="mask-type:luminance" maskUnits="userSpaceOnUse" x="11" y="7" width="72" height="72">
<path d="M46.6853 78.1695C66.2908 78.1695 82.1841 62.2761 82.1841 42.6707C82.1841 23.0652 66.2908 7.17188 46.6853 7.17188C27.0799 7.17188 11.1865 23.0652 11.1865 42.6707C11.1865 62.2761 27.0799 78.1695 46.6853 78.1695Z" fill="white"/>
</mask>
<g mask="url(#mask16_4083_40129)">
<path d="M12.585 53.416L44.8141 79.2928L44.4405 79.3862L12.7718 53.9765L12.585 53.416Z" fill="#10A075"/>
</g>
<mask id="mask17_4083_40129" style="mask-type:luminance" maskUnits="userSpaceOnUse" x="11" y="7" width="72" height="72">
<path d="M46.6853 78.1695C66.2908 78.1695 82.1841 62.2761 82.1841 42.6707C82.1841 23.0652 66.2908 7.17188 46.6853 7.17188C27.0799 7.17188 11.1865 23.0652 11.1865 42.6707C11.1865 62.2761 27.0799 78.1695 46.6853 78.1695Z" fill="white"/>
</mask>
<g mask="url(#mask17_4083_40129)">
<path d="M12.4932 52.8555L45.2828 79.1993L44.8157 79.2927L12.5866 53.416L12.4932 52.8555Z" fill="#10A075"/>
</g>
<mask id="mask18_4083_40129" style="mask-type:luminance" maskUnits="userSpaceOnUse" x="11" y="7" width="72" height="72">
<path d="M46.6853 78.1695C66.2908 78.1695 82.1841 62.2761 82.1841 42.6707C82.1841 23.0652 66.2908 7.17188 46.6853 7.17188C27.0799 7.17188 11.1865 23.0652 11.1865 42.6707C11.1865 62.2761 27.0799 78.1695 46.6853 78.1695Z" fill="white"/>
</mask>
<g mask="url(#mask18_4083_40129)">
<path d="M12.4004 52.2949L45.7506 79.1058L45.2835 79.1993L12.4938 52.8554L12.4004 52.2949Z" fill="#10A075"/>
</g>
<mask id="mask19_4083_40129" style="mask-type:luminance" maskUnits="userSpaceOnUse" x="11" y="7" width="72" height="72">
<path d="M46.6853 78.1695C66.2908 78.1695 82.1841 62.2761 82.1841 42.6707C82.1841 23.0652 66.2908 7.17188 46.6853 7.17188C27.0799 7.17188 11.1865 23.0652 11.1865 42.6707C11.1865 62.2761 27.0799 78.1695 46.6853 78.1695Z" fill="white"/>
</mask>
<g mask="url(#mask19_4083_40129)">
<path d="M12.3047 51.7324L46.2154 79.0104L45.7483 79.1039L12.3981 52.2929L12.3047 51.7324Z" fill="#10A075"/>
</g>
<mask id="mask20_4083_40129" style="mask-type:luminance" maskUnits="userSpaceOnUse" x="11" y="7" width="72" height="72">
<path d="M46.6853 78.1695C66.2908 78.1695 82.1841 62.2761 82.1841 42.6707C82.1841 23.0652 66.2908 7.17188 46.6853 7.17188C27.0799 7.17188 11.1865 23.0652 11.1865 42.6707C11.1865 62.2761 27.0799 78.1695 46.6853 78.1695Z" fill="white"/>
</mask>
<g mask="url(#mask20_4083_40129)">
<path d="M12.209 51.2656L46.6802 78.9173L46.2131 79.0107L12.3024 51.7327L12.209 51.2656Z" fill="#10A075"/>
</g>
<mask id="mask21_4083_40129" style="mask-type:luminance" maskUnits="userSpaceOnUse" x="11" y="7" width="72" height="72">
<path d="M46.6853 78.1695C66.2908 78.1695 82.1841 62.2761 82.1841 42.6707C82.1841 23.0652 66.2908 7.17188 46.6853 7.17188C27.0799 7.17188 11.1865 23.0652 11.1865 42.6707C11.1865 62.2761 27.0799 78.1695 46.6853 78.1695Z" fill="white"/>
</mask>
<g mask="url(#mask21_4083_40129)">
<path d="M12.0244 50.7051L47.1495 78.8239L46.6824 78.9173L12.2113 51.2656L12.0244 50.7051Z" fill="#10A075"/>
</g>
<mask id="mask22_4083_40129" style="mask-type:luminance" maskUnits="userSpaceOnUse" x="11" y="7" width="72" height="72">
<path d="M46.6853 78.1695C66.2908 78.1695 82.1841 62.2761 82.1841 42.6707C82.1841 23.0652 66.2908 7.17188 46.6853 7.17188C27.0799 7.17188 11.1865 23.0652 11.1865 42.6707C11.1865 62.2761 27.0799 78.1695 46.6853 78.1695Z" fill="white"/>
</mask>
<g mask="url(#mask22_4083_40129)">
<path d="M11.9326 50.1465L47.6182 78.7324L47.1512 78.8258L12.026 50.707L11.9326 50.1465Z" fill="#10A075"/>
</g>
<mask id="mask23_4083_40129" style="mask-type:luminance" maskUnits="userSpaceOnUse" x="11" y="7" width="72" height="72">
<path d="M46.6853 78.1695C66.2908 78.1695 82.1841 62.2761 82.1841 42.6707C82.1841 23.0652 66.2908 7.17188 46.6853 7.17188C27.0799 7.17188 11.1865 23.0652 11.1865 42.6707C11.1865 62.2761 27.0799 78.1695 46.6853 78.1695Z" fill="white"/>
</mask>
<g mask="url(#mask23_4083_40129)">
<path d="M11.8362 49.5859L48.0823 78.6389L47.6152 78.7323L11.9296 50.1464L11.8362 49.5859Z" fill="#10A075"/>
</g>
<mask id="mask24_4083_40129" style="mask-type:luminance" maskUnits="userSpaceOnUse" x="11" y="7" width="72" height="72">
<path d="M46.6853 78.1695C66.2908 78.1695 82.1841 62.2761 82.1841 42.6707C82.1841 23.0652 66.2908 7.17188 46.6853 7.17188C27.0799 7.17188 11.1865 23.0652 11.1865 42.6707C11.1865 62.2761 27.0799 78.1695 46.6853 78.1695Z" fill="white"/>
</mask>
<g mask="url(#mask24_4083_40129)">
<path d="M11.7441 49.0254L48.5508 78.5454L48.0837 78.6389L11.8376 49.5859L11.7441 49.0254Z" fill="#10A075"/>
</g>
<mask id="mask25_4083_40129" style="mask-type:luminance" maskUnits="userSpaceOnUse" x="11" y="7" width="72" height="72">
<path d="M46.6853 78.1695C66.2908 78.1695 82.1841 62.2761 82.1841 42.6707C82.1841 23.0652 66.2908 7.17188 46.6853 7.17188C27.0799 7.17188 11.1865 23.0652 11.1865 42.6707C11.1865 62.2761 27.0799 78.1695 46.6853 78.1695Z" fill="white"/>
</mask>
<g mask="url(#mask25_4083_40129)">
<path d="M11.6514 48.4648L49.0185 78.452L48.5514 78.5454L11.7448 49.0253L11.6514 48.4648Z" fill="#10A075"/>
</g>
<mask id="mask26_4083_40129" style="mask-type:luminance" maskUnits="userSpaceOnUse" x="11" y="7" width="72" height="72">
<path d="M46.6853 78.1695C66.2908 78.1695 82.1841 62.2761 82.1841 42.6707C82.1841 23.0652 66.2908 7.17188 46.6853 7.17188C27.0799 7.17188 11.1865 23.0652 11.1865 42.6707C11.1865 62.2761 27.0799 78.1695 46.6853 78.1695Z" fill="white"/>
</mask>
<g mask="url(#mask26_4083_40129)">
<path d="M11.5596 47.9043L49.4872 78.3585L49.0201 78.4519L11.653 48.4648L11.5596 47.9043Z" fill="#10A075"/>
</g>
<mask id="mask27_4083_40129" style="mask-type:luminance" maskUnits="userSpaceOnUse" x="11" y="7" width="72" height="72">
<path d="M46.6853 78.1695C66.2908 78.1695 82.1841 62.2761 82.1841 42.6707C82.1841 23.0652 66.2908 7.17188 46.6853 7.17188C27.0799 7.17188 11.1865 23.0652 11.1865 42.6707C11.1865 62.2761 27.0799 78.1695 46.6853 78.1695Z" fill="white"/>
</mask>
<g mask="url(#mask27_4083_40129)">
<path d="M11.3682 47.3418L49.9497 78.2631L49.4827 78.3565L11.555 47.9023L11.3682 47.3418Z" fill="#10A075"/>
</g>
<mask id="mask28_4083_40129" style="mask-type:luminance" maskUnits="userSpaceOnUse" x="11" y="7" width="72" height="72">
<path d="M46.6853 78.1695C66.2908 78.1695 82.1841 62.2761 82.1841 42.6707C82.1841 23.0652 66.2908 7.17188 46.6853 7.17188C27.0799 7.17188 11.1865 23.0652 11.1865 42.6707C11.1865 62.2761 27.0799 78.1695 46.6853 78.1695Z" fill="white"/>
</mask>
<g mask="url(#mask28_4083_40129)">
<path d="M11.2754 46.7812L50.4175 78.1697L49.9504 78.2631L11.3688 47.3418L11.2754 46.7812Z" fill="#10A075"/>
</g>
<mask id="mask29_4083_40129" style="mask-type:luminance" maskUnits="userSpaceOnUse" x="11" y="7" width="72" height="72">
<path d="M46.6853 78.1695C66.2908 78.1695 82.1841 62.2761 82.1841 42.6707C82.1841 23.0652 66.2908 7.17188 46.6853 7.17188C27.0799 7.17188 11.1865 23.0652 11.1865 42.6707C11.1865 62.2761 27.0799 78.1695 46.6853 78.1695Z" fill="white"/>
</mask>
<g mask="url(#mask29_4083_40129)">
<path d="M11.1836 46.2207L50.8862 78.0762L50.4191 78.1696L11.277 46.7812L11.1836 46.2207Z" fill="#10A075"/>
</g>
<mask id="mask30_4083_40129" style="mask-type:luminance" maskUnits="userSpaceOnUse" x="11" y="7" width="72" height="72">
<path d="M46.6853 78.1695C66.2908 78.1695 82.1841 62.2761 82.1841 42.6707C82.1841 23.0652 66.2908 7.17188 46.6853 7.17188C27.0799 7.17188 11.1865 23.0652 11.1865 42.6707C11.1865 62.2761 27.0799 78.1695 46.6853 78.1695Z" fill="white"/>
</mask>
<g mask="url(#mask30_4083_40129)">
<path d="M11.0908 45.6602L51.3539 77.9827L50.8868 78.0762L11.1842 46.2207L11.0908 45.6602Z" fill="#10A075"/>
</g>
<mask id="mask31_4083_40129" style="mask-type:luminance" maskUnits="userSpaceOnUse" x="11" y="7" width="72" height="72">
<path d="M46.6853 78.1695C66.2908 78.1695 82.1841 62.2761 82.1841 42.6707C82.1841 23.0652 66.2908 7.17188 46.6853 7.17188C27.0799 7.17188 11.1865 23.0652 11.1865 42.6707C11.1865 62.2761 27.0799 78.1695 46.6853 78.1695Z" fill="white"/>
</mask>
<g mask="url(#mask31_4083_40129)">
<path d="M10.998 45.1016L51.8217 77.8912L51.3546 77.9847L11.0915 45.6621L10.998 45.1016Z" fill="#10A075"/>
</g>
<mask id="mask32_4083_40129" style="mask-type:luminance" maskUnits="userSpaceOnUse" x="11" y="7" width="72" height="72">
<path d="M46.6853 78.1695C66.2908 78.1695 82.1841 62.2761 82.1841 42.6707C82.1841 23.0652 66.2908 7.17188 46.6853 7.17188C27.0799 7.17188 11.1865 23.0652 11.1865 42.6707C11.1865 62.2761 27.0799 78.1695 46.6853 78.1695Z" fill="white"/>
</mask>
<g mask="url(#mask32_4083_40129)">
<path d="M10.8105 44.541L52.2881 77.7978L51.821 77.8912L10.9974 45.1015L10.8105 44.541Z" fill="#10A075"/>
</g>
<mask id="mask33_4083_40129" style="mask-type:luminance" maskUnits="userSpaceOnUse" x="11" y="7" width="72" height="72">
<path d="M46.6853 78.1695C66.2908 78.1695 82.1841 62.2761 82.1841 42.6707C82.1841 23.0652 66.2908 7.17188 46.6853 7.17188C27.0799 7.17188 11.1865 23.0652 11.1865 42.6707C11.1865 62.2761 27.0799 78.1695 46.6853 78.1695Z" fill="white"/>
</mask>
<g mask="url(#mask33_4083_40129)">
<path d="M10.7178 43.9805L52.7559 77.7043L52.2888 77.7977L10.8113 44.541L10.7178 43.9805Z" fill="#10A075"/>
</g>
<mask id="mask34_4083_40129" style="mask-type:luminance" maskUnits="userSpaceOnUse" x="11" y="7" width="72" height="72">
<path d="M46.6853 78.1695C66.2908 78.1695 82.1841 62.2761 82.1841 42.6707C82.1841 23.0652 66.2908 7.17188 46.6853 7.17188C27.0799 7.17188 11.1865 23.0652 11.1865 42.6707C11.1865 62.2761 27.0799 78.1695 46.6853 78.1695Z" fill="white"/>
</mask>
<g mask="url(#mask34_4083_40129)">
<path d="M10.623 43.5117L53.2216 77.6092L52.7545 77.7027L10.7165 43.9788L10.623 43.5117Z" fill="#10A075"/>
</g>
<mask id="mask35_4083_40129" style="mask-type:luminance" maskUnits="userSpaceOnUse" x="11" y="7" width="72" height="72">
<path d="M46.6853 78.1695C66.2908 78.1695 82.1841 62.2761 82.1841 42.6707C82.1841 23.0652 66.2908 7.17188 46.6853 7.17188C27.0799 7.17188 11.1865 23.0652 11.1865 42.6707C11.1865 62.2761 27.0799 78.1695 46.6853 78.1695Z" fill="white"/>
</mask>
<g mask="url(#mask35_4083_40129)">
<path d="M10.5295 42.9512L53.6885 77.5158L53.2215 77.6092L10.6229 43.5117L10.5295 42.9512Z" fill="#10A075"/>
</g>
<mask id="mask36_4083_40129" style="mask-type:luminance" maskUnits="userSpaceOnUse" x="11" y="7" width="72" height="72">
<path d="M46.6853 78.1695C66.2908 78.1695 82.1841 62.2761 82.1841 42.6707C82.1841 23.0652 66.2908 7.17188 46.6853 7.17188C27.0799 7.17188 11.1865 23.0652 11.1865 42.6707C11.1865 62.2761 27.0799 78.1695 46.6853 78.1695Z" fill="white"/>
</mask>
<g mask="url(#mask36_4083_40129)">
<path d="M10.4346 42.3906L54.1541 77.4223L53.6871 77.5157L10.528 42.9511L10.4346 42.3906Z" fill="#10A075"/>
</g>
<mask id="mask37_4083_40129" style="mask-type:luminance" maskUnits="userSpaceOnUse" x="11" y="7" width="72" height="72">
<path d="M46.6853 78.1695C66.2908 78.1695 82.1841 62.2761 82.1841 42.6707C82.1841 23.0652 66.2908 7.17188 46.6853 7.17188C27.0799 7.17188 11.1865 23.0652 11.1865 42.6707C11.1865 62.2761 27.0799 78.1695 46.6853 78.1695Z" fill="white"/>
</mask>
<g mask="url(#mask37_4083_40129)">
<path d="M10.249 41.8301L54.6225 77.3289L54.1554 77.4223L10.4359 42.3906L10.249 41.8301Z" fill="#10A075"/>
</g>
<mask id="mask38_4083_40129" style="mask-type:luminance" maskUnits="userSpaceOnUse" x="11" y="7" width="72" height="72">
<path d="M46.6853 78.1695C66.2908 78.1695 82.1841 62.2761 82.1841 42.6707C82.1841 23.0652 66.2908 7.17188 46.6853 7.17188C27.0799 7.17188 11.1865 23.0652 11.1865 42.6707C11.1865 62.2761 27.0799 78.1695 46.6853 78.1695Z" fill="white"/>
</mask>
<g mask="url(#mask38_4083_40129)">
<path d="M10.1562 41.2695L55.0902 77.2354L54.6232 77.3288L10.2497 41.83L10.1562 41.2695Z" fill="#10A075"/>
</g>
<mask id="mask39_4083_40129" style="mask-type:luminance" maskUnits="userSpaceOnUse" x="11" y="7" width="72" height="72">
<path d="M46.6853 78.1695C66.2908 78.1695 82.1841 62.2761 82.1841 42.6707C82.1841 23.0652 66.2908 7.17188 46.6853 7.17188C27.0799 7.17188 11.1865 23.0652 11.1865 42.6707C11.1865 62.2761 27.0799 78.1695 46.6853 78.1695Z" fill="white"/>
</mask>
<g mask="url(#mask39_4083_40129)">
<path d="M10.0645 40.7109L55.559 77.1439L55.0919 77.2373L10.1579 41.2714L10.0645 40.7109Z" fill="#10A075"/>
</g>
<mask id="mask40_4083_40129" style="mask-type:luminance" maskUnits="userSpaceOnUse" x="11" y="7" width="72" height="72">
<path d="M46.6853 78.1695C66.2908 78.1695 82.1841 62.2761 82.1841 42.6707C82.1841 23.0652 66.2908 7.17188 46.6853 7.17188C27.0799 7.17188 11.1865 23.0652 11.1865 42.6707C11.1865 62.2761 27.0799 78.1695 46.6853 78.1695Z" fill="white"/>
</mask>
<g mask="url(#mask40_4083_40129)">
<path d="M9.96973 40.1504L56.0247 77.0505L55.5577 77.1439L10.0631 40.7109L9.96973 40.1504Z" fill="#10A075"/>
</g>
<mask id="mask41_4083_40129" style="mask-type:luminance" maskUnits="userSpaceOnUse" x="11" y="7" width="72" height="72">
<path d="M46.6853 78.1695C66.2908 78.1695 82.1841 62.2761 82.1841 42.6707C82.1841 23.0652 66.2908 7.17188 46.6853 7.17188C27.0799 7.17188 11.1865 23.0652 11.1865 42.6707C11.1865 62.2761 27.0799 78.1695 46.6853 78.1695Z" fill="white"/>
</mask>
<g mask="url(#mask41_4083_40129)">
<path d="M9.87305 39.5898L56.4886 76.957L56.0215 77.0504L9.96646 40.1503L9.87305 39.5898Z" fill="#10A075"/>
</g>
<mask id="mask42_4083_40129" style="mask-type:luminance" maskUnits="userSpaceOnUse" x="11" y="7" width="72" height="72">
<path d="M46.6853 78.1695C66.2908 78.1695 82.1841 62.2761 82.1841 42.6707C82.1841 23.0652 66.2908 7.17188 46.6853 7.17188C27.0799 7.17188 11.1865 23.0652 11.1865 42.6707C11.1865 62.2761 27.0799 78.1695 46.6853 78.1695Z" fill="white"/>
</mask>
<g mask="url(#mask42_4083_40129)">
<path d="M9.78125 39.0273L56.9573 76.8616L56.4902 76.955L9.87467 39.5879L9.78125 39.0273Z" fill="#10A075"/>
</g>
<mask id="mask43_4083_40129" style="mask-type:luminance" maskUnits="userSpaceOnUse" x="11" y="7" width="72" height="72">
<path d="M46.6853 78.1695C66.2908 78.1695 82.1841 62.2761 82.1841 42.6707C82.1841 23.0652 66.2908 7.17188 46.6853 7.17188C27.0799 7.17188 11.1865 23.0652 11.1865 42.6707C11.1865 62.2761 27.0799 78.1695 46.6853 78.1695Z" fill="white"/>
</mask>
<g mask="url(#mask43_4083_40129)">
<path d="M9.59668 38.4688L57.4266 76.7701L56.9595 76.8635L9.78352 39.0293L9.59668 38.4688Z" fill="#10A075"/>
</g>
<mask id="mask44_4083_40129" style="mask-type:luminance" maskUnits="userSpaceOnUse" x="11" y="7" width="72" height="72">
<path d="M46.6853 78.1695C66.2908 78.1695 82.1841 62.2761 82.1841 42.6707C82.1841 23.0652 66.2908 7.17188 46.6853 7.17188C27.0799 7.17188 11.1865 23.0652 11.1865 42.6707C11.1865 62.2761 27.0799 78.1695 46.6853 78.1695Z" fill="white"/>
</mask>
<g mask="url(#mask44_4083_40129)">
<path d="M9.5 37.9062L57.8905 76.6747L57.4234 76.7681L9.59342 38.4668L9.5 37.9062Z" fill="#10A075"/>
</g>
<mask id="mask45_4083_40129" style="mask-type:luminance" maskUnits="userSpaceOnUse" x="11" y="7" width="72" height="72">
<path d="M46.6853 78.1695C66.2908 78.1695 82.1841 62.2761 82.1841 42.6707C82.1841 23.0652 66.2908 7.17188 46.6853 7.17188C27.0799 7.17188 11.1865 23.0652 11.1865 42.6707C11.1865 62.2761 27.0799 78.1695 46.6853 78.1695Z" fill="white"/>
</mask>
<g mask="url(#mask45_4083_40129)">
<path d="M9.4082 37.3477L58.3592 76.5832L57.8921 76.6766L9.50162 37.9082L9.4082 37.3477Z" fill="#10A075"/>
</g>
<mask id="mask46_4083_40129" style="mask-type:luminance" maskUnits="userSpaceOnUse" x="11" y="7" width="72" height="72">
<path d="M46.6853 78.1695C66.2908 78.1695 82.1841 62.2761 82.1841 42.6707C82.1841 23.0652 66.2908 7.17188 46.6853 7.17188C27.0799 7.17188 11.1865 23.0652 11.1865 42.6707C11.1865 62.2761 27.0799 78.1695 46.6853 78.1695Z" fill="white"/>
</mask>
<g mask="url(#mask46_4083_40129)">
<path d="M9.31641 36.7871L58.8279 76.4897L58.3608 76.5831L9.40982 37.3476L9.31641 36.7871Z" fill="#10A075"/>
</g>
<mask id="mask47_4083_40129" style="mask-type:luminance" maskUnits="userSpaceOnUse" x="11" y="7" width="72" height="72">
<path d="M46.6853 78.1695C66.2908 78.1695 82.1841 62.2761 82.1841 42.6707C82.1841 23.0652 66.2908 7.17188 46.6853 7.17188C27.0799 7.17188 11.1865 23.0652 11.1865 42.6707C11.1865 62.2761 27.0799 78.1695 46.6853 78.1695Z" fill="white"/>
</mask>
<g mask="url(#mask47_4083_40129)">
<path d="M9.22363 36.2246L59.2956 76.3943L58.8285 76.4877L9.31705 36.7851L9.22363 36.2246Z" fill="#10A075"/>
</g>
<mask id="mask48_4083_40129" style="mask-type:luminance" maskUnits="userSpaceOnUse" x="11" y="7" width="72" height="72">
<path d="M46.6853 78.1695C66.2908 78.1695 82.1841 62.2761 82.1841 42.6707C82.1841 23.0652 66.2908 7.17188 46.6853 7.17188C27.0799 7.17188 11.1865 23.0652 11.1865 42.6707C11.1865 62.2761 27.0799 78.1695 46.6853 78.1695Z" fill="white"/>
</mask>
<g mask="url(#mask48_4083_40129)">
<path d="M9.0332 35.6641L59.7591 76.3008L59.292 76.3943L9.22004 36.2246L9.0332 35.6641Z" fill="#10A075"/>
</g>
<mask id="mask49_4083_40129" style="mask-type:luminance" maskUnits="userSpaceOnUse" x="11" y="7" width="72" height="72">
<path d="M46.6853 78.1695C66.2908 78.1695 82.1841 62.2761 82.1841 42.6707C82.1841 23.0652 66.2908 7.17188 46.6853 7.17188C27.0799 7.17188 11.1865 23.0652 11.1865 42.6707C11.1865 62.2761 27.0799 78.1695 46.6853 78.1695Z" fill="white"/>
</mask>
<g mask="url(#mask49_4083_40129)">
<path d="M8.93927 35.1973L60.2257 76.2077L59.7586 76.3011L9.03269 35.6644L8.93927 35.1973Z" fill="#10A075"/>
</g>
<mask id="mask50_4083_40129" style="mask-type:luminance" maskUnits="userSpaceOnUse" x="11" y="7" width="72" height="72">
<path d="M46.6853 78.1695C66.2908 78.1695 82.1841 62.2761 82.1841 42.6707C82.1841 23.0652 66.2908 7.17188 46.6853 7.17188C27.0799 7.17188 11.1865 23.0652 11.1865 42.6707C11.1865 62.2761 27.0799 78.1695 46.6853 78.1695Z" fill="white"/>
</mask>
<g mask="url(#mask50_4083_40129)">
<path d="M8.84668 34.6387L60.6936 76.1162L60.2265 76.2096L8.9401 35.1992L8.84668 34.6387Z" fill="#10A075"/>
</g>
<mask id="mask51_4083_40129" style="mask-type:luminance" maskUnits="userSpaceOnUse" x="11" y="7" width="72" height="72">
<path d="M46.6853 78.1695C66.2908 78.1695 82.1841 62.2761 82.1841 42.6707C82.1841 23.0652 66.2908 7.17188 46.6853 7.17188C27.0799 7.17188 11.1865 23.0652 11.1865 42.6707C11.1865 62.2761 27.0799 78.1695 46.6853 78.1695Z" fill="white"/>
</mask>
<g mask="url(#mask51_4083_40129)">
<path d="M8.75482 34.0781L61.1623 76.0228L60.6952 76.1162L8.84824 34.6386L8.75482 34.0781Z" fill="#10A075"/>
</g>
<mask id="mask52_4083_40129" style="mask-type:luminance" maskUnits="userSpaceOnUse" x="11" y="7" width="72" height="72">
<path d="M46.6853 78.1695C66.2908 78.1695 82.1841 62.2761 82.1841 42.6707C82.1841 23.0652 66.2908 7.17188 46.6853 7.17188C27.0799 7.17188 11.1865 23.0652 11.1865 42.6707C11.1865 62.2761 27.0799 78.1695 46.6853 78.1695Z" fill="white"/>
</mask>
<g mask="url(#mask52_4083_40129)">
<path d="M8.66309 33.5176L61.631 75.9293L61.1639 76.0227L8.7565 34.0781L8.66309 33.5176Z" fill="#10A075"/>
</g>
<mask id="mask53_4083_40129" style="mask-type:luminance" maskUnits="userSpaceOnUse" x="11" y="7" width="72" height="72">
<path d="M46.6853 78.1695C66.2908 78.1695 82.1841 62.2761 82.1841 42.6707C82.1841 23.0652 66.2908 7.17188 46.6853 7.17188C27.0799 7.17188 11.1865 23.0652 11.1865 42.6707C11.1865 62.2761 27.0799 78.1695 46.6853 78.1695Z" fill="white"/>
</mask>
<g mask="url(#mask53_4083_40129)">
<path d="M8.47461 32.9551L62.0965 75.8339L61.6294 75.9273L8.66145 33.5156L8.47461 32.9551Z" fill="#10A075"/>
</g>
<mask id="mask54_4083_40129" style="mask-type:luminance" maskUnits="userSpaceOnUse" x="11" y="7" width="72" height="72">
<path d="M46.6853 78.1695C66.2908 78.1695 82.1841 62.2761 82.1841 42.6707C82.1841 23.0652 66.2908 7.17188 46.6853 7.17188C27.0799 7.17188 11.1865 23.0652 11.1865 42.6707C11.1865 62.2761 27.0799 78.1695 46.6853 78.1695Z" fill="white"/>
</mask>
<g mask="url(#mask54_4083_40129)">
<path d="M8.38184 32.3965L62.5642 75.7424L62.0971 75.8358L8.47525 32.957L8.38184 32.3965Z" fill="#10A075"/>
</g>
<mask id="mask55_4083_40129" style="mask-type:luminance" maskUnits="userSpaceOnUse" x="11" y="7" width="72" height="72">
<path d="M46.6853 78.1695C66.2908 78.1695 82.1841 62.2761 82.1841 42.6707C82.1841 23.0652 66.2908 7.17188 46.6853 7.17188C27.0799 7.17188 11.1865 23.0652 11.1865 42.6707C11.1865 62.2761 27.0799 78.1695 46.6853 78.1695Z" fill="white"/>
</mask>
<g mask="url(#mask55_4083_40129)">
<path d="M8.28711 31.834L63.03 75.647L62.5629 75.7404L8.38053 32.3945L8.28711 31.834Z" fill="#10A075"/>
</g>
<mask id="mask56_4083_40129" style="mask-type:luminance" maskUnits="userSpaceOnUse" x="11" y="7" width="72" height="72">
<path d="M46.6853 78.1695C66.2908 78.1695 82.1841 62.2761 82.1841 42.6707C82.1841 23.0652 66.2908 7.17188 46.6853 7.17188C27.0799 7.17188 11.1865 23.0652 11.1865 42.6707C11.1865 62.2761 27.0799 78.1695 46.6853 78.1695Z" fill="white"/>
</mask>
<g mask="url(#mask56_4083_40129)">
<path d="M8.19336 31.2754L63.4967 75.5555L63.0297 75.6489L8.28678 31.8359L8.19336 31.2754Z" fill="#10A075"/>
</g>
<mask id="mask57_4083_40129" style="mask-type:luminance" maskUnits="userSpaceOnUse" x="11" y="7" width="72" height="72">
<path d="M46.6853 78.1695C66.2908 78.1695 82.1841 62.2761 82.1841 42.6707C82.1841 23.0652 66.2908 7.17188 46.6853 7.17188C27.0799 7.17188 11.1865 23.0652 11.1865 42.6707C11.1865 62.2761 27.0799 78.1695 46.6853 78.1695Z" fill="white"/>
</mask>
<g mask="url(#mask57_4083_40129)">
<path d="M8.09863 30.7148L63.9625 75.462L63.4954 75.5554L8.19205 31.2754L8.09863 30.7148Z" fill="#10A075"/>
</g>
<mask id="mask58_4083_40129" style="mask-type:luminance" maskUnits="userSpaceOnUse" x="11" y="7" width="72" height="72">
<path d="M46.6853 78.1695C66.2908 78.1695 82.1841 62.2761 82.1841 42.6707C82.1841 23.0652 66.2908 7.17188 46.6853 7.17188C27.0799 7.17188 11.1865 23.0652 11.1865 42.6707C11.1865 62.2761 27.0799 78.1695 46.6853 78.1695Z" fill="white"/>
</mask>
<g mask="url(#mask58_4083_40129)">
<path d="M8.00586 30.1543L64.4303 75.3685L63.9632 75.462L8.09928 30.7148L8.00586 30.1543Z" fill="#10A075"/>
</g>
<mask id="mask59_4083_40129" style="mask-type:luminance" maskUnits="userSpaceOnUse" x="11" y="7" width="72" height="72">
<path d="M46.6853 78.1695C66.2908 78.1695 82.1841 62.2761 82.1841 42.6707C82.1841 23.0652 66.2908 7.17188 46.6853 7.17188C27.0799 7.17188 11.1865 23.0652 11.1865 42.6707C11.1865 62.2761 27.0799 78.1695 46.6853 78.1695Z" fill="white"/>
</mask>
<g mask="url(#mask59_4083_40129)">
<path d="M7.82129 29.5938L64.8062 75.2751L64.4325 75.3685L8.00812 30.1543L7.82129 29.5938Z" fill="#10A075"/>
</g>
<mask id="mask60_4083_40129" style="mask-type:luminance" maskUnits="userSpaceOnUse" x="11" y="7" width="72" height="72">
<path d="M46.6853 78.1695C66.2908 78.1695 82.1841 62.2761 82.1841 42.6707C82.1841 23.0652 66.2908 7.17188 46.6853 7.17188C27.0799 7.17188 11.1865 23.0652 11.1865 42.6707C11.1865 62.2761 27.0799 78.1695 46.6853 78.1695Z" fill="white"/>
</mask>
<g mask="url(#mask60_4083_40129)">
<path d="M7.72852 29.0332L65.2739 75.1816L64.8068 75.2751L7.82193 29.5937L7.72852 29.0332Z" fill="#10A075"/>
</g>
<mask id="mask61_4083_40129" style="mask-type:luminance" maskUnits="userSpaceOnUse" x="11" y="7" width="72" height="72">
<path d="M46.6853 78.1695C66.2908 78.1695 82.1841 62.2761 82.1841 42.6707C82.1841 23.0652 66.2908 7.17188 46.6853 7.17188C27.0799 7.17188 11.1865 23.0652 11.1865 42.6707C11.1865 62.2761 27.0799 78.1695 46.6853 78.1695Z" fill="white"/>
</mask>
<g mask="url(#mask61_4083_40129)">
<path d="M7.63354 28.4727L65.7395 75.0882L65.2724 75.1816L7.72696 29.0332L7.63354 28.4727Z" fill="#10A075"/>
</g>
<mask id="mask62_4083_40129" style="mask-type:luminance" maskUnits="userSpaceOnUse" x="11" y="7" width="72" height="72">
<path d="M46.6853 78.1695C66.2908 78.1695 82.1841 62.2761 82.1841 42.6707C82.1841 23.0652 66.2908 7.17188 46.6853 7.17188C27.0799 7.17188 11.1865 23.0652 11.1865 42.6707C11.1865 62.2761 27.0799 78.1695 46.6853 78.1695Z" fill="white"/>
</mask>
<g mask="url(#mask62_4083_40129)">
<path d="M7.54004 27.9121L66.2065 74.9947L65.7394 75.0881L7.63346 28.4726L7.54004 27.9121Z" fill="#10A075"/>
</g>
<mask id="mask63_4083_40129" style="mask-type:luminance" maskUnits="userSpaceOnUse" x="11" y="7" width="72" height="72">
<path d="M46.6853 78.1695C66.2908 78.1695 82.1841 62.2761 82.1841 42.6707C82.1841 23.0652 66.2908 7.17188 46.6853 7.17188C27.0799 7.17188 11.1865 23.0652 11.1865 42.6707C11.1865 62.2761 27.0799 78.1695 46.6853 78.1695Z" fill="white"/>
</mask>
<g mask="url(#mask63_4083_40129)">
<path d="M7.44531 27.4473L66.6722 74.9035L66.2052 74.997L7.53873 27.9144L7.44531 27.4473Z" fill="#10A075"/>
</g>
<mask id="mask64_4083_40129" style="mask-type:luminance" maskUnits="userSpaceOnUse" x="11" y="7" width="72" height="72">
<path d="M46.6853 78.1695C66.2908 78.1695 82.1841 62.2761 82.1841 42.6707C82.1841 23.0652 66.2908 7.17188 46.6853 7.17188C27.0799 7.17188 11.1865 23.0652 11.1865 42.6707C11.1865 62.2761 27.0799 78.1695 46.6853 78.1695Z" fill="white"/>
</mask>
<g mask="url(#mask64_4083_40129)">
<path d="M7.26074 26.8848L67.1416 74.8081L66.6745 74.9016L7.44758 27.4453L7.26074 26.8848Z" fill="#10A075"/>
</g>
<mask id="mask65_4083_40129" style="mask-type:luminance" maskUnits="userSpaceOnUse" x="11" y="7" width="72" height="72">
<path d="M46.6853 78.1695C66.2908 78.1695 82.1841 62.2761 82.1841 42.6707C82.1841 23.0652 66.2908 7.17188 46.6853 7.17188C27.0799 7.17188 11.1865 23.0652 11.1865 42.6707C11.1865 62.2761 27.0799 78.1695 46.6853 78.1695Z" fill="white"/>
</mask>
<g mask="url(#mask65_4083_40129)">
<path d="M7.16504 26.3242L67.6064 74.7147L67.1393 74.8081L7.25846 26.8847L7.16504 26.3242Z" fill="#10A075"/>
</g>
<mask id="mask66_4083_40129" style="mask-type:luminance" maskUnits="userSpaceOnUse" x="11" y="7" width="72" height="72">
<path d="M46.6853 78.1695C66.2908 78.1695 82.1841 62.2761 82.1841 42.6707C82.1841 23.0652 66.2908 7.17188 46.6853 7.17188C27.0799 7.17188 11.1865 23.0652 11.1865 42.6707C11.1865 62.2761 27.0799 78.1695 46.6853 78.1695Z" fill="white"/>
</mask>
<g mask="url(#mask66_4083_40129)">
<path d="M7.07227 25.7637L68.0741 74.6212L67.607 74.7146L7.16568 26.3242L7.07227 25.7637Z" fill="#10A075"/>
</g>
<mask id="mask67_4083_40129" style="mask-type:luminance" maskUnits="userSpaceOnUse" x="11" y="7" width="72" height="72">
<path d="M46.6853 78.1695C66.2908 78.1695 82.1841 62.2761 82.1841 42.6707C82.1841 23.0652 66.2908 7.17188 46.6853 7.17188C27.0799 7.17188 11.1865 23.0652 11.1865 42.6707C11.1865 62.2761 27.0799 78.1695 46.6853 78.1695Z" fill="white"/>
</mask>
<g mask="url(#mask67_4083_40129)">
<path d="M6.97949 25.2031L68.5419 74.5278L68.0748 74.6212L7.07291 25.7636L6.97949 25.2031Z" fill="#10A075"/>
</g>
<mask id="mask68_4083_40129" style="mask-type:luminance" maskUnits="userSpaceOnUse" x="11" y="7" width="72" height="72">
<path d="M46.6853 78.1695C66.2908 78.1695 82.1841 62.2761 82.1841 42.6707C82.1841 23.0652 66.2908 7.17188 46.6853 7.17188C27.0799 7.17188 11.1865 23.0652 11.1865 42.6707C11.1865 62.2761 27.0799 78.1695 46.6853 78.1695Z" fill="white"/>
</mask>
<g mask="url(#mask68_4083_40129)">
<path d="M6.8877 24.6426L69.0106 74.4343L68.5435 74.5277L6.98111 25.2031L6.8877 24.6426Z" fill="#10A075"/>
</g>
<mask id="mask69_4083_40129" style="mask-type:luminance" maskUnits="userSpaceOnUse" x="11" y="7" width="72" height="72">
<path d="M46.6853 78.1695C66.2908 78.1695 82.1841 62.2761 82.1841 42.6707C82.1841 23.0652 66.2908 7.17188 46.6853 7.17188C27.0799 7.17188 11.1865 23.0652 11.1865 42.6707C11.1865 62.2761 27.0799 78.1695 46.6853 78.1695Z" fill="white"/>
</mask>
<g mask="url(#mask69_4083_40129)">
<path d="M6.79492 24.082L69.4783 74.3408L69.0112 74.4343L6.88834 24.6425L6.79492 24.082Z" fill="#10A075"/>
</g>
<mask id="mask70_4083_40129" style="mask-type:luminance" maskUnits="userSpaceOnUse" x="11" y="7" width="72" height="72">
<path d="M46.6853 78.1695C66.2908 78.1695 82.1841 62.2761 82.1841 42.6707C82.1841 23.0652 66.2908 7.17188 46.6853 7.17188C27.0799 7.17188 11.1865 23.0652 11.1865 42.6707C11.1865 62.2761 27.0799 78.1695 46.6853 78.1695Z" fill="white"/>
</mask>
<g mask="url(#mask70_4083_40129)">
<path d="M6.60352 23.5215L69.9408 74.2474L69.4737 74.3408L6.79035 24.082L6.60352 23.5215Z" fill="#10A075"/>
</g>
<mask id="mask71_4083_40129" style="mask-type:luminance" maskUnits="userSpaceOnUse" x="11" y="7" width="72" height="72">
<path d="M46.6853 78.1695C66.2908 78.1695 82.1841 62.2761 82.1841 42.6707C82.1841 23.0652 66.2908 7.17188 46.6853 7.17188C27.0799 7.17188 11.1865 23.0652 11.1865 42.6707C11.1865 62.2761 27.0799 78.1695 46.6853 78.1695Z" fill="white"/>
</mask>
<g mask="url(#mask71_4083_40129)">
<path d="M6.51172 22.959L70.4095 74.152L69.9424 74.2454L6.60514 23.5195L6.51172 22.959Z" fill="#10A075"/>
</g>
<mask id="mask72_4083_40129" style="mask-type:luminance" maskUnits="userSpaceOnUse" x="11" y="7" width="72" height="72">
<path d="M46.6853 78.1695C66.2908 78.1695 82.1841 62.2761 82.1841 42.6707C82.1841 23.0652 66.2908 7.17188 46.6853 7.17188C27.0799 7.17188 11.1865 23.0652 11.1865 42.6707C11.1865 62.2761 27.0799 78.1695 46.6853 78.1695Z" fill="white"/>
</mask>
<g mask="url(#mask72_4083_40129)">
<path d="M6.41895 22.3984L70.8773 74.0585L70.4102 74.1519L6.51236 22.9589L6.41895 22.3984Z" fill="#10A075"/>
</g>
<mask id="mask73_4083_40129" style="mask-type:luminance" maskUnits="userSpaceOnUse" x="11" y="7" width="72" height="72">
<path d="M46.6853 78.1695C66.2908 78.1695 82.1841 62.2761 82.1841 42.6707C82.1841 23.0652 66.2908 7.17188 46.6853 7.17188C27.0799 7.17188 11.1865 23.0652 11.1865 42.6707C11.1865 62.2761 27.0799 78.1695 46.6853 78.1695Z" fill="white"/>
</mask>
<g mask="url(#mask73_4083_40129)">
<path d="M6.32715 21.8418L71.346 73.969L70.8789 74.0624L6.42057 22.4023L6.32715 21.8418Z" fill="#10A075"/>
</g>
<mask id="mask74_4083_40129" style="mask-type:luminance" maskUnits="userSpaceOnUse" x="11" y="7" width="72" height="72">
<path d="M46.6853 78.1695C66.2908 78.1695 82.1841 62.2761 82.1841 42.6707C82.1841 23.0652 66.2908 7.17188 46.6853 7.17188C27.0799 7.17188 11.1865 23.0652 11.1865 42.6707C11.1865 62.2761 27.0799 78.1695 46.6853 78.1695Z" fill="white"/>
</mask>
<g mask="url(#mask74_4083_40129)">
<path d="M6.23047 21.2793L71.8098 73.8736L71.3427 73.967L6.32389 21.8398L6.23047 21.2793Z" fill="#10A075"/>
</g>
<mask id="mask75_4083_40129" style="mask-type:luminance" maskUnits="userSpaceOnUse" x="11" y="7" width="72" height="72">
<path d="M46.6853 78.1695C66.2908 78.1695 82.1841 62.2761 82.1841 42.6707C82.1841 23.0652 66.2908 7.17188 46.6853 7.17188C27.0799 7.17188 11.1865 23.0652 11.1865 42.6707C11.1865 62.2761 27.0799 78.1695 46.6853 78.1695Z" fill="white"/>
</mask>
<g mask="url(#mask75_4083_40129)">
<path d="M6.0459 20.7188L72.2792 73.7801L71.8121 73.8735L6.23273 21.2793L6.0459 20.7188Z" fill="#10A075"/>
</g>
<mask id="mask76_4083_40129" style="mask-type:luminance" maskUnits="userSpaceOnUse" x="11" y="7" width="72" height="72">
<path d="M46.6853 78.1695C66.2908 78.1695 82.1841 62.2761 82.1841 42.6707C82.1841 23.0652 66.2908 7.17188 46.6853 7.17188C27.0799 7.17188 11.1865 23.0652 11.1865 42.6707C11.1865 62.2761 27.0799 78.1695 46.6853 78.1695Z" fill="white"/>
</mask>
<g mask="url(#mask76_4083_40129)">
<path d="M6.0459 20.3434V20.25L72.7463 73.685L72.2792 73.7784L6.0459 20.7171V20.3434Z" fill="#10A075"/>
</g>
<mask id="mask77_4083_40129" style="mask-type:luminance" maskUnits="userSpaceOnUse" x="11" y="7" width="72" height="72">
<path d="M46.6853 78.1695C66.2908 78.1695 82.1841 62.2761 82.1841 42.6707C82.1841 23.0652 66.2908 7.17188 46.6853 7.17188C27.0799 7.17188 11.1865 23.0652 11.1865 42.6707C11.1865 62.2761 27.0799 78.1695 46.6853 78.1695Z" fill="white"/>
</mask>
<g mask="url(#mask77_4083_40129)">
<path d="M6.0459 20.251L6.32615 19.9707L73.2133 73.5926L72.7463 73.686L6.0459 20.251Z" fill="#10A075"/>
</g>
<mask id="mask78_4083_40129" style="mask-type:luminance" maskUnits="userSpaceOnUse" x="11" y="7" width="72" height="72">
<path d="M46.6853 78.1695C66.2908 78.1695 82.1841 62.2761 82.1841 42.6707C82.1841 23.0652 66.2908 7.17188 46.6853 7.17188C27.0799 7.17188 11.1865 23.0652 11.1865 42.6707C11.1865 62.2761 27.0799 78.1695 46.6853 78.1695Z" fill="white"/>
</mask>
<g mask="url(#mask78_4083_40129)">
<path d="M6.32715 19.9717L6.51398 19.6914L73.6814 73.5001L73.2143 73.5935L6.32715 19.9717Z" fill="#10A075"/>
</g>
<mask id="mask79_4083_40129" style="mask-type:luminance" maskUnits="userSpaceOnUse" x="11" y="7" width="72" height="72">
<path d="M46.6853 78.1695C66.2908 78.1695 82.1841 62.2761 82.1841 42.6707C82.1841 23.0652 66.2908 7.17188 46.6853 7.17188C27.0799 7.17188 11.1865 23.0652 11.1865 42.6707C11.1865 62.2761 27.0799 78.1695 46.6853 78.1695Z" fill="white"/>
</mask>
<g mask="url(#mask79_4083_40129)">
<path d="M6.51172 19.6904L6.79197 19.4102L74.1463 73.4057L73.6792 73.4991L6.51172 19.6904Z" fill="#10A075"/>
</g>
<mask id="mask80_4083_40129" style="mask-type:luminance" maskUnits="userSpaceOnUse" x="11" y="7" width="72" height="72">
<path d="M46.6853 78.1695C66.2908 78.1695 82.1841 62.2761 82.1841 42.6707C82.1841 23.0652 66.2908 7.17188 46.6853 7.17188C27.0799 7.17188 11.1865 23.0652 11.1865 42.6707C11.1865 62.2761 27.0799 78.1695 46.6853 78.1695Z" fill="white"/>
</mask>
<g mask="url(#mask80_4083_40129)">
<path d="M6.79492 19.4092L6.98176 19.1289L74.6163 73.3113L74.1492 73.4047L6.79492 19.4092Z" fill="#10A075"/>
</g>
<mask id="mask81_4083_40129" style="mask-type:luminance" maskUnits="userSpaceOnUse" x="11" y="7" width="72" height="72">
<path d="M46.6853 78.1695C66.2908 78.1695 82.1841 62.2761 82.1841 42.6707C82.1841 23.0652 66.2908 7.17188 46.6853 7.17188C27.0799 7.17188 11.1865 23.0652 11.1865 42.6707C11.1865 62.2761 27.0799 78.1695 46.6853 78.1695Z" fill="white"/>
</mask>
<g mask="url(#mask81_4083_40129)">
<path d="M6.97949 19.1318L7.16633 18.8516L75.0811 73.2208L74.614 73.3142L6.97949 19.1318Z" fill="#10A075"/>
</g>
<mask id="mask82_4083_40129" style="mask-type:luminance" maskUnits="userSpaceOnUse" x="11" y="7" width="72" height="72">
<path d="M46.6853 78.1695C66.2908 78.1695 82.1841 62.2761 82.1841 42.6707C82.1841 23.0652 66.2908 7.17188 46.6853 7.17188C27.0799 7.17188 11.1865 23.0652 11.1865 42.6707C11.1865 62.2761 27.0799 78.1695 46.6853 78.1695Z" fill="white"/>
</mask>
<g mask="url(#mask82_4083_40129)">
<path d="M7.16504 18.8525L7.44529 18.5723L75.5469 73.1283L75.0798 73.2217L7.16504 18.8525Z" fill="#10A075"/>
</g>
<mask id="mask83_4083_40129" style="mask-type:luminance" maskUnits="userSpaceOnUse" x="11" y="7" width="72" height="72">
<path d="M46.6853 78.1695C66.2908 78.1695 82.1841 62.2761 82.1841 42.6707C82.1841 23.0652 66.2908 7.17188 46.6853 7.17188C27.0799 7.17188 11.1865 23.0652 11.1865 42.6707C11.1865 62.2761 27.0799 78.1695 46.6853 78.1695Z" fill="white"/>
</mask>
<g mask="url(#mask83_4083_40129)">
<path d="M7.44519 18.5713L7.63203 18.291L76.0139 73.0339L75.5468 73.1273L7.44519 18.5713Z" fill="#10A075"/>
</g>
<mask id="mask84_4083_40129" style="mask-type:luminance" maskUnits="userSpaceOnUse" x="11" y="7" width="72" height="72">
<path d="M46.6853 78.1695C66.2908 78.1695 82.1841 62.2761 82.1841 42.6707C82.1841 23.0652 66.2908 7.17188 46.6853 7.17188C27.0799 7.17188 11.1865 23.0652 11.1865 42.6707C11.1865 62.2761 27.0799 78.1695 46.6853 78.1695Z" fill="white"/>
</mask>
<g mask="url(#mask84_4083_40129)">
<path d="M7.63379 18.29L7.91404 18.0098L76.4828 72.9395L76.0157 73.0329L7.63379 18.29Z" fill="#10A075"/>
</g>
<mask id="mask85_4083_40129" style="mask-type:luminance" maskUnits="userSpaceOnUse" x="11" y="7" width="72" height="72">
<path d="M46.6853 78.1695C66.2908 78.1695 82.1841 62.2761 82.1841 42.6707C82.1841 23.0652 66.2908 7.17188 46.6853 7.17188C27.0799 7.17188 11.1865 23.0652 11.1865 42.6707C11.1865 62.2761 27.0799 78.1695 46.6853 78.1695Z" fill="white"/>
</mask>
<g mask="url(#mask85_4083_40129)">
<path d="M7.91412 18.0107L8.10096 17.7305L76.9499 72.847L76.4828 72.9404L7.91412 18.0107Z" fill="#10A075"/>
</g>
<mask id="mask86_4083_40129" style="mask-type:luminance" maskUnits="userSpaceOnUse" x="11" y="7" width="72" height="72">
<path d="M46.6853 78.1695C66.2908 78.1695 82.1841 62.2761 82.1841 42.6707C82.1841 23.0652 66.2908 7.17188 46.6853 7.17188C27.0799 7.17188 11.1865 23.0652 11.1865 42.6707C11.1865 62.2761 27.0799 78.1695 46.6853 78.1695Z" fill="white"/>
</mask>
<g mask="url(#mask86_4083_40129)">
<path d="M8.09863 17.7295L8.37889 17.4492L77.4147 72.7526L76.9476 72.846L8.09863 17.7295Z" fill="#10A075"/>
</g>
<mask id="mask87_4083_40129" style="mask-type:luminance" maskUnits="userSpaceOnUse" x="11" y="7" width="72" height="72">
<path d="M46.6853 78.1695C66.2908 78.1695 82.1841 62.2761 82.1841 42.6707C82.1841 23.0652 66.2908 7.17188 46.6853 7.17188C27.0799 7.17188 11.1865 23.0652 11.1865 42.6707C11.1865 62.2761 27.0799 78.1695 46.6853 78.1695Z" fill="white"/>
</mask>
<g mask="url(#mask87_4083_40129)">
<path d="M8.38184 17.4502L8.56867 17.1699L77.8847 72.6601L77.4176 72.7536L8.38184 17.4502Z" fill="#10A075"/>
</g>
<mask id="mask88_4083_40129" style="mask-type:luminance" maskUnits="userSpaceOnUse" x="11" y="7" width="72" height="72">
<path d="M46.6853 78.1695C66.2908 78.1695 82.1841 62.2761 82.1841 42.6707C82.1841 23.0652 66.2908 7.17188 46.6853 7.17188C27.0799 7.17188 11.1865 23.0652 11.1865 42.6707C11.1865 62.2761 27.0799 78.1695 46.6853 78.1695Z" fill="white"/>
</mask>
<g mask="url(#mask88_4083_40129)">
<path d="M8.56641 17.1689L8.75324 16.8887L78.3496 72.5657L77.8825 72.6591L8.56641 17.1689Z" fill="#10A075"/>
</g>
<mask id="mask89_4083_40129" style="mask-type:luminance" maskUnits="userSpaceOnUse" x="11" y="7" width="72" height="72">
<path d="M46.6853 78.1695C66.2908 78.1695 82.1841 62.2761 82.1841 42.6707C82.1841 23.0652 66.2908 7.17188 46.6853 7.17188C27.0799 7.17188 11.1865 23.0652 11.1865 42.6707C11.1865 62.2761 27.0799 78.1695 46.6853 78.1695Z" fill="white"/>
</mask>
<g mask="url(#mask89_4083_40129)">
<path d="M8.75488 16.8896L9.03514 16.6094L78.8183 72.4733L78.3512 72.5667L8.75488 16.8896Z" fill="#10A075"/>
</g>
<mask id="mask90_4083_40129" style="mask-type:luminance" maskUnits="userSpaceOnUse" x="11" y="7" width="72" height="72">
<path d="M46.6853 78.1695C66.2908 78.1695 82.1841 62.2761 82.1841 42.6707C82.1841 23.0652 66.2908 7.17188 46.6853 7.17188C27.0799 7.17188 11.1865 23.0652 11.1865 42.6707C11.1865 62.2761 27.0799 78.1695 46.6853 78.1695Z" fill="white"/>
</mask>
<g mask="url(#mask90_4083_40129)">
<path d="M9.0332 16.6084L9.22004 16.3281L79.2834 72.3789L78.8164 72.4723L9.0332 16.6084Z" fill="#10A075"/>
</g>
<mask id="mask91_4083_40129" style="mask-type:luminance" maskUnits="userSpaceOnUse" x="11" y="7" width="72" height="72">
<path d="M46.6853 78.1695C66.2908 78.1695 82.1841 62.2761 82.1841 42.6707C82.1841 23.0652 66.2908 7.17188 46.6853 7.17188C27.0799 7.17188 11.1865 23.0652 11.1865 42.6707C11.1865 62.2761 27.0799 78.1695 46.6853 78.1695Z" fill="white"/>
</mask>
<g mask="url(#mask91_4083_40129)">
<path d="M9.22363 16.3291L9.50389 16.0488L79.7541 72.2864L79.287 72.3798L9.22363 16.3291Z" fill="#10A075"/>
</g>
<mask id="mask92_4083_40129" style="mask-type:luminance" maskUnits="userSpaceOnUse" x="11" y="7" width="72" height="72">
<path d="M46.6853 78.1695C66.2908 78.1695 82.1841 62.2761 82.1841 42.6707C82.1841 23.0652 66.2908 7.17188 46.6853 7.17188C27.0799 7.17188 11.1865 23.0652 11.1865 42.6707C11.1865 62.2761 27.0799 78.1695 46.6853 78.1695Z" fill="white"/>
</mask>
<g mask="url(#mask92_4083_40129)">
<path d="M9.5 16.0478L9.68684 15.7676L80.2173 72.192L79.7502 72.2854L9.5 16.0478Z" fill="#10A075"/>
</g>
<mask id="mask93_4083_40129" style="mask-type:luminance" maskUnits="userSpaceOnUse" x="11" y="7" width="72" height="72">
<path d="M46.6853 78.1695C66.2908 78.1695 82.1841 62.2761 82.1841 42.6707C82.1841 23.0652 66.2908 7.17188 46.6853 7.17188C27.0799 7.17188 11.1865 23.0652 11.1865 42.6707C11.1865 62.2761 27.0799 78.1695 46.6853 78.1695Z" fill="white"/>
</mask>
<g mask="url(#mask93_4083_40129)">
<path d="M9.6875 15.7666L9.96775 15.4863L80.6851 72.0976L80.218 72.191L9.6875 15.7666Z" fill="#10A075"/>
</g>
<mask id="mask94_4083_40129" style="mask-type:luminance" maskUnits="userSpaceOnUse" x="11" y="7" width="72" height="72">
<path d="M46.6853 78.1695C66.2908 78.1695 82.1841 62.2761 82.1841 42.6707C82.1841 23.0652 66.2908 7.17188 46.6853 7.17188C27.0799 7.17188 11.1865 23.0652 11.1865 42.6707C11.1865 62.2761 27.0799 78.1695 46.6853 78.1695Z" fill="white"/>
</mask>
<g mask="url(#mask94_4083_40129)">
<path d="M9.96973 15.4873L10.1566 15.207L81.1541 72.0051L80.6871 72.0985L9.96973 15.4873Z" fill="#10A075"/>
</g>
<mask id="mask95_4083_40129" style="mask-type:luminance" maskUnits="userSpaceOnUse" x="11" y="7" width="72" height="72">
<path d="M46.6853 78.1695C66.2908 78.1695 82.1841 62.2761 82.1841 42.6707C82.1841 23.0652 66.2908 7.17188 46.6853 7.17188C27.0799 7.17188 11.1865 23.0652 11.1865 42.6707C11.1865 62.2761 27.0799 78.1695 46.6853 78.1695Z" fill="white"/>
</mask>
<g mask="url(#mask95_4083_40129)">
<path d="M10.1562 15.206L10.3431 14.9258L81.6209 71.9107L81.1538 72.0041L10.1562 15.206Z" fill="#10A075"/>
</g>
<mask id="mask96_4083_40129" style="mask-type:luminance" maskUnits="userSpaceOnUse" x="11" y="7" width="72" height="72">
<path d="M46.6853 78.1695C66.2908 78.1695 82.1841 62.2761 82.1841 42.6707C82.1841 23.0652 66.2908 7.17188 46.6853 7.17188C27.0799 7.17188 11.1865 23.0652 11.1865 42.6707C11.1865 62.2761 27.0799 78.1695 46.6853 78.1695Z" fill="white"/>
</mask>
<g mask="url(#mask96_4083_40129)">
<path d="M10.3418 14.9248L10.6221 14.6445L81.9933 71.7229L81.8999 71.8163L81.6196 71.9097L10.3418 14.9248Z" fill="#10A075"/>
</g>
<mask id="mask97_4083_40129" style="mask-type:luminance" maskUnits="userSpaceOnUse" x="11" y="7" width="72" height="72">
<path d="M46.6853 78.1695C66.2908 78.1695 82.1841 62.2761 82.1841 42.6707C82.1841 23.0652 66.2908 7.17188 46.6853 7.17188C27.0799 7.17188 11.1865 23.0652 11.1865 42.6707C11.1865 62.2761 27.0799 78.1695 46.6853 78.1695Z" fill="white"/>
</mask>
<g mask="url(#mask97_4083_40129)">
<path d="M10.623 14.6471L10.8099 14.2734L82.1812 71.4452L81.9943 71.7254L10.623 14.6471Z" fill="#10A075"/>
</g>
<mask id="mask98_4083_40129" style="mask-type:luminance" maskUnits="userSpaceOnUse" x="11" y="7" width="72" height="72">
<path d="M46.6853 78.1695C66.2908 78.1695 82.1841 62.2761 82.1841 42.6707C82.1841 23.0652 66.2908 7.17188 46.6853 7.17188C27.0799 7.17188 11.1865 23.0652 11.1865 42.6707C11.1865 62.2761 27.0799 78.1695 46.6853 78.1695Z" fill="white"/>
</mask>
<g mask="url(#mask98_4083_40129)">
<path d="M10.8105 14.2724L11.0908 13.9922L82.4621 71.1639L82.1818 71.4442L10.8105 14.2724Z" fill="#10A075"/>
</g>
<mask id="mask99_4083_40129" style="mask-type:luminance" maskUnits="userSpaceOnUse" x="11" y="7" width="72" height="72">
<path d="M46.6853 78.1695C66.2908 78.1695 82.1841 62.2761 82.1841 42.6707C82.1841 23.0652 66.2908 7.17188 46.6853 7.17188C27.0799 7.17188 11.1865 23.0652 11.1865 42.6707C11.1865 62.2761 27.0799 78.1695 46.6853 78.1695Z" fill="white"/>
</mask>
<g mask="url(#mask99_4083_40129)">
<path d="M11.0908 13.9931L11.2777 13.7129L82.6489 70.8846L82.4621 71.1649L11.0908 13.9931Z" fill="#10A075"/>
</g>
<mask id="mask100_4083_40129" style="mask-type:luminance" maskUnits="userSpaceOnUse" x="11" y="7" width="72" height="72">
<path d="M46.6853 78.1695C66.2908 78.1695 82.1841 62.2761 82.1841 42.6707C82.1841 23.0652 66.2908 7.17188 46.6853 7.17188C27.0799 7.17188 11.1865 23.0652 11.1865 42.6707C11.1865 62.2761 27.0799 78.1695 46.6853 78.1695Z" fill="white"/>
</mask>
<g mask="url(#mask100_4083_40129)">
<path d="M11.2754 13.7119L11.5556 13.4316L82.8335 70.6034L82.6467 70.8836L11.2754 13.7119Z" fill="#10A075"/>
</g>
<mask id="mask101_4083_40129" style="mask-type:luminance" maskUnits="userSpaceOnUse" x="11" y="7" width="72" height="72">
<path d="M46.6853 78.1695C66.2908 78.1695 82.1841 62.2761 82.1841 42.6707C82.1841 23.0652 66.2908 7.17188 46.6853 7.17188C27.0799 7.17188 11.1865 23.0652 11.1865 42.6707C11.1865 62.2761 27.0799 78.1695 46.6853 78.1695Z" fill="white"/>
</mask>
<g mask="url(#mask101_4083_40129)">
<path d="M11.5595 13.4333L11.9332 13.3398L83.1176 70.3248L82.8374 70.605L11.5595 13.4333Z" fill="#10A075"/>
</g>
<mask id="mask102_4083_40129" style="mask-type:luminance" maskUnits="userSpaceOnUse" x="11" y="7" width="72" height="72">
<path d="M46.6853 78.1695C66.2908 78.1695 82.1841 62.2761 82.1841 42.6707C82.1841 23.0652 66.2908 7.17188 46.6853 7.17188C27.0799 7.17188 11.1865 23.0652 11.1865 42.6707C11.1865 62.2761 27.0799 78.1695 46.6853 78.1695Z" fill="white"/>
</mask>
<g mask="url(#mask102_4083_40129)">
<path d="M12.3997 13.2461L83.3039 70.0442L83.117 70.3244L11.9326 13.3395L12.3997 13.2461Z" fill="#10A075"/>
</g>
<mask id="mask103_4083_40129" style="mask-type:luminance" maskUnits="userSpaceOnUse" x="11" y="7" width="72" height="72">
<path d="M46.6853 78.1695C66.2908 78.1695 82.1841 62.2761 82.1841 42.6707C82.1841 23.0652 66.2908 7.17188 46.6853 7.17188C27.0799 7.17188 11.1865 23.0652 11.1865 42.6707C11.1865 62.2761 27.0799 78.1695 46.6853 78.1695Z" fill="white"/>
</mask>
<g mask="url(#mask103_4083_40129)">
<path d="M12.8675 13.1523L83.5848 69.7636L83.3046 70.0438L12.4004 13.2458L12.8675 13.1523Z" fill="#10A075"/>
</g>
<mask id="mask104_4083_40129" style="mask-type:luminance" maskUnits="userSpaceOnUse" x="11" y="7" width="72" height="72">
<path d="M46.6853 78.1695C66.2908 78.1695 82.1841 62.2761 82.1841 42.6707C82.1841 23.0652 66.2908 7.17188 46.6853 7.17188C27.0799 7.17188 11.1865 23.0652 11.1865 42.6707C11.1865 62.2761 27.0799 78.1695 46.6853 78.1695Z" fill="white"/>
</mask>
<g mask="url(#mask104_4083_40129)">
<path d="M13.3333 13.0586L83.7704 69.483L83.5835 69.7632L12.8662 13.152L13.3333 13.0586Z" fill="#10A075"/>
</g>
<mask id="mask105_4083_40129" style="mask-type:luminance" maskUnits="userSpaceOnUse" x="11" y="7" width="72" height="72">
<path d="M46.6853 78.1695C66.2908 78.1695 82.1841 62.2761 82.1841 42.6707C82.1841 23.0652 66.2908 7.17188 46.6853 7.17188C27.0799 7.17188 11.1865 23.0652 11.1865 42.6707C11.1865 62.2761 27.0799 78.1695 46.6853 78.1695Z" fill="white"/>
</mask>
<g mask="url(#mask105_4083_40129)">
<path d="M13.8011 12.9668L84.0513 69.2044L83.7711 69.4846L13.334 13.0602L13.8011 12.9668Z" fill="#10A075"/>
</g>
<mask id="mask106_4083_40129" style="mask-type:luminance" maskUnits="userSpaceOnUse" x="11" y="7" width="72" height="72">
<path d="M46.6853 78.1695C66.2908 78.1695 82.1841 62.2761 82.1841 42.6707C82.1841 23.0652 66.2908 7.17188 46.6853 7.17188C27.0799 7.17188 11.1865 23.0652 11.1865 42.6707C11.1865 62.2761 27.0799 78.1695 46.6853 78.1695Z" fill="white"/>
</mask>
<g mask="url(#mask106_4083_40129)">
<path d="M14.2659 12.8711L84.2359 68.9218L84.0491 69.2021L13.7988 12.9645L14.2659 12.8711Z" fill="#10A075"/>
</g>
<mask id="mask107_4083_40129" style="mask-type:luminance" maskUnits="userSpaceOnUse" x="11" y="7" width="72" height="72">
<path d="M46.6853 78.1695C66.2908 78.1695 82.1841 62.2761 82.1841 42.6707C82.1841 23.0652 66.2908 7.17188 46.6853 7.17188C27.0799 7.17188 11.1865 23.0652 11.1865 42.6707C11.1865 62.2761 27.0799 78.1695 46.6853 78.1695Z" fill="white"/>
</mask>
<g mask="url(#mask107_4083_40129)">
<path d="M14.7356 12.7773L84.4254 68.6412L84.2385 68.9215L14.2686 12.8708L14.7356 12.7773Z" fill="#10A075"/>
</g>
<mask id="mask108_4083_40129" style="mask-type:luminance" maskUnits="userSpaceOnUse" x="11" y="7" width="72" height="72">
<path d="M46.6853 78.1695C66.2908 78.1695 82.1841 62.2761 82.1841 42.6707C82.1841 23.0652 66.2908 7.17188 46.6853 7.17188C27.0799 7.17188 11.1865 23.0652 11.1865 42.6707C11.1865 62.2761 27.0799 78.1695 46.6853 78.1695Z" fill="white"/>
</mask>
<g mask="url(#mask108_4083_40129)">
<path d="M15.2005 12.6855L84.7034 68.3626L84.4231 68.6429L14.7334 12.779L15.2005 12.6855Z" fill="#10A075"/>
</g>
<mask id="mask109_4083_40129" style="mask-type:luminance" maskUnits="userSpaceOnUse" x="11" y="7" width="72" height="72">
<path d="M46.6853 78.1695C66.2908 78.1695 82.1841 62.2761 82.1841 42.6707C82.1841 23.0652 66.2908 7.17188 46.6853 7.17188C27.0799 7.17188 11.1865 23.0652 11.1865 42.6707C11.1865 62.2761 27.0799 78.1695 46.6853 78.1695Z" fill="white"/>
</mask>
<g mask="url(#mask109_4083_40129)">
<path d="M15.6692 12.5898L84.8919 68.0801L84.705 68.3603L15.2021 12.6833L15.6692 12.5898Z" fill="#10A075"/>
</g>
<mask id="mask110_4083_40129" style="mask-type:luminance" maskUnits="userSpaceOnUse" x="11" y="7" width="72" height="72">
<path d="M46.6853 78.1695C66.2908 78.1695 82.1841 62.2761 82.1841 42.6707C82.1841 23.0652 66.2908 7.17188 46.6853 7.17188C27.0799 7.17188 11.1865 23.0652 11.1865 42.6707C11.1865 62.2761 27.0799 78.1695 46.6853 78.1695Z" fill="white"/>
</mask>
<g mask="url(#mask110_4083_40129)">
<path d="M16.1351 12.498L85.1709 67.8014L84.8906 68.0817L15.668 12.5915L16.1351 12.498Z" fill="#10A075"/>
</g>
<mask id="mask111_4083_40129" style="mask-type:luminance" maskUnits="userSpaceOnUse" x="11" y="7" width="72" height="72">
<path d="M46.6853 78.1695C66.2908 78.1695 82.1841 62.2761 82.1841 42.6707C82.1841 23.0652 66.2908 7.17188 46.6853 7.17188C27.0799 7.17188 11.1865 23.0652 11.1865 42.6707C11.1865 62.2761 27.0799 78.1695 46.6853 78.1695Z" fill="white"/>
</mask>
<g mask="url(#mask111_4083_40129)">
<path d="M16.6019 12.4043L85.3574 67.5208L85.1706 67.8011L16.1348 12.4977L16.6019 12.4043Z" fill="#10A075"/>
</g>
<mask id="mask112_4083_40129" style="mask-type:luminance" maskUnits="userSpaceOnUse" x="11" y="7" width="72" height="72">
<path d="M46.6853 78.1695C66.2908 78.1695 82.1841 62.2761 82.1841 42.6707C82.1841 23.0652 66.2908 7.17188 46.6853 7.17188C27.0799 7.17188 11.1865 23.0652 11.1865 42.6707C11.1865 62.2761 27.0799 78.1695 46.6853 78.1695Z" fill="white"/>
</mask>
<g mask="url(#mask112_4083_40129)">
<path d="M17.0706 12.3105L85.6393 67.2403L85.3591 67.5205L16.6035 12.404L17.0706 12.3105Z" fill="#10A075"/>
</g>
<mask id="mask113_4083_40129" style="mask-type:luminance" maskUnits="userSpaceOnUse" x="11" y="7" width="72" height="72">
<path d="M46.6853 78.1695C66.2908 78.1695 82.1841 62.2761 82.1841 42.6707C82.1841 23.0652 66.2908 7.17188 46.6853 7.17188C27.0799 7.17188 11.1865 23.0652 11.1865 42.6707C11.1865 62.2761 27.0799 78.1695 46.6853 78.1695Z" fill="white"/>
</mask>
<g mask="url(#mask113_4083_40129)">
<path d="M17.5354 12.2168L85.8239 66.9597L85.6371 67.2399L17.0684 12.3102L17.5354 12.2168Z" fill="#10A075"/>
</g>
<mask id="mask114_4083_40129" style="mask-type:luminance" maskUnits="userSpaceOnUse" x="11" y="7" width="72" height="72">
<path d="M46.6853 78.1695C66.2908 78.1695 82.1841 62.2761 82.1841 42.6707C82.1841 23.0652 66.2908 7.17188 46.6853 7.17188C27.0799 7.17188 11.1865 23.0652 11.1865 42.6707C11.1865 62.2761 27.0799 78.1695 46.6853 78.1695Z" fill="white"/>
</mask>
<g mask="url(#mask114_4083_40129)">
<path d="M18.0052 12.125L86.0134 66.681L85.8266 66.9613L17.5381 12.2184L18.0052 12.125Z" fill="#10A075"/>
</g>
<mask id="mask115_4083_40129" style="mask-type:luminance" maskUnits="userSpaceOnUse" x="11" y="7" width="72" height="72">
<path d="M46.6853 78.1695C66.2908 78.1695 82.1841 62.2761 82.1841 42.6707C82.1841 23.0652 66.2908 7.17188 46.6853 7.17188C27.0799 7.17188 11.1865 23.0652 11.1865 42.6707C11.1865 62.2761 27.0799 78.1695 46.6853 78.1695Z" fill="white"/>
</mask>
<g mask="url(#mask115_4083_40129)">
<path d="M18.47 12.0312L86.2914 66.4004L86.0112 66.6807L18.0029 12.1247L18.47 12.0312Z" fill="#10A075"/>
</g>
<mask id="mask116_4083_40129" style="mask-type:luminance" maskUnits="userSpaceOnUse" x="11" y="7" width="72" height="72">
<path d="M46.6853 78.1695C66.2908 78.1695 82.1841 62.2761 82.1841 42.6707C82.1841 23.0652 66.2908 7.17188 46.6853 7.17188C27.0799 7.17188 11.1865 23.0652 11.1865 42.6707C11.1865 62.2761 27.0799 78.1695 46.6853 78.1695Z" fill="white"/>
</mask>
<g mask="url(#mask116_4083_40129)">
<path d="M18.9378 11.9375L86.4789 66.1199L86.2921 66.4001L18.4707 12.0309L18.9378 11.9375Z" fill="#10A075"/>
</g>
<mask id="mask117_4083_40129" style="mask-type:luminance" maskUnits="userSpaceOnUse" x="11" y="7" width="72" height="72">
<path d="M46.6853 78.1695C66.2908 78.1695 82.1841 62.2761 82.1841 42.6707C82.1841 23.0652 66.2908 7.17188 46.6853 7.17188C27.0799 7.17188 11.1865 23.0652 11.1865 42.6707C11.1865 62.2761 27.0799 78.1695 46.6853 78.1695Z" fill="white"/>
</mask>
<g mask="url(#mask117_4083_40129)">
<path d="M19.4056 11.8438L86.7599 65.8393L86.4796 66.1195L18.9385 11.9372L19.4056 11.8438Z" fill="#10A075"/>
</g>
<mask id="mask118_4083_40129" style="mask-type:luminance" maskUnits="userSpaceOnUse" x="11" y="7" width="72" height="72">
<path d="M46.6853 78.1695C66.2908 78.1695 82.1841 62.2761 82.1841 42.6707C82.1841 23.0652 66.2908 7.17188 46.6853 7.17188C27.0799 7.17188 11.1865 23.0652 11.1865 42.6707C11.1865 62.2761 27.0799 78.1695 46.6853 78.1695Z" fill="white"/>
</mask>
<g mask="url(#mask118_4083_40129)">
<path d="M19.8714 11.75L86.9454 65.4653L86.7586 65.839L19.4043 11.8434L19.8714 11.75Z" fill="#10A075"/>
</g>
<mask id="mask119_4083_40129" style="mask-type:luminance" maskUnits="userSpaceOnUse" x="11" y="7" width="72" height="72">
<path d="M46.6853 78.1695C66.2908 78.1695 82.1841 62.2761 82.1841 42.6707C82.1841 23.0652 66.2908 7.17188 46.6853 7.17188C27.0799 7.17188 11.1865 23.0652 11.1865 42.6707C11.1865 62.2761 27.0799 78.1695 46.6853 78.1695Z" fill="white"/>
</mask>
<g mask="url(#mask119_4083_40129)">
<path d="M20.3401 11.6562L87.2273 65.1847L86.9471 65.465L19.873 11.7497L20.3401 11.6562Z" fill="#10A075"/>
</g>
<mask id="mask120_4083_40129" style="mask-type:luminance" maskUnits="userSpaceOnUse" x="11" y="7" width="72" height="72">
<path d="M46.6853 78.1695C66.2908 78.1695 82.1841 62.2761 82.1841 42.6707C82.1841 23.0652 66.2908 7.17188 46.6853 7.17188C27.0799 7.17188 11.1865 23.0652 11.1865 42.6707C11.1865 62.2761 27.0799 78.1695 46.6853 78.1695Z" fill="white"/>
</mask>
<g mask="url(#mask120_4083_40129)">
<path d="M20.806 11.5645L87.4129 64.9061V64.9995L87.2261 65.1863L20.3389 11.6579L20.806 11.5645Z" fill="#10A075"/>
</g>
<mask id="mask121_4083_40129" style="mask-type:luminance" maskUnits="userSpaceOnUse" x="11" y="7" width="72" height="72">
<path d="M46.6853 78.1695C66.2908 78.1695 82.1841 62.2761 82.1841 42.6707C82.1841 23.0652 66.2908 7.17188 46.6853 7.17188C27.0799 7.17188 11.1865 23.0652 11.1865 42.6707C11.1865 62.2761 27.0799 78.1695 46.6853 78.1695Z" fill="white"/>
</mask>
<g mask="url(#mask121_4083_40129)">
<path d="M21.2747 11.4727L87.3212 64.3472L87.4146 64.9077L20.8076 11.5661L21.2747 11.4727Z" fill="#10A075"/>
</g>
<mask id="mask122_4083_40129" style="mask-type:luminance" maskUnits="userSpaceOnUse" x="11" y="7" width="72" height="72">
<path d="M46.6853 78.1695C66.2908 78.1695 82.1841 62.2761 82.1841 42.6707C82.1841 23.0652 66.2908 7.17188 46.6853 7.17188C27.0799 7.17188 11.1865 23.0652 11.1865 42.6707C11.1865 62.2761 27.0799 78.1695 46.6853 78.1695Z" fill="white"/>
</mask>
<g mask="url(#mask122_4083_40129)">
<path d="M21.7405 11.377L87.133 63.7844L87.3198 64.3449L21.2734 11.4704L21.7405 11.377Z" fill="#10A075"/>
</g>
<mask id="mask123_4083_40129" style="mask-type:luminance" maskUnits="userSpaceOnUse" x="11" y="7" width="72" height="72">
<path d="M46.6853 78.1695C66.2908 78.1695 82.1841 62.2761 82.1841 42.6707C82.1841 23.0652 66.2908 7.17188 46.6853 7.17188C27.0799 7.17188 11.1865 23.0652 11.1865 42.6707C11.1865 62.2761 27.0799 78.1695 46.6853 78.1695Z" fill="white"/>
</mask>
<g mask="url(#mask123_4083_40129)">
<path d="M22.2073 11.2832L87.0393 63.317L87.1328 63.7841L21.7402 11.3766L22.2073 11.2832Z" fill="#10A075"/>
</g>
<mask id="mask124_4083_40129" style="mask-type:luminance" maskUnits="userSpaceOnUse" x="11" y="7" width="72" height="72">
<path d="M46.6853 78.1695C66.2908 78.1695 82.1841 62.2761 82.1841 42.6707C82.1841 23.0652 66.2908 7.17188 46.6853 7.17188C27.0799 7.17188 11.1865 23.0652 11.1865 42.6707C11.1865 62.2761 27.0799 78.1695 46.6853 78.1695Z" fill="white"/>
</mask>
<g mask="url(#mask124_4083_40129)">
<path d="M22.6741 11.1914L86.9456 62.7581L87.039 63.3186L22.207 11.2848L22.6741 11.1914Z" fill="#10A075"/>
</g>
<mask id="mask125_4083_40129" style="mask-type:luminance" maskUnits="userSpaceOnUse" x="11" y="7" width="72" height="72">
<path d="M46.6853 78.1695C66.2908 78.1695 82.1841 62.2761 82.1841 42.6707C82.1841 23.0652 66.2908 7.17188 46.6853 7.17188C27.0799 7.17188 11.1865 23.0652 11.1865 42.6707C11.1865 62.2761 27.0799 78.1695 46.6853 78.1695Z" fill="white"/>
</mask>
<g mask="url(#mask125_4083_40129)">
<path d="M23.1409 11.0957L86.8519 62.1953L86.9453 62.7558L22.6738 11.1891L23.1409 11.0957Z" fill="#10A075"/>
</g>
<mask id="mask126_4083_40129" style="mask-type:luminance" maskUnits="userSpaceOnUse" x="11" y="7" width="72" height="72">
<path d="M46.6853 78.1695C66.2908 78.1695 82.1841 62.2761 82.1841 42.6707C82.1841 23.0652 66.2908 7.17188 46.6853 7.17188C27.0799 7.17188 11.1865 23.0652 11.1865 42.6707C11.1865 62.2761 27.0799 78.1695 46.6853 78.1695Z" fill="white"/>
</mask>
<g mask="url(#mask126_4083_40129)">
<path d="M23.6087 11.0039L86.7592 61.6364L86.8526 62.1969L23.1416 11.0973L23.6087 11.0039Z" fill="#10A075"/>
</g>
<mask id="mask127_4083_40129" style="mask-type:luminance" maskUnits="userSpaceOnUse" x="11" y="7" width="72" height="72">
<path d="M46.6853 78.1695C66.2908 78.1695 82.1841 62.2761 82.1841 42.6707C82.1841 23.0652 66.2908 7.17188 46.6853 7.17188C27.0799 7.17188 11.1865 23.0652 11.1865 42.6707C11.1865 62.2761 27.0799 78.1695 46.6853 78.1695Z" fill="white"/>
</mask>
<g mask="url(#mask127_4083_40129)">
<path d="M24.0745 10.9102L86.6645 61.0756L86.7579 61.6361L23.6074 11.0036L24.0745 10.9102Z" fill="#10A075"/>
</g>
<mask id="mask128_4083_40129" style="mask-type:luminance" maskUnits="userSpaceOnUse" x="11" y="7" width="72" height="72">
<path d="M46.6853 78.1695C66.2908 78.1695 82.1841 62.2761 82.1841 42.6707C82.1841 23.0652 66.2908 7.17188 46.6853 7.17188C27.0799 7.17188 11.1865 23.0652 11.1865 42.6707C11.1865 62.2761 27.0799 78.1695 46.6853 78.1695Z" fill="white"/>
</mask>
<g mask="url(#mask128_4083_40129)">
<path d="M24.5433 10.8164L86.4793 60.5147L86.6661 61.0752L24.0762 10.9098L24.5433 10.8164Z" fill="#10A075"/>
</g>
<mask id="mask129_4083_40129" style="mask-type:luminance" maskUnits="userSpaceOnUse" x="11" y="7" width="72" height="72">
<path d="M46.6853 78.1695C66.2908 78.1695 82.1841 62.2761 82.1841 42.6707C82.1841 23.0652 66.2908 7.17188 46.6853 7.17188C27.0799 7.17188 11.1865 23.0652 11.1865 42.6707C11.1865 62.2761 27.0799 78.1695 46.6853 78.1695Z" fill="white"/>
</mask>
<g mask="url(#mask129_4083_40129)">
<path d="M25.011 10.7227L86.3866 59.9539L86.48 60.5144L24.5439 10.8161L25.011 10.7227Z" fill="#10A075"/>
</g>
<mask id="mask130_4083_40129" style="mask-type:luminance" maskUnits="userSpaceOnUse" x="11" y="7" width="72" height="72">
<path d="M46.6853 78.1695C66.2908 78.1695 82.1841 62.2761 82.1841 42.6707C82.1841 23.0652 66.2908 7.17188 46.6853 7.17188C27.0799 7.17188 11.1865 23.0652 11.1865 42.6707C11.1865 62.2761 27.0799 78.1695 46.6853 78.1695Z" fill="white"/>
</mask>
<g mask="url(#mask130_4083_40129)">
<path d="M25.4769 10.6309L86.2919 59.395L86.3853 59.9555L25.0098 10.7243L25.4769 10.6309Z" fill="#10A075"/>
</g>
<mask id="mask131_4083_40129" style="mask-type:luminance" maskUnits="userSpaceOnUse" x="11" y="7" width="72" height="72">
<path d="M46.6853 78.1695C66.2908 78.1695 82.1841 62.2761 82.1841 42.6707C82.1841 23.0652 66.2908 7.17188 46.6853 7.17188C27.0799 7.17188 11.1865 23.0652 11.1865 42.6707C11.1865 62.2761 27.0799 78.1695 46.6853 78.1695Z" fill="white"/>
</mask>
<g mask="url(#mask131_4083_40129)">
<path d="M26.0371 10.5352L86.1982 58.7388L86.2916 59.3927L25.4766 10.6286L26.0371 10.5352Z" fill="#10A075"/>
</g>
<mask id="mask132_4083_40129" style="mask-type:luminance" maskUnits="userSpaceOnUse" x="11" y="7" width="72" height="72">
<path d="M46.6853 78.1695C66.2908 78.1695 82.1841 62.2761 82.1841 42.6707C82.1841 23.0652 66.2908 7.17188 46.6853 7.17188C27.0799 7.17188 11.1865 23.0652 11.1865 42.6707C11.1865 62.2761 27.0799 78.1695 46.6853 78.1695Z" fill="white"/>
</mask>
<g mask="url(#mask132_4083_40129)">
<path d="M26.5986 10.4434L86.0124 58.0865L86.1992 58.7404L26.0381 10.5368L26.5986 10.4434Z" fill="#10A075"/>
</g>
<mask id="mask133_4083_40129" style="mask-type:luminance" maskUnits="userSpaceOnUse" x="11" y="7" width="72" height="72">
<path d="M46.6853 78.1695C66.2908 78.1695 82.1841 62.2761 82.1841 42.6707C82.1841 23.0652 66.2908 7.17188 46.6853 7.17188C27.0799 7.17188 11.1865 23.0652 11.1865 42.6707C11.1865 62.2761 27.0799 78.1695 46.6853 78.1695Z" fill="white"/>
</mask>
<g mask="url(#mask133_4083_40129)">
<path d="M27.1582 10.3496L85.918 57.3388L86.0114 58.0861L26.5977 10.443L27.1582 10.3496Z" fill="#10A075"/>
</g>
<mask id="mask134_4083_40129" style="mask-type:luminance" maskUnits="userSpaceOnUse" x="11" y="7" width="72" height="72">
<path d="M46.6853 78.1695C66.2908 78.1695 82.1841 62.2761 82.1841 42.6707C82.1841 23.0652 66.2908 7.17188 46.6853 7.17188C27.0799 7.17188 11.1865 23.0652 11.1865 42.6707C11.1865 62.2761 27.0799 78.1695 46.6853 78.1695Z" fill="white"/>
</mask>
<g mask="url(#mask134_4083_40129)">
<path d="M27.7177 10.2539L85.7302 56.6826L85.9171 57.3365L27.1572 10.3473L27.7177 10.2539Z" fill="#10A075"/>
</g>
<mask id="mask135_4083_40129" style="mask-type:luminance" maskUnits="userSpaceOnUse" x="11" y="7" width="72" height="72">
<path d="M46.6853 78.1695C66.2908 78.1695 82.1841 62.2761 82.1841 42.6707C82.1841 23.0652 66.2908 7.17188 46.6853 7.17188C27.0799 7.17188 11.1865 23.0652 11.1865 42.6707C11.1865 62.2761 27.0799 78.1695 46.6853 78.1695Z" fill="white"/>
</mask>
<g mask="url(#mask135_4083_40129)">
<path d="M28.2793 10.0684L85.6378 56.03L85.7312 56.6839L27.7188 10.2552L28.2793 10.0684Z" fill="#10A075"/>
</g>
<mask id="mask136_4083_40129" style="mask-type:luminance" maskUnits="userSpaceOnUse" x="11" y="7" width="72" height="72">
<path d="M46.6853 78.1695C66.2908 78.1695 82.1841 62.2761 82.1841 42.6707C82.1841 23.0652 66.2908 7.17188 46.6853 7.17188C27.0799 7.17188 11.1865 23.0652 11.1865 42.6707C11.1865 62.2761 27.0799 78.1695 46.6853 78.1695Z" fill="white"/>
</mask>
<g mask="url(#mask136_4083_40129)">
<path d="M28.8398 9.97461L85.451 55.3757L85.6379 56.0296L28.2793 10.068L28.8398 9.97461Z" fill="#10A075"/>
</g>
<mask id="mask137_4083_40129" style="mask-type:luminance" maskUnits="userSpaceOnUse" x="11" y="7" width="72" height="72">
<path d="M46.6853 78.1695C66.2908 78.1695 82.1841 62.2761 82.1841 42.6707C82.1841 23.0652 66.2908 7.17188 46.6853 7.17188C27.0799 7.17188 11.1865 23.0652 11.1865 42.6707C11.1865 62.2761 27.0799 78.1695 46.6853 78.1695Z" fill="white"/>
</mask>
<g mask="url(#mask137_4083_40129)">
<path d="M29.4003 9.88086L85.3577 54.628L85.4511 55.3754L28.8398 9.97428L29.4003 9.88086Z" fill="#10A075"/>
</g>
<mask id="mask138_4083_40129" style="mask-type:luminance" maskUnits="userSpaceOnUse" x="11" y="7" width="72" height="72">
<path d="M46.6853 78.1695C66.2908 78.1695 82.1841 62.2761 82.1841 42.6707C82.1841 23.0652 66.2908 7.17188 46.6853 7.17188C27.0799 7.17188 11.1865 23.0652 11.1865 42.6707C11.1865 62.2761 27.0799 78.1695 46.6853 78.1695Z" fill="white"/>
</mask>
<g mask="url(#mask138_4083_40129)">
<path d="M29.9599 9.78906L85.1699 53.9757L85.3567 54.6296L29.3994 9.88248L29.9599 9.78906Z" fill="#10A075"/>
</g>
<mask id="mask139_4083_40129" style="mask-type:luminance" maskUnits="userSpaceOnUse" x="11" y="7" width="72" height="72">
<path d="M46.6853 78.1695C66.2908 78.1695 82.1841 62.2761 82.1841 42.6707C82.1841 23.0652 66.2908 7.17188 46.6853 7.17188C27.0799 7.17188 11.1865 23.0652 11.1865 42.6707C11.1865 62.2761 27.0799 78.1695 46.6853 78.1695Z" fill="white"/>
</mask>
<g mask="url(#mask139_4083_40129)">
<path d="M30.5214 9.60156L85.0775 53.3211L85.1709 53.9751L29.9609 9.7884L30.5214 9.60156Z" fill="#10A075"/>
</g>
<mask id="mask140_4083_40129" style="mask-type:luminance" maskUnits="userSpaceOnUse" x="11" y="7" width="72" height="72">
<path d="M46.6853 78.1695C66.2908 78.1695 82.1841 62.2761 82.1841 42.6707C82.1841 23.0652 66.2908 7.17188 46.6853 7.17188C27.0799 7.17188 11.1865 23.0652 11.1865 42.6707C11.1865 62.2761 27.0799 78.1695 46.6853 78.1695Z" fill="white"/>
</mask>
<g mask="url(#mask140_4083_40129)">
<path d="M31.0808 9.50781L84.9829 52.6669L85.0764 53.3208L30.5203 9.60123L31.0808 9.50781Z" fill="#10A075"/>
</g>
<mask id="mask141_4083_40129" style="mask-type:luminance" maskUnits="userSpaceOnUse" x="11" y="7" width="72" height="72">
<path d="M46.6853 78.1695C66.2908 78.1695 82.1841 62.2761 82.1841 42.6707C82.1841 23.0652 66.2908 7.17188 46.6853 7.17188C27.0799 7.17188 11.1865 23.0652 11.1865 42.6707C11.1865 62.2761 27.0799 78.1695 46.6853 78.1695Z" fill="white"/>
</mask>
<g mask="url(#mask141_4083_40129)">
<path d="M31.6425 9.41602L84.7973 52.0146L84.9842 52.6685L31.082 9.50943L31.6425 9.41602Z" fill="#10A075"/>
</g>
<mask id="mask142_4083_40129" style="mask-type:luminance" maskUnits="userSpaceOnUse" x="11" y="7" width="72" height="72">
<path d="M46.6853 78.1695C66.2908 78.1695 82.1841 62.2761 82.1841 42.6707C82.1841 23.0652 66.2908 7.17188 46.6853 7.17188C27.0799 7.17188 11.1865 23.0652 11.1865 42.6707C11.1865 62.2761 27.0799 78.1695 46.6853 78.1695Z" fill="white"/>
</mask>
<g mask="url(#mask142_4083_40129)">
<path d="M32.2041 9.32031L84.7049 51.2649L84.7983 52.0123L31.6436 9.41373L32.2041 9.32031Z" fill="#10A075"/>
</g>
<mask id="mask143_4083_40129" style="mask-type:luminance" maskUnits="userSpaceOnUse" x="11" y="7" width="72" height="72">
<path d="M46.6853 78.1695C66.2908 78.1695 82.1841 62.2761 82.1841 42.6707C82.1841 23.0652 66.2908 7.17188 46.6853 7.17188C27.0799 7.17188 11.1865 23.0652 11.1865 42.6707C11.1865 62.2761 27.0799 78.1695 46.6853 78.1695Z" fill="white"/>
</mask>
<g mask="url(#mask143_4083_40129)">
<path d="M32.7636 9.22852L84.5171 50.6126L84.704 51.2666L32.2031 9.32193L32.7636 9.22852Z" fill="#10A075"/>
</g>
<mask id="mask144_4083_40129" style="mask-type:luminance" maskUnits="userSpaceOnUse" x="11" y="7" width="72" height="72">
<path d="M46.6853 78.1695C66.2908 78.1695 82.1841 62.2761 82.1841 42.6707C82.1841 23.0652 66.2908 7.17188 46.6853 7.17188C27.0799 7.17188 11.1865 23.0652 11.1865 42.6707C11.1865 62.2761 27.0799 78.1695 46.6853 78.1695Z" fill="white"/>
</mask>
<g mask="url(#mask144_4083_40129)">
<path d="M33.3232 9.03906L84.4228 49.9561L84.5162 50.61L32.7627 9.2259L33.3232 9.03906Z" fill="#10A075"/>
</g>
<mask id="mask145_4083_40129" style="mask-type:luminance" maskUnits="userSpaceOnUse" x="11" y="7" width="72" height="72">
<path d="M46.6853 78.1695C66.2908 78.1695 82.1841 62.2761 82.1841 42.6707C82.1841 23.0652 66.2908 7.17188 46.6853 7.17188C27.0799 7.17188 11.1865 23.0652 11.1865 42.6707C11.1865 62.2761 27.0799 78.1695 46.6853 78.1695Z" fill="white"/>
</mask>
<g mask="url(#mask145_4083_40129)">
<path d="M33.8828 8.94727L84.235 49.3038L84.4218 49.9577L33.3223 9.04068L33.8828 8.94727Z" fill="#10A075"/>
</g>
<mask id="mask146_4083_40129" style="mask-type:luminance" maskUnits="userSpaceOnUse" x="11" y="7" width="72" height="72">
<path d="M46.6853 78.1695C66.2908 78.1695 82.1841 62.2761 82.1841 42.6707C82.1841 23.0652 66.2908 7.17188 46.6853 7.17188C27.0799 7.17188 11.1865 23.0652 11.1865 42.6707C11.1865 62.2761 27.0799 78.1695 46.6853 78.1695Z" fill="white"/>
</mask>
<g mask="url(#mask146_4083_40129)">
<path d="M34.5367 8.85547L84.1416 48.6515L84.2351 49.3054L33.8828 8.94889L34.5367 8.85547Z" fill="#10A075"/>
</g>
<mask id="mask147_4083_40129" style="mask-type:luminance" maskUnits="userSpaceOnUse" x="11" y="7" width="72" height="72">
<path d="M46.6853 78.1695C66.2908 78.1695 82.1841 62.2761 82.1841 42.6707C82.1841 23.0652 66.2908 7.17188 46.6853 7.17188C27.0799 7.17188 11.1865 23.0652 11.1865 42.6707C11.1865 62.2761 27.0799 78.1695 46.6853 78.1695Z" fill="white"/>
</mask>
<g mask="url(#mask147_4083_40129)">
<path d="M35.0986 8.75977L83.9561 47.9019L84.143 48.6492L34.5381 8.85318L35.0986 8.75977Z" fill="#10A075"/>
</g>
<mask id="mask148_4083_40129" style="mask-type:luminance" maskUnits="userSpaceOnUse" x="11" y="7" width="72" height="72">
<path d="M46.6853 78.1695C66.2908 78.1695 82.1841 62.2761 82.1841 42.6707C82.1841 23.0652 66.2908 7.17188 46.6853 7.17188C27.0799 7.17188 11.1865 23.0652 11.1865 42.6707C11.1865 62.2761 27.0799 78.1695 46.6853 78.1695Z" fill="white"/>
</mask>
<g mask="url(#mask148_4083_40129)">
<path d="M35.6582 8.66797L83.8618 47.2496L83.9552 47.9035L35.0977 8.76139L35.6582 8.66797Z" fill="#10A075"/>
</g>
<mask id="mask149_4083_40129" style="mask-type:luminance" maskUnits="userSpaceOnUse" x="11" y="7" width="72" height="72">
<path d="M46.6853 78.1695C66.2908 78.1695 82.1841 62.2761 82.1841 42.6707C82.1841 23.0652 66.2908 7.17188 46.6853 7.17188C27.0799 7.17188 11.1865 23.0652 11.1865 42.6707C11.1865 62.2761 27.0799 78.1695 46.6853 78.1695Z" fill="white"/>
</mask>
<g mask="url(#mask149_4083_40129)">
<path d="M36.2187 8.48047L83.7684 46.595L83.8618 47.2489L35.6582 8.6673L36.2187 8.48047Z" fill="#10A075"/>
</g>
<mask id="mask150_4083_40129" style="mask-type:luminance" maskUnits="userSpaceOnUse" x="11" y="7" width="72" height="72">
<path d="M46.6853 78.1695C66.2908 78.1695 82.1841 62.2761 82.1841 42.6707C82.1841 23.0652 66.2908 7.17188 46.6853 7.17188C27.0799 7.17188 11.1865 23.0652 11.1865 42.6707C11.1865 62.2761 27.0799 78.1695 46.6853 78.1695Z" fill="white"/>
</mask>
<g mask="url(#mask150_4083_40129)">
<path d="M36.7794 8.38672L83.5818 45.9407L83.7686 46.5946L36.2189 8.48014L36.7794 8.38672Z" fill="#10A075"/>
</g>
<mask id="mask151_4083_40129" style="mask-type:luminance" maskUnits="userSpaceOnUse" x="11" y="7" width="72" height="72">
<path d="M46.6853 78.1695C66.2908 78.1695 82.1841 62.2761 82.1841 42.6707C82.1841 23.0652 66.2908 7.17188 46.6853 7.17188C27.0799 7.17188 11.1865 23.0652 11.1865 42.6707C11.1865 62.2761 27.0799 78.1695 46.6853 78.1695Z" fill="white"/>
</mask>
<g mask="url(#mask151_4083_40129)">
<path d="M37.3408 8.29492L83.4892 45.195L83.5826 45.9423L36.7803 8.38834L37.3408 8.29492Z" fill="#10A075"/>
</g>
<mask id="mask152_4083_40129" style="mask-type:luminance" maskUnits="userSpaceOnUse" x="11" y="7" width="72" height="72">
<path d="M46.6853 78.1695C66.2908 78.1695 82.1841 62.2761 82.1841 42.6707C82.1841 23.0652 66.2908 7.17188 46.6853 7.17188C27.0799 7.17188 11.1865 23.0652 11.1865 42.6707C11.1865 62.2761 27.0799 78.1695 46.6853 78.1695Z" fill="white"/>
</mask>
<g mask="url(#mask152_4083_40129)">
<path d="M37.9004 8.20312L83.3014 44.5427L83.4883 45.1966L37.3398 8.29654L37.9004 8.20312Z" fill="#10A075"/>
</g>
<mask id="mask153_4083_40129" style="mask-type:luminance" maskUnits="userSpaceOnUse" x="11" y="7" width="72" height="72">
<path d="M46.6853 78.1695C66.2908 78.1695 82.1841 62.2761 82.1841 42.6707C82.1841 23.0652 66.2908 7.17188 46.6853 7.17188C27.0799 7.17188 11.1865 23.0652 11.1865 42.6707C11.1865 62.2761 27.0799 78.1695 46.6853 78.1695Z" fill="white"/>
</mask>
<g mask="url(#mask153_4083_40129)">
<path d="M38.4599 8.10742L83.2071 43.8865L83.3005 44.5404L37.8994 8.20084L38.4599 8.10742Z" fill="#10A075"/>
</g>
<mask id="mask154_4083_40129" style="mask-type:luminance" maskUnits="userSpaceOnUse" x="11" y="7" width="72" height="72">
<path d="M46.6853 78.1695C66.2908 78.1695 82.1841 62.2761 82.1841 42.6707C82.1841 23.0652 66.2908 7.17188 46.6853 7.17188C27.0799 7.17188 11.1865 23.0652 11.1865 42.6707C11.1865 62.2761 27.0799 78.1695 46.6853 78.1695Z" fill="white"/>
</mask>
<g mask="url(#mask154_4083_40129)">
<path d="M39.0224 7.91992L83.0222 43.2319L83.2091 43.8858L38.4619 8.10676L39.0224 7.91992Z" fill="#10A075"/>
</g>
<mask id="mask155_4083_40129" style="mask-type:luminance" maskUnits="userSpaceOnUse" x="11" y="7" width="72" height="72">
<path d="M46.6853 78.1695C66.2908 78.1695 82.1841 62.2761 82.1841 42.6707C82.1841 23.0652 66.2908 7.17188 46.6853 7.17188C27.0799 7.17188 11.1865 23.0652 11.1865 42.6707C11.1865 62.2761 27.0799 78.1695 46.6853 78.1695Z" fill="white"/>
</mask>
<g mask="url(#mask155_4083_40129)">
<path d="M39.5839 7.82617L82.9298 42.5776L83.0233 43.2315L39.0234 7.91959L39.5839 7.82617Z" fill="#10A075"/>
</g>
<mask id="mask156_4083_40129" style="mask-type:luminance" maskUnits="userSpaceOnUse" x="11" y="7" width="72" height="72">
<path d="M46.6853 78.1695C66.2908 78.1695 82.1841 62.2761 82.1841 42.6707C82.1841 23.0652 66.2908 7.17188 46.6853 7.17188C27.0799 7.17188 11.1865 23.0652 11.1865 42.6707C11.1865 62.2761 27.0799 78.1695 46.6853 78.1695Z" fill="white"/>
</mask>
<g mask="url(#mask156_4083_40129)">
<path d="M40.1414 7.73438L82.7399 41.8319L82.9268 42.5792L39.5809 7.82779L40.1414 7.73438Z" fill="#10A075"/>
</g>
<mask id="mask157_4083_40129" style="mask-type:luminance" maskUnits="userSpaceOnUse" x="11" y="7" width="72" height="72">
<path d="M46.6853 78.1695C66.2908 78.1695 82.1841 62.2761 82.1841 42.6707C82.1841 23.0652 66.2908 7.17188 46.6853 7.17188C27.0799 7.17188 11.1865 23.0652 11.1865 42.6707C11.1865 62.2761 27.0799 78.1695 46.6853 78.1695Z" fill="white"/>
</mask>
<g mask="url(#mask157_4083_40129)">
<path d="M40.7021 7.64062L82.6467 41.1776L82.7402 41.8316L40.1416 7.73404L40.7021 7.64062Z" fill="#10A075"/>
</g>
<mask id="mask158_4083_40129" style="mask-type:luminance" maskUnits="userSpaceOnUse" x="11" y="7" width="72" height="72">
<path d="M46.6853 78.1695C66.2908 78.1695 82.1841 62.2761 82.1841 42.6707C82.1841 23.0652 66.2908 7.17188 46.6853 7.17188C27.0799 7.17188 11.1865 23.0652 11.1865 42.6707C11.1865 62.2761 27.0799 78.1695 46.6853 78.1695Z" fill="white"/>
</mask>
<g mask="url(#mask158_4083_40129)">
<path d="M41.2636 7.45312L82.5543 40.5231L82.6477 41.177L40.7031 7.63996L41.2636 7.45312Z" fill="#10A075"/>
</g>
<mask id="mask159_4083_40129" style="mask-type:luminance" maskUnits="userSpaceOnUse" x="11" y="7" width="72" height="72">
<path d="M46.6853 78.1695C66.2908 78.1695 82.1841 62.2761 82.1841 42.6707C82.1841 23.0652 66.2908 7.17188 46.6853 7.17188C27.0799 7.17188 11.1865 23.0652 11.1865 42.6707C11.1865 62.2761 27.0799 78.1695 46.6853 78.1695Z" fill="white"/>
</mask>
<g mask="url(#mask159_4083_40129)">
<path d="M41.8242 7.36133L82.3675 39.8708L82.5544 40.5247L41.2637 7.45475L41.8242 7.36133Z" fill="#10A075"/>
</g>
<mask id="mask160_4083_40129" style="mask-type:luminance" maskUnits="userSpaceOnUse" x="11" y="7" width="72" height="72">
<path d="M46.6853 78.1695C66.2908 78.1695 82.1841 62.2761 82.1841 42.6707C82.1841 23.0652 66.2908 7.17188 46.6853 7.17188C27.0799 7.17188 11.1865 23.0652 11.1865 42.6707C11.1865 62.2761 27.0799 78.1695 46.6853 78.1695Z" fill="white"/>
</mask>
<g mask="url(#mask160_4083_40129)">
<path d="M42.3847 7.26562L82.2742 39.2145L82.3676 39.8685L41.8242 7.35904L42.3847 7.26562Z" fill="#10A075"/>
</g>
<mask id="mask161_4083_40129" style="mask-type:luminance" maskUnits="userSpaceOnUse" x="11" y="7" width="72" height="72">
<path d="M46.6853 78.1695C66.2908 78.1695 82.1841 62.2761 82.1841 42.6707C82.1841 23.0652 66.2908 7.17188 46.6853 7.17188C27.0799 7.17188 11.1865 23.0652 11.1865 42.6707C11.1865 62.2761 27.0799 78.1695 46.6853 78.1695Z" fill="white"/>
</mask>
<g mask="url(#mask161_4083_40129)">
<path d="M42.9462 7.17188L82.0883 38.4669L82.2752 39.2142L42.3857 7.26529L42.9462 7.17188Z" fill="#10A075"/>
</g>
<mask id="mask162_4083_40129" style="mask-type:luminance" maskUnits="userSpaceOnUse" x="11" y="7" width="72" height="72">
<path d="M46.6853 78.1695C66.2908 78.1695 82.1841 62.2761 82.1841 42.6707C82.1841 23.0652 66.2908 7.17188 46.6853 7.17188C27.0799 7.17188 11.1865 23.0652 11.1865 42.6707C11.1865 62.2761 27.0799 78.1695 46.6853 78.1695Z" fill="white"/>
</mask>
<g mask="url(#mask162_4083_40129)">
<path d="M43.5058 7.08008L81.994 37.8146L82.0874 38.4685L42.9453 7.1735L43.5058 7.08008Z" fill="#10A075"/>
</g>
<mask id="mask163_4083_40129" style="mask-type:luminance" maskUnits="userSpaceOnUse" x="11" y="7" width="72" height="72">
<path d="M46.6853 78.1695C66.2908 78.1695 82.1841 62.2761 82.1841 42.6707C82.1841 23.0652 66.2908 7.17188 46.6853 7.17188C27.0799 7.17188 11.1865 23.0652 11.1865 42.6707C11.1865 62.2761 27.0799 78.1695 46.6853 78.1695Z" fill="white"/>
</mask>
<g mask="url(#mask163_4083_40129)">
<path d="M44.0654 6.89258L81.8062 37.16L81.993 37.8139L43.5049 7.07941L44.0654 6.89258Z" fill="#10A075"/>
</g>
<mask id="mask164_4083_40129" style="mask-type:luminance" maskUnits="userSpaceOnUse" x="11" y="7" width="72" height="72">
<path d="M46.6853 78.1695C66.2908 78.1695 82.1841 62.2761 82.1841 42.6707C82.1841 23.0652 66.2908 7.17188 46.6853 7.17188C27.0799 7.17188 11.1865 23.0652 11.1865 42.6707C11.1865 62.2761 27.0799 78.1695 46.6853 78.1695Z" fill="white"/>
</mask>
<g mask="url(#mask164_4083_40129)">
<path d="M44.6259 6.79883L81.7128 36.5057L81.8063 37.1596L44.0654 6.89225L44.6259 6.79883Z" fill="#10A075"/>
</g>
<mask id="mask165_4083_40129" style="mask-type:luminance" maskUnits="userSpaceOnUse" x="11" y="7" width="72" height="72">
<path d="M46.6853 78.1695C66.2908 78.1695 82.1841 62.2761 82.1841 42.6707C82.1841 23.0652 66.2908 7.17188 46.6853 7.17188C27.0799 7.17188 11.1865 23.0652 11.1865 42.6707C11.1865 62.2761 27.0799 78.1695 46.6853 78.1695Z" fill="white"/>
</mask>
<g mask="url(#mask165_4083_40129)">
<path d="M45.2828 6.70508L81.529 35.8515L81.7158 36.5054L44.6289 6.7985L45.2828 6.70508Z" fill="#10A075"/>
</g>
<mask id="mask166_4083_40129" style="mask-type:luminance" maskUnits="userSpaceOnUse" x="11" y="7" width="72" height="72">
<path d="M46.6853 78.1695C66.2908 78.1695 82.1841 62.2761 82.1841 42.6707C82.1841 23.0652 66.2908 7.17188 46.6853 7.17188C27.0799 7.17188 11.1865 23.0652 11.1865 42.6707C11.1865 62.2761 27.0799 78.1695 46.6853 78.1695Z" fill="white"/>
</mask>
<g mask="url(#mask166_4083_40129)">
<path d="M45.8418 6.61133L81.434 35.1038L81.5274 35.8511L45.2812 6.70475L45.8418 6.61133Z" fill="#10A075"/>
</g>
<mask id="mask167_4083_40129" style="mask-type:luminance" maskUnits="userSpaceOnUse" x="11" y="7" width="72" height="72">
<path d="M46.6853 78.1695C66.2908 78.1695 82.1841 62.2761 82.1841 42.6707C82.1841 23.0652 66.2908 7.17188 46.6853 7.17188C27.0799 7.17188 11.1865 23.0652 11.1865 42.6707C11.1865 62.2761 27.0799 78.1695 46.6853 78.1695Z" fill="white"/>
</mask>
<g mask="url(#mask167_4083_40129)">
<path d="M46.4003 6.51953L81.3386 34.4515L81.4321 35.1054L45.8398 6.61295L46.4003 6.51953Z" fill="#10A075"/>
</g>
<mask id="mask168_4083_40129" style="mask-type:luminance" maskUnits="userSpaceOnUse" x="11" y="7" width="72" height="72">
<path d="M46.6853 78.1695C66.2908 78.1695 82.1841 62.2761 82.1841 42.6707C82.1841 23.0652 66.2908 7.17188 46.6853 7.17188C27.0799 7.17188 11.1865 23.0652 11.1865 42.6707C11.1865 62.2761 27.0799 78.1695 46.6853 78.1695Z" fill="white"/>
</mask>
<g mask="url(#mask168_4083_40129)">
<path d="M46.9609 6.33203L81.1518 33.7969L81.3387 34.4508L46.4004 6.51887L46.9609 6.33203Z" fill="#10A075"/>
</g>
<mask id="mask169_4083_40129" style="mask-type:luminance" maskUnits="userSpaceOnUse" x="11" y="7" width="72" height="72">
<path d="M46.6853 78.1695C66.2908 78.1695 82.1841 62.2761 82.1841 42.6707C82.1841 23.0652 66.2908 7.17188 46.6853 7.17188C27.0799 7.17188 11.1865 23.0652 11.1865 42.6707C11.1865 62.2761 27.0799 78.1695 46.6853 78.1695Z" fill="white"/>
</mask>
<g mask="url(#mask169_4083_40129)">
<path d="M47.5254 6.23828L81.0624 33.1426L81.1558 33.7966L46.9648 6.3317L47.5254 6.23828Z" fill="#10A075"/>
</g>
<mask id="mask170_4083_40129" style="mask-type:luminance" maskUnits="userSpaceOnUse" x="11" y="7" width="72" height="72">
<path d="M46.6853 78.1695C66.2908 78.1695 82.1841 62.2761 82.1841 42.6707C82.1841 23.0652 66.2908 7.17188 46.6853 7.17188C27.0799 7.17188 11.1865 23.0652 11.1865 42.6707C11.1865 62.2761 27.0799 78.1695 46.6853 78.1695Z" fill="white"/>
</mask>
<g mask="url(#mask170_4083_40129)">
<path d="M48.083 6.14453L80.8726 32.395L81.0595 33.1423L47.5225 6.23795L48.083 6.14453Z" fill="#10A075"/>
</g>
<mask id="mask171_4083_40129" style="mask-type:luminance" maskUnits="userSpaceOnUse" x="11" y="7" width="72" height="72">
<path d="M46.6853 78.1695C66.2908 78.1695 82.1841 62.2761 82.1841 42.6707C82.1841 23.0652 66.2908 7.17188 46.6853 7.17188C27.0799 7.17188 11.1865 23.0652 11.1865 42.6707C11.1865 62.2761 27.0799 78.1695 46.6853 78.1695Z" fill="white"/>
</mask>
<g mask="url(#mask171_4083_40129)">
<path d="M48.6437 6.05078L80.7795 31.7407L80.8729 32.3946L48.0832 6.1442L48.6437 6.05078Z" fill="#10A075"/>
</g>
<mask id="mask172_4083_40129" style="mask-type:luminance" maskUnits="userSpaceOnUse" x="11" y="7" width="72" height="72">
<path d="M46.6853 78.1695C66.2908 78.1695 82.1841 62.2761 82.1841 42.6707C82.1841 23.0652 66.2908 7.17188 46.6853 7.17188C27.0799 7.17188 11.1865 23.0652 11.1865 42.6707C11.1865 62.2761 27.0799 78.1695 46.6853 78.1695Z" fill="white"/>
</mask>
<g mask="url(#mask172_4083_40129)">
<path d="M49.205 5.95898L80.5934 31.0884L80.7803 31.7423L48.6445 6.0524L49.205 5.95898Z" fill="#10A075"/>
</g>
<mask id="mask173_4083_40129" style="mask-type:luminance" maskUnits="userSpaceOnUse" x="11" y="7" width="72" height="72">
<path d="M46.6853 78.1695C66.2908 78.1695 82.1841 62.2761 82.1841 42.6707C82.1841 23.0652 66.2908 7.17188 46.6853 7.17188C27.0799 7.17188 11.1865 23.0652 11.1865 42.6707C11.1865 62.2761 27.0799 78.1695 46.6853 78.1695Z" fill="white"/>
</mask>
<g mask="url(#mask173_4083_40129)">
<path d="M49.7646 5.77148L80.4991 30.4338L80.5925 31.0877L49.2041 5.95832L49.7646 5.77148Z" fill="#10A075"/>
</g>
<mask id="mask174_4083_40129" style="mask-type:luminance" maskUnits="userSpaceOnUse" x="11" y="7" width="72" height="72">
<path d="M46.6853 78.1695C66.2908 78.1695 82.1841 62.2761 82.1841 42.6707C82.1841 23.0652 66.2908 7.17188 46.6853 7.17188C27.0799 7.17188 11.1865 23.0652 11.1865 42.6707C11.1865 62.2761 27.0799 78.1695 46.6853 78.1695Z" fill="white"/>
</mask>
<g mask="url(#mask174_4083_40129)">
<path d="M50.3261 5.67773L80.3133 29.7795L80.5001 30.4335L49.7656 5.77115L50.3261 5.67773Z" fill="#10A075"/>
</g>
<mask id="mask175_4083_40129" style="mask-type:luminance" maskUnits="userSpaceOnUse" x="11" y="7" width="72" height="72">
<path d="M46.6853 78.1695C66.2908 78.1695 82.1841 62.2761 82.1841 42.6707C82.1841 23.0652 66.2908 7.17188 46.6853 7.17188C27.0799 7.17188 11.1865 23.0652 11.1865 42.6707C11.1865 62.2761 27.0799 78.1695 46.6853 78.1695Z" fill="white"/>
</mask>
<g mask="url(#mask175_4083_40129)">
<path d="M50.8877 5.58594L80.2209 29.0338L80.3143 29.7812L50.3271 5.67936L50.8877 5.58594Z" fill="#10A075"/>
</g>
<mask id="mask176_4083_40129" style="mask-type:luminance" maskUnits="userSpaceOnUse" x="11" y="7" width="72" height="72">
<path d="M46.6853 78.1695C66.2908 78.1695 82.1841 62.2761 82.1841 42.6707C82.1841 23.0652 66.2908 7.17188 46.6853 7.17188C27.0799 7.17188 11.1865 23.0652 11.1865 42.6707C11.1865 62.2761 27.0799 78.1695 46.6853 78.1695Z" fill="white"/>
</mask>
<g mask="url(#mask176_4083_40129)">
<path d="M51.4472 5.49023L80.1265 28.3776L80.2199 29.0315L50.8867 5.58365L51.4472 5.49023Z" fill="#10A075"/>
</g>
<mask id="mask177_4083_40129" style="mask-type:luminance" maskUnits="userSpaceOnUse" x="11" y="7" width="72" height="72">
<path d="M46.6853 78.1695C66.2908 78.1695 82.1841 62.2761 82.1841 42.6707C82.1841 23.0652 66.2908 7.17188 46.6853 7.17188C27.0799 7.17188 11.1865 23.0652 11.1865 42.6707C11.1865 62.2761 27.0799 78.1695 46.6853 78.1695Z" fill="white"/>
</mask>
<g mask="url(#mask177_4083_40129)">
<path d="M52.0058 5.30469L79.9378 27.725L80.1246 28.3789L51.4453 5.49152L52.0058 5.30469Z" fill="#10A075"/>
</g>
<mask id="mask178_4083_40129" style="mask-type:luminance" maskUnits="userSpaceOnUse" x="11" y="7" width="72" height="72">
<path d="M46.6853 78.1695C66.2908 78.1695 82.1841 62.2761 82.1841 42.6707C82.1841 23.0652 66.2908 7.17188 46.6853 7.17188C27.0799 7.17188 11.1865 23.0652 11.1865 42.6707C11.1865 62.2761 27.0799 78.1695 46.6853 78.1695Z" fill="white"/>
</mask>
<g mask="url(#mask178_4083_40129)">
<path d="M52.5664 5.21094L79.8444 27.0707L79.9378 27.7246L52.0059 5.30436L52.5664 5.21094Z" fill="#10A075"/>
</g>
<mask id="mask179_4083_40129" style="mask-type:luminance" maskUnits="userSpaceOnUse" x="11" y="7" width="72" height="72">
<path d="M46.6853 78.1695C66.2908 78.1695 82.1841 62.2761 82.1841 42.6707C82.1841 23.0652 66.2908 7.17188 46.6853 7.17188C27.0799 7.17188 11.1865 23.0652 11.1865 42.6707C11.1865 62.2761 27.0799 78.1695 46.6853 78.1695Z" fill="white"/>
</mask>
<g mask="url(#mask179_4083_40129)">
<path d="M53.1308 5.11719L79.6615 26.4165L79.8483 27.0704L52.5703 5.21061L53.1308 5.11719Z" fill="#10A075"/>
</g>
<mask id="mask180_4083_40129" style="mask-type:luminance" maskUnits="userSpaceOnUse" x="11" y="7" width="72" height="72">
<path d="M46.6853 78.1695C66.2908 78.1695 82.1841 62.2761 82.1841 42.6707C82.1841 23.0652 66.2908 7.17188 46.6853 7.17188C27.0799 7.17188 11.1865 23.0652 11.1865 42.6707C11.1865 62.2761 27.0799 78.1695 46.6853 78.1695Z" fill="white"/>
</mask>
<g mask="url(#mask180_4083_40129)">
<path d="M53.6884 5.02539L79.5652 25.6707L79.6586 26.4181L53.1279 5.11881L53.6884 5.02539Z" fill="#10A075"/>
</g>
<mask id="mask181_4083_40129" style="mask-type:luminance" maskUnits="userSpaceOnUse" x="11" y="7" width="72" height="72">
<path d="M46.6853 78.1695C66.2908 78.1695 82.1841 62.2761 82.1841 42.6707C82.1841 23.0652 66.2908 7.17188 46.6853 7.17188C27.0799 7.17188 11.1865 23.0652 11.1865 42.6707C11.1865 62.2761 27.0799 78.1695 46.6853 78.1695Z" fill="white"/>
</mask>
<g mask="url(#mask181_4083_40129)">
<path d="M54.249 4.92969L79.3784 25.0145L79.5652 25.6685L53.6885 5.02311L54.249 4.92969Z" fill="#10A075"/>
</g>
<mask id="mask182_4083_40129" style="mask-type:luminance" maskUnits="userSpaceOnUse" x="11" y="7" width="72" height="72">
<path d="M46.6853 78.1695C66.2908 78.1695 82.1841 62.2761 82.1841 42.6707C82.1841 23.0652 66.2908 7.17188 46.6853 7.17188C27.0799 7.17188 11.1865 23.0652 11.1865 42.6707C11.1865 62.2761 27.0799 78.1695 46.6853 78.1695Z" fill="white"/>
</mask>
<g mask="url(#mask182_4083_40129)">
<path d="M54.8103 4.74414L79.2857 24.3619L79.3792 25.0158L54.2498 4.93098L54.8103 4.74414Z" fill="#10A075"/>
</g>
<mask id="mask183_4083_40129" style="mask-type:luminance" maskUnits="userSpaceOnUse" x="11" y="7" width="72" height="72">
<path d="M46.6853 78.1695C66.2908 78.1695 82.1841 62.2761 82.1841 42.6707C82.1841 23.0652 66.2908 7.17188 46.6853 7.17188C27.0799 7.17188 11.1865 23.0652 11.1865 42.6707C11.1865 62.2761 27.0799 78.1695 46.6853 78.1695Z" fill="white"/>
</mask>
<g mask="url(#mask183_4083_40129)">
<path d="M55.4635 4.65039L79.1916 23.7076L79.2851 24.3616L54.8096 4.74381L55.4635 4.65039Z" fill="#10A075"/>
</g>
<mask id="mask184_4083_40129" style="mask-type:luminance" maskUnits="userSpaceOnUse" x="11" y="7" width="72" height="72">
<path d="M46.6853 78.1695C66.2908 78.1695 82.1841 62.2761 82.1841 42.6707C82.1841 23.0652 66.2908 7.17188 46.6853 7.17188C27.0799 7.17188 11.1865 23.0652 11.1865 42.6707C11.1865 62.2761 27.0799 78.1695 46.6853 78.1695Z" fill="white"/>
</mask>
<g mask="url(#mask184_4083_40129)">
<path d="M56.0234 4.55664L79.0042 22.96L79.191 23.7073L55.4629 4.65006L56.0234 4.55664Z" fill="#10A075"/>
</g>
<mask id="mask185_4083_40129" style="mask-type:luminance" maskUnits="userSpaceOnUse" x="11" y="7" width="72" height="72">
<path d="M46.6853 78.1695C66.2908 78.1695 82.1841 62.2761 82.1841 42.6707C82.1841 23.0652 66.2908 7.17188 46.6853 7.17188C27.0799 7.17188 11.1865 23.0652 11.1865 42.6707C11.1865 62.2761 27.0799 78.1695 46.6853 78.1695Z" fill="white"/>
</mask>
<g mask="url(#mask185_4083_40129)">
<path d="M79.0052 22.9604L56.0244 4.55703L74.6146 0.820312L79.0052 22.9604Z" fill="#10A075"/>
</g>
<path fill-rule="evenodd" clip-rule="evenodd" d="M38.9644 56.7148C40.8514 56.7148 42.2666 58.1301 42.2666 60.0171C42.2666 61.6682 40.8514 63.3194 38.9644 63.3194C37.3132 63.3194 35.6621 61.9041 35.6621 60.0171C35.6621 58.1301 37.0774 56.7148 38.9644 56.7148Z" fill="white"/>
<path fill-rule="evenodd" clip-rule="evenodd" d="M27.4062 20.6245L32.8314 22.0398C33.3031 22.2756 33.7749 22.5115 33.7749 23.2191L34.4825 27.4649L66.7974 31.2389C67.5051 31.4748 67.9768 32.1824 67.9768 32.89L63.9669 48.6937L62.5517 53.8829C62.3158 54.5906 61.844 54.8264 61.3723 54.8264H33.7749C32.1238 54.8264 32.1238 52.2318 33.7749 52.2318H60.1929L60.9005 49.6372H36.3695C35.6619 49.6372 35.1901 49.1654 34.9543 48.4578L31.1802 24.3985L26.9345 23.2191C25.0475 22.9833 25.7551 20.3886 27.4062 20.6245ZM61.3723 47.0426L64.6745 33.8335L60.6647 33.3618L58.7777 47.0426H61.3723ZM56.183 47.0426L58.07 32.89L54.0602 32.1824L53.3525 46.8067H56.183V47.0426ZM47.9274 47.0426H50.522L51.2297 32.1824L47.2198 31.7107L47.9274 47.0426ZM42.7381 47.0426H45.3328L44.6251 31.2389L40.6153 30.7672L42.7381 47.0426ZM37.5489 47.0426H39.9076L38.0206 30.5313L35.1901 30.0595L37.5489 47.0426Z" fill="white"/>
<path fill-rule="evenodd" clip-rule="evenodd" d="M55.9468 56.7148C57.8338 56.7148 59.249 58.1301 59.249 60.0171C59.249 61.6682 57.8338 63.3194 55.9468 63.3194C54.2957 63.3194 52.6445 61.9041 52.6445 60.0171C52.6445 58.1301 54.2957 56.7148 55.9468 56.7148Z" fill="white"/>
<defs>
<filter id="filter0_d_4083_40129" x="0" y="0" width="93.35" height="93.3496" filterUnits="userSpaceOnUse" color-interpolation-filters="sRGB">
<feFlood flood-opacity="0" result="BackgroundImageFix"/>
<feColorMatrix in="SourceAlpha" type="matrix" values="0 0 0 0 0 0 0 0 0 0 0 0 0 0 0 0 0 0 127 0" result="hardAlpha"/>
<feOffset dy="4"/>
<feGaussianBlur stdDeviation="4"/>
<feComposite in2="hardAlpha" operator="out"/>
<feColorMatrix type="matrix" values="0 0 0 0 0 0 0 0 0 0 0 0 0 0 0 0 0 0 0.35 0"/>
<feBlend mode="normal" in2="BackgroundImageFix" result="effect1_dropShadow_4083_40129"/>
<feBlend mode="normal" in="SourceGraphic" in2="effect1_dropShadow_4083_40129" result="shape"/>
</filter>
</defs>
</svg>
