<svg width="63" height="63" viewBox="0 0 63 63" fill="none" xmlns="http://www.w3.org/2000/svg">
<g filter="url(#filter0_d_3916_7297)">
<path d="M31.2998 50.5996C44.1679 50.5996 54.5996 40.1679 54.5996 27.2998C54.5996 14.4317 44.1679 4 31.2998 4C18.4317 4 8 14.4317 8 27.2998C8 40.1679 18.4317 50.5996 31.2998 50.5996Z" fill="white"/>
</g>
<path d="M31.3023 48.6847C43.1136 48.6847 52.6886 39.1097 52.6886 27.2984C52.6886 15.4871 43.1136 5.91211 31.3023 5.91211C19.491 5.91211 9.91602 15.4871 9.91602 27.2984C9.91602 39.1097 19.491 48.6847 31.3023 48.6847Z" fill="#10A075"/>
<mask id="mask0_3916_7297" style="mask-type:luminance" maskUnits="userSpaceOnUse" x="9" y="5" width="44" height="44">
<path d="M31.3062 48.6847C43.1175 48.6847 52.6925 39.1097 52.6925 27.2984C52.6925 15.4871 43.1175 5.91211 31.3062 5.91211C19.4949 5.91211 9.91992 15.4871 9.91992 27.2984C9.91992 39.1097 19.4949 48.6847 31.3062 48.6847Z" fill="white"/>
</mask>
<g mask="url(#mask0_3916_7297)">
<path d="M11.832 39.1172L25.7331 50.2606L14.5335 52.4555L11.832 39.1172Z" fill="#10A075"/>
</g>
<mask id="mask1_3916_7297" style="mask-type:luminance" maskUnits="userSpaceOnUse" x="9" y="5" width="44" height="44">
<path d="M31.3062 48.6847C43.1175 48.6847 52.6925 39.1097 52.6925 27.2984C52.6925 15.4871 43.1175 5.91211 31.3062 5.91211C19.4949 5.91211 9.91992 15.4871 9.91992 27.2984C9.91992 39.1097 19.4949 48.6847 31.3062 48.6847Z" fill="white"/>
</mask>
<g mask="url(#mask1_3916_7297)">
<path d="M11.7764 38.7793L26.0151 50.2041L25.7337 50.2604L11.8326 39.117L11.7764 38.7793Z" fill="#10A075"/>
</g>
<mask id="mask2_3916_7297" style="mask-type:luminance" maskUnits="userSpaceOnUse" x="9" y="5" width="44" height="44">
<path d="M31.3062 48.6847C43.1175 48.6847 52.6925 39.1097 52.6925 27.2984C52.6925 15.4871 43.1175 5.91211 31.3062 5.91211C19.4949 5.91211 9.91992 15.4871 9.91992 27.2984C9.91992 39.1097 19.4949 48.6847 31.3062 48.6847Z" fill="white"/>
</mask>
<g mask="url(#mask2_3916_7297)">
<path d="M11.7188 38.4414L26.2952 50.1476L26.0138 50.2039L11.775 38.7791L11.7188 38.4414Z" fill="#10A075"/>
</g>
<mask id="mask3_3916_7297" style="mask-type:luminance" maskUnits="userSpaceOnUse" x="9" y="5" width="44" height="44">
<path d="M31.3062 48.6847C43.1175 48.6847 52.6925 39.1097 52.6925 27.2984C52.6925 15.4871 43.1175 5.91211 31.3062 5.91211C19.4949 5.91211 9.91992 15.4871 9.91992 27.2984C9.91992 39.1097 19.4949 48.6847 31.3062 48.6847Z" fill="white"/>
</mask>
<g mask="url(#mask3_3916_7297)">
<path d="M11.6631 38.1035L26.5772 50.0911L26.2958 50.1474L11.7194 38.4412L11.6631 38.1035Z" fill="#10A075"/>
</g>
<mask id="mask4_3916_7297" style="mask-type:luminance" maskUnits="userSpaceOnUse" x="9" y="5" width="44" height="44">
<path d="M31.3062 48.6847C43.1175 48.6847 52.6925 39.1097 52.6925 27.2984C52.6925 15.4871 43.1175 5.91211 31.3062 5.91211C19.4949 5.91211 9.91992 15.4871 9.91992 27.2984C9.91992 39.1097 19.4949 48.6847 31.3062 48.6847Z" fill="white"/>
</mask>
<g mask="url(#mask4_3916_7297)">
<path d="M11.6074 37.7656L26.8592 50.0346L26.5778 50.0909L11.6637 38.1033L11.6074 37.7656Z" fill="#10A075"/>
</g>
<mask id="mask5_3916_7297" style="mask-type:luminance" maskUnits="userSpaceOnUse" x="9" y="5" width="44" height="44">
<path d="M31.3062 48.6847C43.1175 48.6847 52.6925 39.1097 52.6925 27.2984C52.6925 15.4871 43.1175 5.91211 31.3062 5.91211C19.4949 5.91211 9.91992 15.4871 9.91992 27.2984C9.91992 39.1097 19.4949 48.6847 31.3062 48.6847Z" fill="white"/>
</mask>
<g mask="url(#mask5_3916_7297)">
<path d="M11.4941 37.4863L27.1399 49.9804L26.8585 50.0367L11.6067 37.7677L11.4941 37.4863Z" fill="#10A075"/>
</g>
<mask id="mask6_3916_7297" style="mask-type:luminance" maskUnits="userSpaceOnUse" x="9" y="5" width="44" height="44">
<path d="M31.3062 48.6847C43.1175 48.6847 52.6925 39.1097 52.6925 27.2984C52.6925 15.4871 43.1175 5.91211 31.3062 5.91211C19.4949 5.91211 9.91992 15.4871 9.91992 27.2984C9.91992 39.1097 19.4949 48.6847 31.3062 48.6847Z" fill="white"/>
</mask>
<g mask="url(#mask6_3916_7297)">
<path d="M11.4365 37.1484L27.42 49.9239L27.1386 49.9802L11.4928 37.4861L11.4365 37.1484Z" fill="#10A075"/>
</g>
<mask id="mask7_3916_7297" style="mask-type:luminance" maskUnits="userSpaceOnUse" x="9" y="5" width="44" height="44">
<path d="M31.3062 48.6847C43.1175 48.6847 52.6925 39.1097 52.6925 27.2984C52.6925 15.4871 43.1175 5.91211 31.3062 5.91211C19.4949 5.91211 9.91992 15.4871 9.91992 27.2984C9.91992 39.1097 19.4949 48.6847 31.3062 48.6847Z" fill="white"/>
</mask>
<g mask="url(#mask7_3916_7297)">
<path d="M11.3809 36.8105L27.702 49.8674L27.4206 49.9237L11.4371 37.1482L11.3809 36.8105Z" fill="#10A075"/>
</g>
<mask id="mask8_3916_7297" style="mask-type:luminance" maskUnits="userSpaceOnUse" x="9" y="5" width="44" height="44">
<path d="M31.3062 48.6847C43.1175 48.6847 52.6925 39.1097 52.6925 27.2984C52.6925 15.4871 43.1175 5.91211 31.3062 5.91211C19.4949 5.91211 9.91992 15.4871 9.91992 27.2984C9.91992 39.1097 19.4949 48.6847 31.3062 48.6847Z" fill="white"/>
</mask>
<g mask="url(#mask8_3916_7297)">
<path d="M11.3252 36.4727L27.984 49.8109L27.7026 49.8672L11.3815 36.8103L11.3252 36.4727Z" fill="#10A075"/>
</g>
<mask id="mask9_3916_7297" style="mask-type:luminance" maskUnits="userSpaceOnUse" x="9" y="5" width="44" height="44">
<path d="M31.3062 48.6847C43.1175 48.6847 52.6925 39.1097 52.6925 27.2984C52.6925 15.4871 43.1175 5.91211 31.3062 5.91211C19.4949 5.91211 9.91992 15.4871 9.91992 27.2984C9.91992 39.1097 19.4949 48.6847 31.3062 48.6847Z" fill="white"/>
</mask>
<g mask="url(#mask9_3916_7297)">
<path d="M11.2695 36.1348L28.266 49.7545L27.9846 49.8107L11.3258 36.4724L11.2695 36.1348Z" fill="#10A075"/>
</g>
<mask id="mask10_3916_7297" style="mask-type:luminance" maskUnits="userSpaceOnUse" x="9" y="5" width="44" height="44">
<path d="M31.3062 48.6847C43.1175 48.6847 52.6925 39.1097 52.6925 27.2984C52.6925 15.4871 43.1175 5.91211 31.3062 5.91211C19.4949 5.91211 9.91992 15.4871 9.91992 27.2984C9.91992 39.1097 19.4949 48.6847 31.3062 48.6847Z" fill="white"/>
</mask>
<g mask="url(#mask10_3916_7297)">
<path d="M11.1562 35.7969L28.5467 49.698L28.2653 49.7542L11.2688 36.1346L11.1562 35.7969Z" fill="#10A075"/>
</g>
<mask id="mask11_3916_7297" style="mask-type:luminance" maskUnits="userSpaceOnUse" x="9" y="5" width="44" height="44">
<path d="M31.3062 48.6847C43.1175 48.6847 52.6925 39.1097 52.6925 27.2984C52.6925 15.4871 43.1175 5.91211 31.3062 5.91211C19.4949 5.91211 9.91992 15.4871 9.91992 27.2984C9.91992 39.1097 19.4949 48.6847 31.3062 48.6847Z" fill="white"/>
</mask>
<g mask="url(#mask11_3916_7297)">
<path d="M11.1006 35.459L28.8287 49.6415L28.5473 49.6978L11.1569 35.7967L11.1006 35.459Z" fill="#10A075"/>
</g>
<mask id="mask12_3916_7297" style="mask-type:luminance" maskUnits="userSpaceOnUse" x="9" y="5" width="44" height="44">
<path d="M31.3062 48.6847C43.1175 48.6847 52.6925 39.1097 52.6925 27.2984C52.6925 15.4871 43.1175 5.91211 31.3062 5.91211C19.4949 5.91211 9.91992 15.4871 9.91992 27.2984C9.91992 39.1097 19.4949 48.6847 31.3062 48.6847Z" fill="white"/>
</mask>
<g mask="url(#mask12_3916_7297)">
<path d="M11.043 35.1211L29.1088 49.585L28.8274 49.6413L11.0992 35.4588L11.043 35.1211Z" fill="#10A075"/>
</g>
<mask id="mask13_3916_7297" style="mask-type:luminance" maskUnits="userSpaceOnUse" x="9" y="5" width="44" height="44">
<path d="M31.3062 48.6847C43.1175 48.6847 52.6925 39.1097 52.6925 27.2984C52.6925 15.4871 43.1175 5.91211 31.3062 5.91211C19.4949 5.91211 9.91992 15.4871 9.91992 27.2984C9.91992 39.1097 19.4949 48.6847 31.3062 48.6847Z" fill="white"/>
</mask>
<g mask="url(#mask13_3916_7297)">
<path d="M10.9873 34.7832L29.3908 49.5285L29.1094 49.5848L11.0436 35.1209L10.9873 34.7832Z" fill="#10A075"/>
</g>
<mask id="mask14_3916_7297" style="mask-type:luminance" maskUnits="userSpaceOnUse" x="9" y="5" width="44" height="44">
<path d="M31.3062 48.6847C43.1175 48.6847 52.6925 39.1097 52.6925 27.2984C52.6925 15.4871 43.1175 5.91211 31.3062 5.91211C19.4949 5.91211 9.91992 15.4871 9.91992 27.2984C9.91992 39.1097 19.4949 48.6847 31.3062 48.6847Z" fill="white"/>
</mask>
<g mask="url(#mask14_3916_7297)">
<path d="M10.9316 34.4453L29.6728 49.472L29.3914 49.5283L10.9879 34.783L10.9316 34.4453Z" fill="#10A075"/>
</g>
<mask id="mask15_3916_7297" style="mask-type:luminance" maskUnits="userSpaceOnUse" x="9" y="5" width="44" height="44">
<path d="M31.3062 48.6847C43.1175 48.6847 52.6925 39.1097 52.6925 27.2984C52.6925 15.4871 43.1175 5.91211 31.3062 5.91211C19.4949 5.91211 9.91992 15.4871 9.91992 27.2984C9.91992 39.1097 19.4949 48.6847 31.3062 48.6847Z" fill="white"/>
</mask>
<g mask="url(#mask15_3916_7297)">
<path d="M10.874 34.1094L29.9529 49.4175L29.6715 49.4737L10.9303 34.4471L10.874 34.1094Z" fill="#10A075"/>
</g>
<mask id="mask16_3916_7297" style="mask-type:luminance" maskUnits="userSpaceOnUse" x="9" y="5" width="44" height="44">
<path d="M31.3062 48.6847C43.1175 48.6847 52.6925 39.1097 52.6925 27.2984C52.6925 15.4871 43.1175 5.91211 31.3062 5.91211C19.4949 5.91211 9.91992 15.4871 9.91992 27.2984C9.91992 39.1097 19.4949 48.6847 31.3062 48.6847Z" fill="white"/>
</mask>
<g mask="url(#mask16_3916_7297)">
<path d="M10.7627 33.7715L30.1792 49.361L29.9541 49.4172L10.8753 34.1092L10.7627 33.7715Z" fill="#10A075"/>
</g>
<mask id="mask17_3916_7297" style="mask-type:luminance" maskUnits="userSpaceOnUse" x="9" y="5" width="44" height="44">
<path d="M31.3062 48.6847C43.1175 48.6847 52.6925 39.1097 52.6925 27.2984C52.6925 15.4871 43.1175 5.91211 31.3062 5.91211C19.4949 5.91211 9.91992 15.4871 9.91992 27.2984C9.91992 39.1097 19.4949 48.6847 31.3062 48.6847Z" fill="white"/>
</mask>
<g mask="url(#mask17_3916_7297)">
<path d="M10.707 33.4336L30.4612 49.3045L30.1798 49.3608L10.7633 33.7713L10.707 33.4336Z" fill="#10A075"/>
</g>
<mask id="mask18_3916_7297" style="mask-type:luminance" maskUnits="userSpaceOnUse" x="9" y="5" width="44" height="44">
<path d="M31.3062 48.6847C43.1175 48.6847 52.6925 39.1097 52.6925 27.2984C52.6925 15.4871 43.1175 5.91211 31.3062 5.91211C19.4949 5.91211 9.91992 15.4871 9.91992 27.2984C9.91992 39.1097 19.4949 48.6847 31.3062 48.6847Z" fill="white"/>
</mask>
<g mask="url(#mask18_3916_7297)">
<path d="M10.6514 33.0957L30.7432 49.248L30.4618 49.3043L10.7076 33.4334L10.6514 33.0957Z" fill="#10A075"/>
</g>
<mask id="mask19_3916_7297" style="mask-type:luminance" maskUnits="userSpaceOnUse" x="9" y="5" width="44" height="44">
<path d="M31.3062 48.6847C43.1175 48.6847 52.6925 39.1097 52.6925 27.2984C52.6925 15.4871 43.1175 5.91211 31.3062 5.91211C19.4949 5.91211 9.91992 15.4871 9.91992 27.2984C9.91992 39.1097 19.4949 48.6847 31.3062 48.6847Z" fill="white"/>
</mask>
<g mask="url(#mask19_3916_7297)">
<path d="M10.5938 32.7578L31.0233 49.1915L30.7419 49.2478L10.65 33.0955L10.5938 32.7578Z" fill="#10A075"/>
</g>
<mask id="mask20_3916_7297" style="mask-type:luminance" maskUnits="userSpaceOnUse" x="9" y="5" width="44" height="44">
<path d="M31.3062 48.6847C43.1175 48.6847 52.6925 39.1097 52.6925 27.2984C52.6925 15.4871 43.1175 5.91211 31.3062 5.91211C19.4949 5.91211 9.91992 15.4871 9.91992 27.2984C9.91992 39.1097 19.4949 48.6847 31.3062 48.6847Z" fill="white"/>
</mask>
<g mask="url(#mask20_3916_7297)">
<path d="M10.5361 32.4766L31.3034 49.1354L31.022 49.1916L10.5924 32.758L10.5361 32.4766Z" fill="#10A075"/>
</g>
<mask id="mask21_3916_7297" style="mask-type:luminance" maskUnits="userSpaceOnUse" x="9" y="5" width="44" height="44">
<path d="M31.3062 48.6847C43.1175 48.6847 52.6925 39.1097 52.6925 27.2984C52.6925 15.4871 43.1175 5.91211 31.3062 5.91211C19.4949 5.91211 9.91992 15.4871 9.91992 27.2984C9.91992 39.1097 19.4949 48.6847 31.3062 48.6847Z" fill="white"/>
</mask>
<g mask="url(#mask21_3916_7297)">
<path d="M10.4248 32.1387L31.586 49.0789L31.3046 49.1351L10.5374 32.4764L10.4248 32.1387Z" fill="#10A075"/>
</g>
<mask id="mask22_3916_7297" style="mask-type:luminance" maskUnits="userSpaceOnUse" x="9" y="5" width="44" height="44">
<path d="M31.3062 48.6847C43.1175 48.6847 52.6925 39.1097 52.6925 27.2984C52.6925 15.4871 43.1175 5.91211 31.3062 5.91211C19.4949 5.91211 9.91992 15.4871 9.91992 27.2984C9.91992 39.1097 19.4949 48.6847 31.3062 48.6847Z" fill="white"/>
</mask>
<g mask="url(#mask22_3916_7297)">
<path d="M10.3691 31.8008L31.868 49.0224L31.5866 49.0787L10.4254 32.1385L10.3691 31.8008Z" fill="#10A075"/>
</g>
<mask id="mask23_3916_7297" style="mask-type:luminance" maskUnits="userSpaceOnUse" x="9" y="5" width="44" height="44">
<path d="M31.3062 48.6847C43.1175 48.6847 52.6925 39.1097 52.6925 27.2984C52.6925 15.4871 43.1175 5.91211 31.3062 5.91211C19.4949 5.91211 9.91992 15.4871 9.91992 27.2984C9.91992 39.1097 19.4949 48.6847 31.3062 48.6847Z" fill="white"/>
</mask>
<g mask="url(#mask23_3916_7297)">
<path d="M10.3115 31.4629L32.1481 48.9659L31.8667 49.0222L10.3678 31.8006L10.3115 31.4629Z" fill="#10A075"/>
</g>
<mask id="mask24_3916_7297" style="mask-type:luminance" maskUnits="userSpaceOnUse" x="9" y="5" width="44" height="44">
<path d="M31.3062 48.6847C43.1175 48.6847 52.6925 39.1097 52.6925 27.2984C52.6925 15.4871 43.1175 5.91211 31.3062 5.91211C19.4949 5.91211 9.91992 15.4871 9.91992 27.2984C9.91992 39.1097 19.4949 48.6847 31.3062 48.6847Z" fill="white"/>
</mask>
<g mask="url(#mask24_3916_7297)">
<path d="M10.2559 31.125L32.4301 48.9094L32.1487 48.9657L10.3121 31.4627L10.2559 31.125Z" fill="#10A075"/>
</g>
<mask id="mask25_3916_7297" style="mask-type:luminance" maskUnits="userSpaceOnUse" x="9" y="5" width="44" height="44">
<path d="M31.3062 48.6847C43.1175 48.6847 52.6925 39.1097 52.6925 27.2984C52.6925 15.4871 43.1175 5.91211 31.3062 5.91211C19.4949 5.91211 9.91992 15.4871 9.91992 27.2984C9.91992 39.1097 19.4949 48.6847 31.3062 48.6847Z" fill="white"/>
</mask>
<g mask="url(#mask25_3916_7297)">
<path d="M10.2002 30.7891L32.7121 48.8549L32.4307 48.9111L10.2565 31.1267L10.2002 30.7891Z" fill="#10A075"/>
</g>
<mask id="mask26_3916_7297" style="mask-type:luminance" maskUnits="userSpaceOnUse" x="9" y="5" width="44" height="44">
<path d="M31.3062 48.6847C43.1175 48.6847 52.6925 39.1097 52.6925 27.2984C52.6925 15.4871 43.1175 5.91211 31.3062 5.91211C19.4949 5.91211 9.91992 15.4871 9.91992 27.2984C9.91992 39.1097 19.4949 48.6847 31.3062 48.6847Z" fill="white"/>
</mask>
<g mask="url(#mask26_3916_7297)">
<path d="M10.1445 30.4512L32.9941 48.7984L32.7127 48.8546L10.2008 30.7889L10.1445 30.4512Z" fill="#10A075"/>
</g>
<mask id="mask27_3916_7297" style="mask-type:luminance" maskUnits="userSpaceOnUse" x="9" y="5" width="44" height="44">
<path d="M31.3062 48.6847C43.1175 48.6847 52.6925 39.1097 52.6925 27.2984C52.6925 15.4871 43.1175 5.91211 31.3062 5.91211C19.4949 5.91211 9.91992 15.4871 9.91992 27.2984C9.91992 39.1097 19.4949 48.6847 31.3062 48.6847Z" fill="white"/>
</mask>
<g mask="url(#mask27_3916_7297)">
<path d="M10.0293 30.1133L33.2728 48.7419L32.9914 48.7981L10.1419 30.451L10.0293 30.1133Z" fill="#10A075"/>
</g>
<mask id="mask28_3916_7297" style="mask-type:luminance" maskUnits="userSpaceOnUse" x="9" y="5" width="44" height="44">
<path d="M31.3062 48.6847C43.1175 48.6847 52.6925 39.1097 52.6925 27.2984C52.6925 15.4871 43.1175 5.91211 31.3062 5.91211C19.4949 5.91211 9.91992 15.4871 9.91992 27.2984C9.91992 39.1097 19.4949 48.6847 31.3062 48.6847Z" fill="white"/>
</mask>
<g mask="url(#mask28_3916_7297)">
<path d="M9.97363 29.7754L33.5548 48.6854L33.2734 48.7417L10.0299 30.1131L9.97363 29.7754Z" fill="#10A075"/>
</g>
<mask id="mask29_3916_7297" style="mask-type:luminance" maskUnits="userSpaceOnUse" x="9" y="5" width="44" height="44">
<path d="M31.3062 48.6847C43.1175 48.6847 52.6925 39.1097 52.6925 27.2984C52.6925 15.4871 43.1175 5.91211 31.3062 5.91211C19.4949 5.91211 9.91992 15.4871 9.91992 27.2984C9.91992 39.1097 19.4949 48.6847 31.3062 48.6847Z" fill="white"/>
</mask>
<g mask="url(#mask29_3916_7297)">
<path d="M9.91797 29.4375L33.8369 48.6289L33.5555 48.6852L9.97425 29.7752L9.91797 29.4375Z" fill="#10A075"/>
</g>
<mask id="mask30_3916_7297" style="mask-type:luminance" maskUnits="userSpaceOnUse" x="9" y="5" width="44" height="44">
<path d="M31.3062 48.6847C43.1175 48.6847 52.6925 39.1097 52.6925 27.2984C52.6925 15.4871 43.1175 5.91211 31.3062 5.91211C19.4949 5.91211 9.91992 15.4871 9.91992 27.2984C9.91992 39.1097 19.4949 48.6847 31.3062 48.6847Z" fill="white"/>
</mask>
<g mask="url(#mask30_3916_7297)">
<path d="M9.8623 29.0996L34.1189 48.5724L33.8375 48.6287L9.91858 29.4373L9.8623 29.0996Z" fill="#10A075"/>
</g>
<mask id="mask31_3916_7297" style="mask-type:luminance" maskUnits="userSpaceOnUse" x="9" y="5" width="44" height="44">
<path d="M31.3062 48.6847C43.1175 48.6847 52.6925 39.1097 52.6925 27.2984C52.6925 15.4871 43.1175 5.91211 31.3062 5.91211C19.4949 5.91211 9.91992 15.4871 9.91992 27.2984C9.91992 39.1097 19.4949 48.6847 31.3062 48.6847Z" fill="white"/>
</mask>
<g mask="url(#mask31_3916_7297)">
<path d="M9.80664 28.7617L34.4009 48.5159L34.1195 48.5722L9.86292 29.0994L9.80664 28.7617Z" fill="#10A075"/>
</g>
<mask id="mask32_3916_7297" style="mask-type:luminance" maskUnits="userSpaceOnUse" x="9" y="5" width="44" height="44">
<path d="M31.3062 48.6847C43.1175 48.6847 52.6925 39.1097 52.6925 27.2984C52.6925 15.4871 43.1175 5.91211 31.3062 5.91211C19.4949 5.91211 9.91992 15.4871 9.91992 27.2984C9.91992 39.1097 19.4949 48.6847 31.3062 48.6847Z" fill="white"/>
</mask>
<g mask="url(#mask32_3916_7297)">
<path d="M9.69336 28.4258L34.6816 48.4614L34.4002 48.5176L9.80592 28.7635L9.69336 28.4258Z" fill="#10A075"/>
</g>
<mask id="mask33_3916_7297" style="mask-type:luminance" maskUnits="userSpaceOnUse" x="9" y="5" width="44" height="44">
<path d="M31.3062 48.6847C43.1175 48.6847 52.6925 39.1097 52.6925 27.2984C52.6925 15.4871 43.1175 5.91211 31.3062 5.91211C19.4949 5.91211 9.91992 15.4871 9.91992 27.2984C9.91992 39.1097 19.4949 48.6847 31.3062 48.6847Z" fill="white"/>
</mask>
<g mask="url(#mask33_3916_7297)">
<path d="M9.6377 28.0879L34.9636 48.4049L34.6822 48.4612L9.69398 28.4256L9.6377 28.0879Z" fill="#10A075"/>
</g>
<mask id="mask34_3916_7297" style="mask-type:luminance" maskUnits="userSpaceOnUse" x="9" y="5" width="44" height="44">
<path d="M31.3062 48.6847C43.1175 48.6847 52.6925 39.1097 52.6925 27.2984C52.6925 15.4871 43.1175 5.91211 31.3062 5.91211C19.4949 5.91211 9.91992 15.4871 9.91992 27.2984C9.91992 39.1097 19.4949 48.6847 31.3062 48.6847Z" fill="white"/>
</mask>
<g mask="url(#mask34_3916_7297)">
<path d="M9.58008 27.8047L35.2436 48.3468L34.9622 48.4031L9.63636 28.0861L9.58008 27.8047Z" fill="#10A075"/>
</g>
<mask id="mask35_3916_7297" style="mask-type:luminance" maskUnits="userSpaceOnUse" x="9" y="5" width="44" height="44">
<path d="M31.3062 48.6847C43.1175 48.6847 52.6925 39.1097 52.6925 27.2984C52.6925 15.4871 43.1175 5.91211 31.3062 5.91211C19.4949 5.91211 9.91992 15.4871 9.91992 27.2984C9.91992 39.1097 19.4949 48.6847 31.3062 48.6847Z" fill="white"/>
</mask>
<g mask="url(#mask35_3916_7297)">
<path d="M9.52441 27.4668L35.5256 48.2903L35.2442 48.3466L9.58069 27.8045L9.52441 27.4668Z" fill="#10A075"/>
</g>
<mask id="mask36_3916_7297" style="mask-type:luminance" maskUnits="userSpaceOnUse" x="9" y="5" width="44" height="44">
<path d="M31.3062 48.6847C43.1175 48.6847 52.6925 39.1097 52.6925 27.2984C52.6925 15.4871 43.1175 5.91211 31.3062 5.91211C19.4949 5.91211 9.91992 15.4871 9.91992 27.2984C9.91992 39.1097 19.4949 48.6847 31.3062 48.6847Z" fill="white"/>
</mask>
<g mask="url(#mask36_3916_7297)">
<path d="M9.4668 27.1289L35.8057 48.2338L35.5243 48.2901L9.52308 27.4666L9.4668 27.1289Z" fill="#10A075"/>
</g>
<mask id="mask37_3916_7297" style="mask-type:luminance" maskUnits="userSpaceOnUse" x="9" y="5" width="44" height="44">
<path d="M31.3062 48.6847C43.1175 48.6847 52.6925 39.1097 52.6925 27.2984C52.6925 15.4871 43.1175 5.91211 31.3062 5.91211C19.4949 5.91211 9.91992 15.4871 9.91992 27.2984C9.91992 39.1097 19.4949 48.6847 31.3062 48.6847Z" fill="white"/>
</mask>
<g mask="url(#mask37_3916_7297)">
<path d="M9.35547 26.791L36.0883 48.1773L35.8069 48.2336L9.46803 27.1287L9.35547 26.791Z" fill="#10A075"/>
</g>
<mask id="mask38_3916_7297" style="mask-type:luminance" maskUnits="userSpaceOnUse" x="9" y="5" width="44" height="44">
<path d="M31.3062 48.6847C43.1175 48.6847 52.6925 39.1097 52.6925 27.2984C52.6925 15.4871 43.1175 5.91211 31.3062 5.91211C19.4949 5.91211 9.91992 15.4871 9.91992 27.2984C9.91992 39.1097 19.4949 48.6847 31.3062 48.6847Z" fill="white"/>
</mask>
<g mask="url(#mask38_3916_7297)">
<path d="M9.2998 26.4531L36.3704 48.1208L36.089 48.1771L9.35608 26.7908L9.2998 26.4531Z" fill="#10A075"/>
</g>
<mask id="mask39_3916_7297" style="mask-type:luminance" maskUnits="userSpaceOnUse" x="9" y="5" width="44" height="44">
<path d="M31.3062 48.6847C43.1175 48.6847 52.6925 39.1097 52.6925 27.2984C52.6925 15.4871 43.1175 5.91211 31.3062 5.91211C19.4949 5.91211 9.91992 15.4871 9.91992 27.2984C9.91992 39.1097 19.4949 48.6847 31.3062 48.6847Z" fill="white"/>
</mask>
<g mask="url(#mask39_3916_7297)">
<path d="M9.24414 26.1172L36.6524 48.0663L36.371 48.1226L9.30042 26.4549L9.24414 26.1172Z" fill="#10A075"/>
</g>
<mask id="mask40_3916_7297" style="mask-type:luminance" maskUnits="userSpaceOnUse" x="9" y="5" width="44" height="44">
<path d="M31.3062 48.6847C43.1175 48.6847 52.6925 39.1097 52.6925 27.2984C52.6925 15.4871 43.1175 5.91211 31.3062 5.91211C19.4949 5.91211 9.91992 15.4871 9.91992 27.2984C9.91992 39.1097 19.4949 48.6847 31.3062 48.6847Z" fill="white"/>
</mask>
<g mask="url(#mask40_3916_7297)">
<path d="M9.18652 25.7793L36.9324 48.0098L36.651 48.0661L9.2428 26.117L9.18652 25.7793Z" fill="#10A075"/>
</g>
<mask id="mask41_3916_7297" style="mask-type:luminance" maskUnits="userSpaceOnUse" x="9" y="5" width="44" height="44">
<path d="M31.3062 48.6847C43.1175 48.6847 52.6925 39.1097 52.6925 27.2984C52.6925 15.4871 43.1175 5.91211 31.3062 5.91211C19.4949 5.91211 9.91992 15.4871 9.91992 27.2984C9.91992 39.1097 19.4949 48.6847 31.3062 48.6847Z" fill="white"/>
</mask>
<g mask="url(#mask41_3916_7297)">
<path d="M9.12891 25.4414L37.2125 47.9533L36.9311 48.0096L9.18519 25.7791L9.12891 25.4414Z" fill="#10A075"/>
</g>
<mask id="mask42_3916_7297" style="mask-type:luminance" maskUnits="userSpaceOnUse" x="9" y="5" width="44" height="44">
<path d="M31.3062 48.6847C43.1175 48.6847 52.6925 39.1097 52.6925 27.2984C52.6925 15.4871 43.1175 5.91211 31.3062 5.91211C19.4949 5.91211 9.91992 15.4871 9.91992 27.2984C9.91992 39.1097 19.4949 48.6847 31.3062 48.6847Z" fill="white"/>
</mask>
<g mask="url(#mask42_3916_7297)">
<path d="M9.07324 25.1035L37.4945 47.8968L37.2131 47.9531L9.12952 25.4412L9.07324 25.1035Z" fill="#10A075"/>
</g>
<mask id="mask43_3916_7297" style="mask-type:luminance" maskUnits="userSpaceOnUse" x="9" y="5" width="44" height="44">
<path d="M31.3062 48.6847C43.1175 48.6847 52.6925 39.1097 52.6925 27.2984C52.6925 15.4871 43.1175 5.91211 31.3062 5.91211C19.4949 5.91211 9.91992 15.4871 9.91992 27.2984C9.91992 39.1097 19.4949 48.6847 31.3062 48.6847Z" fill="white"/>
</mask>
<g mask="url(#mask43_3916_7297)">
<path d="M8.96191 24.7656L37.7771 47.8403L37.4957 47.8966L9.07447 25.1033L8.96191 24.7656Z" fill="#10A075"/>
</g>
<mask id="mask44_3916_7297" style="mask-type:luminance" maskUnits="userSpaceOnUse" x="9" y="5" width="44" height="44">
<path d="M31.3062 48.6847C43.1175 48.6847 52.6925 39.1097 52.6925 27.2984C52.6925 15.4871 43.1175 5.91211 31.3062 5.91211C19.4949 5.91211 9.91992 15.4871 9.91992 27.2984C9.91992 39.1097 19.4949 48.6847 31.3062 48.6847Z" fill="white"/>
</mask>
<g mask="url(#mask44_3916_7297)">
<path d="M8.9043 24.4277L38.0572 47.7838L37.7758 47.8401L8.96058 24.7654L8.9043 24.4277Z" fill="#10A075"/>
</g>
<mask id="mask45_3916_7297" style="mask-type:luminance" maskUnits="userSpaceOnUse" x="9" y="5" width="44" height="44">
<path d="M31.3062 48.6847C43.1175 48.6847 52.6925 39.1097 52.6925 27.2984C52.6925 15.4871 43.1175 5.91211 31.3062 5.91211C19.4949 5.91211 9.91992 15.4871 9.91992 27.2984C9.91992 39.1097 19.4949 48.6847 31.3062 48.6847Z" fill="white"/>
</mask>
<g mask="url(#mask45_3916_7297)">
<path d="M8.84863 24.0898L38.3392 47.7273L38.0578 47.7836L8.90491 24.4275L8.84863 24.0898Z" fill="#10A075"/>
</g>
<mask id="mask46_3916_7297" style="mask-type:luminance" maskUnits="userSpaceOnUse" x="9" y="5" width="44" height="44">
<path d="M31.3062 48.6847C43.1175 48.6847 52.6925 39.1097 52.6925 27.2984C52.6925 15.4871 43.1175 5.91211 31.3062 5.91211C19.4949 5.91211 9.91992 15.4871 9.91992 27.2984C9.91992 39.1097 19.4949 48.6847 31.3062 48.6847Z" fill="white"/>
</mask>
<g mask="url(#mask46_3916_7297)">
<path d="M8.79297 23.752L38.6212 47.6708L38.3398 47.7271L8.84925 24.0896L8.79297 23.752Z" fill="#10A075"/>
</g>
<mask id="mask47_3916_7297" style="mask-type:luminance" maskUnits="userSpaceOnUse" x="9" y="5" width="44" height="44">
<path d="M31.3062 48.6847C43.1175 48.6847 52.6925 39.1097 52.6925 27.2984C52.6925 15.4871 43.1175 5.91211 31.3062 5.91211C19.4949 5.91211 9.91992 15.4871 9.91992 27.2984C9.91992 39.1097 19.4949 48.6847 31.3062 48.6847Z" fill="white"/>
</mask>
<g mask="url(#mask47_3916_7297)">
<path d="M8.7373 23.4141L38.9032 47.6143L38.6218 47.6706L8.79358 23.7517L8.7373 23.4141Z" fill="#10A075"/>
</g>
<mask id="mask48_3916_7297" style="mask-type:luminance" maskUnits="userSpaceOnUse" x="9" y="5" width="44" height="44">
<path d="M31.3062 48.6847C43.1175 48.6847 52.6925 39.1097 52.6925 27.2984C52.6925 15.4871 43.1175 5.91211 31.3062 5.91211C19.4949 5.91211 9.91992 15.4871 9.91992 27.2984C9.91992 39.1097 19.4949 48.6847 31.3062 48.6847Z" fill="white"/>
</mask>
<g mask="url(#mask48_3916_7297)">
<path d="M8.62305 23.0762L39.1829 47.5578L38.9015 47.6141L8.73561 23.4138L8.62305 23.0762Z" fill="#10A075"/>
</g>
<mask id="mask49_3916_7297" style="mask-type:luminance" maskUnits="userSpaceOnUse" x="9" y="5" width="44" height="44">
<path d="M31.3062 48.6847C43.1175 48.6847 52.6925 39.1097 52.6925 27.2984C52.6925 15.4871 43.1175 5.91211 31.3062 5.91211C19.4949 5.91211 9.91992 15.4871 9.91992 27.2984C9.91992 39.1097 19.4949 48.6847 31.3062 48.6847Z" fill="white"/>
</mask>
<g mask="url(#mask49_3916_7297)">
<path d="M8.56641 22.7969L39.464 47.5037L39.1826 47.56L8.62269 23.0783L8.56641 22.7969Z" fill="#10A075"/>
</g>
<mask id="mask50_3916_7297" style="mask-type:luminance" maskUnits="userSpaceOnUse" x="9" y="5" width="44" height="44">
<path d="M31.3062 48.6847C43.1175 48.6847 52.6925 39.1097 52.6925 27.2984C52.6925 15.4871 43.1175 5.91211 31.3062 5.91211C19.4949 5.91211 9.91992 15.4871 9.91992 27.2984C9.91992 39.1097 19.4949 48.6847 31.3062 48.6847Z" fill="white"/>
</mask>
<g mask="url(#mask50_3916_7297)">
<path d="M8.51074 22.459L39.746 47.4472L39.4646 47.5035L8.56702 22.7967L8.51074 22.459Z" fill="#10A075"/>
</g>
<mask id="mask51_3916_7297" style="mask-type:luminance" maskUnits="userSpaceOnUse" x="9" y="5" width="44" height="44">
<path d="M31.3062 48.6847C43.1175 48.6847 52.6925 39.1097 52.6925 27.2984C52.6925 15.4871 43.1175 5.91211 31.3062 5.91211C19.4949 5.91211 9.91992 15.4871 9.91992 27.2984C9.91992 39.1097 19.4949 48.6847 31.3062 48.6847Z" fill="white"/>
</mask>
<g mask="url(#mask51_3916_7297)">
<path d="M8.45508 22.1211L40.028 47.3907L39.7466 47.447L8.51136 22.4588L8.45508 22.1211Z" fill="#10A075"/>
</g>
<mask id="mask52_3916_7297" style="mask-type:luminance" maskUnits="userSpaceOnUse" x="9" y="5" width="44" height="44">
<path d="M31.3062 48.6847C43.1175 48.6847 52.6925 39.1097 52.6925 27.2984C52.6925 15.4871 43.1175 5.91211 31.3062 5.91211C19.4949 5.91211 9.91992 15.4871 9.91992 27.2984C9.91992 39.1097 19.4949 48.6847 31.3062 48.6847Z" fill="white"/>
</mask>
<g mask="url(#mask52_3916_7297)">
<path d="M8.39941 21.7832L40.31 47.3342L40.0286 47.3905L8.45569 22.1209L8.39941 21.7832Z" fill="#10A075"/>
</g>
<mask id="mask53_3916_7297" style="mask-type:luminance" maskUnits="userSpaceOnUse" x="9" y="5" width="44" height="44">
<path d="M31.3062 48.6847C43.1175 48.6847 52.6925 39.1097 52.6925 27.2984C52.6925 15.4871 43.1175 5.91211 31.3062 5.91211C19.4949 5.91211 9.91992 15.4871 9.91992 27.2984C9.91992 39.1097 19.4949 48.6847 31.3062 48.6847Z" fill="white"/>
</mask>
<g mask="url(#mask53_3916_7297)">
<path d="M8.28613 21.4453L40.5907 47.2777L40.3093 47.334L8.39869 21.783L8.28613 21.4453Z" fill="#10A075"/>
</g>
<mask id="mask54_3916_7297" style="mask-type:luminance" maskUnits="userSpaceOnUse" x="9" y="5" width="44" height="44">
<path d="M31.3062 48.6847C43.1175 48.6847 52.6925 39.1097 52.6925 27.2984C52.6925 15.4871 43.1175 5.91211 31.3062 5.91211C19.4949 5.91211 9.91992 15.4871 9.91992 27.2984C9.91992 39.1097 19.4949 48.6847 31.3062 48.6847Z" fill="white"/>
</mask>
<g mask="url(#mask54_3916_7297)">
<path d="M8.23047 21.1074L40.8727 47.2212L40.5913 47.2775L8.28675 21.4451L8.23047 21.1074Z" fill="#10A075"/>
</g>
<mask id="mask55_3916_7297" style="mask-type:luminance" maskUnits="userSpaceOnUse" x="9" y="5" width="44" height="44">
<path d="M31.3062 48.6847C43.1175 48.6847 52.6925 39.1097 52.6925 27.2984C52.6925 15.4871 43.1175 5.91211 31.3062 5.91211C19.4949 5.91211 9.91992 15.4871 9.91992 27.2984C9.91992 39.1097 19.4949 48.6847 31.3062 48.6847Z" fill="white"/>
</mask>
<g mask="url(#mask55_3916_7297)">
<path d="M8.17285 20.7695L41.1528 47.1647L40.8714 47.221L8.22913 21.1072L8.17285 20.7695Z" fill="#10A075"/>
</g>
<mask id="mask56_3916_7297" style="mask-type:luminance" maskUnits="userSpaceOnUse" x="9" y="5" width="44" height="44">
<path d="M31.3062 48.6847C43.1175 48.6847 52.6925 39.1097 52.6925 27.2984C52.6925 15.4871 43.1175 5.91211 31.3062 5.91211C19.4949 5.91211 9.91992 15.4871 9.91992 27.2984C9.91992 39.1097 19.4949 48.6847 31.3062 48.6847Z" fill="white"/>
</mask>
<g mask="url(#mask56_3916_7297)">
<path d="M8.11719 20.4336L41.4348 47.1102L41.1534 47.1665L8.17347 20.7713L8.11719 20.4336Z" fill="#10A075"/>
</g>
<mask id="mask57_3916_7297" style="mask-type:luminance" maskUnits="userSpaceOnUse" x="9" y="5" width="44" height="44">
<path d="M31.3062 48.6847C43.1175 48.6847 52.6925 39.1097 52.6925 27.2984C52.6925 15.4871 43.1175 5.91211 31.3062 5.91211C19.4949 5.91211 9.91992 15.4871 9.91992 27.2984C9.91992 39.1097 19.4949 48.6847 31.3062 48.6847Z" fill="white"/>
</mask>
<g mask="url(#mask57_3916_7297)">
<path d="M8.05957 20.0957L41.7148 47.0537L41.4334 47.11L8.11585 20.4334L8.05957 20.0957Z" fill="#10A075"/>
</g>
<mask id="mask58_3916_7297" style="mask-type:luminance" maskUnits="userSpaceOnUse" x="9" y="5" width="44" height="44">
<path d="M31.3062 48.6847C43.1175 48.6847 52.6925 39.1097 52.6925 27.2984C52.6925 15.4871 43.1175 5.91211 31.3062 5.91211C19.4949 5.91211 9.91992 15.4871 9.91992 27.2984C9.91992 39.1097 19.4949 48.6847 31.3062 48.6847Z" fill="white"/>
</mask>
<g mask="url(#mask58_3916_7297)">
<path d="M8.00391 19.7578L41.9969 46.9972L41.7155 47.0535L8.06019 20.0955L8.00391 19.7578Z" fill="#10A075"/>
</g>
<mask id="mask59_3916_7297" style="mask-type:luminance" maskUnits="userSpaceOnUse" x="9" y="5" width="44" height="44">
<path d="M31.3062 48.6847C43.1175 48.6847 52.6925 39.1097 52.6925 27.2984C52.6925 15.4871 43.1175 5.91211 31.3062 5.91211C19.4949 5.91211 9.91992 15.4871 9.91992 27.2984C9.91992 39.1097 19.4949 48.6847 31.3062 48.6847Z" fill="white"/>
</mask>
<g mask="url(#mask59_3916_7297)">
<path d="M7.89258 19.4199L42.2232 46.9407L41.9981 46.997L8.00514 19.7576L7.89258 19.4199Z" fill="#10A075"/>
</g>
<mask id="mask60_3916_7297" style="mask-type:luminance" maskUnits="userSpaceOnUse" x="9" y="5" width="44" height="44">
<path d="M31.3062 48.6847C43.1175 48.6847 52.6925 39.1097 52.6925 27.2984C52.6925 15.4871 43.1175 5.91211 31.3062 5.91211C19.4949 5.91211 9.91992 15.4871 9.91992 27.2984C9.91992 39.1097 19.4949 48.6847 31.3062 48.6847Z" fill="white"/>
</mask>
<g mask="url(#mask60_3916_7297)">
<path d="M7.83691 19.082L42.5052 46.8842L42.2238 46.9405L7.89319 19.4197L7.83691 19.082Z" fill="#10A075"/>
</g>
<mask id="mask61_3916_7297" style="mask-type:luminance" maskUnits="userSpaceOnUse" x="9" y="5" width="44" height="44">
<path d="M31.3062 48.6847C43.1175 48.6847 52.6925 39.1097 52.6925 27.2984C52.6925 15.4871 43.1175 5.91211 31.3062 5.91211C19.4949 5.91211 9.91992 15.4871 9.91992 27.2984C9.91992 39.1097 19.4949 48.6847 31.3062 48.6847Z" fill="white"/>
</mask>
<g mask="url(#mask61_3916_7297)">
<path d="M7.7793 18.7441L42.7853 46.8277L42.5039 46.884L7.83558 19.0818L7.7793 18.7441Z" fill="#10A075"/>
</g>
<mask id="mask62_3916_7297" style="mask-type:luminance" maskUnits="userSpaceOnUse" x="9" y="5" width="44" height="44">
<path d="M31.3062 48.6847C43.1175 48.6847 52.6925 39.1097 52.6925 27.2984C52.6925 15.4871 43.1175 5.91211 31.3062 5.91211C19.4949 5.91211 9.91992 15.4871 9.91992 27.2984C9.91992 39.1097 19.4949 48.6847 31.3062 48.6847Z" fill="white"/>
</mask>
<g mask="url(#mask62_3916_7297)">
<path d="M7.72363 18.4062L43.0673 46.7712L42.7859 46.8275L7.77991 18.7439L7.72363 18.4062Z" fill="#10A075"/>
</g>
<mask id="mask63_3916_7297" style="mask-type:luminance" maskUnits="userSpaceOnUse" x="9" y="5" width="44" height="44">
<path d="M31.3062 48.6847C43.1175 48.6847 52.6925 39.1097 52.6925 27.2984C52.6925 15.4871 43.1175 5.91211 31.3062 5.91211C19.4949 5.91211 9.91992 15.4871 9.91992 27.2984C9.91992 39.1097 19.4949 48.6847 31.3062 48.6847Z" fill="white"/>
</mask>
<g mask="url(#mask63_3916_7297)">
<path d="M7.66602 18.125L43.3474 46.7151L43.066 46.7714L7.7223 18.4064L7.66602 18.125Z" fill="#10A075"/>
</g>
<mask id="mask64_3916_7297" style="mask-type:luminance" maskUnits="userSpaceOnUse" x="9" y="5" width="44" height="44">
<path d="M31.3062 48.6847C43.1175 48.6847 52.6925 39.1097 52.6925 27.2984C52.6925 15.4871 43.1175 5.91211 31.3062 5.91211C19.4949 5.91211 9.91992 15.4871 9.91992 27.2984C9.91992 39.1097 19.4949 48.6847 31.3062 48.6847Z" fill="white"/>
</mask>
<g mask="url(#mask64_3916_7297)">
<path d="M7.55469 17.7871L43.63 46.6586L43.3486 46.7149L7.66725 18.1248L7.55469 17.7871Z" fill="#10A075"/>
</g>
<mask id="mask65_3916_7297" style="mask-type:luminance" maskUnits="userSpaceOnUse" x="9" y="5" width="44" height="44">
<path d="M31.3062 48.6847C43.1175 48.6847 52.6925 39.1097 52.6925 27.2984C52.6925 15.4871 43.1175 5.91211 31.3062 5.91211C19.4949 5.91211 9.91992 15.4871 9.91992 27.2984C9.91992 39.1097 19.4949 48.6847 31.3062 48.6847Z" fill="white"/>
</mask>
<g mask="url(#mask65_3916_7297)">
<path d="M7.49707 17.4492L43.91 46.6021L43.6287 46.6584L7.55335 17.7869L7.49707 17.4492Z" fill="#10A075"/>
</g>
<mask id="mask66_3916_7297" style="mask-type:luminance" maskUnits="userSpaceOnUse" x="9" y="5" width="44" height="44">
<path d="M31.3062 48.6847C43.1175 48.6847 52.6925 39.1097 52.6925 27.2984C52.6925 15.4871 43.1175 5.91211 31.3062 5.91211C19.4949 5.91211 9.91992 15.4871 9.91992 27.2984C9.91992 39.1097 19.4949 48.6847 31.3062 48.6847Z" fill="white"/>
</mask>
<g mask="url(#mask66_3916_7297)">
<path d="M7.44141 17.1113L44.1921 46.5456L43.9107 46.6019L7.49769 17.449L7.44141 17.1113Z" fill="#10A075"/>
</g>
<mask id="mask67_3916_7297" style="mask-type:luminance" maskUnits="userSpaceOnUse" x="9" y="5" width="44" height="44">
<path d="M31.3062 48.6847C43.1175 48.6847 52.6925 39.1097 52.6925 27.2984C52.6925 15.4871 43.1175 5.91211 31.3062 5.91211C19.4949 5.91211 9.91992 15.4871 9.91992 27.2984C9.91992 39.1097 19.4949 48.6847 31.3062 48.6847Z" fill="white"/>
</mask>
<g mask="url(#mask67_3916_7297)">
<path d="M7.38574 16.7734L44.4741 46.4891L44.1927 46.5454L7.44202 17.1111L7.38574 16.7734Z" fill="#10A075"/>
</g>
<mask id="mask68_3916_7297" style="mask-type:luminance" maskUnits="userSpaceOnUse" x="9" y="5" width="44" height="44">
<path d="M31.3062 48.6847C43.1175 48.6847 52.6925 39.1097 52.6925 27.2984C52.6925 15.4871 43.1175 5.91211 31.3062 5.91211C19.4949 5.91211 9.91992 15.4871 9.91992 27.2984C9.91992 39.1097 19.4949 48.6847 31.3062 48.6847Z" fill="white"/>
</mask>
<g mask="url(#mask68_3916_7297)">
<path d="M7.33008 16.4355L44.7561 46.4326L44.4747 46.4889L7.38636 16.7732L7.33008 16.4355Z" fill="#10A075"/>
</g>
<mask id="mask69_3916_7297" style="mask-type:luminance" maskUnits="userSpaceOnUse" x="9" y="5" width="44" height="44">
<path d="M31.3062 48.6847C43.1175 48.6847 52.6925 39.1097 52.6925 27.2984C52.6925 15.4871 43.1175 5.91211 31.3062 5.91211C19.4949 5.91211 9.91992 15.4871 9.91992 27.2984C9.91992 39.1097 19.4949 48.6847 31.3062 48.6847Z" fill="white"/>
</mask>
<g mask="url(#mask69_3916_7297)">
<path d="M7.27441 16.0977L45.0381 46.3761L44.7567 46.4324L7.33069 16.4353L7.27441 16.0977Z" fill="#10A075"/>
</g>
<mask id="mask70_3916_7297" style="mask-type:luminance" maskUnits="userSpaceOnUse" x="9" y="5" width="44" height="44">
<path d="M31.3062 48.6847C43.1175 48.6847 52.6925 39.1097 52.6925 27.2984C52.6925 15.4871 43.1175 5.91211 31.3062 5.91211C19.4949 5.91211 9.91992 15.4871 9.91992 27.2984C9.91992 39.1097 19.4949 48.6847 31.3062 48.6847Z" fill="white"/>
</mask>
<g mask="url(#mask70_3916_7297)">
<path d="M7.15918 15.7617L45.3168 46.3216L45.0354 46.3779L7.27174 16.0994L7.15918 15.7617Z" fill="#10A075"/>
</g>
<mask id="mask71_3916_7297" style="mask-type:luminance" maskUnits="userSpaceOnUse" x="9" y="5" width="44" height="44">
<path d="M31.3062 48.6847C43.1175 48.6847 52.6925 39.1097 52.6925 27.2984C52.6925 15.4871 43.1175 5.91211 31.3062 5.91211C19.4949 5.91211 9.91992 15.4871 9.91992 27.2984C9.91992 39.1097 19.4949 48.6847 31.3062 48.6847Z" fill="white"/>
</mask>
<g mask="url(#mask71_3916_7297)">
<path d="M7.10352 15.4238L45.5988 46.2651L45.3174 46.3214L7.1598 15.7615L7.10352 15.4238Z" fill="#10A075"/>
</g>
<mask id="mask72_3916_7297" style="mask-type:luminance" maskUnits="userSpaceOnUse" x="9" y="5" width="44" height="44">
<path d="M31.3062 48.6847C43.1175 48.6847 52.6925 39.1097 52.6925 27.2984C52.6925 15.4871 43.1175 5.91211 31.3062 5.91211C19.4949 5.91211 9.91992 15.4871 9.91992 27.2984C9.91992 39.1097 19.4949 48.6847 31.3062 48.6847Z" fill="white"/>
</mask>
<g mask="url(#mask72_3916_7297)">
<path d="M7.04785 15.0859L45.8809 46.2086L45.5995 46.2649L7.10413 15.4236L7.04785 15.0859Z" fill="#10A075"/>
</g>
<mask id="mask73_3916_7297" style="mask-type:luminance" maskUnits="userSpaceOnUse" x="9" y="5" width="44" height="44">
<path d="M31.3062 48.6847C43.1175 48.6847 52.6925 39.1097 52.6925 27.2984C52.6925 15.4871 43.1175 5.91211 31.3062 5.91211C19.4949 5.91211 9.91992 15.4871 9.91992 27.2984C9.91992 39.1097 19.4949 48.6847 31.3062 48.6847Z" fill="white"/>
</mask>
<g mask="url(#mask73_3916_7297)">
<path d="M6.99219 14.748L46.1629 46.1521L45.8815 46.2084L7.04847 15.0857L6.99219 14.748Z" fill="#10A075"/>
</g>
<mask id="mask74_3916_7297" style="mask-type:luminance" maskUnits="userSpaceOnUse" x="9" y="5" width="44" height="44">
<path d="M31.3062 48.6847C43.1175 48.6847 52.6925 39.1097 52.6925 27.2984C52.6925 15.4871 43.1175 5.91211 31.3062 5.91211C19.4949 5.91211 9.91992 15.4871 9.91992 27.2984C9.91992 39.1097 19.4949 48.6847 31.3062 48.6847Z" fill="white"/>
</mask>
<g mask="url(#mask74_3916_7297)">
<path d="M6.93457 14.4102L46.4429 46.0956L46.1615 46.1519L6.99085 14.7478L6.93457 14.4102Z" fill="#10A075"/>
</g>
<mask id="mask75_3916_7297" style="mask-type:luminance" maskUnits="userSpaceOnUse" x="9" y="5" width="44" height="44">
<path d="M31.3062 48.6847C43.1175 48.6847 52.6925 39.1097 52.6925 27.2984C52.6925 15.4871 43.1175 5.91211 31.3062 5.91211C19.4949 5.91211 9.91992 15.4871 9.91992 27.2984C9.91992 39.1097 19.4949 48.6847 31.3062 48.6847Z" fill="white"/>
</mask>
<g mask="url(#mask75_3916_7297)">
<path d="M6.82324 14.0723L46.7256 46.0391L46.4442 46.0954L6.9358 14.4099L6.82324 14.0723Z" fill="#10A075"/>
</g>
<mask id="mask76_3916_7297" style="mask-type:luminance" maskUnits="userSpaceOnUse" x="9" y="5" width="44" height="44">
<path d="M31.3062 48.6847C43.1175 48.6847 52.6925 39.1097 52.6925 27.2984C52.6925 15.4871 43.1175 5.91211 31.3062 5.91211C19.4949 5.91211 9.91992 15.4871 9.91992 27.2984C9.91992 39.1097 19.4949 48.6847 31.3062 48.6847Z" fill="white"/>
</mask>
<g mask="url(#mask76_3916_7297)">
<path d="M6.82324 13.8473V13.791L47.007 45.983L46.7256 46.0393L6.82324 14.0724V13.8473Z" fill="#10A075"/>
</g>
<mask id="mask77_3916_7297" style="mask-type:luminance" maskUnits="userSpaceOnUse" x="9" y="5" width="44" height="44">
<path d="M31.3062 48.6847C43.1175 48.6847 52.6925 39.1097 52.6925 27.2984C52.6925 15.4871 43.1175 5.91211 31.3062 5.91211C19.4949 5.91211 9.91992 15.4871 9.91992 27.2984C9.91992 39.1097 19.4949 48.6847 31.3062 48.6847Z" fill="white"/>
</mask>
<g mask="url(#mask77_3916_7297)">
<path d="M6.82324 13.7919L6.99208 13.623L47.2884 45.9276L47.007 45.9839L6.82324 13.7919Z" fill="#10A075"/>
</g>
<mask id="mask78_3916_7297" style="mask-type:luminance" maskUnits="userSpaceOnUse" x="9" y="5" width="44" height="44">
<path d="M31.3062 48.6847C43.1175 48.6847 52.6925 39.1097 52.6925 27.2984C52.6925 15.4871 43.1175 5.91211 31.3062 5.91211C19.4949 5.91211 9.91992 15.4871 9.91992 27.2984C9.91992 39.1097 19.4949 48.6847 31.3062 48.6847Z" fill="white"/>
</mask>
<g mask="url(#mask78_3916_7297)">
<path d="M6.99219 13.622L7.10475 13.4531L47.5699 45.8702L47.2885 45.9265L6.99219 13.622Z" fill="#10A075"/>
</g>
<mask id="mask79_3916_7297" style="mask-type:luminance" maskUnits="userSpaceOnUse" x="9" y="5" width="44" height="44">
<path d="M31.3062 48.6847C43.1175 48.6847 52.6925 39.1097 52.6925 27.2984C52.6925 15.4871 43.1175 5.91211 31.3062 5.91211C19.4949 5.91211 9.91992 15.4871 9.91992 27.2984C9.91992 39.1097 19.4949 48.6847 31.3062 48.6847Z" fill="white"/>
</mask>
<g mask="url(#mask79_3916_7297)">
<path d="M7.10352 13.454L7.27235 13.2852L47.85 45.8148L47.5686 45.8711L7.10352 13.454Z" fill="#10A075"/>
</g>
<mask id="mask80_3916_7297" style="mask-type:luminance" maskUnits="userSpaceOnUse" x="9" y="5" width="44" height="44">
<path d="M31.3062 48.6847C43.1175 48.6847 52.6925 39.1097 52.6925 27.2984C52.6925 15.4871 43.1175 5.91211 31.3062 5.91211C19.4949 5.91211 9.91992 15.4871 9.91992 27.2984C9.91992 39.1097 19.4949 48.6847 31.3062 48.6847Z" fill="white"/>
</mask>
<g mask="url(#mask80_3916_7297)">
<path d="M7.27441 13.2841L7.38697 13.1152L48.1335 45.7575L47.8521 45.8138L7.27441 13.2841Z" fill="#10A075"/>
</g>
<mask id="mask81_3916_7297" style="mask-type:luminance" maskUnits="userSpaceOnUse" x="9" y="5" width="44" height="44">
<path d="M31.3062 48.6847C43.1175 48.6847 52.6925 39.1097 52.6925 27.2984C52.6925 15.4871 43.1175 5.91211 31.3062 5.91211C19.4949 5.91211 9.91992 15.4871 9.91992 27.2984C9.91992 39.1097 19.4949 48.6847 31.3062 48.6847Z" fill="white"/>
</mask>
<g mask="url(#mask81_3916_7297)">
<path d="M7.38574 13.1161L7.4983 12.9473L48.4137 45.7021L48.1323 45.7583L7.38574 13.1161Z" fill="#10A075"/>
</g>
<mask id="mask82_3916_7297" style="mask-type:luminance" maskUnits="userSpaceOnUse" x="9" y="5" width="44" height="44">
<path d="M31.3062 48.6847C43.1175 48.6847 52.6925 39.1097 52.6925 27.2984C52.6925 15.4871 43.1175 5.91211 31.3062 5.91211C19.4949 5.91211 9.91992 15.4871 9.91992 27.2984C9.91992 39.1097 19.4949 48.6847 31.3062 48.6847Z" fill="white"/>
</mask>
<g mask="url(#mask82_3916_7297)">
<path d="M7.49707 12.9481L7.66591 12.7793L48.6938 45.6467L48.4124 45.7029L7.49707 12.9481Z" fill="#10A075"/>
</g>
<mask id="mask83_3916_7297" style="mask-type:luminance" maskUnits="userSpaceOnUse" x="9" y="5" width="44" height="44">
<path d="M31.3062 48.6847C43.1175 48.6847 52.6925 39.1097 52.6925 27.2984C52.6925 15.4871 43.1175 5.91211 31.3062 5.91211C19.4949 5.91211 9.91992 15.4871 9.91992 27.2984C9.91992 39.1097 19.4949 48.6847 31.3062 48.6847Z" fill="white"/>
</mask>
<g mask="url(#mask83_3916_7297)">
<path d="M7.66602 12.7782L7.77858 12.6094L48.9753 45.5893L48.6939 45.6456L7.66602 12.7782Z" fill="#10A075"/>
</g>
<mask id="mask84_3916_7297" style="mask-type:luminance" maskUnits="userSpaceOnUse" x="9" y="5" width="44" height="44">
<path d="M31.3062 48.6847C43.1175 48.6847 52.6925 39.1097 52.6925 27.2984C52.6925 15.4871 43.1175 5.91211 31.3062 5.91211C19.4949 5.91211 9.91992 15.4871 9.91992 27.2984C9.91992 39.1097 19.4949 48.6847 31.3062 48.6847Z" fill="white"/>
</mask>
<g mask="url(#mask84_3916_7297)">
<path d="M7.7793 12.6102L7.94814 12.4414L49.2574 45.5339L48.976 45.5902L7.7793 12.6102Z" fill="#10A075"/>
</g>
<mask id="mask85_3916_7297" style="mask-type:luminance" maskUnits="userSpaceOnUse" x="9" y="5" width="44" height="44">
<path d="M31.3062 48.6847C43.1175 48.6847 52.6925 39.1097 52.6925 27.2984C52.6925 15.4871 43.1175 5.91211 31.3062 5.91211C19.4949 5.91211 9.91992 15.4871 9.91992 27.2984C9.91992 39.1097 19.4949 48.6847 31.3062 48.6847Z" fill="white"/>
</mask>
<g mask="url(#mask85_3916_7297)">
<path d="M7.94824 12.4403L8.0608 12.2715L49.539 45.4765L49.2576 45.5328L7.94824 12.4403Z" fill="#10A075"/>
</g>
<mask id="mask86_3916_7297" style="mask-type:luminance" maskUnits="userSpaceOnUse" x="9" y="5" width="44" height="44">
<path d="M31.3062 48.6847C43.1175 48.6847 52.6925 39.1097 52.6925 27.2984C52.6925 15.4871 43.1175 5.91211 31.3062 5.91211C19.4949 5.91211 9.91992 15.4871 9.91992 27.2984C9.91992 39.1097 19.4949 48.6847 31.3062 48.6847Z" fill="white"/>
</mask>
<g mask="url(#mask86_3916_7297)">
<path d="M8.05957 12.2724L8.22841 12.1035L49.8191 45.4211L49.5377 45.4774L8.05957 12.2724Z" fill="#10A075"/>
</g>
<mask id="mask87_3916_7297" style="mask-type:luminance" maskUnits="userSpaceOnUse" x="9" y="5" width="44" height="44">
<path d="M31.3062 48.6847C43.1175 48.6847 52.6925 39.1097 52.6925 27.2984C52.6925 15.4871 43.1175 5.91211 31.3062 5.91211C19.4949 5.91211 9.91992 15.4871 9.91992 27.2984C9.91992 39.1097 19.4949 48.6847 31.3062 48.6847Z" fill="white"/>
</mask>
<g mask="url(#mask87_3916_7297)">
<path d="M8.23047 12.1024L8.34303 11.9336L50.1026 45.3638L49.8212 45.42L8.23047 12.1024Z" fill="#10A075"/>
</g>
<mask id="mask88_3916_7297" style="mask-type:luminance" maskUnits="userSpaceOnUse" x="9" y="5" width="44" height="44">
<path d="M31.3062 48.6847C43.1175 48.6847 52.6925 39.1097 52.6925 27.2984C52.6925 15.4871 43.1175 5.91211 31.3062 5.91211C19.4949 5.91211 9.91992 15.4871 9.91992 27.2984C9.91992 39.1097 19.4949 48.6847 31.3062 48.6847Z" fill="white"/>
</mask>
<g mask="url(#mask88_3916_7297)">
<path d="M8.3418 11.9345L8.45436 11.7656L50.3828 45.3083L50.1014 45.3646L8.3418 11.9345Z" fill="#10A075"/>
</g>
<mask id="mask89_3916_7297" style="mask-type:luminance" maskUnits="userSpaceOnUse" x="9" y="5" width="44" height="44">
<path d="M31.3062 48.6847C43.1175 48.6847 52.6925 39.1097 52.6925 27.2984C52.6925 15.4871 43.1175 5.91211 31.3062 5.91211C19.4949 5.91211 9.91992 15.4871 9.91992 27.2984C9.91992 39.1097 19.4949 48.6847 31.3062 48.6847Z" fill="white"/>
</mask>
<g mask="url(#mask89_3916_7297)">
<path d="M8.45508 11.7645L8.62392 11.5957L50.6649 45.251L50.3835 45.3073L8.45508 11.7645Z" fill="#10A075"/>
</g>
<mask id="mask90_3916_7297" style="mask-type:luminance" maskUnits="userSpaceOnUse" x="9" y="5" width="44" height="44">
<path d="M31.3062 48.6847C43.1175 48.6847 52.6925 39.1097 52.6925 27.2984C52.6925 15.4871 43.1175 5.91211 31.3062 5.91211C19.4949 5.91211 9.91992 15.4871 9.91992 27.2984C9.91992 39.1097 19.4949 48.6847 31.3062 48.6847Z" fill="white"/>
</mask>
<g mask="url(#mask90_3916_7297)">
<path d="M8.62305 11.5966L8.73561 11.4277L50.9454 45.1956L50.664 45.2518L8.62305 11.5966Z" fill="#10A075"/>
</g>
<mask id="mask91_3916_7297" style="mask-type:luminance" maskUnits="userSpaceOnUse" x="9" y="5" width="44" height="44">
<path d="M31.3062 48.6847C43.1175 48.6847 52.6925 39.1097 52.6925 27.2984C52.6925 15.4871 43.1175 5.91211 31.3062 5.91211C19.4949 5.91211 9.91992 15.4871 9.91992 27.2984C9.91992 39.1097 19.4949 48.6847 31.3062 48.6847Z" fill="white"/>
</mask>
<g mask="url(#mask91_3916_7297)">
<path d="M8.7373 11.4286L8.90614 11.2598L51.2285 45.1402L50.9471 45.1964L8.7373 11.4286Z" fill="#10A075"/>
</g>
<mask id="mask92_3916_7297" style="mask-type:luminance" maskUnits="userSpaceOnUse" x="9" y="5" width="44" height="44">
<path d="M31.3062 48.6847C43.1175 48.6847 52.6925 39.1097 52.6925 27.2984C52.6925 15.4871 43.1175 5.91211 31.3062 5.91211C19.4949 5.91211 9.91992 15.4871 9.91992 27.2984C9.91992 39.1097 19.4949 48.6847 31.3062 48.6847Z" fill="white"/>
</mask>
<g mask="url(#mask92_3916_7297)">
<path d="M8.9043 11.2587L9.01686 11.0898L51.508 45.0828L51.2266 45.1391L8.9043 11.2587Z" fill="#10A075"/>
</g>
<mask id="mask93_3916_7297" style="mask-type:luminance" maskUnits="userSpaceOnUse" x="9" y="5" width="44" height="44">
<path d="M31.3062 48.6847C43.1175 48.6847 52.6925 39.1097 52.6925 27.2984C52.6925 15.4871 43.1175 5.91211 31.3062 5.91211C19.4949 5.91211 9.91992 15.4871 9.91992 27.2984C9.91992 39.1097 19.4949 48.6847 31.3062 48.6847Z" fill="white"/>
</mask>
<g mask="url(#mask93_3916_7297)">
<path d="M9.01758 11.0907L9.18642 10.9219L51.7902 45.0274L51.5088 45.0837L9.01758 11.0907Z" fill="#10A075"/>
</g>
<mask id="mask94_3916_7297" style="mask-type:luminance" maskUnits="userSpaceOnUse" x="9" y="5" width="44" height="44">
<path d="M31.3062 48.6847C43.1175 48.6847 52.6925 39.1097 52.6925 27.2984C52.6925 15.4871 43.1175 5.91211 31.3062 5.91211C19.4949 5.91211 9.91992 15.4871 9.91992 27.2984C9.91992 39.1097 19.4949 48.6847 31.3062 48.6847Z" fill="white"/>
</mask>
<g mask="url(#mask94_3916_7297)">
<path d="M9.18652 10.9208L9.29908 10.752L52.0717 44.97L51.7903 45.0263L9.18652 10.9208Z" fill="#10A075"/>
</g>
<mask id="mask95_3916_7297" style="mask-type:luminance" maskUnits="userSpaceOnUse" x="9" y="5" width="44" height="44">
<path d="M31.3062 48.6847C43.1175 48.6847 52.6925 39.1097 52.6925 27.2984C52.6925 15.4871 43.1175 5.91211 31.3062 5.91211C19.4949 5.91211 9.91992 15.4871 9.91992 27.2984C9.91992 39.1097 19.4949 48.6847 31.3062 48.6847Z" fill="white"/>
</mask>
<g mask="url(#mask95_3916_7297)">
<path d="M9.2998 10.7528L9.41236 10.584L52.3538 44.9146L52.0724 44.9709L9.2998 10.7528Z" fill="#10A075"/>
</g>
<mask id="mask96_3916_7297" style="mask-type:luminance" maskUnits="userSpaceOnUse" x="9" y="5" width="44" height="44">
<path d="M31.3062 48.6847C43.1175 48.6847 52.6925 39.1097 52.6925 27.2984C52.6925 15.4871 43.1175 5.91211 31.3062 5.91211C19.4949 5.91211 9.91992 15.4871 9.91992 27.2984C9.91992 39.1097 19.4949 48.6847 31.3062 48.6847Z" fill="white"/>
</mask>
<g mask="url(#mask96_3916_7297)">
<path d="M9.41113 10.5829L9.57997 10.4141L52.5777 44.801L52.5214 44.8573L52.3526 44.9135L9.41113 10.5829Z" fill="#10A075"/>
</g>
<mask id="mask97_3916_7297" style="mask-type:luminance" maskUnits="userSpaceOnUse" x="9" y="5" width="44" height="44">
<path d="M31.3062 48.6847C43.1175 48.6847 52.6925 39.1097 52.6925 27.2984C52.6925 15.4871 43.1175 5.91211 31.3062 5.91211C19.4949 5.91211 9.91992 15.4871 9.91992 27.2984C9.91992 39.1097 19.4949 48.6847 31.3062 48.6847Z" fill="white"/>
</mask>
<g mask="url(#mask97_3916_7297)">
<path d="M9.58008 10.4146L9.69264 10.1895L52.6904 44.6326L52.5778 44.8015L9.58008 10.4146Z" fill="#10A075"/>
</g>
<mask id="mask98_3916_7297" style="mask-type:luminance" maskUnits="userSpaceOnUse" x="9" y="5" width="44" height="44">
<path d="M31.3062 48.6847C43.1175 48.6847 52.6925 39.1097 52.6925 27.2984C52.6925 15.4871 43.1175 5.91211 31.3062 5.91211C19.4949 5.91211 9.91992 15.4871 9.91992 27.2984C9.91992 39.1097 19.4949 48.6847 31.3062 48.6847Z" fill="white"/>
</mask>
<g mask="url(#mask98_3916_7297)">
<path d="M9.69336 10.1903L9.8622 10.0215L52.8599 44.4647L52.6911 44.6335L9.69336 10.1903Z" fill="#10A075"/>
</g>
<mask id="mask99_3916_7297" style="mask-type:luminance" maskUnits="userSpaceOnUse" x="9" y="5" width="44" height="44">
<path d="M31.3062 48.6847C43.1175 48.6847 52.6925 39.1097 52.6925 27.2984C52.6925 15.4871 43.1175 5.91211 31.3062 5.91211C19.4949 5.91211 9.91992 15.4871 9.91992 27.2984C9.91992 39.1097 19.4949 48.6847 31.3062 48.6847Z" fill="white"/>
</mask>
<g mask="url(#mask99_3916_7297)">
<path d="M9.8623 10.0204L9.97486 9.85156L52.9726 44.2948L52.86 44.4636L9.8623 10.0204Z" fill="#10A075"/>
</g>
<mask id="mask100_3916_7297" style="mask-type:luminance" maskUnits="userSpaceOnUse" x="9" y="5" width="44" height="44">
<path d="M31.3062 48.6847C43.1175 48.6847 52.6925 39.1097 52.6925 27.2984C52.6925 15.4871 43.1175 5.91211 31.3062 5.91211C19.4949 5.91211 9.91992 15.4871 9.91992 27.2984C9.91992 39.1097 19.4949 48.6847 31.3062 48.6847Z" fill="white"/>
</mask>
<g mask="url(#mask100_3916_7297)">
<path d="M9.97363 9.85243L10.1425 9.68359L53.0839 44.1268L52.9713 44.2956L9.97363 9.85243Z" fill="#10A075"/>
</g>
<mask id="mask101_3916_7297" style="mask-type:luminance" maskUnits="userSpaceOnUse" x="9" y="5" width="44" height="44">
<path d="M31.3062 48.6847C43.1175 48.6847 52.6925 39.1097 52.6925 27.2984C52.6925 15.4871 43.1175 5.91211 31.3062 5.91211C19.4949 5.91211 9.91992 15.4871 9.91992 27.2984C9.91992 39.1097 19.4949 48.6847 31.3062 48.6847Z" fill="white"/>
</mask>
<g mask="url(#mask101_3916_7297)">
<path d="M10.1445 9.68323L10.3697 9.62695L53.2548 43.9576L53.086 44.1264L10.1445 9.68323Z" fill="#10A075"/>
</g>
<mask id="mask102_3916_7297" style="mask-type:luminance" maskUnits="userSpaceOnUse" x="9" y="5" width="44" height="44">
<path d="M31.3062 48.6847C43.1175 48.6847 52.6925 39.1097 52.6925 27.2984C52.6925 15.4871 43.1175 5.91211 31.3062 5.91211C19.4949 5.91211 9.91992 15.4871 9.91992 27.2984C9.91992 39.1097 19.4949 48.6847 31.3062 48.6847Z" fill="white"/>
</mask>
<g mask="url(#mask102_3916_7297)">
<path d="M10.6505 9.57031L53.3669 43.7884L53.2543 43.9572L10.3691 9.62659L10.6505 9.57031Z" fill="#10A075"/>
</g>
<mask id="mask103_3916_7297" style="mask-type:luminance" maskUnits="userSpaceOnUse" x="9" y="5" width="44" height="44">
<path d="M31.3062 48.6847C43.1175 48.6847 52.6925 39.1097 52.6925 27.2984C52.6925 15.4871 43.1175 5.91211 31.3062 5.91211C19.4949 5.91211 9.91992 15.4871 9.91992 27.2984C9.91992 39.1097 19.4949 48.6847 31.3062 48.6847Z" fill="white"/>
</mask>
<g mask="url(#mask103_3916_7297)">
<path d="M10.9328 9.51367L53.5365 43.6192L53.3677 43.788L10.6514 9.56995L10.9328 9.51367Z" fill="#10A075"/>
</g>
<mask id="mask104_3916_7297" style="mask-type:luminance" maskUnits="userSpaceOnUse" x="9" y="5" width="44" height="44">
<path d="M31.3062 48.6847C43.1175 48.6847 52.6925 39.1097 52.6925 27.2984C52.6925 15.4871 43.1175 5.91211 31.3062 5.91211C19.4949 5.91211 9.91992 15.4871 9.91992 27.2984C9.91992 39.1097 19.4949 48.6847 31.3062 48.6847Z" fill="white"/>
</mask>
<g mask="url(#mask104_3916_7297)">
<path d="M11.213 9.45898L53.648 43.4519L53.5354 43.6208L10.9316 9.51526L11.213 9.45898Z" fill="#10A075"/>
</g>
<mask id="mask105_3916_7297" style="mask-type:luminance" maskUnits="userSpaceOnUse" x="9" y="5" width="44" height="44">
<path d="M31.3062 48.6847C43.1175 48.6847 52.6925 39.1097 52.6925 27.2984C52.6925 15.4871 43.1175 5.91211 31.3062 5.91211C19.4949 5.91211 9.91992 15.4871 9.91992 27.2984C9.91992 39.1097 19.4949 48.6847 31.3062 48.6847Z" fill="white"/>
</mask>
<g mask="url(#mask105_3916_7297)">
<path d="M11.4953 9.40234L53.8176 43.2827L53.6488 43.4516L11.2139 9.45862L11.4953 9.40234Z" fill="#10A075"/>
</g>
<mask id="mask106_3916_7297" style="mask-type:luminance" maskUnits="userSpaceOnUse" x="9" y="5" width="44" height="44">
<path d="M31.3062 48.6847C43.1175 48.6847 52.6925 39.1097 52.6925 27.2984C52.6925 15.4871 43.1175 5.91211 31.3062 5.91211C19.4949 5.91211 9.91992 15.4871 9.91992 27.2984C9.91992 39.1097 19.4949 48.6847 31.3062 48.6847Z" fill="white"/>
</mask>
<g mask="url(#mask106_3916_7297)">
<path d="M11.7755 9.3457L53.9291 43.1135L53.8165 43.2824L11.4941 9.40198L11.7755 9.3457Z" fill="#10A075"/>
</g>
<mask id="mask107_3916_7297" style="mask-type:luminance" maskUnits="userSpaceOnUse" x="9" y="5" width="44" height="44">
<path d="M31.3062 48.6847C43.1175 48.6847 52.6925 39.1097 52.6925 27.2984C52.6925 15.4871 43.1175 5.91211 31.3062 5.91211C19.4949 5.91211 9.91992 15.4871 9.91992 27.2984C9.91992 39.1097 19.4949 48.6847 31.3062 48.6847Z" fill="white"/>
</mask>
<g mask="url(#mask107_3916_7297)">
<path d="M12.0578 9.28906L54.0424 42.9443L53.9299 43.1132L11.7764 9.34534L12.0578 9.28906Z" fill="#10A075"/>
</g>
<mask id="mask108_3916_7297" style="mask-type:luminance" maskUnits="userSpaceOnUse" x="9" y="5" width="44" height="44">
<path d="M31.3062 48.6847C43.1175 48.6847 52.6925 39.1097 52.6925 27.2984C52.6925 15.4871 43.1175 5.91211 31.3062 5.91211C19.4949 5.91211 9.91992 15.4871 9.91992 27.2984C9.91992 39.1097 19.4949 48.6847 31.3062 48.6847Z" fill="white"/>
</mask>
<g mask="url(#mask108_3916_7297)">
<path d="M12.338 9.23242L54.2102 42.7751L54.0413 42.944L12.0566 9.2887L12.338 9.23242Z" fill="#10A075"/>
</g>
<mask id="mask109_3916_7297" style="mask-type:luminance" maskUnits="userSpaceOnUse" x="9" y="5" width="44" height="44">
<path d="M31.3062 48.6847C43.1175 48.6847 52.6925 39.1097 52.6925 27.2984C52.6925 15.4871 43.1175 5.91211 31.3062 5.91211C19.4949 5.91211 9.91992 15.4871 9.91992 27.2984C9.91992 39.1097 19.4949 48.6847 31.3062 48.6847Z" fill="white"/>
</mask>
<g mask="url(#mask109_3916_7297)">
<path d="M12.6203 9.17578L54.3235 42.6059L54.211 42.7748L12.3389 9.23206L12.6203 9.17578Z" fill="#10A075"/>
</g>
<mask id="mask110_3916_7297" style="mask-type:luminance" maskUnits="userSpaceOnUse" x="9" y="5" width="44" height="44">
<path d="M31.3062 48.6847C43.1175 48.6847 52.6925 39.1097 52.6925 27.2984C52.6925 15.4871 43.1175 5.91211 31.3062 5.91211C19.4949 5.91211 9.91992 15.4871 9.91992 27.2984C9.91992 39.1097 19.4949 48.6847 31.3062 48.6847Z" fill="white"/>
</mask>
<g mask="url(#mask110_3916_7297)">
<path d="M12.9015 9.12109L54.4922 42.4387L54.3234 42.6075L12.6201 9.17737L12.9015 9.12109Z" fill="#10A075"/>
</g>
<mask id="mask111_3916_7297" style="mask-type:luminance" maskUnits="userSpaceOnUse" x="9" y="5" width="44" height="44">
<path d="M31.3062 48.6847C43.1175 48.6847 52.6925 39.1097 52.6925 27.2984C52.6925 15.4871 43.1175 5.91211 31.3062 5.91211C19.4949 5.91211 9.91992 15.4871 9.91992 27.2984C9.91992 39.1097 19.4949 48.6847 31.3062 48.6847Z" fill="white"/>
</mask>
<g mask="url(#mask111_3916_7297)">
<path d="M13.1828 9.06445L54.6046 42.2695L54.4921 42.4383L12.9014 9.12073L13.1828 9.06445Z" fill="#10A075"/>
</g>
<mask id="mask112_3916_7297" style="mask-type:luminance" maskUnits="userSpaceOnUse" x="9" y="5" width="44" height="44">
<path d="M31.3062 48.6847C43.1175 48.6847 52.6925 39.1097 52.6925 27.2984C52.6925 15.4871 43.1175 5.91211 31.3062 5.91211C19.4949 5.91211 9.91992 15.4871 9.91992 27.2984C9.91992 39.1097 19.4949 48.6847 31.3062 48.6847Z" fill="white"/>
</mask>
<g mask="url(#mask112_3916_7297)">
<path d="M13.465 9.00781L54.7743 42.1003L54.6055 42.2691L13.1836 9.06409L13.465 9.00781Z" fill="#10A075"/>
</g>
<mask id="mask113_3916_7297" style="mask-type:luminance" maskUnits="userSpaceOnUse" x="9" y="5" width="44" height="44">
<path d="M31.3062 48.6847C43.1175 48.6847 52.6925 39.1097 52.6925 27.2984C52.6925 15.4871 43.1175 5.91211 31.3062 5.91211C19.4949 5.91211 9.91992 15.4871 9.91992 27.2984C9.91992 39.1097 19.4949 48.6847 31.3062 48.6847Z" fill="white"/>
</mask>
<g mask="url(#mask113_3916_7297)">
<path d="M13.7453 8.95117L54.8857 41.9311L54.7732 42.0999L13.4639 9.00745L13.7453 8.95117Z" fill="#10A075"/>
</g>
<mask id="mask114_3916_7297" style="mask-type:luminance" maskUnits="userSpaceOnUse" x="9" y="5" width="44" height="44">
<path d="M31.3062 48.6847C43.1175 48.6847 52.6925 39.1097 52.6925 27.2984C52.6925 15.4871 43.1175 5.91211 31.3062 5.91211C19.4949 5.91211 9.91992 15.4871 9.91992 27.2984C9.91992 39.1097 19.4949 48.6847 31.3062 48.6847Z" fill="white"/>
</mask>
<g mask="url(#mask114_3916_7297)">
<path d="M14.0275 8.89453L54.9991 41.7619L54.8866 41.9307L13.7461 8.95081L14.0275 8.89453Z" fill="#10A075"/>
</g>
<mask id="mask115_3916_7297" style="mask-type:luminance" maskUnits="userSpaceOnUse" x="9" y="5" width="44" height="44">
<path d="M31.3062 48.6847C43.1175 48.6847 52.6925 39.1097 52.6925 27.2984C52.6925 15.4871 43.1175 5.91211 31.3062 5.91211C19.4949 5.91211 9.91992 15.4871 9.91992 27.2984C9.91992 39.1097 19.4949 48.6847 31.3062 48.6847Z" fill="white"/>
</mask>
<g mask="url(#mask115_3916_7297)">
<path d="M14.3078 8.83984L55.1668 41.5946L54.998 41.7635L14.0264 8.89612L14.3078 8.83984Z" fill="#10A075"/>
</g>
<mask id="mask116_3916_7297" style="mask-type:luminance" maskUnits="userSpaceOnUse" x="9" y="5" width="44" height="44">
<path d="M31.3062 48.6847C43.1175 48.6847 52.6925 39.1097 52.6925 27.2984C52.6925 15.4871 43.1175 5.91211 31.3062 5.91211C19.4949 5.91211 9.91992 15.4871 9.91992 27.2984C9.91992 39.1097 19.4949 48.6847 31.3062 48.6847Z" fill="white"/>
</mask>
<g mask="url(#mask116_3916_7297)">
<path d="M14.59 8.7832L55.2802 41.4254L55.1677 41.5943L14.3086 8.83948L14.59 8.7832Z" fill="#10A075"/>
</g>
<mask id="mask117_3916_7297" style="mask-type:luminance" maskUnits="userSpaceOnUse" x="9" y="5" width="44" height="44">
<path d="M31.3062 48.6847C43.1175 48.6847 52.6925 39.1097 52.6925 27.2984C52.6925 15.4871 43.1175 5.91211 31.3062 5.91211C19.4949 5.91211 9.91992 15.4871 9.91992 27.2984C9.91992 39.1097 19.4949 48.6847 31.3062 48.6847Z" fill="white"/>
</mask>
<g mask="url(#mask117_3916_7297)">
<path d="M14.8712 8.72656L55.4489 41.2562L55.2801 41.4251L14.5898 8.78284L14.8712 8.72656Z" fill="#10A075"/>
</g>
<mask id="mask118_3916_7297" style="mask-type:luminance" maskUnits="userSpaceOnUse" x="9" y="5" width="44" height="44">
<path d="M31.3062 48.6847C43.1175 48.6847 52.6925 39.1097 52.6925 27.2984C52.6925 15.4871 43.1175 5.91211 31.3062 5.91211C19.4949 5.91211 9.91992 15.4871 9.91992 27.2984C9.91992 39.1097 19.4949 48.6847 31.3062 48.6847Z" fill="white"/>
</mask>
<g mask="url(#mask118_3916_7297)">
<path d="M15.1525 8.66992L55.5613 41.0308L55.4488 41.2559L14.8711 8.7262L15.1525 8.66992Z" fill="#10A075"/>
</g>
<mask id="mask119_3916_7297" style="mask-type:luminance" maskUnits="userSpaceOnUse" x="9" y="5" width="44" height="44">
<path d="M31.3062 48.6847C43.1175 48.6847 52.6925 39.1097 52.6925 27.2984C52.6925 15.4871 43.1175 5.91211 31.3062 5.91211C19.4949 5.91211 9.91992 15.4871 9.91992 27.2984C9.91992 39.1097 19.4949 48.6847 31.3062 48.6847Z" fill="white"/>
</mask>
<g mask="url(#mask119_3916_7297)">
<path d="M15.4347 8.61328L55.731 40.8616L55.5622 41.0304L15.1533 8.66956L15.4347 8.61328Z" fill="#10A075"/>
</g>
<mask id="mask120_3916_7297" style="mask-type:luminance" maskUnits="userSpaceOnUse" x="9" y="5" width="44" height="44">
<path d="M31.3062 48.6847C43.1175 48.6847 52.6925 39.1097 52.6925 27.2984C52.6925 15.4871 43.1175 5.91211 31.3062 5.91211C19.4949 5.91211 9.91992 15.4871 9.91992 27.2984C9.91992 39.1097 19.4949 48.6847 31.3062 48.6847Z" fill="white"/>
</mask>
<g mask="url(#mask120_3916_7297)">
<path d="M15.715 8.55859L55.8424 40.6943V40.7506L55.7299 40.8632L15.4336 8.61487L15.715 8.55859Z" fill="#10A075"/>
</g>
<mask id="mask121_3916_7297" style="mask-type:luminance" maskUnits="userSpaceOnUse" x="9" y="5" width="44" height="44">
<path d="M31.3062 48.6847C43.1175 48.6847 52.6925 39.1097 52.6925 27.2984C52.6925 15.4871 43.1175 5.91211 31.3062 5.91211C19.4949 5.91211 9.91992 15.4871 9.91992 27.2984C9.91992 39.1097 19.4949 48.6847 31.3062 48.6847Z" fill="white"/>
</mask>
<g mask="url(#mask121_3916_7297)">
<path d="M15.9972 8.50195L55.787 40.3563L55.8433 40.694L15.7158 8.55823L15.9972 8.50195Z" fill="#10A075"/>
</g>
<mask id="mask122_3916_7297" style="mask-type:luminance" maskUnits="userSpaceOnUse" x="9" y="5" width="44" height="44">
<path d="M31.3062 48.6847C43.1175 48.6847 52.6925 39.1097 52.6925 27.2984C52.6925 15.4871 43.1175 5.91211 31.3062 5.91211C19.4949 5.91211 9.91992 15.4871 9.91992 27.2984C9.91992 39.1097 19.4949 48.6847 31.3062 48.6847Z" fill="white"/>
</mask>
<g mask="url(#mask122_3916_7297)">
<path d="M16.2785 8.44531L55.6743 40.0182L55.7868 40.3559L15.9971 8.50159L16.2785 8.44531Z" fill="#10A075"/>
</g>
<mask id="mask123_3916_7297" style="mask-type:luminance" maskUnits="userSpaceOnUse" x="9" y="5" width="44" height="44">
<path d="M31.3062 48.6847C43.1175 48.6847 52.6925 39.1097 52.6925 27.2984C52.6925 15.4871 43.1175 5.91211 31.3062 5.91211C19.4949 5.91211 9.91992 15.4871 9.91992 27.2984C9.91992 39.1097 19.4949 48.6847 31.3062 48.6847Z" fill="white"/>
</mask>
<g mask="url(#mask123_3916_7297)">
<path d="M16.5597 8.38867L55.6178 39.7365L55.6741 40.0179L16.2783 8.44495L16.5597 8.38867Z" fill="#10A075"/>
</g>
<mask id="mask124_3916_7297" style="mask-type:luminance" maskUnits="userSpaceOnUse" x="9" y="5" width="44" height="44">
<path d="M31.3062 48.6847C43.1175 48.6847 52.6925 39.1097 52.6925 27.2984C52.6925 15.4871 43.1175 5.91211 31.3062 5.91211C19.4949 5.91211 9.91992 15.4871 9.91992 27.2984C9.91992 39.1097 19.4949 48.6847 31.3062 48.6847Z" fill="white"/>
</mask>
<g mask="url(#mask124_3916_7297)">
<path d="M16.841 8.33203L55.5614 39.3984L55.6177 39.7361L16.5596 8.38831L16.841 8.33203Z" fill="#10A075"/>
</g>
<mask id="mask125_3916_7297" style="mask-type:luminance" maskUnits="userSpaceOnUse" x="9" y="5" width="44" height="44">
<path d="M31.3062 48.6847C43.1175 48.6847 52.6925 39.1097 52.6925 27.2984C52.6925 15.4871 43.1175 5.91211 31.3062 5.91211C19.4949 5.91211 9.91992 15.4871 9.91992 27.2984C9.91992 39.1097 19.4949 48.6847 31.3062 48.6847Z" fill="white"/>
</mask>
<g mask="url(#mask125_3916_7297)">
<path d="M17.1222 8.27539L55.505 39.0604L55.5613 39.3981L16.8408 8.33167L17.1222 8.27539Z" fill="#10A075"/>
</g>
<mask id="mask126_3916_7297" style="mask-type:luminance" maskUnits="userSpaceOnUse" x="9" y="5" width="44" height="44">
<path d="M31.3062 48.6847C43.1175 48.6847 52.6925 39.1097 52.6925 27.2984C52.6925 15.4871 43.1175 5.91211 31.3062 5.91211C19.4949 5.91211 9.91992 15.4871 9.91992 27.2984C9.91992 39.1097 19.4949 48.6847 31.3062 48.6847Z" fill="white"/>
</mask>
<g mask="url(#mask126_3916_7297)">
<path d="M17.4035 8.2207L55.4486 38.7243L55.5048 39.062L17.1221 8.27698L17.4035 8.2207Z" fill="#10A075"/>
</g>
<mask id="mask127_3916_7297" style="mask-type:luminance" maskUnits="userSpaceOnUse" x="9" y="5" width="44" height="44">
<path d="M31.3062 48.6847C43.1175 48.6847 52.6925 39.1097 52.6925 27.2984C52.6925 15.4871 43.1175 5.91211 31.3062 5.91211C19.4949 5.91211 9.91992 15.4871 9.91992 27.2984C9.91992 39.1097 19.4949 48.6847 31.3062 48.6847Z" fill="white"/>
</mask>
<g mask="url(#mask127_3916_7297)">
<path d="M17.6847 8.16406L55.3921 38.3863L55.4484 38.724L17.4033 8.22034L17.6847 8.16406Z" fill="#10A075"/>
</g>
<mask id="mask128_3916_7297" style="mask-type:luminance" maskUnits="userSpaceOnUse" x="9" y="5" width="44" height="44">
<path d="M31.3062 48.6847C43.1175 48.6847 52.6925 39.1097 52.6925 27.2984C52.6925 15.4871 43.1175 5.91211 31.3062 5.91211C19.4949 5.91211 9.91992 15.4871 9.91992 27.2984C9.91992 39.1097 19.4949 48.6847 31.3062 48.6847Z" fill="white"/>
</mask>
<g mask="url(#mask128_3916_7297)">
<path d="M17.9669 8.10742L55.2804 38.0482L55.393 38.3859L17.6855 8.1637L17.9669 8.10742Z" fill="#10A075"/>
</g>
<mask id="mask129_3916_7297" style="mask-type:luminance" maskUnits="userSpaceOnUse" x="9" y="5" width="44" height="44">
<path d="M31.3062 48.6847C43.1175 48.6847 52.6925 39.1097 52.6925 27.2984C52.6925 15.4871 43.1175 5.91211 31.3062 5.91211C19.4949 5.91211 9.91992 15.4871 9.91992 27.2984C9.91992 39.1097 19.4949 48.6847 31.3062 48.6847Z" fill="white"/>
</mask>
<g mask="url(#mask129_3916_7297)">
<path d="M18.2482 8.05078L55.224 37.7102L55.2803 38.0479L17.9668 8.10706L18.2482 8.05078Z" fill="#10A075"/>
</g>
<mask id="mask130_3916_7297" style="mask-type:luminance" maskUnits="userSpaceOnUse" x="9" y="5" width="44" height="44">
<path d="M31.3062 48.6847C43.1175 48.6847 52.6925 39.1097 52.6925 27.2984C52.6925 15.4871 43.1175 5.91211 31.3062 5.91211C19.4949 5.91211 9.91992 15.4871 9.91992 27.2984C9.91992 39.1097 19.4949 48.6847 31.3062 48.6847Z" fill="white"/>
</mask>
<g mask="url(#mask130_3916_7297)">
<path d="M18.5294 7.99414L55.1675 37.3722L55.2238 37.7098L18.248 8.05042L18.5294 7.99414Z" fill="#10A075"/>
</g>
<mask id="mask131_3916_7297" style="mask-type:luminance" maskUnits="userSpaceOnUse" x="9" y="5" width="44" height="44">
<path d="M31.3062 48.6847C43.1175 48.6847 52.6925 39.1097 52.6925 27.2984C52.6925 15.4871 43.1175 5.91211 31.3062 5.91211C19.4949 5.91211 9.91992 15.4871 9.91992 27.2984C9.91992 39.1097 19.4949 48.6847 31.3062 48.6847Z" fill="white"/>
</mask>
<g mask="url(#mask131_3916_7297)">
<path d="M18.867 7.9375L55.1111 36.9778L55.1674 37.3718L18.5293 7.99378L18.867 7.9375Z" fill="#10A075"/>
</g>
<mask id="mask132_3916_7297" style="mask-type:luminance" maskUnits="userSpaceOnUse" x="9" y="5" width="44" height="44">
<path d="M31.3062 48.6847C43.1175 48.6847 52.6925 39.1097 52.6925 27.2984C52.6925 15.4871 43.1175 5.91211 31.3062 5.91211C19.4949 5.91211 9.91992 15.4871 9.91992 27.2984C9.91992 39.1097 19.4949 48.6847 31.3062 48.6847Z" fill="white"/>
</mask>
<g mask="url(#mask132_3916_7297)">
<path d="M19.2049 7.88281L54.9988 36.5855L55.1113 36.9794L18.8672 7.93909L19.2049 7.88281Z" fill="#10A075"/>
</g>
<mask id="mask133_3916_7297" style="mask-type:luminance" maskUnits="userSpaceOnUse" x="9" y="5" width="44" height="44">
<path d="M31.3062 48.6847C43.1175 48.6847 52.6925 39.1097 52.6925 27.2984C52.6925 15.4871 43.1175 5.91211 31.3062 5.91211C19.4949 5.91211 9.91992 15.4871 9.91992 27.2984C9.91992 39.1097 19.4949 48.6847 31.3062 48.6847Z" fill="white"/>
</mask>
<g mask="url(#mask133_3916_7297)">
<path d="M19.5418 7.82617L54.9417 36.1349L54.998 36.5851L19.2041 7.88245L19.5418 7.82617Z" fill="#10A075"/>
</g>
<mask id="mask134_3916_7297" style="mask-type:luminance" maskUnits="userSpaceOnUse" x="9" y="5" width="44" height="44">
<path d="M31.3062 48.6847C43.1175 48.6847 52.6925 39.1097 52.6925 27.2984C52.6925 15.4871 43.1175 5.91211 31.3062 5.91211C19.4949 5.91211 9.91992 15.4871 9.91992 27.2984C9.91992 39.1097 19.4949 48.6847 31.3062 48.6847Z" fill="white"/>
</mask>
<g mask="url(#mask134_3916_7297)">
<path d="M19.8797 7.76953L54.8294 35.7406L54.9419 36.1345L19.542 7.82581L19.8797 7.76953Z" fill="#10A075"/>
</g>
<mask id="mask135_3916_7297" style="mask-type:luminance" maskUnits="userSpaceOnUse" x="9" y="5" width="44" height="44">
<path d="M31.3062 48.6847C43.1175 48.6847 52.6925 39.1097 52.6925 27.2984C52.6925 15.4871 43.1175 5.91211 31.3062 5.91211C19.4949 5.91211 9.91992 15.4871 9.91992 27.2984C9.91992 39.1097 19.4949 48.6847 31.3062 48.6847Z" fill="white"/>
</mask>
<g mask="url(#mask135_3916_7297)">
<path d="M20.2176 7.6582L54.7733 35.3478L54.8296 35.7418L19.8799 7.77076L20.2176 7.6582Z" fill="#10A075"/>
</g>
<mask id="mask136_3916_7297" style="mask-type:luminance" maskUnits="userSpaceOnUse" x="9" y="5" width="44" height="44">
<path d="M31.3062 48.6847C43.1175 48.6847 52.6925 39.1097 52.6925 27.2984C52.6925 15.4871 43.1175 5.91211 31.3062 5.91211C19.4949 5.91211 9.91992 15.4871 9.91992 27.2984C9.91992 39.1097 19.4949 48.6847 31.3062 48.6847Z" fill="white"/>
</mask>
<g mask="url(#mask136_3916_7297)">
<path d="M20.5555 7.59961L54.661 34.9516L54.7735 35.3455L20.2178 7.65589L20.5555 7.59961Z" fill="#10A075"/>
</g>
<mask id="mask137_3916_7297" style="mask-type:luminance" maskUnits="userSpaceOnUse" x="9" y="5" width="44" height="44">
<path d="M31.3062 48.6847C43.1175 48.6847 52.6925 39.1097 52.6925 27.2984C52.6925 15.4871 43.1175 5.91211 31.3062 5.91211C19.4949 5.91211 9.91992 15.4871 9.91992 27.2984C9.91992 39.1097 19.4949 48.6847 31.3062 48.6847Z" fill="white"/>
</mask>
<g mask="url(#mask137_3916_7297)">
<path d="M20.8933 7.54492L54.6049 34.5029L54.6612 34.9531L20.5557 7.6012L20.8933 7.54492Z" fill="#10A075"/>
</g>
<mask id="mask138_3916_7297" style="mask-type:luminance" maskUnits="userSpaceOnUse" x="9" y="5" width="44" height="44">
<path d="M31.3062 48.6847C43.1175 48.6847 52.6925 39.1097 52.6925 27.2984C52.6925 15.4871 43.1175 5.91211 31.3062 5.91211C19.4949 5.91211 9.91992 15.4871 9.91992 27.2984C9.91992 39.1097 19.4949 48.6847 31.3062 48.6847Z" fill="white"/>
</mask>
<g mask="url(#mask138_3916_7297)">
<path d="M21.2303 7.48828L54.4916 34.1086L54.6041 34.5025L20.8926 7.54456L21.2303 7.48828Z" fill="#10A075"/>
</g>
<mask id="mask139_3916_7297" style="mask-type:luminance" maskUnits="userSpaceOnUse" x="9" y="5" width="44" height="44">
<path d="M31.3062 48.6847C43.1175 48.6847 52.6925 39.1097 52.6925 27.2984C52.6925 15.4871 43.1175 5.91211 31.3062 5.91211C19.4949 5.91211 9.91992 15.4871 9.91992 27.2984C9.91992 39.1097 19.4949 48.6847 31.3062 48.6847Z" fill="white"/>
</mask>
<g mask="url(#mask139_3916_7297)">
<path d="M21.5681 7.375L54.4355 33.7139L54.4918 34.1079L21.2305 7.48756L21.5681 7.375Z" fill="#10A075"/>
</g>
<mask id="mask140_3916_7297" style="mask-type:luminance" maskUnits="userSpaceOnUse" x="9" y="5" width="44" height="44">
<path d="M31.3062 48.6847C43.1175 48.6847 52.6925 39.1097 52.6925 27.2984C52.6925 15.4871 43.1175 5.91211 31.3062 5.91211C19.4949 5.91211 9.91992 15.4871 9.91992 27.2984C9.91992 39.1097 19.4949 48.6847 31.3062 48.6847Z" fill="white"/>
</mask>
<g mask="url(#mask140_3916_7297)">
<path d="M21.9051 7.32031L54.3785 33.3215L54.4347 33.7155L21.5674 7.37659L21.9051 7.32031Z" fill="#10A075"/>
</g>
<mask id="mask141_3916_7297" style="mask-type:luminance" maskUnits="userSpaceOnUse" x="9" y="5" width="44" height="44">
<path d="M31.3062 48.6847C43.1175 48.6847 52.6925 39.1097 52.6925 27.2984C52.6925 15.4871 43.1175 5.91211 31.3062 5.91211C19.4949 5.91211 9.91992 15.4871 9.91992 27.2984C9.91992 39.1097 19.4949 48.6847 31.3062 48.6847Z" fill="white"/>
</mask>
<g mask="url(#mask141_3916_7297)">
<path d="M22.2439 7.26367L54.2671 32.9272L54.3797 33.3212L21.9062 7.31995L22.2439 7.26367Z" fill="#10A075"/>
</g>
<mask id="mask142_3916_7297" style="mask-type:luminance" maskUnits="userSpaceOnUse" x="9" y="5" width="44" height="44">
<path d="M31.3062 48.6847C43.1175 48.6847 52.6925 39.1097 52.6925 27.2984C52.6925 15.4871 43.1175 5.91211 31.3062 5.91211C19.4949 5.91211 9.91992 15.4871 9.91992 27.2984C9.91992 39.1097 19.4949 48.6847 31.3062 48.6847Z" fill="white"/>
</mask>
<g mask="url(#mask142_3916_7297)">
<path d="M22.5818 7.20703L54.211 32.4766L54.2673 32.9269L22.2441 7.26331L22.5818 7.20703Z" fill="#10A075"/>
</g>
<mask id="mask143_3916_7297" style="mask-type:luminance" maskUnits="userSpaceOnUse" x="9" y="5" width="44" height="44">
<path d="M31.3062 48.6847C43.1175 48.6847 52.6925 39.1097 52.6925 27.2984C52.6925 15.4871 43.1175 5.91211 31.3062 5.91211C19.4949 5.91211 9.91992 15.4871 9.91992 27.2984C9.91992 39.1097 19.4949 48.6847 31.3062 48.6847Z" fill="white"/>
</mask>
<g mask="url(#mask143_3916_7297)">
<path d="M22.9187 7.15039L54.0977 32.0823L54.2103 32.4763L22.5811 7.20667L22.9187 7.15039Z" fill="#10A075"/>
</g>
<mask id="mask144_3916_7297" style="mask-type:luminance" maskUnits="userSpaceOnUse" x="9" y="5" width="44" height="44">
<path d="M31.3062 48.6847C43.1175 48.6847 52.6925 39.1097 52.6925 27.2984C52.6925 15.4871 43.1175 5.91211 31.3062 5.91211C19.4949 5.91211 9.91992 15.4871 9.91992 27.2984C9.91992 39.1097 19.4949 48.6847 31.3062 48.6847Z" fill="white"/>
</mask>
<g mask="url(#mask144_3916_7297)">
<path d="M23.2566 7.03711L54.0416 31.6876L54.0979 32.0816L22.9189 7.14967L23.2566 7.03711Z" fill="#10A075"/>
</g>
<mask id="mask145_3916_7297" style="mask-type:luminance" maskUnits="userSpaceOnUse" x="9" y="5" width="44" height="44">
<path d="M31.3062 48.6847C43.1175 48.6847 52.6925 39.1097 52.6925 27.2984C52.6925 15.4871 43.1175 5.91211 31.3062 5.91211C19.4949 5.91211 9.91992 15.4871 9.91992 27.2984C9.91992 39.1097 19.4949 48.6847 31.3062 48.6847Z" fill="white"/>
</mask>
<g mask="url(#mask145_3916_7297)">
<path d="M23.5935 6.98242L53.9283 31.2953L54.0409 31.6892L23.2559 7.0387L23.5935 6.98242Z" fill="#10A075"/>
</g>
<mask id="mask146_3916_7297" style="mask-type:luminance" maskUnits="userSpaceOnUse" x="9" y="5" width="44" height="44">
<path d="M31.3062 48.6847C43.1175 48.6847 52.6925 39.1097 52.6925 27.2984C52.6925 15.4871 43.1175 5.91211 31.3062 5.91211C19.4949 5.91211 9.91992 15.4871 9.91992 27.2984C9.91992 39.1097 19.4949 48.6847 31.3062 48.6847Z" fill="white"/>
</mask>
<g mask="url(#mask146_3916_7297)">
<path d="M23.9877 6.92578L53.8722 30.9009L53.9285 31.2949L23.5938 6.98206L23.9877 6.92578Z" fill="#10A075"/>
</g>
<mask id="mask147_3916_7297" style="mask-type:luminance" maskUnits="userSpaceOnUse" x="9" y="5" width="44" height="44">
<path d="M31.3062 48.6847C43.1175 48.6847 52.6925 39.1097 52.6925 27.2984C52.6925 15.4871 43.1175 5.91211 31.3062 5.91211C19.4949 5.91211 9.91992 15.4871 9.91992 27.2984C9.91992 39.1097 19.4949 48.6847 31.3062 48.6847Z" fill="white"/>
</mask>
<g mask="url(#mask147_3916_7297)">
<path d="M24.326 6.86914L53.7603 30.4503L53.8728 30.9006L23.9883 6.92542L24.326 6.86914Z" fill="#10A075"/>
</g>
<mask id="mask148_3916_7297" style="mask-type:luminance" maskUnits="userSpaceOnUse" x="9" y="5" width="44" height="44">
<path d="M31.3062 48.6847C43.1175 48.6847 52.6925 39.1097 52.6925 27.2984C52.6925 15.4871 43.1175 5.91211 31.3062 5.91211C19.4949 5.91211 9.91992 15.4871 9.91992 27.2984C9.91992 39.1097 19.4949 48.6847 31.3062 48.6847Z" fill="white"/>
</mask>
<g mask="url(#mask148_3916_7297)">
<path d="M24.6629 6.8125L53.7032 30.056L53.7595 30.45L24.3252 6.86878L24.6629 6.8125Z" fill="#10A075"/>
</g>
<mask id="mask149_3916_7297" style="mask-type:luminance" maskUnits="userSpaceOnUse" x="9" y="5" width="44" height="44">
<path d="M31.3062 48.6847C43.1175 48.6847 52.6925 39.1097 52.6925 27.2984C52.6925 15.4871 43.1175 5.91211 31.3062 5.91211C19.4949 5.91211 9.91992 15.4871 9.91992 27.2984C9.91992 39.1097 19.4949 48.6847 31.3062 48.6847Z" fill="white"/>
</mask>
<g mask="url(#mask149_3916_7297)">
<path d="M25.0008 6.69922L53.6471 29.6613L53.7034 30.0553L24.6631 6.81178L25.0008 6.69922Z" fill="#10A075"/>
</g>
<mask id="mask150_3916_7297" style="mask-type:luminance" maskUnits="userSpaceOnUse" x="9" y="5" width="44" height="44">
<path d="M31.3062 48.6847C43.1175 48.6847 52.6925 39.1097 52.6925 27.2984C52.6925 15.4871 43.1175 5.91211 31.3062 5.91211C19.4949 5.91211 9.91992 15.4871 9.91992 27.2984C9.91992 39.1097 19.4949 48.6847 31.3062 48.6847Z" fill="white"/>
</mask>
<g mask="url(#mask150_3916_7297)">
<path d="M25.3387 6.64453L53.5348 29.269L53.6474 29.6629L25.001 6.70081L25.3387 6.64453Z" fill="#10A075"/>
</g>
<mask id="mask151_3916_7297" style="mask-type:luminance" maskUnits="userSpaceOnUse" x="9" y="5" width="44" height="44">
<path d="M31.3062 48.6847C43.1175 48.6847 52.6925 39.1097 52.6925 27.2984C52.6925 15.4871 43.1175 5.91211 31.3062 5.91211C19.4949 5.91211 9.91992 15.4871 9.91992 27.2984C9.91992 39.1097 19.4949 48.6847 31.3062 48.6847Z" fill="white"/>
</mask>
<g mask="url(#mask151_3916_7297)">
<path d="M25.6765 6.58789L53.4787 28.8184L53.535 29.2686L25.3389 6.64417L25.6765 6.58789Z" fill="#10A075"/>
</g>
<mask id="mask152_3916_7297" style="mask-type:luminance" maskUnits="userSpaceOnUse" x="9" y="5" width="44" height="44">
<path d="M31.3062 48.6847C43.1175 48.6847 52.6925 39.1097 52.6925 27.2984C52.6925 15.4871 43.1175 5.91211 31.3062 5.91211C19.4949 5.91211 9.91992 15.4871 9.91992 27.2984C9.91992 39.1097 19.4949 48.6847 31.3062 48.6847Z" fill="white"/>
</mask>
<g mask="url(#mask152_3916_7297)">
<path d="M26.0144 6.53125L53.3664 28.4241L53.4789 28.818L25.6768 6.58753L26.0144 6.53125Z" fill="#10A075"/>
</g>
<mask id="mask153_3916_7297" style="mask-type:luminance" maskUnits="userSpaceOnUse" x="9" y="5" width="44" height="44">
<path d="M31.3062 48.6847C43.1175 48.6847 52.6925 39.1097 52.6925 27.2984C52.6925 15.4871 43.1175 5.91211 31.3062 5.91211C19.4949 5.91211 9.91992 15.4871 9.91992 27.2984C9.91992 39.1097 19.4949 48.6847 31.3062 48.6847Z" fill="white"/>
</mask>
<g mask="url(#mask153_3916_7297)">
<path d="M26.3513 6.47461L53.3093 28.0297L53.3656 28.4237L26.0137 6.53089L26.3513 6.47461Z" fill="#10A075"/>
</g>
<mask id="mask154_3916_7297" style="mask-type:luminance" maskUnits="userSpaceOnUse" x="9" y="5" width="44" height="44">
<path d="M31.3062 48.6847C43.1175 48.6847 52.6925 39.1097 52.6925 27.2984C52.6925 15.4871 43.1175 5.91211 31.3062 5.91211C19.4949 5.91211 9.91992 15.4871 9.91992 27.2984C9.91992 39.1097 19.4949 48.6847 31.3062 48.6847Z" fill="white"/>
</mask>
<g mask="url(#mask154_3916_7297)">
<path d="M26.6892 6.36133L53.197 27.6351L53.3095 28.029L26.3516 6.47389L26.6892 6.36133Z" fill="#10A075"/>
</g>
<mask id="mask155_3916_7297" style="mask-type:luminance" maskUnits="userSpaceOnUse" x="9" y="5" width="44" height="44">
<path d="M31.3062 48.6847C43.1175 48.6847 52.6925 39.1097 52.6925 27.2984C52.6925 15.4871 43.1175 5.91211 31.3062 5.91211C19.4949 5.91211 9.91992 15.4871 9.91992 27.2984C9.91992 39.1097 19.4949 48.6847 31.3062 48.6847Z" fill="white"/>
</mask>
<g mask="url(#mask155_3916_7297)">
<path d="M27.0281 6.30664L53.1419 27.2427L53.1982 27.6367L26.6904 6.36292L27.0281 6.30664Z" fill="#10A075"/>
</g>
<mask id="mask156_3916_7297" style="mask-type:luminance" maskUnits="userSpaceOnUse" x="9" y="5" width="44" height="44">
<path d="M31.3062 48.6847C43.1175 48.6847 52.6925 39.1097 52.6925 27.2984C52.6925 15.4871 43.1175 5.91211 31.3062 5.91211C19.4949 5.91211 9.91992 15.4871 9.91992 27.2984C9.91992 39.1097 19.4949 48.6847 31.3062 48.6847Z" fill="white"/>
</mask>
<g mask="url(#mask156_3916_7297)">
<path d="M27.364 6.25L53.0276 26.7921L53.1402 27.2423L27.0264 6.30628L27.364 6.25Z" fill="#10A075"/>
</g>
<mask id="mask157_3916_7297" style="mask-type:luminance" maskUnits="userSpaceOnUse" x="9" y="5" width="44" height="44">
<path d="M31.3062 48.6847C43.1175 48.6847 52.6925 39.1097 52.6925 27.2984C52.6925 15.4871 43.1175 5.91211 31.3062 5.91211C19.4949 5.91211 9.91992 15.4871 9.91992 27.2984C9.91992 39.1097 19.4949 48.6847 31.3062 48.6847Z" fill="white"/>
</mask>
<g mask="url(#mask157_3916_7297)">
<path d="M27.7019 6.19336L52.9715 26.3978L53.0278 26.7917L27.3643 6.24964L27.7019 6.19336Z" fill="#10A075"/>
</g>
<mask id="mask158_3916_7297" style="mask-type:luminance" maskUnits="userSpaceOnUse" x="9" y="5" width="44" height="44">
<path d="M31.3062 48.6847C43.1175 48.6847 52.6925 39.1097 52.6925 27.2984C52.6925 15.4871 43.1175 5.91211 31.3062 5.91211C19.4949 5.91211 9.91992 15.4871 9.91992 27.2984C9.91992 39.1097 19.4949 48.6847 31.3062 48.6847Z" fill="white"/>
</mask>
<g mask="url(#mask158_3916_7297)">
<path d="M28.0398 6.08203L52.9155 26.0051L52.9717 26.399L27.7021 6.19459L28.0398 6.08203Z" fill="#10A075"/>
</g>
<mask id="mask159_3916_7297" style="mask-type:luminance" maskUnits="userSpaceOnUse" x="9" y="5" width="44" height="44">
<path d="M31.3062 48.6847C43.1175 48.6847 52.6925 39.1097 52.6925 27.2984C52.6925 15.4871 43.1175 5.91211 31.3062 5.91211C19.4949 5.91211 9.91992 15.4871 9.91992 27.2984C9.91992 39.1097 19.4949 48.6847 31.3062 48.6847Z" fill="white"/>
</mask>
<g mask="url(#mask159_3916_7297)">
<path d="M28.3777 6.02539L52.8031 25.6107L52.9157 26.0047L28.04 6.08167L28.3777 6.02539Z" fill="#10A075"/>
</g>
<mask id="mask160_3916_7297" style="mask-type:luminance" maskUnits="userSpaceOnUse" x="9" y="5" width="44" height="44">
<path d="M31.3062 48.6847C43.1175 48.6847 52.6925 39.1097 52.6925 27.2984C52.6925 15.4871 43.1175 5.91211 31.3062 5.91211C19.4949 5.91211 9.91992 15.4871 9.91992 27.2984C9.91992 39.1097 19.4949 48.6847 31.3062 48.6847Z" fill="white"/>
</mask>
<g mask="url(#mask160_3916_7297)">
<path d="M28.7156 5.96875L52.7471 25.2164L52.8033 25.6104L28.3779 6.02503L28.7156 5.96875Z" fill="#10A075"/>
</g>
<mask id="mask161_3916_7297" style="mask-type:luminance" maskUnits="userSpaceOnUse" x="9" y="5" width="44" height="44">
<path d="M31.3062 48.6847C43.1175 48.6847 52.6925 39.1097 52.6925 27.2984C52.6925 15.4871 43.1175 5.91211 31.3062 5.91211C19.4949 5.91211 9.91992 15.4871 9.91992 27.2984C9.91992 39.1097 19.4949 48.6847 31.3062 48.6847Z" fill="white"/>
</mask>
<g mask="url(#mask161_3916_7297)">
<path d="M29.0535 5.91211L52.6347 24.7658L52.7473 25.2161L28.7158 5.96839L29.0535 5.91211Z" fill="#10A075"/>
</g>
<mask id="mask162_3916_7297" style="mask-type:luminance" maskUnits="userSpaceOnUse" x="9" y="5" width="44" height="44">
<path d="M31.3062 48.6847C43.1175 48.6847 52.6925 39.1097 52.6925 27.2984C52.6925 15.4871 43.1175 5.91211 31.3062 5.91211C19.4949 5.91211 9.91992 15.4871 9.91992 27.2984C9.91992 39.1097 19.4949 48.6847 31.3062 48.6847Z" fill="white"/>
</mask>
<g mask="url(#mask162_3916_7297)">
<path d="M29.3914 5.85742L52.5786 24.3735L52.6349 24.7674L29.0537 5.9137L29.3914 5.85742Z" fill="#10A075"/>
</g>
<mask id="mask163_3916_7297" style="mask-type:luminance" maskUnits="userSpaceOnUse" x="9" y="5" width="44" height="44">
<path d="M31.3062 48.6847C43.1175 48.6847 52.6925 39.1097 52.6925 27.2984C52.6925 15.4871 43.1175 5.91211 31.3062 5.91211C19.4949 5.91211 9.91992 15.4871 9.91992 27.2984C9.91992 39.1097 19.4949 48.6847 31.3062 48.6847Z" fill="white"/>
</mask>
<g mask="url(#mask163_3916_7297)">
<path d="M29.7283 5.74414L52.4653 23.9788L52.5779 24.3727L29.3906 5.8567L29.7283 5.74414Z" fill="#10A075"/>
</g>
<mask id="mask164_3916_7297" style="mask-type:luminance" maskUnits="userSpaceOnUse" x="9" y="5" width="44" height="44">
<path d="M31.3062 48.6847C43.1175 48.6847 52.6925 39.1097 52.6925 27.2984C52.6925 15.4871 43.1175 5.91211 31.3062 5.91211C19.4949 5.91211 9.91992 15.4871 9.91992 27.2984C9.91992 39.1097 19.4949 48.6847 31.3062 48.6847Z" fill="white"/>
</mask>
<g mask="url(#mask164_3916_7297)">
<path d="M30.0652 5.6875L52.4083 23.5845L52.4645 23.9784L29.7275 5.74378L30.0652 5.6875Z" fill="#10A075"/>
</g>
<mask id="mask165_3916_7297" style="mask-type:luminance" maskUnits="userSpaceOnUse" x="9" y="5" width="44" height="44">
<path d="M31.3062 48.6847C43.1175 48.6847 52.6925 39.1097 52.6925 27.2984C52.6925 15.4871 43.1175 5.91211 31.3062 5.91211C19.4949 5.91211 9.91992 15.4871 9.91992 27.2984C9.91992 39.1097 19.4949 48.6847 31.3062 48.6847Z" fill="white"/>
</mask>
<g mask="url(#mask165_3916_7297)">
<path d="M30.4613 5.63086L52.2979 23.1901L52.4104 23.5841L30.0674 5.68714L30.4613 5.63086Z" fill="#10A075"/>
</g>
<mask id="mask166_3916_7297" style="mask-type:luminance" maskUnits="userSpaceOnUse" x="9" y="5" width="44" height="44">
<path d="M31.3062 48.6847C43.1175 48.6847 52.6925 39.1097 52.6925 27.2984C52.6925 15.4871 43.1175 5.91211 31.3062 5.91211C19.4949 5.91211 9.91992 15.4871 9.91992 27.2984C9.91992 39.1097 19.4949 48.6847 31.3062 48.6847Z" fill="white"/>
</mask>
<g mask="url(#mask166_3916_7297)">
<path d="M30.7986 5.57422L52.2412 22.7395L52.2975 23.1898L30.4609 5.6305L30.7986 5.57422Z" fill="#10A075"/>
</g>
<mask id="mask167_3916_7297" style="mask-type:luminance" maskUnits="userSpaceOnUse" x="9" y="5" width="44" height="44">
<path d="M31.3062 48.6847C43.1175 48.6847 52.6925 39.1097 52.6925 27.2984C52.6925 15.4871 43.1175 5.91211 31.3062 5.91211C19.4949 5.91211 9.91992 15.4871 9.91992 27.2984C9.91992 39.1097 19.4949 48.6847 31.3062 48.6847Z" fill="white"/>
</mask>
<g mask="url(#mask167_3916_7297)">
<path d="M31.1346 5.51953L52.1832 22.3472L52.2395 22.7411L30.7969 5.57581L31.1346 5.51953Z" fill="#10A075"/>
</g>
<mask id="mask168_3916_7297" style="mask-type:luminance" maskUnits="userSpaceOnUse" x="9" y="5" width="44" height="44">
<path d="M31.3062 48.6847C43.1175 48.6847 52.6925 39.1097 52.6925 27.2984C52.6925 15.4871 43.1175 5.91211 31.3062 5.91211C19.4949 5.91211 9.91992 15.4871 9.91992 27.2984C9.91992 39.1097 19.4949 48.6847 31.3062 48.6847Z" fill="white"/>
</mask>
<g mask="url(#mask168_3916_7297)">
<path d="M31.4724 5.40625L52.0708 21.9525L52.1834 22.3464L31.1348 5.51881L31.4724 5.40625Z" fill="#10A075"/>
</g>
<mask id="mask169_3916_7297" style="mask-type:luminance" maskUnits="userSpaceOnUse" x="9" y="5" width="44" height="44">
<path d="M31.3062 48.6847C43.1175 48.6847 52.6925 39.1097 52.6925 27.2984C52.6925 15.4871 43.1175 5.91211 31.3062 5.91211C19.4949 5.91211 9.91992 15.4871 9.91992 27.2984C9.91992 39.1097 19.4949 48.6847 31.3062 48.6847Z" fill="white"/>
</mask>
<g mask="url(#mask169_3916_7297)">
<path d="M31.8123 5.34961L52.0167 21.5582L52.073 21.9521L31.4746 5.40589L31.8123 5.34961Z" fill="#10A075"/>
</g>
<mask id="mask170_3916_7297" style="mask-type:luminance" maskUnits="userSpaceOnUse" x="9" y="5" width="44" height="44">
<path d="M31.3062 48.6847C43.1175 48.6847 52.6925 39.1097 52.6925 27.2984C52.6925 15.4871 43.1175 5.91211 31.3062 5.91211C19.4949 5.91211 9.91992 15.4871 9.91992 27.2984C9.91992 39.1097 19.4949 48.6847 31.3062 48.6847Z" fill="white"/>
</mask>
<g mask="url(#mask170_3916_7297)">
<path d="M32.1482 5.29297L51.9024 21.1076L52.015 21.5578L31.8105 5.34925L32.1482 5.29297Z" fill="#10A075"/>
</g>
<mask id="mask171_3916_7297" style="mask-type:luminance" maskUnits="userSpaceOnUse" x="9" y="5" width="44" height="44">
<path d="M31.3062 48.6847C43.1175 48.6847 52.6925 39.1097 52.6925 27.2984C52.6925 15.4871 43.1175 5.91211 31.3062 5.91211C19.4949 5.91211 9.91992 15.4871 9.91992 27.2984C9.91992 39.1097 19.4949 48.6847 31.3062 48.6847Z" fill="white"/>
</mask>
<g mask="url(#mask171_3916_7297)">
<path d="M32.4861 5.23633L51.8463 20.7133L51.9026 21.1072L32.1484 5.29261L32.4861 5.23633Z" fill="#10A075"/>
</g>
<mask id="mask172_3916_7297" style="mask-type:luminance" maskUnits="userSpaceOnUse" x="9" y="5" width="44" height="44">
<path d="M31.3062 48.6847C43.1175 48.6847 52.6925 39.1097 52.6925 27.2984C52.6925 15.4871 43.1175 5.91211 31.3062 5.91211C19.4949 5.91211 9.91992 15.4871 9.91992 27.2984C9.91992 39.1097 19.4949 48.6847 31.3062 48.6847Z" fill="white"/>
</mask>
<g mask="url(#mask172_3916_7297)">
<path d="M32.824 5.18164L51.734 20.3209L51.8466 20.7148L32.4863 5.23792L32.824 5.18164Z" fill="#10A075"/>
</g>
<mask id="mask173_3916_7297" style="mask-type:luminance" maskUnits="userSpaceOnUse" x="9" y="5" width="44" height="44">
<path d="M31.3062 48.6847C43.1175 48.6847 52.6925 39.1097 52.6925 27.2984C52.6925 15.4871 43.1175 5.91211 31.3062 5.91211C19.4949 5.91211 9.91992 15.4871 9.91992 27.2984C9.91992 39.1097 19.4949 48.6847 31.3062 48.6847Z" fill="white"/>
</mask>
<g mask="url(#mask173_3916_7297)">
<path d="M33.1619 5.06836L51.6779 19.9262L51.7342 20.3202L32.8242 5.18092L33.1619 5.06836Z" fill="#10A075"/>
</g>
<mask id="mask174_3916_7297" style="mask-type:luminance" maskUnits="userSpaceOnUse" x="9" y="5" width="44" height="44">
<path d="M31.3062 48.6847C43.1175 48.6847 52.6925 39.1097 52.6925 27.2984C52.6925 15.4871 43.1175 5.91211 31.3062 5.91211C19.4949 5.91211 9.91992 15.4871 9.91992 27.2984C9.91992 39.1097 19.4949 48.6847 31.3062 48.6847Z" fill="white"/>
</mask>
<g mask="url(#mask174_3916_7297)">
<path d="M33.4998 5.01172L51.5656 19.5319L51.6781 19.9258L33.1621 5.068L33.4998 5.01172Z" fill="#10A075"/>
</g>
<mask id="mask175_3916_7297" style="mask-type:luminance" maskUnits="userSpaceOnUse" x="9" y="5" width="44" height="44">
<path d="M31.3062 48.6847C43.1175 48.6847 52.6925 39.1097 52.6925 27.2984C52.6925 15.4871 43.1175 5.91211 31.3062 5.91211C19.4949 5.91211 9.91992 15.4871 9.91992 27.2984C9.91992 39.1097 19.4949 48.6847 31.3062 48.6847Z" fill="white"/>
</mask>
<g mask="url(#mask175_3916_7297)">
<path d="M33.8377 4.95703L51.5095 19.0832L51.5658 19.5335L33.5 5.01331L33.8377 4.95703Z" fill="#10A075"/>
</g>
<mask id="mask176_3916_7297" style="mask-type:luminance" maskUnits="userSpaceOnUse" x="9" y="5" width="44" height="44">
<path d="M31.3062 48.6847C43.1175 48.6847 52.6925 39.1097 52.6925 27.2984C52.6925 15.4871 43.1175 5.91211 31.3062 5.91211C19.4949 5.91211 9.91992 15.4871 9.91992 27.2984C9.91992 39.1097 19.4949 48.6847 31.3062 48.6847Z" fill="white"/>
</mask>
<g mask="url(#mask176_3916_7297)">
<path d="M34.1756 4.89844L51.4534 18.687L51.5097 19.0809L33.8379 4.95472L34.1756 4.89844Z" fill="#10A075"/>
</g>
<mask id="mask177_3916_7297" style="mask-type:luminance" maskUnits="userSpaceOnUse" x="9" y="5" width="44" height="44">
<path d="M31.3062 48.6847C43.1175 48.6847 52.6925 39.1097 52.6925 27.2984C52.6925 15.4871 43.1175 5.91211 31.3062 5.91211C19.4949 5.91211 9.91992 15.4871 9.91992 27.2984C9.91992 39.1097 19.4949 48.6847 31.3062 48.6847Z" fill="white"/>
</mask>
<g mask="url(#mask177_3916_7297)">
<path d="M34.5115 4.78711L51.3391 18.2942L51.4517 18.6882L34.1738 4.89967L34.5115 4.78711Z" fill="#10A075"/>
</g>
<mask id="mask178_3916_7297" style="mask-type:luminance" maskUnits="userSpaceOnUse" x="9" y="5" width="44" height="44">
<path d="M31.3062 48.6847C43.1175 48.6847 52.6925 39.1097 52.6925 27.2984C52.6925 15.4871 43.1175 5.91211 31.3062 5.91211C19.4949 5.91211 9.91992 15.4871 9.91992 27.2984C9.91992 39.1097 19.4949 48.6847 31.3062 48.6847Z" fill="white"/>
</mask>
<g mask="url(#mask178_3916_7297)">
<path d="M34.8494 4.73047L51.2831 17.8999L51.3394 18.2939L34.5117 4.78675L34.8494 4.73047Z" fill="#10A075"/>
</g>
<mask id="mask179_3916_7297" style="mask-type:luminance" maskUnits="userSpaceOnUse" x="9" y="5" width="44" height="44">
<path d="M31.3062 48.6847C43.1175 48.6847 52.6925 39.1097 52.6925 27.2984C52.6925 15.4871 43.1175 5.91211 31.3062 5.91211C19.4949 5.91211 9.91992 15.4871 9.91992 27.2984C9.91992 39.1097 19.4949 48.6847 31.3062 48.6847Z" fill="white"/>
</mask>
<g mask="url(#mask179_3916_7297)">
<path d="M35.1892 4.67383L51.1727 17.5056L51.2852 17.8996L34.8516 4.73011L35.1892 4.67383Z" fill="#10A075"/>
</g>
<mask id="mask180_3916_7297" style="mask-type:luminance" maskUnits="userSpaceOnUse" x="9" y="5" width="44" height="44">
<path d="M31.3062 48.6847C43.1175 48.6847 52.6925 39.1097 52.6925 27.2984C52.6925 15.4871 43.1175 5.91211 31.3062 5.91211C19.4949 5.91211 9.91992 15.4871 9.91992 27.2984C9.91992 39.1097 19.4949 48.6847 31.3062 48.6847Z" fill="white"/>
</mask>
<g mask="url(#mask180_3916_7297)">
<path d="M35.5252 4.61914L51.1147 17.057L51.1709 17.5072L35.1875 4.67542L35.5252 4.61914Z" fill="#10A075"/>
</g>
<mask id="mask181_3916_7297" style="mask-type:luminance" maskUnits="userSpaceOnUse" x="9" y="5" width="44" height="44">
<path d="M31.3062 48.6847C43.1175 48.6847 52.6925 39.1097 52.6925 27.2984C52.6925 15.4871 43.1175 5.91211 31.3062 5.91211C19.4949 5.91211 9.91992 15.4871 9.91992 27.2984C9.91992 39.1097 19.4949 48.6847 31.3062 48.6847Z" fill="white"/>
</mask>
<g mask="url(#mask181_3916_7297)">
<path d="M35.8631 4.56055L51.0023 16.6607L51.1149 17.0546L35.5254 4.61683L35.8631 4.56055Z" fill="#10A075"/>
</g>
<mask id="mask182_3916_7297" style="mask-type:luminance" maskUnits="userSpaceOnUse" x="9" y="5" width="44" height="44">
<path d="M31.3062 48.6847C43.1175 48.6847 52.6925 39.1097 52.6925 27.2984C52.6925 15.4871 43.1175 5.91211 31.3062 5.91211C19.4949 5.91211 9.91992 15.4871 9.91992 27.2984C9.91992 39.1097 19.4949 48.6847 31.3062 48.6847Z" fill="white"/>
</mask>
<g mask="url(#mask182_3916_7297)">
<path d="M36.201 4.44922L50.9462 16.268L51.0025 16.6619L35.8633 4.56178L36.201 4.44922Z" fill="#10A075"/>
</g>
<mask id="mask183_3916_7297" style="mask-type:luminance" maskUnits="userSpaceOnUse" x="9" y="5" width="44" height="44">
<path d="M31.3062 48.6847C43.1175 48.6847 52.6925 39.1097 52.6925 27.2984C52.6925 15.4871 43.1175 5.91211 31.3062 5.91211C19.4949 5.91211 9.91992 15.4871 9.91992 27.2984C9.91992 39.1097 19.4949 48.6847 31.3062 48.6847Z" fill="white"/>
</mask>
<g mask="url(#mask183_3916_7297)">
<path d="M36.5951 4.39258L50.8902 15.8736L50.9465 16.2676L36.2012 4.44886L36.5951 4.39258Z" fill="#10A075"/>
</g>
<mask id="mask184_3916_7297" style="mask-type:luminance" maskUnits="userSpaceOnUse" x="9" y="5" width="44" height="44">
<path d="M31.3062 48.6847C43.1175 48.6847 52.6925 39.1097 52.6925 27.2984C52.6925 15.4871 43.1175 5.91211 31.3062 5.91211C19.4949 5.91211 9.91992 15.4871 9.91992 27.2984C9.91992 39.1097 19.4949 48.6847 31.3062 48.6847Z" fill="white"/>
</mask>
<g mask="url(#mask184_3916_7297)">
<path d="M36.9324 4.33594L50.7772 15.423L50.8898 15.8733L36.5947 4.39222L36.9324 4.33594Z" fill="#10A075"/>
</g>
<mask id="mask185_3916_7297" style="mask-type:luminance" maskUnits="userSpaceOnUse" x="9" y="5" width="44" height="44">
<path d="M31.3062 48.6847C43.1175 48.6847 52.6925 39.1097 52.6925 27.2984C52.6925 15.4871 43.1175 5.91211 31.3062 5.91211C19.4949 5.91211 9.91992 15.4871 9.91992 27.2984C9.91992 39.1097 19.4949 48.6847 31.3062 48.6847Z" fill="white"/>
</mask>
<g mask="url(#mask185_3916_7297)">
<path d="M50.7774 15.4242L36.9326 4.33713L48.1323 2.08594L50.7774 15.4242Z" fill="#10A075"/>
</g>
<path fill-rule="evenodd" clip-rule="evenodd" d="M26.6545 35.7578C27.7913 35.7578 28.6439 36.6104 28.6439 37.7473C28.6439 38.742 27.7913 39.7367 26.6545 39.7367C25.6598 39.7367 24.665 38.8841 24.665 37.7473C24.665 36.6104 25.5177 35.7578 26.6545 35.7578Z" fill="white"/>
<path fill-rule="evenodd" clip-rule="evenodd" d="M19.6916 14.015L22.96 14.8676C23.2442 15.0097 23.5284 15.1518 23.5284 15.5781L23.9547 18.136L43.4229 20.4096C43.8492 20.5517 44.1334 20.978 44.1334 21.4044L41.7176 30.9253L40.865 34.0516C40.7229 34.4779 40.4387 34.62 40.1545 34.62H23.5284C22.5337 34.62 22.5337 33.0568 23.5284 33.0568H39.444L39.8703 31.4937H25.0915C24.6652 31.4937 24.381 31.2095 24.2389 30.7832L21.9653 16.2886L19.4074 15.5781C18.2706 15.436 18.6969 13.8729 19.6916 14.015ZM40.1545 29.9306L42.1439 21.9728L39.7282 21.6886L38.5914 29.9306H40.1545ZM37.0282 29.9306L38.1651 21.4044L35.7493 20.978L35.323 29.7885H37.0282V29.9306ZM32.0546 29.9306H33.6177L34.0441 20.978L31.6283 20.6938L32.0546 29.9306ZM28.9283 29.9306H30.4915L30.0652 20.4096L27.6494 20.1254L28.9283 29.9306ZM25.8021 29.9306H27.2231L26.0863 19.9833L24.381 19.6991L25.8021 29.9306Z" fill="white"/>
<path fill-rule="evenodd" clip-rule="evenodd" d="M36.8859 35.7578C38.0228 35.7578 38.8754 36.6104 38.8754 37.7473C38.8754 38.742 38.0228 39.7367 36.8859 39.7367C35.8912 39.7367 34.8965 38.8841 34.8965 37.7473C34.8965 36.6104 35.8912 35.7578 36.8859 35.7578Z" fill="white"/>
<defs>
<filter id="filter0_d_3916_7297" x="0" y="0" width="62.5996" height="62.5996" filterUnits="userSpaceOnUse" color-interpolation-filters="sRGB">
<feFlood flood-opacity="0" result="BackgroundImageFix"/>
<feColorMatrix in="SourceAlpha" type="matrix" values="0 0 0 0 0 0 0 0 0 0 0 0 0 0 0 0 0 0 127 0" result="hardAlpha"/>
<feOffset dy="4"/>
<feGaussianBlur stdDeviation="4"/>
<feComposite in2="hardAlpha" operator="out"/>
<feColorMatrix type="matrix" values="0 0 0 0 0 0 0 0 0 0 0 0 0 0 0 0 0 0 0.35 0"/>
<feBlend mode="normal" in2="BackgroundImageFix" result="effect1_dropShadow_3916_7297"/>
<feBlend mode="normal" in="SourceGraphic" in2="effect1_dropShadow_3916_7297" result="shape"/>
</filter>
</defs>
</svg>
