<svg width="473" height="47" viewBox="0 0 473 47" fill="none" xmlns="http://www.w3.org/2000/svg">
<path d="M63.3521 2.4624C62.3407 1.01134 60.7468 0 59.0099 0H55.1074L68.2659 23.2829L55.1074 46.5657H59.0099C60.8897 46.5657 62.4836 45.5544 63.3521 44.1033L74.9275 23.2719L63.3521 2.44041V2.4624Z" fill="#BA1F40"/>
<path d="M64.6489 23.2946L51.7763 0.0117188H5.05671C2.16559 0.0117188 0 2.32022 0 5.06843V41.6636C0 44.4118 2.16559 46.7313 5.0677 46.7313H51.7873L64.6599 23.2946H64.6489Z" fill="#606061"/>
<path d="M31.0987 13.0273H27.625V33.7159H31.0987V13.0273Z" fill="white"/>
<path d="M20.6771 13.0273V28.0656L11.1353 13.0273H7.80444V33.7159H11.1353V18.5238L20.6771 33.7159H24.1508V13.0273H20.6771Z" fill="white"/>
<path d="M47.4337 13.0273V21.5578H37.892V13.0273H34.4182V33.7159H37.892V25.0315H47.4337V33.7159H50.9075V13.0273H47.4337Z" fill="white"/>
<path d="M93.3844 5.61328H95.7562V16.2275H93.3844L88.3229 9.57071V16.2275H85.9512V5.61328H88.1762L93.3844 12.4411V5.61328Z" fill="#BB0E3D"/>
<path d="M105.941 16.2275L104.951 13.9312H100.501L99.5107 16.2275H96.9922L101.589 5.61328H103.887L108.484 16.2275H105.966H105.941ZM102.738 8.76456L101.406 11.8426H104.071L102.75 8.76456H102.738Z" fill="#BB0E3D"/>
<path d="M113.422 7.66528V16.2275H111.05V7.66528H108.043V5.61328H116.43V7.66528H113.422Z" fill="#BB0E3D"/>
<path d="M118.166 5.61328H120.538V16.2275H118.166V5.61328Z" fill="#BB0E3D"/>
<path d="M132.092 14.7619C131.016 15.8123 129.696 16.3376 128.118 16.3376C126.541 16.3376 125.221 15.8123 124.145 14.7619C123.069 13.7115 122.531 12.4046 122.531 10.8534C122.531 9.30214 123.069 7.99521 124.145 6.94478C125.221 5.89435 126.541 5.36914 128.118 5.36914C129.696 5.36914 131.016 5.89435 132.092 6.94478C133.168 7.99521 133.706 9.30214 133.706 10.8534C133.706 12.4046 133.168 13.7115 132.092 14.7619ZM131.285 10.8534C131.285 9.91285 130.979 9.0945 130.368 8.43492C129.757 7.76314 129.011 7.43335 128.131 7.43335C127.25 7.43335 126.492 7.76314 125.893 8.43492C125.294 9.10671 124.976 9.91285 124.976 10.8534C124.976 11.7938 125.282 12.6 125.893 13.2718C126.505 13.9313 127.25 14.2611 128.131 14.2611C129.011 14.2611 129.769 13.9313 130.368 13.2718C130.979 12.6122 131.285 11.8061 131.285 10.8534Z" fill="#BB0E3D"/>
<path d="M143.142 5.61328H145.514V16.2275H143.142L138.081 9.57071V16.2275H135.709V5.61328H137.934L143.142 12.4411V5.61328Z" fill="#BB0E3D"/>
<path d="M155.699 16.2275L154.709 13.9312H150.259L149.269 16.2275H146.75L151.347 5.61328H153.646L158.242 16.2275H155.724H155.699ZM152.496 8.76456L151.164 11.8426H153.829L152.509 8.76456H152.496Z" fill="#BB0E3D"/>
<path d="M159.451 16.2275V5.61328H161.823V14.1144H166.359V16.2275H159.451Z" fill="#BB0E3D"/>
<path d="M176.971 14.1404C178.133 14.1404 179.086 13.6763 179.832 12.7602L181.348 14.3237C180.138 15.6794 178.72 16.3634 177.081 16.3634C175.443 16.3634 174.098 15.8504 173.035 14.8122C171.971 13.774 171.445 12.4793 171.445 10.9037C171.445 9.32802 171.983 8.0211 173.059 6.95845C174.135 5.90803 175.455 5.38281 177.02 5.38281C178.769 5.38281 180.223 6.04238 181.397 7.37374L179.918 9.0471C179.172 8.11881 178.231 7.65467 177.118 7.65467C176.226 7.65467 175.468 7.94781 174.832 8.52188C174.196 9.10817 173.878 9.88988 173.878 10.8792C173.878 11.8686 174.172 12.6625 174.771 13.261C175.37 13.8595 176.091 14.1527 176.947 14.1527L176.971 14.1404Z" fill="#BB0E3D"/>
<path d="M190.713 16.2275L189.723 13.9312H185.273L184.282 16.2275H181.764L186.361 5.61328H188.659L193.256 16.2275H190.738H190.713ZM187.51 8.76456L186.177 11.8426H188.843L187.522 8.76456H187.51Z" fill="#BB0E3D"/>
<path d="M201.912 5.61328H204.284V16.2275H201.912L196.85 9.57071V16.2275H194.479V5.61328H196.704L201.912 12.4411V5.61328Z" fill="#BB0E3D"/>
<path d="M211.766 14.1404C212.928 14.1404 213.881 13.6763 214.627 12.7602L216.143 14.3237C214.933 15.6794 213.515 16.3634 211.876 16.3634C210.238 16.3634 208.893 15.8504 207.83 14.8122C206.766 13.774 206.24 12.4793 206.24 10.9037C206.24 9.32802 206.778 8.0211 207.854 6.95845C208.93 5.90803 210.25 5.38281 211.815 5.38281C213.563 5.38281 215.018 6.04238 216.192 7.37374L214.713 9.0471C213.967 8.11881 213.025 7.65467 211.913 7.65467C211.02 7.65467 210.262 7.94781 209.627 8.52188C208.991 9.10817 208.673 9.88988 208.673 10.8792C208.673 11.8686 208.967 12.6625 209.566 13.261C210.165 13.8595 210.886 14.1527 211.742 14.1527L211.766 14.1404Z" fill="#BB0E3D"/>
<path d="M225.677 5.61328V7.72635H220.383V9.91271H225.139V11.9281H220.383V14.1266H225.836V16.2275H218.012V5.61328H225.677Z" fill="#BB0E3D"/>
<path d="M236.584 9.14271C236.584 10.8405 235.912 11.9398 234.567 12.4406L237.256 16.2392H234.334L231.975 12.8559H230.337V16.2392H227.965V5.625H231.999C233.65 5.625 234.836 5.90593 235.533 6.45557C236.229 7.00521 236.584 7.90907 236.584 9.14271ZM233.723 10.4008C234.017 10.1321 234.163 9.71678 234.163 9.14271C234.163 8.56864 234.017 8.17778 233.711 7.97014C233.405 7.7625 232.88 7.65257 232.109 7.65257H230.337V10.7916H232.073C232.88 10.7916 233.43 10.6573 233.735 10.4008H233.723Z" fill="#BB0E3D"/>
<path d="M243.027 5.61328H245.399V16.2275H243.027V5.61328Z" fill="#BB0E3D"/>
<path d="M255.447 5.61328H257.819V16.2275H255.447L250.385 9.57071V16.2275H248.014V5.61328H250.239L255.447 12.4411V5.61328Z" fill="#BB0E3D"/>
<path d="M262.919 7.73871C262.686 7.92192 262.576 8.17842 262.576 8.48378C262.576 8.78914 262.711 9.03342 262.992 9.21664C263.273 9.39985 263.909 9.60749 264.924 9.86399C265.938 10.1205 266.721 10.4869 267.271 10.9755C267.833 11.4763 268.102 12.1969 268.102 13.1496C268.102 14.1023 267.748 14.8718 267.026 15.4703C266.305 16.0688 265.376 16.362 264.202 16.362C262.515 16.362 260.999 15.7391 259.654 14.4932L261.072 12.7588C262.222 13.7603 263.273 14.2611 264.251 14.2611C264.691 14.2611 265.034 14.1634 265.278 13.9802C265.523 13.797 265.657 13.5405 265.657 13.2229C265.657 12.9053 265.523 12.6488 265.266 12.4656C265.009 12.2824 264.483 12.087 263.701 11.8916C262.466 11.5984 261.562 11.2198 260.987 10.7434C260.412 10.2671 260.131 9.53421 260.131 8.52042C260.131 7.50664 260.498 6.73714 261.219 6.1875C261.94 5.63785 262.845 5.36914 263.933 5.36914C264.642 5.36914 265.351 5.49128 266.061 5.73557C266.77 5.97985 267.393 6.32185 267.919 6.77378L266.721 8.50821C265.804 7.812 264.85 7.45778 263.86 7.45778C263.469 7.45778 263.151 7.5555 262.931 7.73871H262.919Z" fill="#BB0E3D"/>
<path d="M274.532 7.66528V16.2275H272.16V7.66528H269.152V5.61328H277.539V7.66528H274.532Z" fill="#BB0E3D"/>
<path d="M279.275 5.61328H281.647V16.2275H279.275V5.61328Z" fill="#BB0E3D"/>
<path d="M288.764 7.66528V16.2275H286.392V7.66528H283.385V5.61328H291.772V7.66528H288.764Z" fill="#BB0E3D"/>
<path d="M296.317 13.492C296.709 13.9806 297.247 14.2248 297.919 14.2248C298.591 14.2248 299.117 13.9806 299.508 13.492C299.9 13.0034 300.095 12.3316 300.095 11.4766V5.61378H302.467V11.5499C302.467 13.0889 302.039 14.2737 301.196 15.0921C300.34 15.9226 299.252 16.3257 297.931 16.3257C296.611 16.3257 295.511 15.9104 294.655 15.0798C293.799 14.2493 293.371 13.0645 293.371 11.5377V5.60156H295.743V11.4644C295.743 12.3194 295.938 12.979 296.33 13.4798L296.317 13.492Z" fill="#BB0E3D"/>
<path d="M309.424 7.66528V16.2275H307.052V7.66528H304.045V5.61328H312.432V7.66528H309.424Z" fill="#BB0E3D"/>
<path d="M321.833 5.61328V7.72635H316.54V9.91271H321.296V11.9281H316.54V14.1266H321.992V16.2275H314.168V5.61328H321.833Z" fill="#BB0E3D"/>
<path d="M92.524 41.0812C91.552 41.0812 90.646 40.9252 89.806 40.6132C88.978 40.2892 88.258 39.8332 87.646 39.2452C87.034 38.6572 86.554 37.9672 86.206 37.1752C85.87 36.3832 85.702 35.5132 85.702 34.5652C85.702 33.6172 85.87 32.7472 86.206 31.9552C86.554 31.1632 87.034 30.4732 87.646 29.8852C88.27 29.2972 88.996 28.8472 89.824 28.5352C90.652 28.2112 91.558 28.0492 92.542 28.0492C93.634 28.0492 94.618 28.2412 95.494 28.6252C96.382 28.9972 97.126 29.5492 97.726 30.2812L95.854 32.0092C95.422 31.5172 94.942 31.1512 94.414 30.9112C93.886 30.6592 93.31 30.5332 92.686 30.5332C92.098 30.5332 91.558 30.6292 91.066 30.8212C90.574 31.0132 90.148 31.2892 89.788 31.6492C89.428 32.0092 89.146 32.4352 88.942 32.9272C88.75 33.4192 88.654 33.9652 88.654 34.5652C88.654 35.1652 88.75 35.7112 88.942 36.2032C89.146 36.6952 89.428 37.1212 89.788 37.4812C90.148 37.8412 90.574 38.1172 91.066 38.3092C91.558 38.5012 92.098 38.5972 92.686 38.5972C93.31 38.5972 93.886 38.4772 94.414 38.2372C94.942 37.9852 95.422 37.6072 95.854 37.1032L97.726 38.8312C97.126 39.5632 96.382 40.1212 95.494 40.5052C94.618 40.8892 93.628 41.0812 92.524 41.0812ZM99.4972 40.8652V27.5092H102.305V40.8652H99.4972ZM104.911 40.8652V31.1812H107.719V40.8652H104.911ZM106.315 29.8312C105.799 29.8312 105.379 29.6812 105.055 29.3812C104.731 29.0812 104.569 28.7092 104.569 28.2652C104.569 27.8212 104.731 27.4492 105.055 27.1492C105.379 26.8492 105.799 26.6992 106.315 26.6992C106.831 26.6992 107.251 26.8432 107.575 27.1312C107.899 27.4072 108.061 27.7672 108.061 28.2112C108.061 28.6792 107.899 29.0692 107.575 29.3812C107.263 29.6812 106.843 29.8312 106.315 29.8312ZM116.211 31.0372C116.979 31.0372 117.663 31.1932 118.263 31.5052C118.875 31.8052 119.355 32.2732 119.703 32.9092C120.051 33.5332 120.225 34.3372 120.225 35.3212V40.8652H117.417V35.7532C117.417 34.9732 117.243 34.3972 116.895 34.0252C116.559 33.6532 116.079 33.4672 115.455 33.4672C115.011 33.4672 114.609 33.5632 114.249 33.7552C113.901 33.9352 113.625 34.2172 113.421 34.6012C113.229 34.9852 113.133 35.4772 113.133 36.0772V40.8652H110.325V31.1812H113.007V33.8632L112.503 33.0532C112.851 32.4052 113.349 31.9072 113.997 31.5592C114.645 31.2112 115.383 31.0372 116.211 31.0372ZM122.771 40.8652V31.1812H125.579V40.8652H122.771ZM124.175 29.8312C123.659 29.8312 123.239 29.6812 122.915 29.3812C122.591 29.0812 122.429 28.7092 122.429 28.2652C122.429 27.8212 122.591 27.4492 122.915 27.1492C123.239 26.8492 123.659 26.6992 124.175 26.6992C124.691 26.6992 125.111 26.8432 125.435 27.1312C125.759 27.4072 125.921 27.7672 125.921 28.2112C125.921 28.6792 125.759 29.0692 125.435 29.3812C125.123 29.6812 124.703 29.8312 124.175 29.8312ZM132.865 41.0092C131.821 41.0092 130.891 40.7992 130.075 40.3792C129.259 39.9472 128.617 39.3532 128.149 38.5972C127.693 37.8412 127.465 36.9832 127.465 36.0232C127.465 35.0512 127.693 34.1932 128.149 33.4492C128.617 32.6932 129.259 32.1052 130.075 31.6852C130.891 31.2532 131.821 31.0372 132.865 31.0372C133.885 31.0372 134.773 31.2532 135.529 31.6852C136.285 32.1052 136.843 32.7112 137.203 33.5032L135.025 34.6732C134.773 34.2172 134.455 33.8812 134.071 33.6652C133.699 33.4492 133.291 33.3412 132.847 33.3412C132.367 33.3412 131.935 33.4492 131.551 33.6652C131.167 33.8812 130.861 34.1872 130.633 34.5832C130.417 34.9792 130.309 35.4592 130.309 36.0232C130.309 36.5872 130.417 37.0672 130.633 37.4632C130.861 37.8592 131.167 38.1652 131.551 38.3812C131.935 38.5972 132.367 38.7052 132.847 38.7052C133.291 38.7052 133.699 38.6032 134.071 38.3992C134.455 38.1832 134.773 37.8412 135.025 37.3732L137.203 38.5612C136.843 39.3412 136.285 39.9472 135.529 40.3792C134.773 40.7992 133.885 41.0092 132.865 41.0092ZM144.759 40.8652V38.9752L144.579 38.5612V35.1772C144.579 34.5772 144.393 34.1092 144.021 33.7732C143.661 33.4372 143.103 33.2692 142.347 33.2692C141.831 33.2692 141.321 33.3532 140.817 33.5212C140.325 33.6772 139.905 33.8932 139.557 34.1692L138.549 32.2072C139.077 31.8352 139.713 31.5472 140.457 31.3432C141.201 31.1392 141.957 31.0372 142.725 31.0372C144.201 31.0372 145.347 31.3852 146.163 32.0812C146.979 32.7772 147.387 33.8632 147.387 35.3392V40.8652H144.759ZM141.807 41.0092C141.051 41.0092 140.403 40.8832 139.863 40.6312C139.323 40.3672 138.909 40.0132 138.621 39.5692C138.333 39.1252 138.189 38.6272 138.189 38.0752C138.189 37.4992 138.327 36.9952 138.603 36.5632C138.891 36.1312 139.341 35.7952 139.953 35.5552C140.565 35.3032 141.363 35.1772 142.347 35.1772H144.921V36.8152H142.653C141.993 36.8152 141.537 36.9232 141.285 37.1392C141.045 37.3552 140.925 37.6252 140.925 37.9492C140.925 38.3092 141.063 38.5972 141.339 38.8132C141.627 39.0172 142.017 39.1192 142.509 39.1192C142.977 39.1192 143.397 39.0112 143.769 38.7952C144.141 38.5672 144.411 38.2372 144.579 37.8052L145.011 39.1012C144.807 39.7252 144.435 40.1992 143.895 40.5232C143.355 40.8472 142.659 41.0092 141.807 41.0092ZM149.929 40.8652V27.5092H152.737V40.8652H149.929ZM166.381 40.8652V38.9752L166.201 38.5612V35.1772C166.201 34.5772 166.015 34.1092 165.643 33.7732C165.283 33.4372 164.725 33.2692 163.969 33.2692C163.453 33.2692 162.943 33.3532 162.439 33.5212C161.947 33.6772 161.527 33.8932 161.179 34.1692L160.171 32.2072C160.699 31.8352 161.335 31.5472 162.079 31.3432C162.823 31.1392 163.579 31.0372 164.347 31.0372C165.823 31.0372 166.969 31.3852 167.785 32.0812C168.601 32.7772 169.009 33.8632 169.009 35.3392V40.8652H166.381ZM163.429 41.0092C162.673 41.0092 162.025 40.8832 161.485 40.6312C160.945 40.3672 160.531 40.0132 160.243 39.5692C159.955 39.1252 159.811 38.6272 159.811 38.0752C159.811 37.4992 159.949 36.9952 160.225 36.5632C160.513 36.1312 160.963 35.7952 161.575 35.5552C162.187 35.3032 162.985 35.1772 163.969 35.1772H166.543V36.8152H164.275C163.615 36.8152 163.159 36.9232 162.907 37.1392C162.667 37.3552 162.547 37.6252 162.547 37.9492C162.547 38.3092 162.685 38.5972 162.961 38.8132C163.249 39.0172 163.639 39.1192 164.131 39.1192C164.599 39.1192 165.019 39.0112 165.391 38.7952C165.763 38.5672 166.033 38.2372 166.201 37.8052L166.633 39.1012C166.429 39.7252 166.057 40.1992 165.517 40.5232C164.977 40.8472 164.281 41.0092 163.429 41.0092ZM177.436 31.0372C178.204 31.0372 178.888 31.1932 179.488 31.5052C180.1 31.8052 180.58 32.2732 180.928 32.9092C181.276 33.5332 181.45 34.3372 181.45 35.3212V40.8652H178.642V35.7532C178.642 34.9732 178.468 34.3972 178.12 34.0252C177.784 33.6532 177.304 33.4672 176.68 33.4672C176.236 33.4672 175.834 33.5632 175.474 33.7552C175.126 33.9352 174.85 34.2172 174.646 34.6012C174.454 34.9852 174.358 35.4772 174.358 36.0772V40.8652H171.55V31.1812H174.232V33.8632L173.728 33.0532C174.076 32.4052 174.574 31.9072 175.222 31.5592C175.87 31.2112 176.608 31.0372 177.436 31.0372ZM188.224 41.0092C187.312 41.0092 186.49 40.8052 185.758 40.3972C185.026 39.9772 184.444 39.3952 184.012 38.6512C183.592 37.9072 183.382 37.0312 183.382 36.0232C183.382 35.0032 183.592 34.1212 184.012 33.3772C184.444 32.6332 185.026 32.0572 185.758 31.6492C186.49 31.2412 187.312 31.0372 188.224 31.0372C189.04 31.0372 189.754 31.2172 190.366 31.5772C190.978 31.9372 191.452 32.4832 191.788 33.2152C192.124 33.9472 192.292 34.8832 192.292 36.0232C192.292 37.1512 192.13 38.0872 191.806 38.8312C191.482 39.5632 191.014 40.1092 190.402 40.4692C189.802 40.8292 189.076 41.0092 188.224 41.0092ZM188.71 38.7052C189.166 38.7052 189.58 38.5972 189.952 38.3812C190.324 38.1652 190.618 37.8592 190.834 37.4632C191.062 37.0552 191.176 36.5752 191.176 36.0232C191.176 35.4592 191.062 34.9792 190.834 34.5832C190.618 34.1872 190.324 33.8812 189.952 33.6652C189.58 33.4492 189.166 33.3412 188.71 33.3412C188.242 33.3412 187.822 33.4492 187.45 33.6652C187.078 33.8812 186.778 34.1872 186.55 34.5832C186.334 34.9792 186.226 35.4592 186.226 36.0232C186.226 36.5752 186.334 37.0552 186.55 37.4632C186.778 37.8592 187.078 38.1652 187.45 38.3812C187.822 38.5972 188.242 38.7052 188.71 38.7052ZM191.248 40.8652V38.8852L191.302 36.0052L191.122 33.1432V27.5092H193.93V40.8652H191.248ZM204.434 40.8652V30.6412H200.402V28.2652H211.382V30.6412H207.35V40.8652H204.434ZM212.542 40.8652V31.1812H215.224V33.9172L214.846 33.1252C215.134 32.4412 215.596 31.9252 216.232 31.5772C216.868 31.2172 217.642 31.0372 218.554 31.0372V33.6292C218.434 33.6172 218.326 33.6112 218.23 33.6112C218.134 33.5992 218.032 33.5932 217.924 33.5932C217.156 33.5932 216.532 33.8152 216.052 34.2592C215.584 34.6912 215.35 35.3692 215.35 36.2932V40.8652H212.542ZM225.531 40.8652V38.9752L225.351 38.5612V35.1772C225.351 34.5772 225.165 34.1092 224.793 33.7732C224.433 33.4372 223.875 33.2692 223.119 33.2692C222.603 33.2692 222.093 33.3532 221.589 33.5212C221.097 33.6772 220.677 33.8932 220.329 34.1692L219.321 32.2072C219.849 31.8352 220.485 31.5472 221.229 31.3432C221.973 31.1392 222.729 31.0372 223.497 31.0372C224.973 31.0372 226.119 31.3852 226.935 32.0812C227.751 32.7772 228.159 33.8632 228.159 35.3392V40.8652H225.531ZM222.579 41.0092C221.823 41.0092 221.175 40.8832 220.635 40.6312C220.095 40.3672 219.681 40.0132 219.393 39.5692C219.105 39.1252 218.961 38.6272 218.961 38.0752C218.961 37.4992 219.099 36.9952 219.375 36.5632C219.663 36.1312 220.113 35.7952 220.725 35.5552C221.337 35.3032 222.135 35.1772 223.119 35.1772H225.693V36.8152H223.425C222.765 36.8152 222.309 36.9232 222.057 37.1392C221.817 37.3552 221.697 37.6252 221.697 37.9492C221.697 38.3092 221.835 38.5972 222.111 38.8132C222.399 39.0172 222.789 39.1192 223.281 39.1192C223.749 39.1192 224.169 39.0112 224.541 38.7952C224.913 38.5672 225.183 38.2372 225.351 37.8052L225.783 39.1012C225.579 39.7252 225.207 40.1992 224.667 40.5232C224.127 40.8472 223.431 41.0092 222.579 41.0092ZM236.586 31.0372C237.354 31.0372 238.038 31.1932 238.638 31.5052C239.25 31.8052 239.73 32.2732 240.078 32.9092C240.426 33.5332 240.6 34.3372 240.6 35.3212V40.8652H237.792V35.7532C237.792 34.9732 237.618 34.3972 237.27 34.0252C236.934 33.6532 236.454 33.4672 235.83 33.4672C235.386 33.4672 234.984 33.5632 234.624 33.7552C234.276 33.9352 234 34.2172 233.796 34.6012C233.604 34.9852 233.508 35.4772 233.508 36.0772V40.8652H230.7V31.1812H233.382V33.8632L232.878 33.0532C233.226 32.4052 233.724 31.9072 234.372 31.5592C235.02 31.2112 235.758 31.0372 236.586 31.0372ZM246.404 41.0092C245.576 41.0092 244.778 40.9132 244.01 40.7212C243.254 40.5172 242.654 40.2652 242.21 39.9652L243.146 37.9492C243.59 38.2252 244.112 38.4532 244.712 38.6332C245.324 38.8012 245.924 38.8852 246.512 38.8852C247.16 38.8852 247.616 38.8072 247.88 38.6512C248.156 38.4952 248.294 38.2792 248.294 38.0032C248.294 37.7752 248.186 37.6072 247.97 37.4992C247.766 37.3792 247.49 37.2892 247.142 37.2292C246.794 37.1692 246.41 37.1092 245.99 37.0492C245.582 36.9892 245.168 36.9112 244.748 36.8152C244.328 36.7072 243.944 36.5512 243.596 36.3472C243.248 36.1432 242.966 35.8672 242.75 35.5192C242.546 35.1712 242.444 34.7212 242.444 34.1692C242.444 33.5572 242.618 33.0172 242.966 32.5492C243.326 32.0812 243.842 31.7152 244.514 31.4512C245.186 31.1752 245.99 31.0372 246.926 31.0372C247.586 31.0372 248.258 31.1092 248.942 31.2532C249.626 31.3972 250.196 31.6072 250.652 31.8832L249.716 33.8812C249.248 33.6052 248.774 33.4192 248.294 33.3232C247.826 33.2152 247.37 33.1612 246.926 33.1612C246.302 33.1612 245.846 33.2452 245.558 33.4132C245.27 33.5812 245.126 33.7972 245.126 34.0612C245.126 34.3012 245.228 34.4812 245.432 34.6012C245.648 34.7212 245.93 34.8172 246.278 34.8892C246.626 34.9612 247.004 35.0272 247.412 35.0872C247.832 35.1352 248.252 35.2132 248.672 35.3212C249.092 35.4292 249.47 35.5852 249.806 35.7892C250.154 35.9812 250.436 36.2512 250.652 36.5992C250.868 36.9352 250.976 37.3792 250.976 37.9312C250.976 38.5312 250.796 39.0652 250.436 39.5332C250.076 39.9892 249.554 40.3492 248.87 40.6132C248.198 40.8772 247.376 41.0092 246.404 41.0092ZM252.708 40.8652V27.5092H255.516V40.8652H252.708ZM264.062 40.8652V38.9752L263.882 38.5612V35.1772C263.882 34.5772 263.696 34.1092 263.324 33.7732C262.964 33.4372 262.406 33.2692 261.65 33.2692C261.134 33.2692 260.624 33.3532 260.12 33.5212C259.628 33.6772 259.208 33.8932 258.86 34.1692L257.852 32.2072C258.38 31.8352 259.016 31.5472 259.76 31.3432C260.504 31.1392 261.26 31.0372 262.028 31.0372C263.504 31.0372 264.65 31.3852 265.466 32.0812C266.282 32.7772 266.69 33.8632 266.69 35.3392V40.8652H264.062ZM261.11 41.0092C260.354 41.0092 259.706 40.8832 259.166 40.6312C258.626 40.3672 258.212 40.0132 257.924 39.5692C257.636 39.1252 257.492 38.6272 257.492 38.0752C257.492 37.4992 257.63 36.9952 257.906 36.5632C258.194 36.1312 258.644 35.7952 259.256 35.5552C259.868 35.3032 260.666 35.1772 261.65 35.1772H264.224V36.8152H261.956C261.296 36.8152 260.84 36.9232 260.588 37.1392C260.348 37.3552 260.228 37.6252 260.228 37.9492C260.228 38.3092 260.366 38.5972 260.642 38.8132C260.93 39.0172 261.32 39.1192 261.812 39.1192C262.28 39.1192 262.7 39.0112 263.072 38.7952C263.444 38.5672 263.714 38.2372 263.882 37.8052L264.314 39.1012C264.11 39.7252 263.738 40.1992 263.198 40.5232C262.658 40.8472 261.962 41.0092 261.11 41.0092ZM273.192 41.0092C272.052 41.0092 271.164 40.7212 270.528 40.1452C269.892 39.5572 269.574 38.6872 269.574 37.5352V29.0392H272.382V37.4992C272.382 37.9072 272.49 38.2252 272.706 38.4532C272.922 38.6692 273.216 38.7772 273.588 38.7772C274.032 38.7772 274.41 38.6572 274.722 38.4172L275.478 40.3972C275.19 40.6012 274.842 40.7572 274.434 40.8652C274.038 40.9612 273.624 41.0092 273.192 41.0092ZM268.08 33.5572V31.3972H274.794V33.5572H268.08ZM277.054 40.8652V31.1812H279.862V40.8652H277.054ZM278.458 29.8312C277.942 29.8312 277.522 29.6812 277.198 29.3812C276.874 29.0812 276.712 28.7092 276.712 28.2652C276.712 27.8212 276.874 27.4492 277.198 27.1492C277.522 26.8492 277.942 26.6992 278.458 26.6992C278.974 26.6992 279.394 26.8432 279.718 27.1312C280.042 27.4072 280.204 27.7672 280.204 28.2112C280.204 28.6792 280.042 29.0692 279.718 29.3812C279.406 29.6812 278.986 29.8312 278.458 29.8312ZM287.076 41.0092C286.044 41.0092 285.126 40.7932 284.322 40.3612C283.53 39.9292 282.9 39.3412 282.432 38.5972C281.976 37.8412 281.748 36.9832 281.748 36.0232C281.748 35.0512 281.976 34.1932 282.432 33.4492C282.9 32.6932 283.53 32.1052 284.322 31.6852C285.126 31.2532 286.044 31.0372 287.076 31.0372C288.096 31.0372 289.008 31.2532 289.812 31.6852C290.616 32.1052 291.246 32.6872 291.702 33.4312C292.158 34.1752 292.386 35.0392 292.386 36.0232C292.386 36.9832 292.158 37.8412 291.702 38.5972C291.246 39.3412 290.616 39.9292 289.812 40.3612C289.008 40.7932 288.096 41.0092 287.076 41.0092ZM287.076 38.7052C287.544 38.7052 287.964 38.5972 288.336 38.3812C288.708 38.1652 289.002 37.8592 289.218 37.4632C289.434 37.0552 289.542 36.5752 289.542 36.0232C289.542 35.4592 289.434 34.9792 289.218 34.5832C289.002 34.1872 288.708 33.8812 288.336 33.6652C287.964 33.4492 287.544 33.3412 287.076 33.3412C286.608 33.3412 286.188 33.4492 285.816 33.6652C285.444 33.8812 285.144 34.1872 284.916 34.5832C284.7 34.9792 284.592 35.4592 284.592 36.0232C284.592 36.5752 284.7 37.0552 284.916 37.4632C285.144 37.8592 285.444 38.1652 285.816 38.3812C286.188 38.5972 286.608 38.7052 287.076 38.7052ZM300.149 31.0372C300.917 31.0372 301.601 31.1932 302.201 31.5052C302.813 31.8052 303.293 32.2732 303.641 32.9092C303.989 33.5332 304.163 34.3372 304.163 35.3212V40.8652H301.355V35.7532C301.355 34.9732 301.181 34.3972 300.833 34.0252C300.497 33.6532 300.017 33.4672 299.393 33.4672C298.949 33.4672 298.547 33.5632 298.187 33.7552C297.839 33.9352 297.563 34.2172 297.359 34.6012C297.167 34.9852 297.071 35.4772 297.071 36.0772V40.8652H294.263V31.1812H296.945V33.8632L296.441 33.0532C296.789 32.4052 297.287 31.9072 297.935 31.5592C298.583 31.2112 299.321 31.0372 300.149 31.0372ZM312.648 40.8652V38.9752L312.468 38.5612V35.1772C312.468 34.5772 312.282 34.1092 311.91 33.7732C311.55 33.4372 310.992 33.2692 310.236 33.2692C309.72 33.2692 309.21 33.3532 308.706 33.5212C308.214 33.6772 307.794 33.8932 307.446 34.1692L306.438 32.2072C306.966 31.8352 307.602 31.5472 308.346 31.3432C309.09 31.1392 309.846 31.0372 310.614 31.0372C312.09 31.0372 313.236 31.3852 314.052 32.0812C314.868 32.7772 315.276 33.8632 315.276 35.3392V40.8652H312.648ZM309.696 41.0092C308.94 41.0092 308.292 40.8832 307.752 40.6312C307.212 40.3672 306.798 40.0132 306.51 39.5692C306.222 39.1252 306.078 38.6272 306.078 38.0752C306.078 37.4992 306.216 36.9952 306.492 36.5632C306.78 36.1312 307.23 35.7952 307.842 35.5552C308.454 35.3032 309.252 35.1772 310.236 35.1772H312.81V36.8152H310.542C309.882 36.8152 309.426 36.9232 309.174 37.1392C308.934 37.3552 308.814 37.6252 308.814 37.9492C308.814 38.3092 308.952 38.5972 309.228 38.8132C309.516 39.0172 309.906 39.1192 310.398 39.1192C310.866 39.1192 311.286 39.0112 311.658 38.7952C312.03 38.5672 312.3 38.2372 312.468 37.8052L312.9 39.1012C312.696 39.7252 312.324 40.1992 311.784 40.5232C311.244 40.8472 310.548 41.0092 309.696 41.0092ZM317.817 40.8652V27.5092H320.625V40.8652H317.817ZM328.527 40.8652V28.2652H334.251C335.619 28.2652 336.825 28.5292 337.869 29.0572C338.913 29.5732 339.729 30.2992 340.317 31.2352C340.905 32.1712 341.199 33.2812 341.199 34.5652C341.199 35.8372 340.905 36.9472 340.317 37.8952C339.729 38.8312 338.913 39.5632 337.869 40.0912C336.825 40.6072 335.619 40.8652 334.251 40.8652H328.527ZM331.443 38.4712H334.107C334.947 38.4712 335.673 38.3152 336.285 38.0032C336.909 37.6792 337.389 37.2232 337.725 36.6352C338.073 36.0472 338.247 35.3572 338.247 34.5652C338.247 33.7612 338.073 33.0712 337.725 32.4952C337.389 31.9072 336.909 31.4572 336.285 31.1452C335.673 30.8212 334.947 30.6592 334.107 30.6592H331.443V38.4712ZM349.14 40.8652V38.9752L348.96 38.5612V35.1772C348.96 34.5772 348.774 34.1092 348.402 33.7732C348.042 33.4372 347.484 33.2692 346.728 33.2692C346.212 33.2692 345.702 33.3532 345.198 33.5212C344.706 33.6772 344.286 33.8932 343.938 34.1692L342.93 32.2072C343.458 31.8352 344.094 31.5472 344.838 31.3432C345.582 31.1392 346.338 31.0372 347.106 31.0372C348.582 31.0372 349.728 31.3852 350.544 32.0812C351.36 32.7772 351.768 33.8632 351.768 35.3392V40.8652H349.14ZM346.188 41.0092C345.432 41.0092 344.784 40.8832 344.244 40.6312C343.704 40.3672 343.29 40.0132 343.002 39.5692C342.714 39.1252 342.57 38.6272 342.57 38.0752C342.57 37.4992 342.708 36.9952 342.984 36.5632C343.272 36.1312 343.722 35.7952 344.334 35.5552C344.946 35.3032 345.744 35.1772 346.728 35.1772H349.302V36.8152H347.034C346.374 36.8152 345.918 36.9232 345.666 37.1392C345.426 37.3552 345.306 37.6252 345.306 37.9492C345.306 38.3092 345.444 38.5972 345.72 38.8132C346.008 39.0172 346.398 39.1192 346.89 39.1192C347.358 39.1192 347.778 39.0112 348.15 38.7952C348.522 38.5672 348.792 38.2372 348.96 37.8052L349.392 39.1012C349.188 39.7252 348.816 40.1992 348.276 40.5232C347.736 40.8472 347.04 41.0092 346.188 41.0092ZM358.27 41.0092C357.13 41.0092 356.242 40.7212 355.606 40.1452C354.97 39.5572 354.652 38.6872 354.652 37.5352V29.0392H357.46V37.4992C357.46 37.9072 357.568 38.2252 357.784 38.4532C358 38.6692 358.294 38.7772 358.666 38.7772C359.11 38.7772 359.488 38.6572 359.8 38.4172L360.556 40.3972C360.268 40.6012 359.92 40.7572 359.512 40.8652C359.116 40.9612 358.702 41.0092 358.27 41.0092ZM353.158 33.5572V31.3972H359.872V33.5572H353.158ZM368.072 40.8652V38.9752L367.892 38.5612V35.1772C367.892 34.5772 367.706 34.1092 367.334 33.7732C366.974 33.4372 366.416 33.2692 365.66 33.2692C365.144 33.2692 364.634 33.3532 364.13 33.5212C363.638 33.6772 363.218 33.8932 362.87 34.1692L361.862 32.2072C362.39 31.8352 363.026 31.5472 363.77 31.3432C364.514 31.1392 365.27 31.0372 366.038 31.0372C367.514 31.0372 368.66 31.3852 369.476 32.0812C370.292 32.7772 370.7 33.8632 370.7 35.3392V40.8652H368.072ZM365.12 41.0092C364.364 41.0092 363.716 40.8832 363.176 40.6312C362.636 40.3672 362.222 40.0132 361.934 39.5692C361.646 39.1252 361.502 38.6272 361.502 38.0752C361.502 37.4992 361.64 36.9952 361.916 36.5632C362.204 36.1312 362.654 35.7952 363.266 35.5552C363.878 35.3032 364.676 35.1772 365.66 35.1772H368.234V36.8152H365.966C365.306 36.8152 364.85 36.9232 364.598 37.1392C364.358 37.3552 364.238 37.6252 364.238 37.9492C364.238 38.3092 364.376 38.5972 364.652 38.8132C364.94 39.0172 365.33 39.1192 365.822 39.1192C366.29 39.1192 366.71 39.0112 367.082 38.7952C367.454 38.5672 367.724 38.2372 367.892 37.8052L368.324 39.1012C368.12 39.7252 367.748 40.1992 367.208 40.5232C366.668 40.8472 365.972 41.0092 365.12 41.0092ZM384.567 41.0812C383.595 41.0812 382.689 40.9252 381.849 40.6132C381.021 40.2892 380.301 39.8332 379.689 39.2452C379.077 38.6572 378.597 37.9672 378.249 37.1752C377.913 36.3832 377.745 35.5132 377.745 34.5652C377.745 33.6172 377.913 32.7472 378.249 31.9552C378.597 31.1632 379.077 30.4732 379.689 29.8852C380.313 29.2972 381.039 28.8472 381.867 28.5352C382.695 28.2112 383.601 28.0492 384.585 28.0492C385.677 28.0492 386.661 28.2412 387.537 28.6252C388.425 28.9972 389.169 29.5492 389.769 30.2812L387.897 32.0092C387.465 31.5172 386.985 31.1512 386.457 30.9112C385.929 30.6592 385.353 30.5332 384.729 30.5332C384.141 30.5332 383.601 30.6292 383.109 30.8212C382.617 31.0132 382.191 31.2892 381.831 31.6492C381.471 32.0092 381.189 32.4352 380.985 32.9272C380.793 33.4192 380.697 33.9652 380.697 34.5652C380.697 35.1652 380.793 35.7112 380.985 36.2032C381.189 36.6952 381.471 37.1212 381.831 37.4812C382.191 37.8412 382.617 38.1172 383.109 38.3092C383.601 38.5012 384.141 38.5972 384.729 38.5972C385.353 38.5972 385.929 38.4772 386.457 38.2372C386.985 37.9852 387.465 37.6072 387.897 37.1032L389.769 38.8312C389.169 39.5632 388.425 40.1212 387.537 40.5052C386.661 40.8892 385.671 41.0812 384.567 41.0812ZM395.814 41.0092C394.782 41.0092 393.864 40.7932 393.06 40.3612C392.268 39.9292 391.638 39.3412 391.17 38.5972C390.714 37.8412 390.486 36.9832 390.486 36.0232C390.486 35.0512 390.714 34.1932 391.17 33.4492C391.638 32.6932 392.268 32.1052 393.06 31.6852C393.864 31.2532 394.782 31.0372 395.814 31.0372C396.834 31.0372 397.746 31.2532 398.55 31.6852C399.354 32.1052 399.984 32.6872 400.44 33.4312C400.896 34.1752 401.124 35.0392 401.124 36.0232C401.124 36.9832 400.896 37.8412 400.44 38.5972C399.984 39.3412 399.354 39.9292 398.55 40.3612C397.746 40.7932 396.834 41.0092 395.814 41.0092ZM395.814 38.7052C396.282 38.7052 396.702 38.5972 397.074 38.3812C397.446 38.1652 397.74 37.8592 397.956 37.4632C398.172 37.0552 398.28 36.5752 398.28 36.0232C398.28 35.4592 398.172 34.9792 397.956 34.5832C397.74 34.1872 397.446 33.8812 397.074 33.6652C396.702 33.4492 396.282 33.3412 395.814 33.3412C395.346 33.3412 394.926 33.4492 394.554 33.6652C394.182 33.8812 393.882 34.1872 393.654 34.5832C393.438 34.9792 393.33 35.4592 393.33 36.0232C393.33 36.5752 393.438 37.0552 393.654 37.4632C393.882 37.8592 394.182 38.1652 394.554 38.3812C394.926 38.5972 395.346 38.7052 395.814 38.7052ZM415.403 31.0372C416.171 31.0372 416.849 31.1932 417.437 31.5052C418.037 31.8052 418.505 32.2732 418.841 32.9092C419.189 33.5332 419.363 34.3372 419.363 35.3212V40.8652H416.555V35.7532C416.555 34.9732 416.393 34.3972 416.069 34.0252C415.745 33.6532 415.289 33.4672 414.701 33.4672C414.293 33.4672 413.927 33.5632 413.603 33.7552C413.279 33.9352 413.027 34.2112 412.847 34.5832C412.667 34.9552 412.577 35.4292 412.577 36.0052V40.8652H409.769V35.7532C409.769 34.9732 409.607 34.3972 409.283 34.0252C408.971 33.6532 408.521 33.4672 407.933 33.4672C407.525 33.4672 407.159 33.5632 406.835 33.7552C406.511 33.9352 406.259 34.2112 406.079 34.5832C405.899 34.9552 405.809 35.4292 405.809 36.0052V40.8652H403.001V31.1812H405.683V33.8272L405.179 33.0532C405.515 32.3932 405.989 31.8952 406.601 31.5592C407.225 31.2112 407.933 31.0372 408.725 31.0372C409.613 31.0372 410.387 31.2652 411.047 31.7212C411.719 32.1652 412.163 32.8492 412.379 33.7732L411.389 33.5032C411.713 32.7472 412.229 32.1472 412.937 31.7032C413.657 31.2592 414.479 31.0372 415.403 31.0372ZM434.282 31.0372C435.05 31.0372 435.728 31.1932 436.316 31.5052C436.916 31.8052 437.384 32.2732 437.72 32.9092C438.068 33.5332 438.242 34.3372 438.242 35.3212V40.8652H435.434V35.7532C435.434 34.9732 435.272 34.3972 434.948 34.0252C434.624 33.6532 434.168 33.4672 433.58 33.4672C433.172 33.4672 432.806 33.5632 432.482 33.7552C432.158 33.9352 431.906 34.2112 431.726 34.5832C431.546 34.9552 431.456 35.4292 431.456 36.0052V40.8652H428.648V35.7532C428.648 34.9732 428.486 34.3972 428.162 34.0252C427.85 33.6532 427.4 33.4672 426.812 33.4672C426.404 33.4672 426.038 33.5632 425.714 33.7552C425.39 33.9352 425.138 34.2112 424.958 34.5832C424.778 34.9552 424.688 35.4292 424.688 36.0052V40.8652H421.88V31.1812H424.562V33.8272L424.058 33.0532C424.394 32.3932 424.868 31.8952 425.48 31.5592C426.104 31.2112 426.812 31.0372 427.604 31.0372C428.492 31.0372 429.266 31.2652 429.926 31.7212C430.598 32.1652 431.042 32.8492 431.258 33.7732L430.268 33.5032C430.592 32.7472 431.108 32.1472 431.816 31.7032C432.536 31.2592 433.358 31.0372 434.282 31.0372ZM445.437 41.0092C444.405 41.0092 443.487 40.7932 442.683 40.3612C441.891 39.9292 441.261 39.3412 440.793 38.5972C440.337 37.8412 440.109 36.9832 440.109 36.0232C440.109 35.0512 440.337 34.1932 440.793 33.4492C441.261 32.6932 441.891 32.1052 442.683 31.6852C443.487 31.2532 444.405 31.0372 445.437 31.0372C446.457 31.0372 447.369 31.2532 448.173 31.6852C448.977 32.1052 449.607 32.6872 450.063 33.4312C450.519 34.1752 450.747 35.0392 450.747 36.0232C450.747 36.9832 450.519 37.8412 450.063 38.5972C449.607 39.3412 448.977 39.9292 448.173 40.3612C447.369 40.7932 446.457 41.0092 445.437 41.0092ZM445.437 38.7052C445.905 38.7052 446.325 38.5972 446.697 38.3812C447.069 38.1652 447.363 37.8592 447.579 37.4632C447.795 37.0552 447.903 36.5752 447.903 36.0232C447.903 35.4592 447.795 34.9792 447.579 34.5832C447.363 34.1872 447.069 33.8812 446.697 33.6652C446.325 33.4492 445.905 33.3412 445.437 33.3412C444.969 33.3412 444.549 33.4492 444.177 33.6652C443.805 33.8812 443.505 34.1872 443.277 34.5832C443.061 34.9792 442.953 35.4592 442.953 36.0232C442.953 36.5752 443.061 37.0552 443.277 37.4632C443.505 37.8592 443.805 38.1652 444.177 38.3812C444.549 38.5972 444.969 38.7052 445.437 38.7052ZM458.51 31.0372C459.278 31.0372 459.962 31.1932 460.562 31.5052C461.174 31.8052 461.654 32.2732 462.002 32.9092C462.35 33.5332 462.524 34.3372 462.524 35.3212V40.8652H459.716V35.7532C459.716 34.9732 459.542 34.3972 459.194 34.0252C458.858 33.6532 458.378 33.4672 457.754 33.4672C457.31 33.4672 456.908 33.5632 456.548 33.7552C456.2 33.9352 455.924 34.2172 455.72 34.6012C455.528 34.9852 455.432 35.4772 455.432 36.0772V40.8652H452.624V31.1812H455.306V33.8632L454.802 33.0532C455.15 32.4052 455.648 31.9072 456.296 31.5592C456.944 31.2112 457.682 31.0372 458.51 31.0372ZM468.327 41.0092C467.499 41.0092 466.701 40.9132 465.933 40.7212C465.177 40.5172 464.577 40.2652 464.133 39.9652L465.069 37.9492C465.513 38.2252 466.035 38.4532 466.635 38.6332C467.247 38.8012 467.847 38.8852 468.435 38.8852C469.083 38.8852 469.539 38.8072 469.803 38.6512C470.079 38.4952 470.217 38.2792 470.217 38.0032C470.217 37.7752 470.109 37.6072 469.893 37.4992C469.689 37.3792 469.413 37.2892 469.065 37.2292C468.717 37.1692 468.333 37.1092 467.913 37.0492C467.505 36.9892 467.091 36.9112 466.671 36.8152C466.251 36.7072 465.867 36.5512 465.519 36.3472C465.171 36.1432 464.889 35.8672 464.673 35.5192C464.469 35.1712 464.367 34.7212 464.367 34.1692C464.367 33.5572 464.541 33.0172 464.889 32.5492C465.249 32.0812 465.765 31.7152 466.437 31.4512C467.109 31.1752 467.913 31.0372 468.849 31.0372C469.509 31.0372 470.181 31.1092 470.865 31.2532C471.549 31.3972 472.119 31.6072 472.575 31.8832L471.639 33.8812C471.171 33.6052 470.697 33.4192 470.217 33.3232C469.749 33.2152 469.293 33.1612 468.849 33.1612C468.225 33.1612 467.769 33.2452 467.481 33.4132C467.193 33.5812 467.049 33.7972 467.049 34.0612C467.049 34.3012 467.151 34.4812 467.355 34.6012C467.571 34.7212 467.853 34.8172 468.201 34.8892C468.549 34.9612 468.927 35.0272 469.335 35.0872C469.755 35.1352 470.175 35.2132 470.595 35.3212C471.015 35.4292 471.393 35.5852 471.729 35.7892C472.077 35.9812 472.359 36.2512 472.575 36.5992C472.791 36.9352 472.899 37.3792 472.899 37.9312C472.899 38.5312 472.719 39.0652 472.359 39.5332C471.999 39.9892 471.477 40.3492 470.793 40.6132C470.121 40.8772 469.299 41.0092 468.327 41.0092Z" fill="#606061"/>
</svg>
