<svg width="26" height="22" viewBox="0 0 26 22" fill="none" xmlns="http://www.w3.org/2000/svg">
<g clip-path="url(#clip0_363_13971)">
<path d="M22.7916 8.98608C22.5833 8.98608 22.375 8.98608 22.1666 9.05553C21.8889 8.70831 21.5416 8.36108 21.2639 8.01386C21.6805 7.45831 21.8889 6.76386 21.8889 6.06942C21.8889 4.19442 20.3611 2.73608 18.5555 2.73608C16.75 2.73608 15.2222 4.26386 15.2222 6.06942C15.2222 6.90275 15.5 7.66664 16.0555 8.2222C15.7778 8.49997 15.5694 8.77775 15.2916 9.05553C14.6666 9.74997 14.0416 10.4444 13.4861 11.1389C12.7222 10.5139 11.75 10.1666 10.7083 10.1666C9.80553 10.1666 8.9722 10.4444 8.27775 10.8611C8.06942 10.6528 7.86108 10.375 7.65275 10.1666C8.20831 9.54164 8.48608 8.70831 8.48608 7.80553C8.3472 5.79164 6.74997 4.12497 4.66664 4.12497C2.58331 4.12497 0.986084 5.79164 0.986084 7.80553C0.986084 9.81942 2.65275 11.4861 4.66664 11.4861C5.29164 11.4861 5.91664 11.3472 6.40275 11.0694C6.61108 11.3472 6.88886 11.5555 7.0972 11.8333C6.4722 12.5972 6.05553 13.6389 6.05553 14.75C6.05553 17.25 8.06942 19.2639 10.5694 19.2639C13.0694 19.2639 15.0833 17.25 15.0833 14.75C15.0833 13.7778 14.8055 12.9444 14.3194 12.1805C14.5278 11.9722 14.6666 11.7639 14.875 11.5555C15.5694 10.7222 16.3333 9.88886 17.0278 9.12497C17.4444 9.33331 17.9305 9.4722 18.4861 9.4722C19.1111 9.4722 19.6666 9.33331 20.1528 8.98608C20.4305 9.26386 20.7083 9.61108 20.9861 9.88886C20.8472 10.2361 20.6389 10.6528 20.6389 11.1389C20.6389 12.3194 21.6111 13.2916 22.7916 13.2916C23.9722 13.2916 24.9444 12.3194 24.9444 11.1389C24.9444 9.95831 23.9722 8.98608 22.7916 8.98608ZM5.29164 11C4.5972 11.1389 3.90275 11.0694 3.27775 10.7916C2.7222 10.5139 2.23608 10.0972 1.95831 9.54164C1.61108 8.98608 1.4722 8.29164 1.54164 7.66664C1.61108 6.9722 1.81942 6.3472 2.30553 5.86108C2.44442 5.7222 2.58331 5.58331 2.7222 5.44442C3.27775 5.02775 3.9722 4.74997 4.73608 4.74997C6.33331 4.74997 7.65275 5.93053 7.86109 7.52775C7.86109 7.66664 7.86109 7.80553 7.86109 7.94442C7.86109 8.15275 7.86108 8.29164 7.79164 8.49997C7.58331 9.68053 6.54164 10.7222 5.29164 11ZM14.4583 14.75V14.8194C14.4583 15.0278 14.4583 15.2361 14.3889 15.4444C14.1805 16.9722 12.8611 18.2222 11.4028 18.5694C10.5694 18.7083 9.73608 18.6389 8.9722 18.2916C8.27775 18.0139 7.7222 17.4583 7.30553 16.7639C6.88886 16.0694 6.68053 15.3055 6.74997 14.5416C6.81942 13.7083 7.0972 12.9444 7.65275 12.3194C8.62497 11.1389 10.4305 10.6528 11.8889 11.1389C12.6528 11.4166 13.2778 11.9028 13.7639 12.5972C14.25 13.2222 14.4583 13.9861 14.4583 14.75ZM19.1111 8.98608C18.4861 9.12497 17.8611 9.05553 17.3055 8.77775C16.8194 8.56942 16.4028 8.15275 16.125 7.66664C15.7778 7.18053 15.6389 6.55553 15.7083 5.99997C15.7778 5.37497 15.9861 4.81942 16.4028 4.33331C16.6111 4.05553 16.9583 3.77775 17.3055 3.63886C17.7222 3.43053 18.1389 3.29164 18.5555 3.29164C19.4583 3.29164 20.2222 3.70831 20.7778 4.33331C20.8472 4.40275 20.8472 4.4722 20.9166 4.54164C21.2639 5.02775 21.4028 5.58331 21.4028 6.13886V6.20831C21.3333 7.52775 20.4305 8.70831 19.1111 8.98608ZM23.625 12.7361C23.4861 12.8055 23.4166 12.875 23.2778 12.875C23.1389 12.875 23 12.9444 22.8611 12.9444C22.7916 12.9444 22.7916 12.9444 22.7222 12.9444C22.5139 12.9444 22.2361 12.875 22.0278 12.7361C21.75 12.5972 21.4722 12.3194 21.2639 12.0416C21.0555 11.7639 20.9861 11.3472 20.9861 11.0694C20.9861 10.6528 21.1944 10.3055 21.4028 10.0278C21.8194 9.4722 22.6528 9.26386 23.2778 9.54164H23.3472C24.0416 9.81942 24.5278 10.4444 24.5278 11.2083C24.5972 11.8333 24.1805 12.3889 23.625 12.7361Z" fill="#182851" stroke="#182851" stroke-width="1.11111" stroke-miterlimit="10"/>
<path d="M4.59717 10.375C5.97788 10.375 7.09717 9.25571 7.09717 7.875C7.09717 6.49429 5.97788 5.375 4.59717 5.375C3.21646 5.375 2.09717 6.49429 2.09717 7.875C2.09717 9.25571 3.21646 10.375 4.59717 10.375Z" stroke="#509BCB" stroke-width="1.11111" stroke-miterlimit="10"/>
<path d="M10.6388 17.9446C12.403 17.9446 13.8332 16.5144 13.8332 14.7501C13.8332 12.9859 12.403 11.5557 10.6388 11.5557C8.87454 11.5557 7.44434 12.9859 7.44434 14.7501C7.44434 16.5144 8.87454 17.9446 10.6388 17.9446Z" stroke="#509BCB" stroke-width="1.11111" stroke-miterlimit="10"/>
<path d="M18.5556 8.36122C19.7446 8.36122 20.7084 7.39739 20.7084 6.20844C20.7084 5.0195 19.7446 4.05566 18.5556 4.05566C17.3667 4.05566 16.4028 5.0195 16.4028 6.20844C16.4028 7.39739 17.3667 8.36122 18.5556 8.36122Z" stroke="#509BCB" stroke-width="1.11111" stroke-miterlimit="10"/>
<path d="M22.7918 12.2501C23.4054 12.2501 23.9029 11.7526 23.9029 11.1389C23.9029 10.5253 23.4054 10.0278 22.7918 10.0278C22.1781 10.0278 21.6807 10.5253 21.6807 11.1389C21.6807 11.7526 22.1781 12.2501 22.7918 12.2501Z" stroke="#509BCB" stroke-width="1.11111" stroke-miterlimit="10"/>
</g>
<defs>
<clipPath id="clip0_363_13971">
<rect width="25" height="21.875" fill="white" transform="translate(0.5 0.0625)"/>
</clipPath>
</defs>
</svg>
