<svg width="25" height="21" viewBox="0 0 25 21" fill="none" xmlns="http://www.w3.org/2000/svg">
<path d="M6.34218 0.833252H0.552709C0.37727 0.833252 0.289551 0.920971 0.289551 1.00869V19.0789C0.289551 19.1666 0.37727 19.2543 0.464989 19.2543H6.34218C6.4299 19.2543 6.51762 19.1666 6.51762 19.0789V1.00869C6.60534 0.920971 6.51762 0.833252 6.34218 0.833252ZM6.16674 18.9034H0.728147V1.18413H6.16674V18.9034Z" fill="#172851"/>
<path d="M6.34216 19.6052H0.552683C0.289525 19.6052 0.0263672 19.4298 0.0263672 19.0789V1.00874C0.0263672 0.74558 0.201806 0.482422 0.552683 0.482422H6.42988C6.69303 0.482422 6.95619 0.65786 6.95619 0.921018V19.0789C6.86847 19.4298 6.60532 19.6052 6.34216 19.6052ZM0.99128 18.6403H5.90356V1.44733H0.99128V18.6403Z" fill="#172851"/>
<path d="M2.39475 10.921H4.58773C4.67545 10.921 4.76317 10.8333 4.76317 10.7456V3.28944C4.76317 3.20172 4.67545 3.114 4.58773 3.114H2.39475C2.21931 3.02628 2.13159 3.114 2.13159 3.28944V10.8333C2.13159 10.8333 2.21931 10.921 2.39475 10.921ZM2.57019 3.46488H4.41229V10.5701H2.57019V3.46488Z" fill="#172851"/>
<path d="M3.44753 17.0613C4.237 17.0613 4.93875 16.4473 4.93875 15.5701C4.93875 14.7806 4.32472 14.0789 3.44753 14.0789C2.57033 14.0789 1.9563 14.6929 1.9563 15.5701C1.9563 16.3596 2.65805 17.0613 3.44753 17.0613ZM3.44753 14.5175C4.06156 14.5175 4.50016 15.0438 4.50016 15.5701C4.50016 16.1841 3.97384 16.6227 3.44753 16.6227C2.92121 16.6227 2.3949 16.0964 2.3949 15.5701C2.3949 14.956 2.83349 14.5175 3.44753 14.5175Z" fill="#172851"/>
<path d="M17.921 3.02637L15.8157 3.6404C15.728 3.6404 15.728 3.72812 15.728 3.72812C15.728 3.81584 15.728 3.81584 15.728 3.90356L17.6579 11.1843C17.6579 11.272 17.7456 11.3597 17.8333 11.3597C17.8333 11.3597 17.8333 11.3597 17.921 11.3597L20.0263 10.7457C20.114 10.7457 20.114 10.6579 20.114 10.6579C20.114 10.5702 20.114 10.5702 20.114 10.4825L18.1842 3.20181C18.0964 3.02637 18.0087 3.02637 17.921 3.02637ZM17.921 10.7457L16.0789 3.90356L17.8333 3.46496L19.6754 10.3071L17.921 10.7457Z" fill="#172851"/>
<path d="M19.6755 13.9913C18.886 14.1667 18.4474 14.9562 18.6229 15.8334C18.7983 16.4474 19.3246 16.886 20.0264 16.886C20.1141 16.886 20.2895 16.886 20.3773 16.7983C21.1667 16.6229 21.6053 15.7457 21.4299 14.9562C21.2545 14.3422 20.7281 13.9036 20.0264 13.9036C19.9387 13.9036 19.8509 13.9036 19.6755 13.9913ZM21.079 15.1316C21.2545 15.7457 20.9036 16.272 20.2895 16.4474C20.2018 16.4474 20.1141 16.4474 20.0264 16.4474C19.5001 16.4474 19.1492 16.0965 18.9737 15.658C18.7983 15.0439 19.1492 14.5176 19.7632 14.3422C19.8509 14.3422 19.9387 14.3422 20.0264 14.3422C20.5527 14.3422 20.9913 14.6053 21.079 15.1316Z" fill="#172851"/>
<path d="M10.6403 14.1666C9.85087 14.342 9.41228 15.1315 9.58772 16.0087C9.76315 16.6227 10.2895 17.0613 10.9912 17.0613C11.0789 17.0613 11.2544 17.0613 11.3421 16.9736C12.1316 16.7982 12.5702 15.921 12.3947 15.1315C12.2193 14.5175 11.693 14.0789 10.9912 14.0789C10.9035 14.0789 10.8158 14.0789 10.6403 14.1666ZM12.0439 15.3069C12.2193 15.921 11.8684 16.4473 11.2544 16.6227C11.1667 16.6227 11.0789 16.6227 10.9912 16.6227C10.4649 16.6227 10.114 16.2718 9.93859 15.8332C9.76315 15.2192 10.114 14.6929 10.7281 14.5175C10.8158 14.5175 10.9035 14.5175 10.9912 14.5175C11.5175 14.4297 11.9561 14.7806 12.0439 15.3069Z" fill="#172851"/>
<path d="M8.09644 0.921143V18.9913H13.8859V0.921143H8.09644ZM10.0263 3.28956H12.1315V10.658H10.0263V3.28956ZM10.9912 17.0615C10.2017 17.0615 9.49994 16.3597 9.49994 15.5703C9.49994 14.7808 10.2017 14.079 10.9912 14.079C11.7806 14.079 12.4824 14.6931 12.4824 15.5703C12.4824 16.3597 11.8684 17.0615 10.9912 17.0615Z" fill="white"/>
<path d="M23.9738 17.9386L19.3247 0.482495C19.3247 0.394775 19.2369 0.394775 19.2369 0.394775C19.1492 0.394775 19.1492 0.394775 19.0615 0.394775L14.1492 1.71056V1.00881C14.1492 0.921091 14.0615 0.833372 13.9738 0.833372H8.1843C8.00886 0.745653 7.92114 0.833372 7.92114 1.00881V19.079C7.92114 19.1667 8.00886 19.2544 8.09658 19.2544H13.9738C14.0615 19.2544 14.1492 19.1667 14.1492 19.079V5.30706L17.9211 19.5176C17.9211 19.6053 18.0089 19.6053 18.0089 19.6053H18.0966C18.0966 19.6053 18.0966 19.6053 18.1843 19.6053L23.7983 18.1141C23.9738 18.2018 24.0615 18.1141 23.9738 17.9386ZM8.27202 18.9035V1.18425H13.7106V1.79828L13.3597 1.886V1.97372L13.7983 3.72811V18.7281L8.27202 18.9035ZM18.272 19.2544L13.7106 2.14916L13.9738 2.06144L18.9738 0.745653L23.5352 17.8509L18.272 19.2544Z" fill="#172851"/>
<path d="M18.272 20.0439H18.1843C18.0966 20.0439 18.0088 20.0439 17.9211 19.9562C17.9211 19.9562 17.7457 19.8684 17.7457 19.693L14.5001 7.50001V19.079C14.5001 19.3421 14.3246 19.6053 13.9737 19.6053H8.18427C7.92112 19.6053 7.65796 19.4298 7.65796 19.079V1.00878C7.65796 0.745627 7.8334 0.482469 8.18427 0.482469H14.0615C14.3246 0.482469 14.5878 0.657908 14.5878 1.00878V1.35966L19.2369 0.131592C19.3246 0.131592 19.4123 0.131592 19.5001 0.219311L19.5878 0.30703C19.5878 0.30703 19.7632 0.39475 19.7632 0.570188L24.4123 18.0263C24.5001 18.2895 24.3246 18.5526 24.0615 18.6404L18.272 20.0439ZM8.27199 18.9912L8.35971 18.9035H8.27199V18.9912ZM14.0615 2.41229L18.5352 18.9912L23.1843 17.7632L18.7983 1.0965L14.0615 2.41229ZM8.62287 18.5526H13.4474V3.8158L13.0088 2.06142V1.71054H13.1843L13.272 1.62282H13.4474H13.5352V1.44738H8.62287V18.5526Z" fill="#172851"/>
<path d="M11.079 16.6228C11.6604 16.6228 12.1316 16.1516 12.1316 15.5702C12.1316 14.9889 11.6604 14.5176 11.079 14.5176C10.4976 14.5176 10.0264 14.9889 10.0264 15.5702C10.0264 16.1516 10.4976 16.6228 11.079 16.6228Z" fill="#509BCB"/>
<path d="M9.93862 10.921H12.1316C12.2193 10.921 12.307 10.8333 12.307 10.7456V3.28945C12.307 3.20173 12.2193 3.11401 12.1316 3.11401H9.93862C9.8509 3.11401 9.76318 3.20173 9.76318 3.28945V10.8333C9.76318 10.8333 9.8509 10.921 9.93862 10.921ZM10.1141 3.46489H11.8684V10.5702H10.1141V3.46489Z" fill="#172851"/>
</svg>
