<svg width="153" height="165" viewBox="0 0 153 165" fill="none" xmlns="http://www.w3.org/2000/svg">
<g filter="url(#filter0_d_91_2915)">
<path d="M70.675 121.35C92.0346 121.35 109.35 104.035 109.35 82.675C109.35 61.3154 92.0346 44 70.675 44C49.3154 44 32 61.3154 32 82.675C32 104.035 49.3154 121.35 70.675 121.35Z" fill="white"/>
</g>
<path d="M70.6743 118.153C90.2688 118.153 106.153 102.269 106.153 82.6743C106.153 63.0798 90.2688 47.1953 70.6743 47.1953C51.0798 47.1953 35.1953 63.0798 35.1953 82.6743C35.1953 102.269 51.0798 118.153 70.6743 118.153Z" fill="url(#paint0_linear_91_2915)"/>
<path d="M85.0414 65.4044H77.6817C77.4178 64.6127 77.5058 64.1142 77.1246 64.1142H73.3715C73.2542 62.6775 72.052 61.5339 70.5566 61.5339C69.0612 61.5339 67.8591 62.6775 67.7418 64.1142C64.1352 64.2022 63.7834 63.909 63.6661 64.3488L63.4022 65.4044H56.0425C55.8666 65.4044 55.72 65.551 55.72 65.7269V101.265C55.72 101.44 55.8666 101.587 56.0425 101.587H84.9828C85.1587 101.587 85.3053 101.44 85.3053 101.265V65.7269C85.3053 65.551 85.1587 65.4044 84.9828 65.4044H85.0414ZM77.8577 98.0391V94.0514H81.8454L80.7312 95.1656L77.8577 98.0391ZM82.2852 93.4357H77.5645C77.3885 93.4357 77.2419 93.5823 77.2419 93.7582V98.479H58.8574V68.4831H62.6692C62.4053 69.6853 62.2587 69.8026 62.4053 70.0078C62.4639 70.0958 62.5519 70.1251 62.6398 70.1251C79.3237 70.0665 78.5027 70.2424 78.6787 70.0078C78.8253 69.8026 78.6787 69.656 78.4148 68.4831H82.2266V93.4357H82.2852ZM64.2525 64.73H68.0936C68.2696 64.73 68.4162 64.5834 68.4162 64.4074C68.4162 64.4074 68.4162 64.3781 68.4162 64.3195C68.4162 63.1173 69.4131 62.1204 70.6153 62.1204C71.8174 62.1204 72.8144 63.1173 72.8144 64.3488C72.8144 64.3488 72.8144 64.3781 72.8144 64.4074C72.8144 64.5834 72.961 64.73 73.1369 64.73H76.978C77.1246 65.3164 78.0043 68.9229 78.1509 69.5094H63.1676C63.4608 68.3072 64.1646 65.4923 64.3405 64.73H64.2525ZM84.7482 100.942H56.4237V66.0201H63.3142L62.8744 67.8674H58.5935C58.4175 67.8674 58.2709 68.014 58.2709 68.1899V98.8015C58.2709 98.9774 58.4175 99.124 58.5935 99.124H77.5938C77.5938 99.124 77.7404 99.0947 77.799 99.0361L81.5815 95.2536L82.8423 93.9928C82.8423 93.9928 82.901 93.9341 82.901 93.9048C82.901 93.9048 82.901 93.8462 82.901 93.8169V68.2485C82.901 68.0726 82.7544 67.926 82.5784 67.926H78.2975L77.8577 66.0788H84.7482V101.001V100.942Z" fill="white"/>
<path d="M85.0419 101.91H56.1016C55.7498 101.91 55.4565 101.617 55.4565 101.265V65.7272C55.4565 65.3753 55.7498 65.0821 56.1016 65.0821H63.1681L63.3733 64.2904C63.5199 63.7627 63.8718 63.7627 64.8981 63.792C65.4552 63.792 66.2762 63.8213 67.4783 63.792C67.7422 62.3259 69.0617 61.1824 70.5864 61.1824C72.1111 61.1824 73.4306 62.2966 73.6945 63.7627H77.1544C77.7115 63.7627 77.7995 64.2611 77.8875 64.6716C77.8875 64.7889 77.9461 64.9355 77.9754 65.0821H85.0712C85.4231 65.0821 85.7163 65.3753 85.7163 65.7272V101.265C85.7163 101.617 85.4231 101.91 85.0712 101.91H85.0419ZM56.7467 100.59H84.3968V66.3723H78.298L78.5912 67.5158H82.6082C82.9601 67.5158 83.2533 67.809 83.2533 68.1609V93.8172C83.2533 93.8172 83.2533 93.9051 83.224 93.9344C83.1653 94.0811 83.1067 94.1397 83.048 94.1983L78.0341 99.2123C78.0341 99.2123 77.7409 99.4176 77.5649 99.4176H58.5646C58.2128 99.4176 57.9195 99.1243 57.9195 98.7725V68.1609C57.9195 67.809 58.2128 67.5158 58.5646 67.5158H62.5817L62.8749 66.3723H56.776V100.59H56.7467ZM59.2097 98.1274H76.8905V93.7292C76.8905 93.3773 77.1837 93.0841 77.5356 93.0841H81.9045V68.8353H78.8551C78.9137 69.0405 78.943 69.1871 78.9724 69.3337C79.0896 69.7442 79.1483 69.9788 78.943 70.2427C78.8257 70.4186 77.692 70.5066 75.5417 70.5066C73.3133 70.5066 69.4136 70.5066 62.6403 70.5066C62.4351 70.5066 62.2591 70.4186 62.1125 70.2427C61.9073 69.9788 61.9659 69.7442 62.0832 69.3337C62.1125 69.2165 62.1712 69.0405 62.2005 68.8353H59.151V98.1274H59.2097ZM78.21 94.4036V97.2184L81.0249 94.4036H78.21ZM63.5199 69.1578H77.6236C77.389 68.1316 76.8319 65.9031 76.6266 65.0528H73.0787C72.7269 65.0528 72.4337 64.7596 72.4337 64.4077C72.4337 63.8506 72.2284 63.3522 71.8766 63.0003C71.5247 62.6484 71.0556 62.4725 70.5864 62.4725C69.5602 62.4725 68.7392 63.2935 68.7392 64.3198V64.4077C68.7392 64.7596 68.4459 65.0528 68.0941 65.0528H64.5462L63.5493 69.1578H63.5199Z" fill="white"/>
<path d="M70.5566 65.4044C71.143 65.4044 71.6415 64.9353 71.6415 64.3195C71.6415 63.7038 71.1723 63.2346 70.5566 63.2346C69.9408 63.2346 69.4717 63.7038 69.4717 64.3195C69.4717 64.9353 69.9408 65.4044 70.5566 65.4044ZM70.5566 63.7331C70.8791 63.7331 71.143 63.997 71.143 64.3195C71.143 64.642 70.8791 64.9059 70.5566 64.9059C70.234 64.9059 69.9701 64.642 69.9701 64.3195C69.9701 63.997 70.234 63.7331 70.5566 63.7331Z" fill="white"/>
<path d="M64.1062 72.5289L61.5845 75.0505L60.5876 74.0536C60.5876 74.0536 60.2651 73.9363 60.1478 74.0536C60.0305 74.1709 60.0305 74.3761 60.1478 74.4934L61.3793 75.7249C61.3793 75.7249 61.5259 75.8129 61.5845 75.8129C61.6432 75.8129 61.7311 75.7836 61.7898 75.7249L64.546 72.9687C64.546 72.9687 64.6633 72.6462 64.546 72.5289C64.4287 72.4116 64.2235 72.4116 64.1062 72.5289Z" fill="white"/>
<path d="M61.5846 76.1355C61.4087 76.1355 61.2327 76.0769 61.1155 75.9302L59.884 74.6987C59.884 74.6987 59.6787 74.4055 59.6787 74.2296C59.6787 74.0537 59.7374 73.8777 59.8546 73.7605C60.1185 73.4966 60.529 73.4966 60.7929 73.7605L61.5553 74.5228L63.8424 72.2357C64.1063 72.0012 64.5167 72.0012 64.7513 72.2357C64.8686 72.353 64.9566 72.529 64.9566 72.7049C64.9566 72.8808 64.8979 73.0567 64.7513 73.174L61.9951 75.9302C61.9951 75.9302 61.7019 76.1355 61.526 76.1355H61.5846Z" fill="white"/>
<path d="M65.8069 75.7852H72.6975C72.8734 75.7852 73.02 75.6386 73.02 75.4627C73.02 75.2867 72.8734 75.1401 72.6975 75.1401H65.8069C65.631 75.1401 65.4844 75.2867 65.4844 75.4627C65.4844 75.6386 65.631 75.7852 65.8069 75.7852Z" fill="white"/>
<path d="M72.6977 76.1361H65.8072C65.4553 76.1361 65.1621 75.8429 65.1621 75.491C65.1621 75.1392 65.4553 74.8459 65.8072 74.8459H72.6977C73.0496 74.8459 73.3428 75.1392 73.3428 75.491C73.3428 75.8429 73.0496 76.1361 72.6977 76.1361Z" fill="white"/>
<path d="M65.5132 72.7351C65.5132 72.9111 65.6598 73.0577 65.8357 73.0577H80.7603C80.9363 73.0577 81.0829 72.9111 81.0829 72.7351C81.0829 72.5592 80.9363 72.4126 80.7603 72.4126H65.8357C65.6598 72.4126 65.5132 72.5592 65.5132 72.7351Z" fill="white"/>
<path d="M80.7606 73.3793H65.836C65.4841 73.3793 65.1909 73.086 65.1909 72.7342C65.1909 72.3823 65.4841 72.0891 65.836 72.0891H80.7606C81.1125 72.0891 81.4057 72.3823 81.4057 72.7342C81.4057 73.086 81.1125 73.3793 80.7606 73.3793Z" fill="white"/>
<path d="M64.1072 78.775L61.5855 81.2966L60.5886 80.2997C60.5886 80.2997 60.266 80.1824 60.1488 80.2997C60.0315 80.417 60.0315 80.6222 60.1488 80.7395L61.3803 81.971C61.3803 81.971 61.5269 82.059 61.5855 82.059C61.6441 82.059 61.7321 82.0297 61.7908 81.971L64.547 79.2148C64.547 79.2148 64.6643 78.8923 64.547 78.775C64.4297 78.6577 64.2244 78.6577 64.1072 78.775Z" fill="white"/>
<path d="M61.5851 82.3818C61.4091 82.3818 61.2332 82.3232 61.1159 82.1766L59.9137 80.9744C59.9137 80.9744 59.7085 80.6812 59.7085 80.5052C59.7085 80.3293 59.7671 80.1534 59.8844 80.0361C60.1483 79.7722 60.5588 79.7722 60.8227 80.0361L61.5851 80.7985L63.8721 78.5114C64.136 78.2768 64.5465 78.2768 64.7811 78.5114C64.8984 78.6287 64.9864 78.8046 64.9864 78.9805C64.9864 79.1564 64.9277 79.3324 64.7811 79.4497L62.0249 82.2059C62.0249 82.2059 61.7317 82.4111 61.5557 82.4111L61.5851 82.3818Z" fill="white"/>
<path d="M65.8069 82.0606H72.6975C72.8734 82.0606 73.02 81.914 73.02 81.7381C73.02 81.5621 72.8734 81.4155 72.6975 81.4155H65.8069C65.631 81.4155 65.4844 81.5621 65.4844 81.7381C65.4844 81.914 65.631 82.0606 65.8069 82.0606Z" fill="white"/>
<path d="M72.6977 82.3822H65.8072C65.4553 82.3822 65.1621 82.089 65.1621 81.7371C65.1621 81.3853 65.4553 81.092 65.8072 81.092H72.6977C73.0496 81.092 73.3428 81.3853 73.3428 81.7371C73.3428 82.089 73.0496 82.3822 72.6977 82.3822Z" fill="white"/>
<path d="M80.7603 78.6882H65.8357C65.6598 78.6882 65.5132 78.8348 65.5132 79.0108C65.5132 79.1867 65.6598 79.3333 65.8357 79.3333H80.7603C80.9363 79.3333 81.0829 79.1867 81.0829 79.0108C81.0829 78.8348 80.9363 78.6882 80.7603 78.6882Z" fill="white"/>
<path d="M80.7606 79.6549H65.836C65.4841 79.6549 65.1909 79.3617 65.1909 79.0098C65.1909 78.658 65.4841 78.3647 65.836 78.3647H80.7606C81.1125 78.3647 81.4057 78.658 81.4057 79.0098C81.4057 79.3617 81.1125 79.6549 80.7606 79.6549Z" fill="white"/>
<path d="M64.1062 85.0198L61.5845 87.5415L60.5876 86.5446C60.5876 86.5446 60.2651 86.4273 60.1478 86.5446C60.0305 86.6618 60.0305 86.8671 60.1478 86.9844L61.3793 88.2159C61.3793 88.2159 61.5259 88.3038 61.5845 88.3038C61.6432 88.3038 61.7311 88.2745 61.7898 88.2159L64.546 85.4597C64.546 85.4597 64.6633 85.1371 64.546 85.0198C64.4287 84.9026 64.2235 84.9026 64.1062 85.0198Z" fill="white"/>
<path d="M61.5846 88.656C61.4087 88.656 61.2327 88.5973 61.1155 88.4801L59.884 87.2486C59.884 87.2486 59.6787 86.9553 59.6787 86.7794C59.6787 86.6035 59.7374 86.4276 59.884 86.3103C60.1185 86.0757 60.5584 86.0757 60.8222 86.3103L61.5846 87.0726L63.8717 84.7855C64.1063 84.551 64.5461 84.551 64.81 84.7855C64.9273 84.9028 64.9859 85.0788 64.9859 85.2547C64.9859 85.4306 64.9273 85.6066 64.81 85.7238L62.0537 88.4801C62.0537 88.4801 61.7605 88.656 61.5846 88.656Z" fill="white"/>
<path d="M65.8069 88.3042H72.6975C72.8734 88.3042 73.02 88.1576 73.02 87.9817C73.02 87.8058 72.8734 87.6592 72.6975 87.6592H65.8069C65.631 87.6592 65.4844 87.8058 65.4844 87.9817C65.4844 88.1576 65.631 88.3042 65.8069 88.3042Z" fill="white"/>
<path d="M72.6977 88.6566H65.8072C65.4553 88.6566 65.1621 88.3634 65.1621 88.0115C65.1621 87.6597 65.4553 87.3665 65.8072 87.3665H72.6977C73.0496 87.3665 73.3428 87.6597 73.3428 88.0115C73.3428 88.3634 73.0496 88.6566 72.6977 88.6566Z" fill="white"/>
<path d="M80.7603 84.9343H65.8357C65.6598 84.9343 65.5132 85.0809 65.5132 85.2569C65.5132 85.4328 65.6598 85.5794 65.8357 85.5794H80.7603C80.9363 85.5794 81.0829 85.4328 81.0829 85.2569C81.0829 85.0809 80.9363 84.9343 80.7603 84.9343Z" fill="white"/>
<path d="M80.7606 85.901H65.836C65.4841 85.901 65.1909 85.6078 65.1909 85.2559C65.1909 84.9041 65.4841 84.6108 65.836 84.6108H80.7606C81.1125 84.6108 81.4057 84.9041 81.4057 85.2559C81.4057 85.6078 81.1125 85.901 80.7606 85.901Z" fill="white"/>
<path d="M64.1059 91.2952L61.5843 93.8169L60.5874 92.82C60.5874 92.82 60.2648 92.7027 60.1475 92.82C60.0302 92.9372 60.0302 93.1425 60.1475 93.2598L61.379 94.4913C61.379 94.4913 61.5256 94.5792 61.5843 94.5792C61.6429 94.5792 61.7309 94.5499 61.7895 94.4913L64.5458 91.7351C64.5458 91.7351 64.663 91.4125 64.5458 91.2952C64.4285 91.178 64.2232 91.178 64.1059 91.2952Z" fill="white"/>
<path d="M61.5844 94.9021C61.4084 94.9021 61.2325 94.8434 61.1152 94.7261L59.8837 93.4946C59.8837 93.4946 59.6785 93.2014 59.6785 93.0255C59.6785 92.8496 59.7371 92.6736 59.8837 92.5564C60.1183 92.3218 60.5581 92.3218 60.822 92.5564L61.5844 93.3187L63.8714 91.0316C64.106 90.7971 64.5458 90.7971 64.8097 91.0316C64.927 91.1489 64.9856 91.3249 64.9856 91.5008C64.9856 91.6767 64.927 91.8526 64.7804 91.9699L62.0242 94.7261C62.0242 94.7261 61.731 94.9021 61.555 94.9021H61.5844Z" fill="white"/>
<path d="M72.6975 93.9348H65.8069C65.631 93.9348 65.4844 94.0814 65.4844 94.2573C65.4844 94.4333 65.631 94.5799 65.8069 94.5799H72.6975C72.8734 94.5799 73.02 94.4333 73.02 94.2573C73.02 94.0814 72.8734 93.9348 72.6975 93.9348Z" fill="white"/>
<path d="M72.6977 94.9027H65.8072C65.4553 94.9027 65.1621 94.6095 65.1621 94.2576C65.1621 93.9058 65.4553 93.6125 65.8072 93.6125H72.6977C73.0496 93.6125 73.3428 93.9058 73.3428 94.2576C73.3428 94.6095 73.0496 94.9027 72.6977 94.9027Z" fill="white"/>
<path d="M80.7603 91.2073H65.8357C65.6598 91.2073 65.5132 91.3539 65.5132 91.5298C65.5132 91.7057 65.6598 91.8524 65.8357 91.8524H80.7603C80.9363 91.8524 81.0829 91.7057 81.0829 91.5298C81.0829 91.3539 80.9363 91.2073 80.7603 91.2073Z" fill="white"/>
<path d="M80.7606 92.1459H65.836C65.4841 92.1459 65.1909 91.8526 65.1909 91.5008C65.1909 91.1489 65.4841 90.8557 65.836 90.8557H80.7606C81.1125 90.8557 81.4057 91.1489 81.4057 91.5008C81.4057 91.8526 81.1125 92.1459 80.7606 92.1459Z" fill="white"/>
<defs>
<filter id="filter0_d_91_2915" x="-11.1782" y="0.821835" width="163.706" height="163.706" filterUnits="userSpaceOnUse" color-interpolation-filters="sRGB">
<feFlood flood-opacity="0" result="BackgroundImageFix"/>
<feColorMatrix in="SourceAlpha" type="matrix" values="0 0 0 0 0 0 0 0 0 0 0 0 0 0 0 0 0 0 127 0" result="hardAlpha"/>
<feOffset/>
<feGaussianBlur stdDeviation="21.5891"/>
<feColorMatrix type="matrix" values="0 0 0 0 0.137255 0 0 0 0 0.121569 0 0 0 0 0.12549 0 0 0 0.2 0"/>
<feBlend mode="normal" in2="BackgroundImageFix" result="effect1_dropShadow_91_2915"/>
<feBlend mode="normal" in="SourceGraphic" in2="effect1_dropShadow_91_2915" result="shape"/>
</filter>
<linearGradient id="paint0_linear_91_2915" x1="97.8553" y1="105.486" x2="43.4933" y2="59.8622" gradientUnits="userSpaceOnUse">
<stop stop-color="#B159A0"/>
<stop offset="0.26" stop-color="#746096"/>
<stop offset="0.75" stop-color="#426290"/>
<stop offset="1" stop-color="#0D628C"/>
</linearGradient>
</defs>
</svg>
