<svg width="26" height="22" viewBox="0 0 26 22" fill="none" xmlns="http://www.w3.org/2000/svg">
<g clip-path="url(#clip0_363_13964)">
<path d="M14.695 17.74L13.5649 20.8881L16.8744 19.9194L14.695 17.74Z" fill="#509BCB"/>
<path d="M8.80259 12.6547H15.1794C15.5023 12.6547 15.7445 12.4126 15.7445 12.0897C15.7445 11.7668 15.5023 11.5247 15.1794 11.5247H8.80259C8.47971 11.5247 8.23755 11.7668 8.23755 12.0897C8.23755 12.4126 8.47971 12.6547 8.80259 12.6547Z" fill="#509BCB"/>
<path d="M8.80259 9.991H15.3409C15.6637 9.991 15.9059 9.74885 15.9059 9.42597C15.9059 9.10309 15.583 8.94165 15.2602 8.94165H8.80259C8.47971 8.94165 8.23755 9.18381 8.23755 9.50669C8.23755 9.82957 8.47971 9.991 8.80259 9.991Z" fill="#509BCB"/>
<path d="M13.3229 14.1885H8.80259C8.47971 14.1885 8.23755 14.4306 8.23755 14.7535C8.23755 15.0764 8.47971 15.3186 8.80259 15.3186H13.3229C13.6458 15.3186 13.8879 15.0764 13.8879 14.7535C13.8072 14.4306 13.565 14.1885 13.3229 14.1885Z" fill="#509BCB"/>
<path d="M8.80259 7.40796H15.3409C15.6637 7.40796 15.9059 7.1658 15.9059 6.84292V3.8563C15.9059 3.53342 15.6637 3.29126 15.3409 3.29126H8.80259C8.47971 3.29126 8.23755 3.61414 8.23755 3.8563V6.84292C8.23755 7.08508 8.47971 7.40796 8.80259 7.40796ZM9.2869 4.42133H14.6951V6.27788H9.2869V4.42133Z" fill="#182851"/>
<path d="M22.9285 12.1705L22.3635 11.6055C21.7177 10.9597 20.6683 10.9597 20.0226 11.6055L18.8118 12.8163V0.708347C18.8118 0.385469 18.5696 0.143311 18.2468 0.143311H3.1522C2.82932 0.143311 2.58716 0.385469 2.58716 0.708347V17.8209C2.58716 18.1438 2.82932 18.3859 3.1522 18.3859H13.565L12.6771 20.6461C12.5964 20.969 12.5964 21.2111 12.8385 21.4533C13 21.6147 13.1614 21.6954 13.4036 21.6954C13.4843 21.6954 13.565 21.6954 13.6457 21.6147L16.148 20.7268C16.4709 20.5654 16.8745 20.4039 17.1167 20.081L22.8478 14.35C23.1706 14.0271 23.3321 13.6235 23.3321 13.2199C23.4128 12.897 23.2514 12.4127 22.9285 12.1705ZM5.2509 17.3366H3.71723V1.27338H5.2509V17.3366ZM6.30026 17.3366V1.27338H17.6817V13.8656L14.2915 17.2559L14.2108 17.3366H6.30026ZM15.8252 19.7582L14.0493 20.4039L14.6951 18.6281C14.7758 18.5474 14.7758 18.4667 14.8565 18.3859L16.148 19.6774C16.0673 19.6774 15.9059 19.7582 15.8252 19.7582ZM22.1213 13.7042L16.9552 18.8702L15.583 17.498L20.7491 12.332C20.8298 12.2512 20.9912 12.1705 21.1527 12.1705C21.3141 12.1705 21.4755 12.2512 21.5563 12.332L22.1213 12.897C22.202 12.9777 22.2827 13.1392 22.2827 13.3006C22.2827 13.462 22.2827 13.6235 22.1213 13.7042Z" fill="#172952"/>
</g>
<defs>
<clipPath id="clip0_363_13964">
<rect width="25" height="21.875" fill="white" transform="translate(0.5 0.0625)"/>
</clipPath>
</defs>
</svg>
