<svg width="26" height="22" viewBox="0 0 26 22" fill="none" xmlns="http://www.w3.org/2000/svg">
<path d="M17.7285 14.4867V14.0091C17.7285 13.627 17.3464 13.2449 16.9643 13.2449C16.5823 13.2449 16.2002 13.627 16.2002 14.0091V14.4867C16.2002 14.6777 16.0091 14.7733 15.7225 14.7733H10.3732C10.0866 14.7733 9.89557 14.5822 9.89557 14.4867V14.0091C9.89557 13.627 9.51348 13.2449 9.13138 13.2449C8.74928 13.2449 8.36719 13.627 8.36719 14.0091V14.4867C8.36719 15.5374 9.2269 16.3016 10.3732 16.3016H15.7225C16.8688 16.3016 17.7285 15.5374 17.7285 14.4867Z" fill="#172851"/>
<path d="M25.1794 8.46875H0.820801V21.8421H25.275L25.1794 8.46875ZM24.1287 20.7913H1.96709V9.61504H24.1287V20.7913Z" fill="#172851"/>
<path d="M21.5495 2.16408H20.7853V0.349121H5.31043V2.16408H4.35519L0.820801 8.46866H25.275L21.5495 2.16408ZM19.9256 4.93427H6.26567V1.20884H19.9256V4.93427Z" fill="#172851"/>
<path d="M19.8301 1.20874H6.17017V4.93418H19.8301V1.20874Z" fill="white"/>
<path d="M22.2181 6.27173H3.78198V8.46878H22.2181V6.27173Z" fill="#509BCB"/>
<path d="M9.03592 2.7373H8.27173V3.5015H9.03592V2.7373Z" fill="#509BCB"/>
<path d="M17.633 2.83276H9.89551V3.59696H17.633V2.83276Z" fill="#509BCB"/>
</svg>
