<svg width="26" height="22" viewBox="0 0 26 22" fill="none" xmlns="http://www.w3.org/2000/svg">
<g clip-path="url(#clip0_363_13961)">
<path d="M9.6276 9.81519L4.79688 14.099V19.0209H21.2031V16.4688L16.6458 11.2735L14.276 13.8256L9.6276 9.81519Z" fill="#519BCB"/>
<path d="M2.88281 0.0625C2.42708 0.0625 2.0625 0.427083 2.0625 0.882812V21.1172C2.0625 21.5729 2.42708 21.9375 2.88281 21.9375H23.1172C23.5729 21.9375 23.9375 21.5729 23.9375 21.1172V0.882812C23.9375 0.427083 23.5729 0.0625 23.1172 0.0625H2.88281ZM3.2474 1.2474H22.6615V20.6615H3.2474V1.2474ZM4.88802 4.25521C4.52344 4.25521 4.15885 4.61979 4.15885 5.07552V18.7474C4.15885 19.2031 4.52344 19.4766 4.88802 19.4766H21.0208C21.4766 19.4766 21.75 19.112 21.75 18.7474V5.07552C21.75 4.61979 21.3854 4.34635 21.0208 4.34635L4.88802 4.25521ZM5.34375 5.53125H20.5651V15.1927L17.1016 11C17.0104 10.8177 16.737 10.7266 16.5547 10.8177C16.3724 10.8177 16.2812 10.9089 16.1901 11L14.3672 13.1875L9.99219 9.45052C9.90104 9.17708 9.71875 9.17708 9.6276 9.17708C9.44531 9.17708 9.35417 9.26823 9.26302 9.35938L5.4349 12.9141L5.34375 5.53125ZM13.9115 6.07812C12.9089 6.07812 12.0885 6.89844 12.0885 7.90104C12.0885 8.90365 12.9089 9.72396 13.9115 9.72396C14.9141 9.72396 15.7344 8.90365 15.7344 7.90104C15.7344 6.89844 14.9141 6.07812 13.9115 6.07812ZM13.9115 7.35417C14.276 7.35417 14.5495 7.6276 14.5495 7.99219C14.5495 8.35677 14.276 8.53906 13.9115 8.53906C13.5469 8.53906 13.2734 8.26562 13.2734 7.90104C13.2734 7.53646 13.5469 7.35417 13.9115 7.35417ZM9.6276 10.5443L13.5469 13.9167L10.0833 18.1094L9.99219 18.2005H5.34375V14.4635L5.4349 14.3724L9.6276 10.5443ZM16.6458 12.276L20.474 16.8333C20.474 16.9245 20.5651 16.9245 20.6562 17.0156V18.2917H11.6328L16.6458 12.276Z" fill="#010101"/>
</g>
<defs>
<clipPath id="clip0_363_13961">
<rect width="25" height="21.875" fill="white" transform="translate(0.5 0.0625)"/>
</clipPath>
</defs>
</svg>
