<svg width="27" height="27" viewBox="0 0 27 27" fill="none" xmlns="http://www.w3.org/2000/svg">
<path d="M21.8171 25.7191H4.89105C2.75097 25.7191 1 24.0337 1 21.9738V4.74532C1 2.68539 2.75097 1 4.89105 1H21.8171C23.9572 1 25.7082 2.68539 25.7082 4.74532V21.9738C25.7082 24.0337 23.9572 25.7191 21.8171 25.7191Z" stroke="white" stroke-width="2"/>
<path d="M7.09766 20.8125H20.0977" stroke="white" stroke-width="2" stroke-linecap="round"/>
<path d="M18.7459 10.6959C18.3568 10.2277 17.6759 10.2277 17.1895 10.6022L14.5631 13.1303V6.76327C14.5631 6.66964 14.5631 6.66964 14.5631 6.57601C14.4658 6.10784 13.9794 5.73331 13.493 5.82694C13.0066 5.92058 12.6175 6.38874 12.7148 6.85691V13.2239L9.99107 10.6022C9.89379 10.5086 9.89379 10.415 9.79652 10.415C9.31013 10.0404 8.6292 10.1341 8.2401 10.6022C7.85099 11.0704 7.94827 11.7258 8.43465 12.1004L12.8121 16.3138C13.0066 16.5011 13.2985 16.5947 13.5903 16.5947C13.8821 16.5947 14.1739 16.5011 14.3685 16.3138L18.7459 12.1004C19.135 11.7258 19.135 11.0704 18.7459 10.6959Z" fill="white"/>
</svg>
