<svg width="17" height="18" viewBox="0 0 17 18" fill="none" xmlns="http://www.w3.org/2000/svg">
<path d="M8.33333 0.666748C3.73333 0.666748 0 4.40008 0 9.00008C0 13.6001 3.73333 17.3334 8.33333 17.3334C12.9333 17.3334 16.6667 13.6001 16.6667 9.00008C16.6667 4.40008 12.9333 0.666748 8.33333 0.666748ZM9.16667 14.8334H7.5V13.1667H9.16667V14.8334ZM10.8917 8.37508L10.1417 9.14175C9.54167 9.75008 9.16667 10.2501 9.16667 11.5001H7.5V11.0834C7.5 10.1667 7.875 9.33342 8.475 8.72508L9.50833 7.67508C9.81667 7.37508 10 6.95841 10 6.50008C10 5.58341 9.25 4.83341 8.33333 4.83341C7.41667 4.83341 6.66667 5.58341 6.66667 6.50008H5C5 4.65841 6.49167 3.16675 8.33333 3.16675C10.175 3.16675 11.6667 4.65841 11.6667 6.50008C11.6667 7.23341 11.3667 7.90008 10.8917 8.37508Z" fill="black"/>
</svg>
