<svg width="345" height="48" viewBox="0 0 345 48" fill="none" xmlns="http://www.w3.org/2000/svg">
<path d="M63.3518 2.9624C62.3405 1.51134 60.7465 0.5 59.0096 0.5H55.1072L68.2656 23.7829L55.1072 47.0657H59.0096C60.8894 47.0657 62.4834 46.0544 63.3518 44.6033L74.9273 23.7719L63.3518 2.94041V2.9624Z" fill="#BA1F40"/>
<path d="M64.6489 23.7938L51.7763 0.510925H5.05671C2.16559 0.510925 0 2.81942 0 5.56764V42.1628C0 44.911 2.16559 47.2305 5.0677 47.2305H51.7873L64.6599 23.7938H64.6489Z" fill="#606061"/>
<path d="M31.0987 13.5266H27.625V34.2152H31.0987V13.5266Z" fill="white"/>
<path d="M20.6771 13.5267V28.565L11.1353 13.5267H7.80444V34.2153H11.1353V19.0232L20.6771 34.2153H24.1508V13.5267H20.6771Z" fill="white"/>
<path d="M47.4337 13.5267V22.0572H37.892V13.5267H34.4182V34.2153H37.892V25.5309H47.4337V34.2153H50.9075V13.5267H47.4337Z" fill="white"/>
<path d="M93.2628 4.55725H95.3954V14.11H93.2628L88.7117 8.11893V14.11H86.5791V4.55725H88.5798L93.2628 10.7023V4.55725Z" fill="#BB0E3D"/>
<path d="M104.553 14.11L103.662 12.0434H99.6608L98.7704 14.11H96.5059L100.639 4.55725H102.706L106.839 14.11H104.575H104.553ZM101.672 7.39341L100.474 10.1636H102.871L101.683 7.39341H101.672Z" fill="#BB0E3D"/>
<path d="M111.28 6.40405V14.11H109.148V6.40405H106.443V4.55725H113.984V6.40405H111.28Z" fill="#BB0E3D"/>
<path d="M115.545 4.55725H117.678V14.11H115.545V4.55725Z" fill="#BB0E3D"/>
<path d="M128.066 12.7909C127.099 13.7363 125.912 14.209 124.493 14.209C123.075 14.209 121.888 13.7363 120.921 12.7909C119.953 11.8455 119.47 10.6693 119.47 9.27319C119.47 7.8771 119.953 6.70086 120.921 5.75548C121.888 4.81009 123.075 4.3374 124.493 4.3374C125.912 4.3374 127.099 4.81009 128.066 5.75548C129.034 6.70086 129.517 7.8771 129.517 9.27319C129.517 10.6693 129.034 11.8455 128.066 12.7909ZM127.341 9.27319C127.341 8.42674 127.066 7.69022 126.516 7.09661C125.967 6.492 125.296 6.19519 124.504 6.19519C123.713 6.19519 123.031 6.492 122.493 7.09661C121.954 7.70121 121.668 8.42674 121.668 9.27319C121.668 10.1196 121.943 10.8452 122.493 11.4498C123.042 12.0434 123.713 12.3402 124.504 12.3402C125.296 12.3402 125.977 12.0434 126.516 11.4498C127.066 10.8562 127.341 10.1306 127.341 9.27319Z" fill="#BB0E3D"/>
<path d="M138.003 4.55725H140.136V14.11H138.003L133.452 8.11893V14.11H131.32V4.55725H133.321L138.003 10.7023V4.55725Z" fill="#BB0E3D"/>
<path d="M149.294 14.11L148.403 12.0434H144.402L143.512 14.11H141.247L145.38 4.55725H147.447L151.58 14.11H149.316H149.294ZM146.414 7.39341L145.215 10.1636H147.612L146.425 7.39341H146.414Z" fill="#BB0E3D"/>
<path d="M152.668 14.11V4.55725H154.801V12.2083H158.879V14.11H152.668Z" fill="#BB0E3D"/>
<path d="M168.42 12.2304C169.465 12.2304 170.322 11.8127 170.993 10.9882L172.356 12.3953C171.268 13.6155 169.992 14.2311 168.519 14.2311C167.046 14.2311 165.837 13.7694 164.881 12.835C163.924 11.9006 163.452 10.7354 163.452 9.31728C163.452 7.8992 163.935 6.72297 164.903 5.76659C165.87 4.8212 167.057 4.34851 168.464 4.34851C170.036 4.34851 171.345 4.94212 172.4 6.14035L171.07 7.64637C170.399 6.81091 169.553 6.39318 168.552 6.39318C167.75 6.39318 167.068 6.65701 166.497 7.17367C165.925 7.70133 165.639 8.40487 165.639 9.29529C165.639 10.1857 165.903 10.9002 166.442 11.4389C166.98 11.9775 167.629 12.2414 168.398 12.2414L168.42 12.2304Z" fill="#BB0E3D"/>
<path d="M180.777 14.11L179.886 12.0434H175.885L174.995 14.11H172.73L176.863 4.55725H178.93L183.063 14.11H180.799H180.777ZM177.897 7.39341L176.698 10.1636H179.095L177.908 7.39341H177.897Z" fill="#BB0E3D"/>
<path d="M190.846 4.55725H192.978V14.11H190.846L186.295 8.11893V14.11H184.162V4.55725H186.163L190.846 10.7023V4.55725Z" fill="#BB0E3D"/>
<path d="M199.706 12.2304C200.75 12.2304 201.608 11.8127 202.278 10.9882L203.642 12.3953C202.553 13.6155 201.278 14.2311 199.805 14.2311C198.332 14.2311 197.123 13.7694 196.166 12.835C195.21 11.9006 194.737 10.7354 194.737 9.31728C194.737 7.8992 195.221 6.72297 196.188 5.76659C197.156 4.8212 198.343 4.34851 199.75 4.34851C201.322 4.34851 202.63 4.94212 203.685 6.14035L202.355 7.64637C201.685 6.81091 200.838 6.39318 199.838 6.39318C199.036 6.39318 198.354 6.65701 197.782 7.17367C197.211 7.70133 196.925 8.40487 196.925 9.29529C196.925 10.1857 197.189 10.9002 197.727 11.4389C198.266 11.9775 198.915 12.2414 199.684 12.2414L199.706 12.2304Z" fill="#BB0E3D"/>
<path d="M212.216 4.55725V6.45901H207.456V8.42673H211.732V10.2406H207.456V12.2193H212.359V14.11H205.323V4.55725H212.216Z" fill="#BB0E3D"/>
<path d="M222.022 7.73418C222.022 9.26218 221.417 10.2515 220.208 10.7022L222.627 14.121H219.999L217.878 11.076H216.405V14.121H214.272V4.56824H217.9C219.384 4.56824 220.45 4.82107 221.077 5.31575C221.703 5.81043 222.022 6.6239 222.022 7.73418ZM219.45 8.86644C219.713 8.6246 219.845 8.25084 219.845 7.73418C219.845 7.21751 219.713 6.86574 219.439 6.67886C219.164 6.49199 218.691 6.39305 217.999 6.39305H216.405V9.21821H217.966C218.691 9.21821 219.186 9.09729 219.461 8.86644H219.45Z" fill="#BB0E3D"/>
<path d="M227.816 4.55725H229.948V14.11H227.816V4.55725Z" fill="#BB0E3D"/>
<path d="M238.983 4.55725H241.116V14.11H238.983L234.432 8.11893V14.11H232.3V4.55725H234.301L238.983 10.7023V4.55725Z" fill="#BB0E3D"/>
<path d="M245.7 6.47001C245.492 6.63491 245.393 6.86576 245.393 7.14058C245.393 7.4154 245.514 7.63526 245.766 7.80015C246.019 7.96504 246.591 8.15192 247.503 8.38277C248.416 8.61362 249.119 8.94341 249.614 9.38312C250.12 9.83383 250.361 10.4824 250.361 11.3398C250.361 12.1973 250.043 12.8898 249.394 13.4285C248.745 13.9671 247.91 14.231 246.855 14.231C245.338 14.231 243.975 13.6703 242.765 12.5491L244.041 10.9881C245.074 11.8895 246.019 12.3402 246.899 12.3402C247.294 12.3402 247.602 12.2523 247.822 12.0874C248.042 11.9225 248.163 11.6916 248.163 11.4058C248.163 11.12 248.042 10.8891 247.811 10.7242C247.58 10.5594 247.108 10.3835 246.404 10.2076C245.294 9.94375 244.48 9.60298 243.964 9.17425C243.447 8.74553 243.194 8.08596 243.194 7.17356C243.194 6.26115 243.524 5.5686 244.172 5.07392C244.821 4.57925 245.635 4.3374 246.613 4.3374C247.25 4.3374 247.888 4.44733 248.526 4.66719C249.163 4.88704 249.724 5.19484 250.197 5.60158L249.119 7.16256C248.295 6.53597 247.437 6.21718 246.547 6.21718C246.195 6.21718 245.909 6.30512 245.711 6.47001H245.7Z" fill="#BB0E3D"/>
<path d="M256.143 6.40405V14.11H254.011V6.40405H251.306V4.55725H258.847V6.40405H256.143Z" fill="#BB0E3D"/>
<path d="M260.409 4.55725H262.542V14.11H260.409V4.55725Z" fill="#BB0E3D"/>
<path d="M268.939 6.40405V14.11H266.807V6.40405H264.103V4.55725H271.644V6.40405H268.939Z" fill="#BB0E3D"/>
<path d="M275.733 11.6476C276.085 12.0874 276.568 12.3072 277.173 12.3072C277.778 12.3072 278.25 12.0874 278.602 11.6476C278.954 11.2079 279.13 10.6033 279.13 9.83383V4.55726H281.262V9.89978C281.262 11.2849 280.878 12.3512 280.119 13.0877C279.35 13.8352 278.371 14.198 277.184 14.198C275.997 14.198 275.007 13.8242 274.238 13.0767C273.468 12.3292 273.084 11.2629 273.084 9.88879V4.54626H275.216V9.82283C275.216 10.5923 275.392 11.1859 275.744 11.6367L275.733 11.6476Z" fill="#BB0E3D"/>
<path d="M287.517 6.40405V14.11H285.384V6.40405H282.68V4.55725H290.221V6.40405H287.517Z" fill="#BB0E3D"/>
<path d="M298.675 4.55725V6.45901H293.915V8.42673H298.191V10.2406H293.915V12.2193H298.818V14.11H291.782V4.55725H298.675Z" fill="#BB0E3D"/>
<path d="M91.5385 30.1993C90.823 30.1993 90.1561 30.0844 89.5378 29.8548C88.9283 29.6163 88.3983 29.2806 87.9477 28.8478C87.4973 28.4149 87.1439 27.907 86.8878 27.324C86.6404 26.741 86.5168 26.1006 86.5168 25.4028C86.5168 24.7049 86.6404 24.0645 86.8878 23.4815C87.1439 22.8985 87.4973 22.3906 87.9477 21.9578C88.4071 21.5249 88.9415 21.1937 89.551 20.964C90.1605 20.7255 90.8274 20.6063 91.5518 20.6063C92.3556 20.6063 93.0799 20.7476 93.7248 21.0303C94.3784 21.3041 94.9261 21.7104 95.3678 22.2493L93.9898 23.5213C93.6718 23.1591 93.3184 22.8897 92.9298 22.713C92.5411 22.5275 92.1171 22.4348 91.6578 22.4348C91.2249 22.4348 90.8274 22.5054 90.4653 22.6468C90.1031 22.7881 89.7895 22.9913 89.5245 23.2563C89.2595 23.5213 89.0519 23.8349 88.9018 24.197C88.7604 24.5592 88.6898 24.9611 88.6898 25.4028C88.6898 25.8444 88.7604 26.2464 88.9018 26.6085C89.0519 26.9707 89.2595 27.2843 89.5245 27.5493C89.7895 27.8143 90.1031 28.0174 90.4653 28.1588C90.8274 28.3001 91.2249 28.3708 91.6578 28.3708C92.1171 28.3708 92.5411 28.2824 92.9298 28.1058C93.3184 27.9203 93.6718 27.642 93.9898 27.271L95.3678 28.543C94.9261 29.0819 94.3784 29.4926 93.7248 29.7753C93.0799 30.0579 92.3512 30.1993 91.5385 30.1993ZM101.005 30.0403V28.649L100.873 28.3443V25.8533C100.873 25.4116 100.736 25.0671 100.462 24.8198C100.197 24.5724 99.7862 24.4488 99.2297 24.4488C98.8499 24.4488 98.4745 24.5106 98.1035 24.6343C97.7413 24.7491 97.4321 24.9081 97.176 25.1113L96.434 23.667C96.8226 23.3932 97.2908 23.1812 97.8385 23.031C98.3861 22.8809 98.9426 22.8058 99.508 22.8058C100.594 22.8058 101.438 23.0619 102.039 23.5743C102.639 24.0866 102.94 24.886 102.94 25.9725V30.0403H101.005ZM98.8322 30.1463C98.2757 30.1463 97.7987 30.0535 97.4012 29.868C97.0037 29.6737 96.699 29.4131 96.487 29.0863C96.275 28.7594 96.169 28.3929 96.169 27.9865C96.169 27.5625 96.2705 27.1915 96.4737 26.8735C96.6857 26.5555 97.017 26.3082 97.4675 26.1315C97.918 25.946 98.5054 25.8533 99.2297 25.8533H101.124V27.059H99.455C98.9691 27.059 98.6335 27.1385 98.448 27.2975C98.2713 27.4565 98.183 27.6553 98.183 27.8938C98.183 28.1588 98.2845 28.3708 98.4877 28.5298C98.6997 28.6799 98.9868 28.755 99.349 28.755C99.6935 28.755 100.003 28.6755 100.276 28.5165C100.55 28.3487 100.749 28.1058 100.873 27.7878L101.191 28.7418C101.041 29.2011 100.767 29.55 100.369 29.7885C99.9717 30.027 99.4594 30.1463 98.8322 30.1463ZM109.143 22.8058C109.709 22.8058 110.212 22.9206 110.654 23.1503C111.104 23.3711 111.458 23.7156 111.714 24.1838C111.97 24.6431 112.098 25.2349 112.098 25.9593V30.0403H110.031V26.2773C110.031 25.7031 109.903 25.2791 109.647 25.0053C109.399 24.7314 109.046 24.5945 108.587 24.5945C108.26 24.5945 107.964 24.6652 107.699 24.8065C107.443 24.939 107.24 25.1466 107.089 25.4293C106.948 25.7119 106.877 26.0741 106.877 26.5158V30.0403H104.81V22.9118H106.785V24.886L106.414 24.2898C106.67 23.8128 107.036 23.4462 107.513 23.19C107.99 22.9339 108.534 22.8058 109.143 22.8058ZM117.468 30.1463C116.7 30.1463 116.015 29.9917 115.415 29.6825C114.814 29.3645 114.341 28.9273 113.997 28.3708C113.661 27.8143 113.493 27.1827 113.493 26.476C113.493 25.7605 113.661 25.1289 113.997 24.5813C114.341 24.0248 114.814 23.5919 115.415 23.2828C116.015 22.9648 116.7 22.8058 117.468 22.8058C118.219 22.8058 118.873 22.9648 119.429 23.2828C119.986 23.5919 120.397 24.038 120.662 24.621L119.058 25.4823C118.873 25.1466 118.639 24.8993 118.356 24.7403C118.082 24.5813 117.782 24.5018 117.455 24.5018C117.102 24.5018 116.784 24.5813 116.501 24.7403C116.218 24.8993 115.993 25.1245 115.825 25.416C115.666 25.7075 115.587 26.0609 115.587 26.476C115.587 26.8912 115.666 27.2445 115.825 27.536C115.993 27.8275 116.218 28.0528 116.501 28.2118C116.784 28.3708 117.102 28.4503 117.455 28.4503C117.782 28.4503 118.082 28.3752 118.356 28.225C118.639 28.066 118.873 27.8143 119.058 27.4698L120.662 28.3443C120.397 28.9184 119.986 29.3645 119.429 29.6825C118.873 29.9917 118.219 30.1463 117.468 30.1463ZM125.299 30.1463C124.486 30.1463 123.771 29.9873 123.152 29.6693C122.543 29.3513 122.07 28.9184 121.735 28.3708C121.399 27.8143 121.231 27.1827 121.231 26.476C121.231 25.7605 121.395 25.1289 121.721 24.5813C122.057 24.0248 122.512 23.5919 123.086 23.2828C123.66 22.9648 124.31 22.8058 125.034 22.8058C125.732 22.8058 126.359 22.9559 126.915 23.2563C127.481 23.5478 127.927 23.9718 128.254 24.5283C128.58 25.0759 128.744 25.734 128.744 26.5025C128.744 26.582 128.739 26.6748 128.731 26.7808C128.722 26.8779 128.713 26.9707 128.704 27.059H122.914V25.8533H127.618L126.823 26.211C126.823 25.84 126.748 25.5176 126.597 25.2438C126.447 24.9699 126.24 24.7579 125.975 24.6078C125.71 24.4488 125.4 24.3693 125.047 24.3693C124.694 24.3693 124.38 24.4488 124.106 24.6078C123.841 24.7579 123.634 24.9744 123.484 25.257C123.333 25.5309 123.258 25.8577 123.258 26.2375V26.5555C123.258 26.9442 123.342 27.2887 123.51 27.589C123.687 27.8805 123.93 28.1058 124.239 28.2648C124.557 28.4149 124.928 28.49 125.352 28.49C125.732 28.49 126.063 28.4326 126.346 28.3178C126.637 28.2029 126.902 28.0307 127.141 27.801L128.24 28.9935C127.914 29.3645 127.503 29.6516 127.008 29.8548C126.513 30.0491 125.944 30.1463 125.299 30.1463ZM130.12 30.0403V22.9118H132.094V24.9258L131.816 24.3428C132.028 23.8393 132.368 23.4594 132.836 23.2033C133.304 22.9383 133.874 22.8058 134.546 22.8058V24.7138C134.457 24.7049 134.378 24.7005 134.307 24.7005C134.236 24.6917 134.161 24.6873 134.082 24.6873C133.516 24.6873 133.057 24.8507 132.704 25.1775C132.359 25.4955 132.187 25.9946 132.187 26.6748V30.0403H130.12ZM139.725 30.0403V20.7653H143.739C144.57 20.7653 145.285 20.9022 145.886 21.176C146.486 21.441 146.95 21.8253 147.277 22.3288C147.604 22.8323 147.767 23.4329 147.767 24.1308C147.767 24.8198 147.604 25.416 147.277 25.9195C146.95 26.4142 146.486 26.794 145.886 27.059C145.285 27.324 144.57 27.4565 143.739 27.4565H140.917L141.871 26.5158V30.0403H139.725ZM145.621 30.0403L143.302 26.6748H145.594L147.94 30.0403H145.621ZM141.871 26.7543L140.917 25.7473H143.62C144.283 25.7473 144.777 25.6059 145.104 25.3233C145.431 25.0318 145.594 24.6343 145.594 24.1308C145.594 23.6184 145.431 23.2209 145.104 22.9383C144.777 22.6556 144.283 22.5143 143.62 22.5143H140.917L141.871 21.494V26.7543ZM152.86 30.1463C152.047 30.1463 151.332 29.9873 150.713 29.6693C150.104 29.3513 149.631 28.9184 149.296 28.3708C148.96 27.8143 148.792 27.1827 148.792 26.476C148.792 25.7605 148.956 25.1289 149.282 24.5813C149.618 24.0248 150.073 23.5919 150.647 23.2828C151.221 22.9648 151.871 22.8058 152.595 22.8058C153.293 22.8058 153.92 22.9559 154.476 23.2563C155.042 23.5478 155.488 23.9718 155.815 24.5283C156.141 25.0759 156.305 25.734 156.305 26.5025C156.305 26.582 156.3 26.6748 156.292 26.7808C156.283 26.8779 156.274 26.9707 156.265 27.059H150.475V25.8533H155.179L154.384 26.211C154.384 25.84 154.309 25.5176 154.158 25.2438C154.008 24.9699 153.801 24.7579 153.536 24.6078C153.271 24.4488 152.961 24.3693 152.608 24.3693C152.255 24.3693 151.941 24.4488 151.667 24.6078C151.402 24.7579 151.195 24.9744 151.045 25.257C150.894 25.5309 150.819 25.8577 150.819 26.2375V26.5555C150.819 26.9442 150.903 27.2887 151.071 27.589C151.248 27.8805 151.491 28.1058 151.8 28.2648C152.118 28.4149 152.489 28.49 152.913 28.49C153.293 28.49 153.624 28.4326 153.907 28.3178C154.198 28.2029 154.463 28.0307 154.702 27.801L155.801 28.9935C155.475 29.3645 155.064 29.6516 154.569 29.8548C154.074 30.0491 153.505 30.1463 152.86 30.1463ZM160.079 30.1463C159.47 30.1463 158.882 30.0756 158.317 29.9343C157.761 29.7841 157.319 29.5986 156.992 29.3778L157.681 27.8938C158.008 28.0969 158.392 28.2648 158.834 28.3973C159.284 28.5209 159.726 28.5828 160.159 28.5828C160.636 28.5828 160.971 28.5254 161.166 28.4105C161.369 28.2957 161.471 28.1367 161.471 27.9335C161.471 27.7657 161.391 27.642 161.232 27.5625C161.082 27.4742 160.879 27.4079 160.623 27.3638C160.366 27.3196 160.084 27.2754 159.775 27.2313C159.474 27.1871 159.169 27.1297 158.86 27.059C158.551 26.9795 158.268 26.8647 158.012 26.7145C157.756 26.5644 157.549 26.3612 157.39 26.105C157.239 25.8489 157.164 25.5176 157.164 25.1113C157.164 24.6608 157.292 24.2633 157.549 23.9188C157.814 23.5743 158.193 23.3049 158.688 23.1105C159.183 22.9074 159.775 22.8058 160.464 22.8058C160.949 22.8058 161.444 22.8588 161.948 22.9648C162.451 23.0708 162.871 23.2254 163.206 23.4285L162.517 24.8993C162.173 24.6961 161.824 24.5592 161.471 24.4885C161.126 24.409 160.79 24.3693 160.464 24.3693C160.004 24.3693 159.669 24.4311 159.457 24.5548C159.245 24.6784 159.139 24.8374 159.139 25.0318C159.139 25.2084 159.214 25.3409 159.364 25.4293C159.523 25.5176 159.73 25.5883 159.987 25.6413C160.243 25.6943 160.521 25.7429 160.821 25.787C161.13 25.8224 161.44 25.8798 161.749 25.9593C162.058 26.0388 162.336 26.1536 162.584 26.3038C162.84 26.4451 163.047 26.6439 163.206 26.9C163.365 27.1474 163.445 27.4742 163.445 27.8805C163.445 28.3222 163.312 28.7153 163.047 29.0598C162.782 29.3954 162.398 29.6604 161.895 29.8548C161.4 30.0491 160.795 30.1463 160.079 30.1463ZM168.258 30.1463C167.445 30.1463 166.73 29.9873 166.111 29.6693C165.502 29.3513 165.029 28.9184 164.694 28.3708C164.358 27.8143 164.19 27.1827 164.19 26.476C164.19 25.7605 164.354 25.1289 164.68 24.5813C165.016 24.0248 165.471 23.5919 166.045 23.2828C166.619 22.9648 167.269 22.8058 167.993 22.8058C168.691 22.8058 169.318 22.9559 169.874 23.2563C170.44 23.5478 170.886 23.9718 171.213 24.5283C171.539 25.0759 171.703 25.734 171.703 26.5025C171.703 26.582 171.698 26.6748 171.69 26.7808C171.681 26.8779 171.672 26.9707 171.663 27.059H165.873V25.8533H170.577L169.782 26.211C169.782 25.84 169.707 25.5176 169.556 25.2438C169.406 24.9699 169.199 24.7579 168.934 24.6078C168.669 24.4488 168.359 24.3693 168.006 24.3693C167.653 24.3693 167.339 24.4488 167.065 24.6078C166.8 24.7579 166.593 24.9744 166.443 25.257C166.292 25.5309 166.217 25.8577 166.217 26.2375V26.5555C166.217 26.9442 166.301 27.2887 166.469 27.589C166.646 27.8805 166.889 28.1058 167.198 28.2648C167.516 28.4149 167.887 28.49 168.311 28.49C168.691 28.49 169.022 28.4326 169.305 28.3178C169.596 28.2029 169.861 28.0307 170.1 27.801L171.199 28.9935C170.873 29.3645 170.462 29.6516 169.967 29.8548C169.472 30.0491 168.903 30.1463 168.258 30.1463ZM177.257 30.0403V28.649L177.125 28.3443V25.8533C177.125 25.4116 176.988 25.0671 176.714 24.8198C176.449 24.5724 176.038 24.4488 175.482 24.4488C175.102 24.4488 174.727 24.5106 174.356 24.6343C173.993 24.7491 173.684 24.9081 173.428 25.1113L172.686 23.667C173.075 23.3932 173.543 23.1812 174.091 23.031C174.638 22.8809 175.195 22.8058 175.76 22.8058C176.847 22.8058 177.69 23.0619 178.291 23.5743C178.892 24.0866 179.192 24.886 179.192 25.9725V30.0403H177.257ZM175.084 30.1463C174.528 30.1463 174.051 30.0535 173.653 29.868C173.256 29.6737 172.951 29.4131 172.739 29.0863C172.527 28.7594 172.421 28.3929 172.421 27.9865C172.421 27.5625 172.523 27.1915 172.726 26.8735C172.938 26.5555 173.269 26.3082 173.72 26.1315C174.17 25.946 174.758 25.8533 175.482 25.8533H177.377V27.059H175.707C175.221 27.059 174.886 27.1385 174.7 27.2975C174.523 27.4565 174.435 27.6553 174.435 27.8938C174.435 28.1588 174.537 28.3708 174.74 28.5298C174.952 28.6799 175.239 28.755 175.601 28.755C175.946 28.755 176.255 28.6755 176.529 28.5165C176.802 28.3487 177.001 28.1058 177.125 27.7878L177.443 28.7418C177.293 29.2011 177.019 29.55 176.621 29.7885C176.224 30.027 175.712 30.1463 175.084 30.1463ZM181.063 30.0403V22.9118H183.037V24.9258L182.759 24.3428C182.971 23.8393 183.311 23.4594 183.779 23.2033C184.247 22.9383 184.817 22.8058 185.488 22.8058V24.7138C185.4 24.7049 185.32 24.7005 185.25 24.7005C185.179 24.6917 185.104 24.6873 185.024 24.6873C184.459 24.6873 184 24.8507 183.646 25.1775C183.302 25.4955 183.13 25.9946 183.13 26.6748V30.0403H181.063ZM190.11 30.1463C189.342 30.1463 188.657 29.9917 188.057 29.6825C187.456 29.3645 186.983 28.9273 186.639 28.3708C186.303 27.8143 186.135 27.1827 186.135 26.476C186.135 25.7605 186.303 25.1289 186.639 24.5813C186.983 24.0248 187.456 23.5919 188.057 23.2828C188.657 22.9648 189.342 22.8058 190.11 22.8058C190.861 22.8058 191.515 22.9648 192.071 23.2828C192.628 23.5919 193.039 24.038 193.304 24.621L191.7 25.4823C191.515 25.1466 191.281 24.8993 190.998 24.7403C190.724 24.5813 190.424 24.5018 190.097 24.5018C189.744 24.5018 189.426 24.5813 189.143 24.7403C188.861 24.8993 188.635 25.1245 188.467 25.416C188.308 25.7075 188.229 26.0609 188.229 26.476C188.229 26.8912 188.308 27.2445 188.467 27.536C188.635 27.8275 188.861 28.0528 189.143 28.2118C189.426 28.3708 189.744 28.4503 190.097 28.4503C190.424 28.4503 190.724 28.3752 190.998 28.225C191.281 28.066 191.515 27.8143 191.7 27.4698L193.304 28.3443C193.039 28.9184 192.628 29.3645 192.071 29.6825C191.515 29.9917 190.861 30.1463 190.11 30.1463ZM198.788 22.8058C199.353 22.8058 199.857 22.9206 200.298 23.1503C200.749 23.3711 201.102 23.7156 201.358 24.1838C201.614 24.6431 201.742 25.2349 201.742 25.9593V30.0403H199.675V26.2773C199.675 25.7031 199.547 25.2791 199.291 25.0053C199.044 24.7314 198.691 24.5945 198.231 24.5945C197.904 24.5945 197.608 24.6652 197.343 24.8065C197.087 24.939 196.884 25.1466 196.734 25.4293C196.593 25.7119 196.522 26.0741 196.522 26.5158V30.0403H194.455V20.2088H196.522V24.886L196.058 24.2898C196.314 23.8128 196.681 23.4462 197.158 23.19C197.635 22.9339 198.178 22.8058 198.788 22.8058ZM207.514 30.0403V20.7653H211.728C212.735 20.7653 213.623 20.9596 214.391 21.3483C215.16 21.7281 215.76 22.2625 216.193 22.9515C216.626 23.6405 216.842 24.4576 216.842 25.4028C216.842 26.3391 216.626 27.1562 216.193 27.854C215.76 28.543 215.16 29.0819 214.391 29.4705C213.623 29.8504 212.735 30.0403 211.728 30.0403H207.514ZM209.661 28.278H211.622C212.24 28.278 212.775 28.1632 213.225 27.9335C213.684 27.695 214.038 27.3594 214.285 26.9265C214.541 26.4937 214.669 25.9858 214.669 25.4028C214.669 24.8109 214.541 24.303 214.285 23.879C214.038 23.4462 213.684 23.1149 213.225 22.8853C212.775 22.6468 212.24 22.5275 211.622 22.5275H209.661V28.278ZM222.688 30.0403V28.649L222.555 28.3443V25.8533C222.555 25.4116 222.418 25.0671 222.145 24.8198C221.88 24.5724 221.469 24.4488 220.912 24.4488C220.532 24.4488 220.157 24.5106 219.786 24.6343C219.424 24.7491 219.115 24.9081 218.859 25.1113L218.117 23.667C218.505 23.3932 218.973 23.1812 219.521 23.031C220.069 22.8809 220.625 22.8058 221.191 22.8058C222.277 22.8058 223.121 23.0619 223.721 23.5743C224.322 24.0866 224.622 24.886 224.622 25.9725V30.0403H222.688ZM220.515 30.1463C219.958 30.1463 219.481 30.0535 219.084 29.868C218.686 29.6737 218.382 29.4131 218.17 29.0863C217.958 28.7594 217.852 28.3929 217.852 27.9865C217.852 27.5625 217.953 27.1915 218.156 26.8735C218.368 26.5555 218.7 26.3082 219.15 26.1315C219.601 25.946 220.188 25.8533 220.912 25.8533H222.807V27.059H221.138C220.652 27.059 220.316 27.1385 220.131 27.2975C219.954 27.4565 219.866 27.6553 219.866 27.8938C219.866 28.1588 219.967 28.3708 220.17 28.5298C220.382 28.6799 220.669 28.755 221.032 28.755C221.376 28.755 221.685 28.6755 221.959 28.5165C222.233 28.3487 222.432 28.1058 222.555 27.7878L222.873 28.7418C222.723 29.2011 222.449 29.55 222.052 29.7885C221.654 30.027 221.142 30.1463 220.515 30.1463ZM229.408 30.1463C228.569 30.1463 227.915 29.9343 227.447 29.5103C226.979 29.0774 226.745 28.437 226.745 27.589V21.335H228.812V27.5625C228.812 27.8629 228.891 28.0969 229.05 28.2648C229.209 28.4238 229.426 28.5033 229.7 28.5033C230.026 28.5033 230.305 28.4149 230.534 28.2383L231.091 29.6958C230.879 29.8459 230.623 29.9608 230.322 30.0403C230.031 30.1109 229.726 30.1463 229.408 30.1463ZM225.645 24.6608V23.0708H230.587V24.6608H225.645ZM236.624 30.0403V28.649L236.491 28.3443V25.8533C236.491 25.4116 236.354 25.0671 236.08 24.8198C235.815 24.5724 235.405 24.4488 234.848 24.4488C234.468 24.4488 234.093 24.5106 233.722 24.6343C233.36 24.7491 233.051 24.9081 232.794 25.1113L232.052 23.667C232.441 23.3932 232.909 23.1812 233.457 23.031C234.005 22.8809 234.561 22.8058 235.126 22.8058C236.213 22.8058 237.056 23.0619 237.657 23.5743C238.258 24.0866 238.558 24.886 238.558 25.9725V30.0403H236.624ZM234.451 30.1463C233.894 30.1463 233.417 30.0535 233.02 29.868C232.622 29.6737 232.317 29.4131 232.105 29.0863C231.893 28.7594 231.787 28.3929 231.787 27.9865C231.787 27.5625 231.889 27.1915 232.092 26.8735C232.304 26.5555 232.635 26.3082 233.086 26.1315C233.536 25.946 234.124 25.8533 234.848 25.8533H236.743V27.059H235.073C234.588 27.059 234.252 27.1385 234.066 27.2975C233.89 27.4565 233.801 27.6553 233.801 27.8938C233.801 28.1588 233.903 28.3708 234.106 28.5298C234.318 28.6799 234.605 28.755 234.967 28.755C235.312 28.755 235.621 28.6755 235.895 28.5165C236.169 28.3487 236.367 28.1058 236.491 27.7878L236.809 28.7418C236.659 29.2011 236.385 29.55 235.988 29.7885C235.59 30.027 235.078 30.1463 234.451 30.1463ZM248.766 30.1993C248.05 30.1993 247.383 30.0844 246.765 29.8548C246.156 29.6163 245.626 29.2806 245.175 28.8478C244.725 28.4149 244.371 27.907 244.115 27.324C243.868 26.741 243.744 26.1006 243.744 25.4028C243.744 24.7049 243.868 24.0645 244.115 23.4815C244.371 22.8985 244.725 22.3906 245.175 21.9578C245.634 21.5249 246.169 21.1937 246.778 20.964C247.388 20.7255 248.055 20.6063 248.779 20.6063C249.583 20.6063 250.307 20.7476 250.952 21.0303C251.606 21.3041 252.153 21.7104 252.595 22.2493L251.217 23.5213C250.899 23.1591 250.546 22.8897 250.157 22.713C249.768 22.5275 249.344 22.4348 248.885 22.4348C248.452 22.4348 248.055 22.5054 247.693 22.6468C247.33 22.7881 247.017 22.9913 246.752 23.2563C246.487 23.5213 246.279 23.8349 246.129 24.197C245.988 24.5592 245.917 24.9611 245.917 25.4028C245.917 25.8444 245.988 26.2464 246.129 26.6085C246.279 26.9707 246.487 27.2843 246.752 27.5493C247.017 27.8143 247.33 28.0174 247.693 28.1588C248.055 28.3001 248.452 28.3708 248.885 28.3708C249.344 28.3708 249.768 28.2824 250.157 28.1058C250.546 27.9203 250.899 27.642 251.217 27.271L252.595 28.543C252.153 29.0819 251.606 29.4926 250.952 29.7753C250.307 30.0579 249.578 30.1993 248.766 30.1993ZM257.045 30.1463C256.285 30.1463 255.61 29.9873 255.018 29.6693C254.435 29.3513 253.971 28.9184 253.626 28.3708C253.291 27.8143 253.123 27.1827 253.123 26.476C253.123 25.7605 253.291 25.1289 253.626 24.5813C253.971 24.0248 254.435 23.5919 255.018 23.2828C255.61 22.9648 256.285 22.8058 257.045 22.8058C257.796 22.8058 258.467 22.9648 259.059 23.2828C259.651 23.5919 260.115 24.0204 260.45 24.568C260.786 25.1157 260.954 25.7517 260.954 26.476C260.954 27.1827 260.786 27.8143 260.45 28.3708C260.115 28.9184 259.651 29.3513 259.059 29.6693C258.467 29.9873 257.796 30.1463 257.045 30.1463ZM257.045 28.4503C257.389 28.4503 257.699 28.3708 257.972 28.2118C258.246 28.0528 258.463 27.8275 258.622 27.536C258.781 27.2357 258.86 26.8824 258.86 26.476C258.86 26.0609 258.781 25.7075 258.622 25.416C258.463 25.1245 258.246 24.8993 257.972 24.7403C257.699 24.5813 257.389 24.5018 257.045 24.5018C256.7 24.5018 256.391 24.5813 256.117 24.7403C255.844 24.8993 255.623 25.1245 255.455 25.416C255.296 25.7075 255.216 26.0609 255.216 26.476C255.216 26.8824 255.296 27.2357 255.455 27.536C255.623 27.8275 255.844 28.0528 256.117 28.2118C256.391 28.3708 256.7 28.4503 257.045 28.4503ZM271.465 22.8058C272.03 22.8058 272.529 22.9206 272.962 23.1503C273.404 23.3711 273.748 23.7156 273.995 24.1838C274.252 24.6431 274.38 25.2349 274.38 25.9593V30.0403H272.313V26.2773C272.313 25.7031 272.193 25.2791 271.955 25.0053C271.716 24.7314 271.381 24.5945 270.948 24.5945C270.648 24.5945 270.378 24.6652 270.14 24.8065C269.901 24.939 269.716 25.1422 269.583 25.416C269.451 25.6899 269.384 26.0388 269.384 26.4628V30.0403H267.317V26.2773C267.317 25.7031 267.198 25.2791 266.96 25.0053C266.73 24.7314 266.399 24.5945 265.966 24.5945C265.666 24.5945 265.396 24.6652 265.158 24.8065C264.919 24.939 264.734 25.1422 264.601 25.416C264.469 25.6899 264.402 26.0388 264.402 26.4628V30.0403H262.335V22.9118H264.31V24.8595L263.939 24.2898C264.186 23.8039 264.535 23.4374 264.985 23.19C265.445 22.9339 265.966 22.8058 266.549 22.8058C267.203 22.8058 267.772 22.9736 268.258 23.3093C268.753 23.6361 269.08 24.1396 269.239 24.8198L268.51 24.621C268.748 24.0645 269.128 23.6229 269.649 23.296C270.179 22.9692 270.784 22.8058 271.465 22.8058ZM285.362 22.8058C285.927 22.8058 286.426 22.9206 286.859 23.1503C287.3 23.3711 287.645 23.7156 287.892 24.1838C288.148 24.6431 288.277 25.2349 288.277 25.9593V30.0403H286.21V26.2773C286.21 25.7031 286.09 25.2791 285.852 25.0053C285.613 24.7314 285.278 24.5945 284.845 24.5945C284.544 24.5945 284.275 24.6652 284.037 24.8065C283.798 24.939 283.613 25.1422 283.48 25.416C283.348 25.6899 283.281 26.0388 283.281 26.4628V30.0403H281.214V26.2773C281.214 25.7031 281.095 25.2791 280.857 25.0053C280.627 24.7314 280.296 24.5945 279.863 24.5945C279.562 24.5945 279.293 24.6652 279.055 24.8065C278.816 24.939 278.631 25.1422 278.498 25.416C278.366 25.6899 278.299 26.0388 278.299 26.4628V30.0403H276.232V22.9118H278.207V24.8595L277.836 24.2898C278.083 23.8039 278.432 23.4374 278.882 23.19C279.342 22.9339 279.863 22.8058 280.446 22.8058C281.099 22.8058 281.669 22.9736 282.155 23.3093C282.65 23.6361 282.977 24.1396 283.136 24.8198L282.407 24.621C282.645 24.0645 283.025 23.6229 283.546 23.296C284.076 22.9692 284.681 22.8058 285.362 22.8058ZM293.573 30.1463C292.813 30.1463 292.138 29.9873 291.546 29.6693C290.963 29.3513 290.499 28.9184 290.155 28.3708C289.819 27.8143 289.651 27.1827 289.651 26.476C289.651 25.7605 289.819 25.1289 290.155 24.5813C290.499 24.0248 290.963 23.5919 291.546 23.2828C292.138 22.9648 292.813 22.8058 293.573 22.8058C294.324 22.8058 294.995 22.9648 295.587 23.2828C296.179 23.5919 296.643 24.0204 296.978 24.568C297.314 25.1157 297.482 25.7517 297.482 26.476C297.482 27.1827 297.314 27.8143 296.978 28.3708C296.643 28.9184 296.179 29.3513 295.587 29.6693C294.995 29.9873 294.324 30.1463 293.573 30.1463ZM293.573 28.4503C293.918 28.4503 294.227 28.3708 294.501 28.2118C294.774 28.0528 294.991 27.8275 295.15 27.536C295.309 27.2357 295.388 26.8824 295.388 26.476C295.388 26.0609 295.309 25.7075 295.15 25.416C294.991 25.1245 294.774 24.8993 294.501 24.7403C294.227 24.5813 293.918 24.5018 293.573 24.5018C293.229 24.5018 292.919 24.5813 292.646 24.7403C292.372 24.8993 292.151 25.1245 291.983 25.416C291.824 25.7075 291.745 26.0609 291.745 26.476C291.745 26.8824 291.824 27.2357 291.983 27.536C292.151 27.8275 292.372 28.0528 292.646 28.2118C292.919 28.3708 293.229 28.4503 293.573 28.4503ZM303.196 22.8058C303.762 22.8058 304.265 22.9206 304.707 23.1503C305.157 23.3711 305.511 23.7156 305.767 24.1838C306.023 24.6431 306.151 25.2349 306.151 25.9593V30.0403H304.084V26.2773C304.084 25.7031 303.956 25.2791 303.7 25.0053C303.452 24.7314 303.099 24.5945 302.64 24.5945C302.313 24.5945 302.017 24.6652 301.752 24.8065C301.496 24.939 301.293 25.1466 301.142 25.4293C301.001 25.7119 300.93 26.0741 300.93 26.5158V30.0403H298.863V22.9118H300.838V24.886L300.467 24.2898C300.723 23.8128 301.089 23.4462 301.566 23.19C302.043 22.9339 302.587 22.8058 303.196 22.8058ZM310.423 30.1463C309.813 30.1463 309.226 30.0756 308.661 29.9343C308.104 29.7841 307.662 29.5986 307.336 29.3778L308.025 27.8938C308.351 28.0969 308.736 28.2648 309.177 28.3973C309.628 28.5209 310.069 28.5828 310.502 28.5828C310.979 28.5828 311.315 28.5254 311.509 28.4105C311.712 28.2957 311.814 28.1367 311.814 27.9335C311.814 27.7657 311.735 27.642 311.576 27.5625C311.425 27.4742 311.222 27.4079 310.966 27.3638C310.71 27.3196 310.427 27.2754 310.118 27.2313C309.818 27.1871 309.513 27.1297 309.204 27.059C308.895 26.9795 308.612 26.8647 308.356 26.7145C308.1 26.5644 307.892 26.3612 307.733 26.105C307.583 25.8489 307.508 25.5176 307.508 25.1113C307.508 24.6608 307.636 24.2633 307.892 23.9188C308.157 23.5743 308.537 23.3049 309.032 23.1105C309.526 22.9074 310.118 22.8058 310.807 22.8058C311.293 22.8058 311.788 22.8588 312.291 22.9648C312.795 23.0708 313.214 23.2254 313.55 23.4285L312.861 24.8993C312.516 24.6961 312.167 24.5592 311.814 24.4885C311.47 24.409 311.134 24.3693 310.807 24.3693C310.348 24.3693 310.012 24.4311 309.8 24.5548C309.588 24.6784 309.482 24.8374 309.482 25.0318C309.482 25.2084 309.557 25.3409 309.707 25.4293C309.866 25.5176 310.074 25.5883 310.33 25.6413C310.586 25.6943 310.864 25.7429 311.165 25.787C311.474 25.8224 311.783 25.8798 312.092 25.9593C312.401 26.0388 312.68 26.1536 312.927 26.3038C313.183 26.4451 313.391 26.6439 313.55 26.9C313.709 27.1474 313.788 27.4742 313.788 27.8805C313.788 28.3222 313.656 28.7153 313.391 29.0598C313.126 29.3954 312.742 29.6604 312.238 29.8548C311.743 30.0491 311.138 30.1463 310.423 30.1463ZM87.0998 46.0403V36.7653H91.3133C92.3203 36.7653 93.208 36.9596 93.9765 37.3483C94.745 37.7281 95.3457 38.2625 95.7785 38.9515C96.2113 39.6405 96.4278 40.4576 96.4278 41.4028C96.4278 42.3391 96.2113 43.1562 95.7785 43.854C95.3457 44.543 94.745 45.0819 93.9765 45.4705C93.208 45.8504 92.3203 46.0403 91.3133 46.0403H87.0998ZM89.2463 44.278H91.2073C91.8256 44.278 92.36 44.1632 92.8105 43.9335C93.2698 43.695 93.6232 43.3594 93.8705 42.9265C94.1267 42.4937 94.2548 41.9858 94.2548 41.4028C94.2548 40.8109 94.1267 40.303 93.8705 39.879C93.6232 39.4462 93.2698 39.1149 92.8105 38.8853C92.36 38.6468 91.8256 38.5275 91.2073 38.5275H89.2463V44.278ZM102.273 46.0403V44.649L102.141 44.3443V41.8533C102.141 41.4116 102.004 41.0671 101.73 40.8198C101.465 40.5724 101.054 40.4488 100.498 40.4488C100.118 40.4488 99.7425 40.5106 99.3715 40.6343C99.0094 40.7491 98.7002 40.9081 98.444 41.1113L97.702 39.667C98.0907 39.3932 98.5589 39.1812 99.1065 39.031C99.6542 38.8809 100.211 38.8058 100.776 38.8058C101.863 38.8058 102.706 39.0619 103.307 39.5743C103.907 40.0866 104.208 40.886 104.208 41.9725V46.0403H102.273ZM100.1 46.1463C99.5438 46.1463 99.0668 46.0535 98.6693 45.868C98.2718 45.6737 97.967 45.4131 97.755 45.0863C97.543 44.7594 97.437 44.3929 97.437 43.9865C97.437 43.5625 97.5386 43.1915 97.7418 42.8735C97.9538 42.5555 98.285 42.3082 98.7355 42.1315C99.186 41.946 99.7734 41.8533 100.498 41.8533H102.393V43.059H100.723C100.237 43.059 99.9015 43.1385 99.716 43.2975C99.5394 43.4565 99.451 43.6553 99.451 43.8938C99.451 44.1588 99.5526 44.3708 99.7558 44.5298C99.9678 44.6799 100.255 44.755 100.617 44.755C100.962 44.755 101.271 44.6755 101.545 44.5165C101.818 44.3487 102.017 44.1058 102.141 43.7878L102.459 44.7418C102.309 45.2011 102.035 45.55 101.637 45.7885C101.24 46.027 100.727 46.1463 100.1 46.1463ZM108.994 46.1463C108.154 46.1463 107.501 45.9343 107.033 45.5103C106.564 45.0774 106.33 44.437 106.33 43.589V37.335H108.397V43.5625C108.397 43.8629 108.477 44.0969 108.636 44.2648C108.795 44.4238 109.011 44.5033 109.285 44.5033C109.612 44.5033 109.89 44.4149 110.12 44.2383L110.676 45.6958C110.464 45.8459 110.208 45.9608 109.908 46.0403C109.616 46.1109 109.312 46.1463 108.994 46.1463ZM105.231 40.6608V39.0708H110.173V40.6608H105.231ZM116.209 46.0403V44.649L116.077 44.3443V41.8533C116.077 41.4116 115.94 41.0671 115.666 40.8198C115.401 40.5724 114.99 40.4488 114.434 40.4488C114.054 40.4488 113.678 40.5106 113.307 40.6343C112.945 40.7491 112.636 40.9081 112.38 41.1113L111.638 39.667C112.026 39.3932 112.495 39.1812 113.042 39.031C113.59 38.8809 114.146 38.8058 114.712 38.8058C115.798 38.8058 116.642 39.0619 117.243 39.5743C117.843 40.0866 118.144 40.886 118.144 41.9725V46.0403H116.209ZM114.036 46.1463C113.48 46.1463 113.003 46.0535 112.605 45.868C112.208 45.6737 111.903 45.4131 111.691 45.0863C111.479 44.7594 111.373 44.3929 111.373 43.9865C111.373 43.5625 111.474 43.1915 111.678 42.8735C111.89 42.5555 112.221 42.3082 112.671 42.1315C113.122 41.946 113.709 41.8533 114.434 41.8533H116.328V43.059H114.659C114.173 43.059 113.837 43.1385 113.652 43.2975C113.475 43.4565 113.387 43.6553 113.387 43.8938C113.387 44.1588 113.488 44.3708 113.692 44.5298C113.904 44.6799 114.191 44.755 114.553 44.755C114.897 44.755 115.206 44.6755 115.48 44.5165C115.754 44.3487 115.953 44.1058 116.077 43.7878L116.395 44.7418C116.244 45.2011 115.971 45.55 115.573 45.7885C115.176 46.027 114.663 46.1463 114.036 46.1463ZM130.272 36.7653H132.419V46.0403H130.272V36.7653ZM126.059 46.0403H123.912V36.7653H126.059V46.0403ZM130.431 42.2375H125.9V40.4223H130.431V42.2375ZM137.475 46.1463C136.884 46.1463 136.354 46.0314 135.885 45.8018C135.426 45.5721 135.068 45.2232 134.812 44.755C134.556 44.278 134.428 43.6729 134.428 42.9398V38.9118H136.495V42.635C136.495 43.2269 136.619 43.6641 136.866 43.9468C137.122 44.2206 137.48 44.3575 137.939 44.3575C138.257 44.3575 138.54 44.2913 138.787 44.1588C139.035 44.0174 139.229 43.8054 139.37 43.5228C139.512 43.2313 139.582 42.8691 139.582 42.4363V38.9118H141.649V46.0403H139.688V44.0793L140.046 44.649C139.807 45.1437 139.454 45.5191 138.986 45.7753C138.527 46.0226 138.023 46.1463 137.475 46.1463ZM147.778 46.1463C147.15 46.1463 146.612 46.0138 146.161 45.7488C145.711 45.4838 145.366 45.0819 145.128 44.543C144.889 43.9954 144.77 43.3064 144.77 42.476C144.77 41.6369 144.894 40.9479 145.141 40.409C145.397 39.8702 145.75 39.4683 146.201 39.2033C146.651 38.9383 147.177 38.8058 147.778 38.8058C148.449 38.8058 149.05 38.9559 149.58 39.2563C150.118 39.5566 150.542 39.9806 150.852 40.5283C151.17 41.0759 151.329 41.7252 151.329 42.476C151.329 43.218 151.17 43.8629 150.852 44.4105C150.542 44.9582 150.118 45.3866 149.58 45.6958C149.05 45.9961 148.449 46.1463 147.778 46.1463ZM143.564 46.0403V36.2088H145.631V40.356L145.499 42.4628L145.538 44.5828V46.0403H143.564ZM147.42 44.4503C147.764 44.4503 148.069 44.3708 148.334 44.2118C148.608 44.0528 148.824 43.8275 148.983 43.536C149.151 43.2357 149.235 42.8824 149.235 42.476C149.235 42.0609 149.151 41.7075 148.983 41.416C148.824 41.1245 148.608 40.8993 148.334 40.7403C148.069 40.5813 147.764 40.5018 147.42 40.5018C147.075 40.5018 146.766 40.5813 146.492 40.7403C146.219 40.8993 146.002 41.1245 145.843 41.416C145.684 41.7075 145.605 42.0609 145.605 42.476C145.605 42.8824 145.684 43.2357 145.843 43.536C146.002 43.8275 146.219 44.0528 146.492 44.2118C146.766 44.3708 147.075 44.4503 147.42 44.4503Z" fill="#606061"/>
</svg>
