<svg width="345" height="47" viewBox="0 0 345 47" fill="none" xmlns="http://www.w3.org/2000/svg">
<path d="M63.3518 2.4624C62.3405 1.01134 60.7465 0 59.0096 0H55.1072L68.2656 23.2829L55.1072 46.5657H59.0096C60.8894 46.5657 62.4834 45.5544 63.3518 44.1033L74.9273 23.2719L63.3518 2.44041V2.4624Z" fill="#BA1F40"/>
<path d="M64.6489 23.2938L51.7763 0.0109253H5.05671C2.16559 0.0109253 0 2.31942 0 5.06764V41.6628C0 44.411 2.16559 46.7305 5.0677 46.7305H51.7873L64.6599 23.2938H64.6489Z" fill="#606061"/>
<path d="M31.0987 13.0266H27.625V33.7152H31.0987V13.0266Z" fill="white"/>
<path d="M20.6771 13.0267V28.065L11.1353 13.0267H7.80444V33.7153H11.1353V18.5232L20.6771 33.7153H24.1508V13.0267H20.6771Z" fill="white"/>
<path d="M47.4337 13.0267V21.5572H37.892V13.0267H34.4182V33.7153H37.892V25.0309H47.4337V33.7153H50.9075V13.0267H47.4337Z" fill="white"/>
<path d="M93.2628 4.05725H95.3954V13.61H93.2628L88.7117 7.61893V13.61H86.5791V4.05725H88.5798L93.2628 10.2023V4.05725Z" fill="#BB0E3D"/>
<path d="M104.553 13.61L103.662 11.5434H99.6608L98.7704 13.61H96.5059L100.639 4.05725H102.706L106.839 13.61H104.575H104.553ZM101.672 6.89341L100.474 9.6636H102.871L101.683 6.89341H101.672Z" fill="#BB0E3D"/>
<path d="M111.28 5.90405V13.61H109.148V5.90405H106.443V4.05725H113.984V5.90405H111.28Z" fill="#BB0E3D"/>
<path d="M115.545 4.05725H117.678V13.61H115.545V4.05725Z" fill="#BB0E3D"/>
<path d="M128.066 12.2909C127.099 13.2363 125.912 13.709 124.493 13.709C123.075 13.709 121.888 13.2363 120.921 12.2909C119.953 11.3455 119.47 10.1693 119.47 8.77319C119.47 7.3771 119.953 6.20086 120.921 5.25548C121.888 4.31009 123.075 3.8374 124.493 3.8374C125.912 3.8374 127.099 4.31009 128.066 5.25548C129.034 6.20086 129.517 7.3771 129.517 8.77319C129.517 10.1693 129.034 11.3455 128.066 12.2909ZM127.341 8.77319C127.341 7.92674 127.066 7.19022 126.516 6.59661C125.967 5.992 125.296 5.69519 124.504 5.69519C123.713 5.69519 123.031 5.992 122.493 6.59661C121.954 7.20121 121.668 7.92674 121.668 8.77319C121.668 9.61964 121.943 10.3452 122.493 10.9498C123.042 11.5434 123.713 11.8402 124.504 11.8402C125.296 11.8402 125.977 11.5434 126.516 10.9498C127.066 10.3562 127.341 9.63063 127.341 8.77319Z" fill="#BB0E3D"/>
<path d="M138.003 4.05725H140.136V13.61H138.003L133.452 7.61893V13.61H131.32V4.05725H133.321L138.003 10.2023V4.05725Z" fill="#BB0E3D"/>
<path d="M149.294 13.61L148.403 11.5434H144.402L143.512 13.61H141.247L145.38 4.05725H147.447L151.58 13.61H149.316H149.294ZM146.414 6.89341L145.215 9.6636H147.612L146.425 6.89341H146.414Z" fill="#BB0E3D"/>
<path d="M152.668 13.61V4.05725H154.801V11.7083H158.879V13.61H152.668Z" fill="#BB0E3D"/>
<path d="M168.42 11.7304C169.465 11.7304 170.322 11.3127 170.993 10.4882L172.356 11.8953C171.268 13.1155 169.992 13.7311 168.519 13.7311C167.046 13.7311 165.837 13.2694 164.881 12.335C163.924 11.4006 163.452 10.2354 163.452 8.81728C163.452 7.3992 163.935 6.22297 164.903 5.26659C165.87 4.3212 167.057 3.84851 168.464 3.84851C170.036 3.84851 171.345 4.44212 172.4 5.64035L171.07 7.14637C170.399 6.31091 169.553 5.89318 168.552 5.89318C167.75 5.89318 167.068 6.15701 166.497 6.67367C165.925 7.20133 165.639 7.90487 165.639 8.79529C165.639 9.68571 165.903 10.4002 166.442 10.9389C166.98 11.4775 167.629 11.7414 168.398 11.7414L168.42 11.7304Z" fill="#BB0E3D"/>
<path d="M180.777 13.61L179.886 11.5434H175.885L174.995 13.61H172.73L176.863 4.05725H178.93L183.063 13.61H180.799H180.777ZM177.897 6.89341L176.698 9.6636H179.095L177.908 6.89341H177.897Z" fill="#BB0E3D"/>
<path d="M190.846 4.05725H192.978V13.61H190.846L186.295 7.61893V13.61H184.162V4.05725H186.163L190.846 10.2023V4.05725Z" fill="#BB0E3D"/>
<path d="M199.706 11.7304C200.75 11.7304 201.608 11.3127 202.278 10.4882L203.642 11.8953C202.553 13.1155 201.278 13.7311 199.805 13.7311C198.332 13.7311 197.123 13.2694 196.166 12.335C195.21 11.4006 194.737 10.2354 194.737 8.81728C194.737 7.3992 195.221 6.22297 196.188 5.26659C197.156 4.3212 198.343 3.84851 199.75 3.84851C201.322 3.84851 202.63 4.44212 203.685 5.64035L202.355 7.14637C201.685 6.31091 200.838 5.89318 199.838 5.89318C199.036 5.89318 198.354 6.15701 197.782 6.67367C197.211 7.20133 196.925 7.90487 196.925 8.79529C196.925 9.68571 197.189 10.4002 197.727 10.9389C198.266 11.4775 198.915 11.7414 199.684 11.7414L199.706 11.7304Z" fill="#BB0E3D"/>
<path d="M212.216 4.05725V5.95901H207.456V7.92673H211.732V9.74055H207.456V11.7193H212.359V13.61H205.323V4.05725H212.216Z" fill="#BB0E3D"/>
<path d="M222.022 7.23418C222.022 8.76218 221.417 9.75154 220.208 10.2022L222.627 13.621H219.999L217.878 10.576H216.405V13.621H214.272V4.06824H217.9C219.384 4.06824 220.45 4.32107 221.077 4.81575C221.703 5.31043 222.022 6.1239 222.022 7.23418ZM219.45 8.36644C219.713 8.1246 219.845 7.75084 219.845 7.23418C219.845 6.71751 219.713 6.36574 219.439 6.17886C219.164 5.99199 218.691 5.89305 217.999 5.89305H216.405V8.71821H217.966C218.691 8.71821 219.186 8.59729 219.461 8.36644H219.45Z" fill="#BB0E3D"/>
<path d="M227.816 4.05725H229.948V13.61H227.816V4.05725Z" fill="#BB0E3D"/>
<path d="M238.983 4.05725H241.116V13.61H238.983L234.432 7.61893V13.61H232.3V4.05725H234.301L238.983 10.2023V4.05725Z" fill="#BB0E3D"/>
<path d="M245.7 5.97001C245.492 6.13491 245.393 6.36576 245.393 6.64058C245.393 6.9154 245.514 7.13526 245.766 7.30015C246.019 7.46504 246.591 7.65192 247.503 7.88277C248.416 8.11362 249.119 8.44341 249.614 8.88312C250.12 9.33383 250.361 9.9824 250.361 10.8398C250.361 11.6973 250.043 12.3898 249.394 12.9285C248.745 13.4671 247.91 13.731 246.855 13.731C245.338 13.731 243.975 13.1703 242.765 12.0491L244.041 10.4881C245.074 11.3895 246.019 11.8402 246.899 11.8402C247.294 11.8402 247.602 11.7523 247.822 11.5874C248.042 11.4225 248.163 11.1916 248.163 10.9058C248.163 10.62 248.042 10.3891 247.811 10.2242C247.58 10.0594 247.108 9.88347 246.404 9.70758C245.294 9.44375 244.48 9.10298 243.964 8.67425C243.447 8.24553 243.194 7.58596 243.194 6.67356C243.194 5.76115 243.524 5.0686 244.172 4.57392C244.821 4.07925 245.635 3.8374 246.613 3.8374C247.25 3.8374 247.888 3.94733 248.526 4.16719C249.163 4.38704 249.724 4.69484 250.197 5.10158L249.119 6.66256C248.295 6.03597 247.437 5.71718 246.547 5.71718C246.195 5.71718 245.909 5.80512 245.711 5.97001H245.7Z" fill="#BB0E3D"/>
<path d="M256.143 5.90405V13.61H254.011V5.90405H251.306V4.05725H258.847V5.90405H256.143Z" fill="#BB0E3D"/>
<path d="M260.409 4.05725H262.542V13.61H260.409V4.05725Z" fill="#BB0E3D"/>
<path d="M268.939 5.90405V13.61H266.807V5.90405H264.103V4.05725H271.644V5.90405H268.939Z" fill="#BB0E3D"/>
<path d="M275.733 11.1476C276.085 11.5874 276.568 11.8072 277.173 11.8072C277.778 11.8072 278.25 11.5874 278.602 11.1476C278.954 10.7079 279.13 10.1033 279.13 9.33383V4.05726H281.262V9.39978C281.262 10.7849 280.878 11.8512 280.119 12.5877C279.35 13.3352 278.371 13.698 277.184 13.698C275.997 13.698 275.007 13.3242 274.238 12.5767C273.468 11.8292 273.084 10.7629 273.084 9.38879V4.04626H275.216V9.32283C275.216 10.0923 275.392 10.6859 275.744 11.1367L275.733 11.1476Z" fill="#BB0E3D"/>
<path d="M287.517 5.90405V13.61H285.384V5.90405H282.68V4.05725H290.221V5.90405H287.517Z" fill="#BB0E3D"/>
<path d="M298.675 4.05725V5.95901H293.915V7.92673H298.191V9.74055H293.915V11.7193H298.818V13.61H291.782V4.05725H298.675Z" fill="#BB0E3D"/>
<path d="M91.5385 29.6993C90.823 29.6993 90.1561 29.5844 89.5378 29.3548C88.9283 29.1163 88.3983 28.7806 87.9477 28.3478C87.4973 27.9149 87.1439 27.407 86.8878 26.824C86.6404 26.241 86.5168 25.6006 86.5168 24.9028C86.5168 24.2049 86.6404 23.5645 86.8878 22.9815C87.1439 22.3985 87.4973 21.8906 87.9477 21.4578C88.4071 21.0249 88.9415 20.6937 89.551 20.464C90.1605 20.2255 90.8274 20.1063 91.5518 20.1063C92.3556 20.1063 93.0799 20.2476 93.7248 20.5303C94.3784 20.8041 94.9261 21.2104 95.3678 21.7493L93.9898 23.0213C93.6718 22.6591 93.3184 22.3897 92.9298 22.213C92.5411 22.0275 92.1171 21.9348 91.6578 21.9348C91.2249 21.9348 90.8274 22.0054 90.4653 22.1468C90.1031 22.2881 89.7895 22.4913 89.5245 22.7563C89.2595 23.0213 89.0519 23.3349 88.9018 23.697C88.7604 24.0592 88.6898 24.4611 88.6898 24.9028C88.6898 25.3444 88.7604 25.7464 88.9018 26.1085C89.0519 26.4707 89.2595 26.7843 89.5245 27.0493C89.7895 27.3143 90.1031 27.5174 90.4653 27.6588C90.8274 27.8001 91.2249 27.8708 91.6578 27.8708C92.1171 27.8708 92.5411 27.7824 92.9298 27.6058C93.3184 27.4203 93.6718 27.142 93.9898 26.771L95.3678 28.043C94.9261 28.5819 94.3784 28.9926 93.7248 29.2753C93.0799 29.5579 92.3512 29.6993 91.5385 29.6993ZM101.005 29.5403V28.149L100.873 27.8443V25.3533C100.873 24.9116 100.736 24.5671 100.462 24.3198C100.197 24.0724 99.7862 23.9488 99.2297 23.9488C98.8499 23.9488 98.4745 24.0106 98.1035 24.1343C97.7413 24.2491 97.4321 24.4081 97.176 24.6113L96.434 23.167C96.8226 22.8932 97.2908 22.6812 97.8385 22.531C98.3861 22.3809 98.9426 22.3058 99.508 22.3058C100.594 22.3058 101.438 22.5619 102.039 23.0743C102.639 23.5866 102.94 24.386 102.94 25.4725V29.5403H101.005ZM98.8322 29.6463C98.2757 29.6463 97.7987 29.5535 97.4012 29.368C97.0037 29.1737 96.699 28.9131 96.487 28.5863C96.275 28.2594 96.169 27.8929 96.169 27.4865C96.169 27.0625 96.2705 26.6915 96.4737 26.3735C96.6857 26.0555 97.017 25.8082 97.4675 25.6315C97.918 25.446 98.5054 25.3533 99.2297 25.3533H101.124V26.559H99.455C98.9691 26.559 98.6335 26.6385 98.448 26.7975C98.2713 26.9565 98.183 27.1553 98.183 27.3938C98.183 27.6588 98.2845 27.8708 98.4877 28.0298C98.6997 28.1799 98.9868 28.255 99.349 28.255C99.6935 28.255 100.003 28.1755 100.276 28.0165C100.55 27.8487 100.749 27.6058 100.873 27.2878L101.191 28.2418C101.041 28.7011 100.767 29.05 100.369 29.2885C99.9717 29.527 99.4594 29.6463 98.8322 29.6463ZM109.143 22.3058C109.709 22.3058 110.212 22.4206 110.654 22.6503C111.104 22.8711 111.458 23.2156 111.714 23.6838C111.97 24.1431 112.098 24.7349 112.098 25.4593V29.5403H110.031V25.7773C110.031 25.2031 109.903 24.7791 109.647 24.5053C109.399 24.2314 109.046 24.0945 108.587 24.0945C108.26 24.0945 107.964 24.1652 107.699 24.3065C107.443 24.439 107.24 24.6466 107.089 24.9293C106.948 25.2119 106.877 25.5741 106.877 26.0158V29.5403H104.81V22.4118H106.785V24.386L106.414 23.7898C106.67 23.3128 107.036 22.9462 107.513 22.69C107.99 22.4339 108.534 22.3058 109.143 22.3058ZM117.468 29.6463C116.7 29.6463 116.015 29.4917 115.415 29.1825C114.814 28.8645 114.341 28.4273 113.997 27.8708C113.661 27.3143 113.493 26.6827 113.493 25.976C113.493 25.2605 113.661 24.6289 113.997 24.0813C114.341 23.5248 114.814 23.0919 115.415 22.7828C116.015 22.4648 116.7 22.3058 117.468 22.3058C118.219 22.3058 118.873 22.4648 119.429 22.7828C119.986 23.0919 120.397 23.538 120.662 24.121L119.058 24.9823C118.873 24.6466 118.639 24.3993 118.356 24.2403C118.082 24.0813 117.782 24.0018 117.455 24.0018C117.102 24.0018 116.784 24.0813 116.501 24.2403C116.218 24.3993 115.993 24.6245 115.825 24.916C115.666 25.2075 115.587 25.5609 115.587 25.976C115.587 26.3912 115.666 26.7445 115.825 27.036C115.993 27.3275 116.218 27.5528 116.501 27.7118C116.784 27.8708 117.102 27.9503 117.455 27.9503C117.782 27.9503 118.082 27.8752 118.356 27.725C118.639 27.566 118.873 27.3143 119.058 26.9698L120.662 27.8443C120.397 28.4184 119.986 28.8645 119.429 29.1825C118.873 29.4917 118.219 29.6463 117.468 29.6463ZM125.299 29.6463C124.486 29.6463 123.771 29.4873 123.152 29.1693C122.543 28.8513 122.07 28.4184 121.735 27.8708C121.399 27.3143 121.231 26.6827 121.231 25.976C121.231 25.2605 121.395 24.6289 121.721 24.0813C122.057 23.5248 122.512 23.0919 123.086 22.7828C123.66 22.4648 124.31 22.3058 125.034 22.3058C125.732 22.3058 126.359 22.4559 126.915 22.7563C127.481 23.0478 127.927 23.4718 128.254 24.0283C128.58 24.5759 128.744 25.234 128.744 26.0025C128.744 26.082 128.739 26.1748 128.731 26.2808C128.722 26.3779 128.713 26.4707 128.704 26.559H122.914V25.3533H127.618L126.823 25.711C126.823 25.34 126.748 25.0176 126.597 24.7438C126.447 24.4699 126.24 24.2579 125.975 24.1078C125.71 23.9488 125.4 23.8693 125.047 23.8693C124.694 23.8693 124.38 23.9488 124.106 24.1078C123.841 24.2579 123.634 24.4744 123.484 24.757C123.333 25.0309 123.258 25.3577 123.258 25.7375V26.0555C123.258 26.4442 123.342 26.7887 123.51 27.089C123.687 27.3805 123.93 27.6058 124.239 27.7648C124.557 27.9149 124.928 27.99 125.352 27.99C125.732 27.99 126.063 27.9326 126.346 27.8178C126.637 27.7029 126.902 27.5307 127.141 27.301L128.24 28.4935C127.914 28.8645 127.503 29.1516 127.008 29.3548C126.513 29.5491 125.944 29.6463 125.299 29.6463ZM130.12 29.5403V22.4118H132.094V24.4258L131.816 23.8428C132.028 23.3393 132.368 22.9594 132.836 22.7033C133.304 22.4383 133.874 22.3058 134.546 22.3058V24.2138C134.457 24.2049 134.378 24.2005 134.307 24.2005C134.236 24.1917 134.161 24.1873 134.082 24.1873C133.516 24.1873 133.057 24.3507 132.704 24.6775C132.359 24.9955 132.187 25.4946 132.187 26.1748V29.5403H130.12ZM139.725 29.5403V20.2653H143.739C144.57 20.2653 145.285 20.4022 145.886 20.676C146.486 20.941 146.95 21.3253 147.277 21.8288C147.604 22.3323 147.767 22.9329 147.767 23.6308C147.767 24.3198 147.604 24.916 147.277 25.4195C146.95 25.9142 146.486 26.294 145.886 26.559C145.285 26.824 144.57 26.9565 143.739 26.9565H140.917L141.871 26.0158V29.5403H139.725ZM145.621 29.5403L143.302 26.1748H145.594L147.94 29.5403H145.621ZM141.871 26.2543L140.917 25.2473H143.62C144.283 25.2473 144.777 25.1059 145.104 24.8233C145.431 24.5318 145.594 24.1343 145.594 23.6308C145.594 23.1184 145.431 22.7209 145.104 22.4383C144.777 22.1556 144.283 22.0143 143.62 22.0143H140.917L141.871 20.994V26.2543ZM152.86 29.6463C152.047 29.6463 151.332 29.4873 150.713 29.1693C150.104 28.8513 149.631 28.4184 149.296 27.8708C148.96 27.3143 148.792 26.6827 148.792 25.976C148.792 25.2605 148.956 24.6289 149.282 24.0813C149.618 23.5248 150.073 23.0919 150.647 22.7828C151.221 22.4648 151.871 22.3058 152.595 22.3058C153.293 22.3058 153.92 22.4559 154.476 22.7563C155.042 23.0478 155.488 23.4718 155.815 24.0283C156.141 24.5759 156.305 25.234 156.305 26.0025C156.305 26.082 156.3 26.1748 156.292 26.2808C156.283 26.3779 156.274 26.4707 156.265 26.559H150.475V25.3533H155.179L154.384 25.711C154.384 25.34 154.309 25.0176 154.158 24.7438C154.008 24.4699 153.801 24.2579 153.536 24.1078C153.271 23.9488 152.961 23.8693 152.608 23.8693C152.255 23.8693 151.941 23.9488 151.667 24.1078C151.402 24.2579 151.195 24.4744 151.045 24.757C150.894 25.0309 150.819 25.3577 150.819 25.7375V26.0555C150.819 26.4442 150.903 26.7887 151.071 27.089C151.248 27.3805 151.491 27.6058 151.8 27.7648C152.118 27.9149 152.489 27.99 152.913 27.99C153.293 27.99 153.624 27.9326 153.907 27.8178C154.198 27.7029 154.463 27.5307 154.702 27.301L155.801 28.4935C155.475 28.8645 155.064 29.1516 154.569 29.3548C154.074 29.5491 153.505 29.6463 152.86 29.6463ZM160.079 29.6463C159.47 29.6463 158.882 29.5756 158.317 29.4343C157.761 29.2841 157.319 29.0986 156.992 28.8778L157.681 27.3938C158.008 27.5969 158.392 27.7648 158.834 27.8973C159.284 28.0209 159.726 28.0828 160.159 28.0828C160.636 28.0828 160.971 28.0254 161.166 27.9105C161.369 27.7957 161.471 27.6367 161.471 27.4335C161.471 27.2657 161.391 27.142 161.232 27.0625C161.082 26.9742 160.879 26.9079 160.623 26.8638C160.366 26.8196 160.084 26.7754 159.775 26.7313C159.474 26.6871 159.169 26.6297 158.86 26.559C158.551 26.4795 158.268 26.3647 158.012 26.2145C157.756 26.0644 157.549 25.8612 157.39 25.605C157.239 25.3489 157.164 25.0176 157.164 24.6113C157.164 24.1608 157.292 23.7633 157.549 23.4188C157.814 23.0743 158.193 22.8049 158.688 22.6105C159.183 22.4074 159.775 22.3058 160.464 22.3058C160.949 22.3058 161.444 22.3588 161.948 22.4648C162.451 22.5708 162.871 22.7254 163.206 22.9285L162.517 24.3993C162.173 24.1961 161.824 24.0592 161.471 23.9885C161.126 23.909 160.79 23.8693 160.464 23.8693C160.004 23.8693 159.669 23.9311 159.457 24.0548C159.245 24.1784 159.139 24.3374 159.139 24.5318C159.139 24.7084 159.214 24.8409 159.364 24.9293C159.523 25.0176 159.73 25.0883 159.987 25.1413C160.243 25.1943 160.521 25.2429 160.821 25.287C161.13 25.3224 161.44 25.3798 161.749 25.4593C162.058 25.5388 162.336 25.6536 162.584 25.8038C162.84 25.9451 163.047 26.1439 163.206 26.4C163.365 26.6474 163.445 26.9742 163.445 27.3805C163.445 27.8222 163.312 28.2153 163.047 28.5598C162.782 28.8954 162.398 29.1604 161.895 29.3548C161.4 29.5491 160.795 29.6463 160.079 29.6463ZM168.258 29.6463C167.445 29.6463 166.73 29.4873 166.111 29.1693C165.502 28.8513 165.029 28.4184 164.694 27.8708C164.358 27.3143 164.19 26.6827 164.19 25.976C164.19 25.2605 164.354 24.6289 164.68 24.0813C165.016 23.5248 165.471 23.0919 166.045 22.7828C166.619 22.4648 167.269 22.3058 167.993 22.3058C168.691 22.3058 169.318 22.4559 169.874 22.7563C170.44 23.0478 170.886 23.4718 171.213 24.0283C171.539 24.5759 171.703 25.234 171.703 26.0025C171.703 26.082 171.698 26.1748 171.69 26.2808C171.681 26.3779 171.672 26.4707 171.663 26.559H165.873V25.3533H170.577L169.782 25.711C169.782 25.34 169.707 25.0176 169.556 24.7438C169.406 24.4699 169.199 24.2579 168.934 24.1078C168.669 23.9488 168.359 23.8693 168.006 23.8693C167.653 23.8693 167.339 23.9488 167.065 24.1078C166.8 24.2579 166.593 24.4744 166.443 24.757C166.292 25.0309 166.217 25.3577 166.217 25.7375V26.0555C166.217 26.4442 166.301 26.7887 166.469 27.089C166.646 27.3805 166.889 27.6058 167.198 27.7648C167.516 27.9149 167.887 27.99 168.311 27.99C168.691 27.99 169.022 27.9326 169.305 27.8178C169.596 27.7029 169.861 27.5307 170.1 27.301L171.199 28.4935C170.873 28.8645 170.462 29.1516 169.967 29.3548C169.472 29.5491 168.903 29.6463 168.258 29.6463ZM177.257 29.5403V28.149L177.125 27.8443V25.3533C177.125 24.9116 176.988 24.5671 176.714 24.3198C176.449 24.0724 176.038 23.9488 175.482 23.9488C175.102 23.9488 174.727 24.0106 174.356 24.1343C173.993 24.2491 173.684 24.4081 173.428 24.6113L172.686 23.167C173.075 22.8932 173.543 22.6812 174.091 22.531C174.638 22.3809 175.195 22.3058 175.76 22.3058C176.847 22.3058 177.69 22.5619 178.291 23.0743C178.892 23.5866 179.192 24.386 179.192 25.4725V29.5403H177.257ZM175.084 29.6463C174.528 29.6463 174.051 29.5535 173.653 29.368C173.256 29.1737 172.951 28.9131 172.739 28.5863C172.527 28.2594 172.421 27.8929 172.421 27.4865C172.421 27.0625 172.523 26.6915 172.726 26.3735C172.938 26.0555 173.269 25.8082 173.72 25.6315C174.17 25.446 174.758 25.3533 175.482 25.3533H177.377V26.559H175.707C175.221 26.559 174.886 26.6385 174.7 26.7975C174.523 26.9565 174.435 27.1553 174.435 27.3938C174.435 27.6588 174.537 27.8708 174.74 28.0298C174.952 28.1799 175.239 28.255 175.601 28.255C175.946 28.255 176.255 28.1755 176.529 28.0165C176.802 27.8487 177.001 27.6058 177.125 27.2878L177.443 28.2418C177.293 28.7011 177.019 29.05 176.621 29.2885C176.224 29.527 175.712 29.6463 175.084 29.6463ZM181.063 29.5403V22.4118H183.037V24.4258L182.759 23.8428C182.971 23.3393 183.311 22.9594 183.779 22.7033C184.247 22.4383 184.817 22.3058 185.488 22.3058V24.2138C185.4 24.2049 185.32 24.2005 185.25 24.2005C185.179 24.1917 185.104 24.1873 185.024 24.1873C184.459 24.1873 184 24.3507 183.646 24.6775C183.302 24.9955 183.13 25.4946 183.13 26.1748V29.5403H181.063ZM190.11 29.6463C189.342 29.6463 188.657 29.4917 188.057 29.1825C187.456 28.8645 186.983 28.4273 186.639 27.8708C186.303 27.3143 186.135 26.6827 186.135 25.976C186.135 25.2605 186.303 24.6289 186.639 24.0813C186.983 23.5248 187.456 23.0919 188.057 22.7828C188.657 22.4648 189.342 22.3058 190.11 22.3058C190.861 22.3058 191.515 22.4648 192.071 22.7828C192.628 23.0919 193.039 23.538 193.304 24.121L191.7 24.9823C191.515 24.6466 191.281 24.3993 190.998 24.2403C190.724 24.0813 190.424 24.0018 190.097 24.0018C189.744 24.0018 189.426 24.0813 189.143 24.2403C188.861 24.3993 188.635 24.6245 188.467 24.916C188.308 25.2075 188.229 25.5609 188.229 25.976C188.229 26.3912 188.308 26.7445 188.467 27.036C188.635 27.3275 188.861 27.5528 189.143 27.7118C189.426 27.8708 189.744 27.9503 190.097 27.9503C190.424 27.9503 190.724 27.8752 190.998 27.725C191.281 27.566 191.515 27.3143 191.7 26.9698L193.304 27.8443C193.039 28.4184 192.628 28.8645 192.071 29.1825C191.515 29.4917 190.861 29.6463 190.11 29.6463ZM198.788 22.3058C199.353 22.3058 199.857 22.4206 200.298 22.6503C200.749 22.8711 201.102 23.2156 201.358 23.6838C201.614 24.1431 201.742 24.7349 201.742 25.4593V29.5403H199.675V25.7773C199.675 25.2031 199.547 24.7791 199.291 24.5053C199.044 24.2314 198.691 24.0945 198.231 24.0945C197.904 24.0945 197.608 24.1652 197.343 24.3065C197.087 24.439 196.884 24.6466 196.734 24.9293C196.593 25.2119 196.522 25.5741 196.522 26.0158V29.5403H194.455V19.7088H196.522V24.386L196.058 23.7898C196.314 23.3128 196.681 22.9462 197.158 22.69C197.635 22.4339 198.178 22.3058 198.788 22.3058ZM207.514 29.5403V20.2653H211.728C212.735 20.2653 213.623 20.4596 214.391 20.8483C215.16 21.2281 215.76 21.7625 216.193 22.4515C216.626 23.1405 216.842 23.9576 216.842 24.9028C216.842 25.8391 216.626 26.6562 216.193 27.354C215.76 28.043 215.16 28.5819 214.391 28.9705C213.623 29.3504 212.735 29.5403 211.728 29.5403H207.514ZM209.661 27.778H211.622C212.24 27.778 212.775 27.6632 213.225 27.4335C213.684 27.195 214.038 26.8594 214.285 26.4265C214.541 25.9937 214.669 25.4858 214.669 24.9028C214.669 24.3109 214.541 23.803 214.285 23.379C214.038 22.9462 213.684 22.6149 213.225 22.3853C212.775 22.1468 212.24 22.0275 211.622 22.0275H209.661V27.778ZM222.688 29.5403V28.149L222.555 27.8443V25.3533C222.555 24.9116 222.418 24.5671 222.145 24.3198C221.88 24.0724 221.469 23.9488 220.912 23.9488C220.532 23.9488 220.157 24.0106 219.786 24.1343C219.424 24.2491 219.115 24.4081 218.859 24.6113L218.117 23.167C218.505 22.8932 218.973 22.6812 219.521 22.531C220.069 22.3809 220.625 22.3058 221.191 22.3058C222.277 22.3058 223.121 22.5619 223.721 23.0743C224.322 23.5866 224.622 24.386 224.622 25.4725V29.5403H222.688ZM220.515 29.6463C219.958 29.6463 219.481 29.5535 219.084 29.368C218.686 29.1737 218.382 28.9131 218.17 28.5863C217.958 28.2594 217.852 27.8929 217.852 27.4865C217.852 27.0625 217.953 26.6915 218.156 26.3735C218.368 26.0555 218.7 25.8082 219.15 25.6315C219.601 25.446 220.188 25.3533 220.912 25.3533H222.807V26.559H221.138C220.652 26.559 220.316 26.6385 220.131 26.7975C219.954 26.9565 219.866 27.1553 219.866 27.3938C219.866 27.6588 219.967 27.8708 220.17 28.0298C220.382 28.1799 220.669 28.255 221.032 28.255C221.376 28.255 221.685 28.1755 221.959 28.0165C222.233 27.8487 222.432 27.6058 222.555 27.2878L222.873 28.2418C222.723 28.7011 222.449 29.05 222.052 29.2885C221.654 29.527 221.142 29.6463 220.515 29.6463ZM229.408 29.6463C228.569 29.6463 227.915 29.4343 227.447 29.0103C226.979 28.5774 226.745 27.937 226.745 27.089V20.835H228.812V27.0625C228.812 27.3629 228.891 27.5969 229.05 27.7648C229.209 27.9238 229.426 28.0033 229.7 28.0033C230.026 28.0033 230.305 27.9149 230.534 27.7383L231.091 29.1958C230.879 29.3459 230.623 29.4608 230.322 29.5403C230.031 29.6109 229.726 29.6463 229.408 29.6463ZM225.645 24.1608V22.5708H230.587V24.1608H225.645ZM236.624 29.5403V28.149L236.491 27.8443V25.3533C236.491 24.9116 236.354 24.5671 236.08 24.3198C235.815 24.0724 235.405 23.9488 234.848 23.9488C234.468 23.9488 234.093 24.0106 233.722 24.1343C233.36 24.2491 233.051 24.4081 232.794 24.6113L232.052 23.167C232.441 22.8932 232.909 22.6812 233.457 22.531C234.005 22.3809 234.561 22.3058 235.126 22.3058C236.213 22.3058 237.056 22.5619 237.657 23.0743C238.258 23.5866 238.558 24.386 238.558 25.4725V29.5403H236.624ZM234.451 29.6463C233.894 29.6463 233.417 29.5535 233.02 29.368C232.622 29.1737 232.317 28.9131 232.105 28.5863C231.893 28.2594 231.787 27.8929 231.787 27.4865C231.787 27.0625 231.889 26.6915 232.092 26.3735C232.304 26.0555 232.635 25.8082 233.086 25.6315C233.536 25.446 234.124 25.3533 234.848 25.3533H236.743V26.559H235.073C234.588 26.559 234.252 26.6385 234.066 26.7975C233.89 26.9565 233.801 27.1553 233.801 27.3938C233.801 27.6588 233.903 27.8708 234.106 28.0298C234.318 28.1799 234.605 28.255 234.967 28.255C235.312 28.255 235.621 28.1755 235.895 28.0165C236.169 27.8487 236.367 27.6058 236.491 27.2878L236.809 28.2418C236.659 28.7011 236.385 29.05 235.988 29.2885C235.59 29.527 235.078 29.6463 234.451 29.6463ZM248.766 29.6993C248.05 29.6993 247.383 29.5844 246.765 29.3548C246.156 29.1163 245.626 28.7806 245.175 28.3478C244.725 27.9149 244.371 27.407 244.115 26.824C243.868 26.241 243.744 25.6006 243.744 24.9028C243.744 24.2049 243.868 23.5645 244.115 22.9815C244.371 22.3985 244.725 21.8906 245.175 21.4578C245.634 21.0249 246.169 20.6937 246.778 20.464C247.388 20.2255 248.055 20.1063 248.779 20.1063C249.583 20.1063 250.307 20.2476 250.952 20.5303C251.606 20.8041 252.153 21.2104 252.595 21.7493L251.217 23.0213C250.899 22.6591 250.546 22.3897 250.157 22.213C249.768 22.0275 249.344 21.9348 248.885 21.9348C248.452 21.9348 248.055 22.0054 247.693 22.1468C247.33 22.2881 247.017 22.4913 246.752 22.7563C246.487 23.0213 246.279 23.3349 246.129 23.697C245.988 24.0592 245.917 24.4611 245.917 24.9028C245.917 25.3444 245.988 25.7464 246.129 26.1085C246.279 26.4707 246.487 26.7843 246.752 27.0493C247.017 27.3143 247.33 27.5174 247.693 27.6588C248.055 27.8001 248.452 27.8708 248.885 27.8708C249.344 27.8708 249.768 27.7824 250.157 27.6058C250.546 27.4203 250.899 27.142 251.217 26.771L252.595 28.043C252.153 28.5819 251.606 28.9926 250.952 29.2753C250.307 29.5579 249.578 29.6993 248.766 29.6993ZM257.045 29.6463C256.285 29.6463 255.61 29.4873 255.018 29.1693C254.435 28.8513 253.971 28.4184 253.626 27.8708C253.291 27.3143 253.123 26.6827 253.123 25.976C253.123 25.2605 253.291 24.6289 253.626 24.0813C253.971 23.5248 254.435 23.0919 255.018 22.7828C255.61 22.4648 256.285 22.3058 257.045 22.3058C257.796 22.3058 258.467 22.4648 259.059 22.7828C259.651 23.0919 260.115 23.5204 260.45 24.068C260.786 24.6157 260.954 25.2517 260.954 25.976C260.954 26.6827 260.786 27.3143 260.45 27.8708C260.115 28.4184 259.651 28.8513 259.059 29.1693C258.467 29.4873 257.796 29.6463 257.045 29.6463ZM257.045 27.9503C257.389 27.9503 257.699 27.8708 257.972 27.7118C258.246 27.5528 258.463 27.3275 258.622 27.036C258.781 26.7357 258.86 26.3824 258.86 25.976C258.86 25.5609 258.781 25.2075 258.622 24.916C258.463 24.6245 258.246 24.3993 257.972 24.2403C257.699 24.0813 257.389 24.0018 257.045 24.0018C256.7 24.0018 256.391 24.0813 256.117 24.2403C255.844 24.3993 255.623 24.6245 255.455 24.916C255.296 25.2075 255.216 25.5609 255.216 25.976C255.216 26.3824 255.296 26.7357 255.455 27.036C255.623 27.3275 255.844 27.5528 256.117 27.7118C256.391 27.8708 256.7 27.9503 257.045 27.9503ZM271.465 22.3058C272.03 22.3058 272.529 22.4206 272.962 22.6503C273.404 22.8711 273.748 23.2156 273.995 23.6838C274.252 24.1431 274.38 24.7349 274.38 25.4593V29.5403H272.313V25.7773C272.313 25.2031 272.193 24.7791 271.955 24.5053C271.716 24.2314 271.381 24.0945 270.948 24.0945C270.648 24.0945 270.378 24.1652 270.14 24.3065C269.901 24.439 269.716 24.6422 269.583 24.916C269.451 25.1899 269.384 25.5388 269.384 25.9628V29.5403H267.317V25.7773C267.317 25.2031 267.198 24.7791 266.96 24.5053C266.73 24.2314 266.399 24.0945 265.966 24.0945C265.666 24.0945 265.396 24.1652 265.158 24.3065C264.919 24.439 264.734 24.6422 264.601 24.916C264.469 25.1899 264.402 25.5388 264.402 25.9628V29.5403H262.335V22.4118H264.31V24.3595L263.939 23.7898C264.186 23.3039 264.535 22.9374 264.985 22.69C265.445 22.4339 265.966 22.3058 266.549 22.3058C267.203 22.3058 267.772 22.4736 268.258 22.8093C268.753 23.1361 269.08 23.6396 269.239 24.3198L268.51 24.121C268.748 23.5645 269.128 23.1229 269.649 22.796C270.179 22.4692 270.784 22.3058 271.465 22.3058ZM285.362 22.3058C285.927 22.3058 286.426 22.4206 286.859 22.6503C287.3 22.8711 287.645 23.2156 287.892 23.6838C288.148 24.1431 288.277 24.7349 288.277 25.4593V29.5403H286.21V25.7773C286.21 25.2031 286.09 24.7791 285.852 24.5053C285.613 24.2314 285.278 24.0945 284.845 24.0945C284.544 24.0945 284.275 24.1652 284.037 24.3065C283.798 24.439 283.613 24.6422 283.48 24.916C283.348 25.1899 283.281 25.5388 283.281 25.9628V29.5403H281.214V25.7773C281.214 25.2031 281.095 24.7791 280.857 24.5053C280.627 24.2314 280.296 24.0945 279.863 24.0945C279.562 24.0945 279.293 24.1652 279.055 24.3065C278.816 24.439 278.631 24.6422 278.498 24.916C278.366 25.1899 278.299 25.5388 278.299 25.9628V29.5403H276.232V22.4118H278.207V24.3595L277.836 23.7898C278.083 23.3039 278.432 22.9374 278.882 22.69C279.342 22.4339 279.863 22.3058 280.446 22.3058C281.099 22.3058 281.669 22.4736 282.155 22.8093C282.65 23.1361 282.977 23.6396 283.136 24.3198L282.407 24.121C282.645 23.5645 283.025 23.1229 283.546 22.796C284.076 22.4692 284.681 22.3058 285.362 22.3058ZM293.573 29.6463C292.813 29.6463 292.138 29.4873 291.546 29.1693C290.963 28.8513 290.499 28.4184 290.155 27.8708C289.819 27.3143 289.651 26.6827 289.651 25.976C289.651 25.2605 289.819 24.6289 290.155 24.0813C290.499 23.5248 290.963 23.0919 291.546 22.7828C292.138 22.4648 292.813 22.3058 293.573 22.3058C294.324 22.3058 294.995 22.4648 295.587 22.7828C296.179 23.0919 296.643 23.5204 296.978 24.068C297.314 24.6157 297.482 25.2517 297.482 25.976C297.482 26.6827 297.314 27.3143 296.978 27.8708C296.643 28.4184 296.179 28.8513 295.587 29.1693C294.995 29.4873 294.324 29.6463 293.573 29.6463ZM293.573 27.9503C293.918 27.9503 294.227 27.8708 294.501 27.7118C294.774 27.5528 294.991 27.3275 295.15 27.036C295.309 26.7357 295.388 26.3824 295.388 25.976C295.388 25.5609 295.309 25.2075 295.15 24.916C294.991 24.6245 294.774 24.3993 294.501 24.2403C294.227 24.0813 293.918 24.0018 293.573 24.0018C293.229 24.0018 292.919 24.0813 292.646 24.2403C292.372 24.3993 292.151 24.6245 291.983 24.916C291.824 25.2075 291.745 25.5609 291.745 25.976C291.745 26.3824 291.824 26.7357 291.983 27.036C292.151 27.3275 292.372 27.5528 292.646 27.7118C292.919 27.8708 293.229 27.9503 293.573 27.9503ZM303.196 22.3058C303.762 22.3058 304.265 22.4206 304.707 22.6503C305.157 22.8711 305.511 23.2156 305.767 23.6838C306.023 24.1431 306.151 24.7349 306.151 25.4593V29.5403H304.084V25.7773C304.084 25.2031 303.956 24.7791 303.7 24.5053C303.452 24.2314 303.099 24.0945 302.64 24.0945C302.313 24.0945 302.017 24.1652 301.752 24.3065C301.496 24.439 301.293 24.6466 301.142 24.9293C301.001 25.2119 300.93 25.5741 300.93 26.0158V29.5403H298.863V22.4118H300.838V24.386L300.467 23.7898C300.723 23.3128 301.089 22.9462 301.566 22.69C302.043 22.4339 302.587 22.3058 303.196 22.3058ZM310.423 29.6463C309.813 29.6463 309.226 29.5756 308.661 29.4343C308.104 29.2841 307.662 29.0986 307.336 28.8778L308.025 27.3938C308.351 27.5969 308.736 27.7648 309.177 27.8973C309.628 28.0209 310.069 28.0828 310.502 28.0828C310.979 28.0828 311.315 28.0254 311.509 27.9105C311.712 27.7957 311.814 27.6367 311.814 27.4335C311.814 27.2657 311.735 27.142 311.576 27.0625C311.425 26.9742 311.222 26.9079 310.966 26.8638C310.71 26.8196 310.427 26.7754 310.118 26.7313C309.818 26.6871 309.513 26.6297 309.204 26.559C308.895 26.4795 308.612 26.3647 308.356 26.2145C308.1 26.0644 307.892 25.8612 307.733 25.605C307.583 25.3489 307.508 25.0176 307.508 24.6113C307.508 24.1608 307.636 23.7633 307.892 23.4188C308.157 23.0743 308.537 22.8049 309.032 22.6105C309.526 22.4074 310.118 22.3058 310.807 22.3058C311.293 22.3058 311.788 22.3588 312.291 22.4648C312.795 22.5708 313.214 22.7254 313.55 22.9285L312.861 24.3993C312.516 24.1961 312.167 24.0592 311.814 23.9885C311.47 23.909 311.134 23.8693 310.807 23.8693C310.348 23.8693 310.012 23.9311 309.8 24.0548C309.588 24.1784 309.482 24.3374 309.482 24.5318C309.482 24.7084 309.557 24.8409 309.707 24.9293C309.866 25.0176 310.074 25.0883 310.33 25.1413C310.586 25.1943 310.864 25.2429 311.165 25.287C311.474 25.3224 311.783 25.3798 312.092 25.4593C312.401 25.5388 312.68 25.6536 312.927 25.8038C313.183 25.9451 313.391 26.1439 313.55 26.4C313.709 26.6474 313.788 26.9742 313.788 27.3805C313.788 27.8222 313.656 28.2153 313.391 28.5598C313.126 28.8954 312.742 29.1604 312.238 29.3548C311.743 29.5491 311.138 29.6463 310.423 29.6463ZM87.0998 45.5403V36.2653H91.3133C92.3203 36.2653 93.208 36.4596 93.9765 36.8483C94.745 37.2281 95.3457 37.7625 95.7785 38.4515C96.2113 39.1405 96.4278 39.9576 96.4278 40.9028C96.4278 41.8391 96.2113 42.6562 95.7785 43.354C95.3457 44.043 94.745 44.5819 93.9765 44.9705C93.208 45.3504 92.3203 45.5403 91.3133 45.5403H87.0998ZM89.2463 43.778H91.2073C91.8256 43.778 92.36 43.6632 92.8105 43.4335C93.2698 43.195 93.6232 42.8594 93.8705 42.4265C94.1267 41.9937 94.2548 41.4858 94.2548 40.9028C94.2548 40.3109 94.1267 39.803 93.8705 39.379C93.6232 38.9462 93.2698 38.6149 92.8105 38.3853C92.36 38.1468 91.8256 38.0275 91.2073 38.0275H89.2463V43.778ZM102.273 45.5403V44.149L102.141 43.8443V41.3533C102.141 40.9116 102.004 40.5671 101.73 40.3198C101.465 40.0724 101.054 39.9488 100.498 39.9488C100.118 39.9488 99.7425 40.0106 99.3715 40.1343C99.0094 40.2491 98.7002 40.4081 98.444 40.6113L97.702 39.167C98.0907 38.8932 98.5589 38.6812 99.1065 38.531C99.6542 38.3809 100.211 38.3058 100.776 38.3058C101.863 38.3058 102.706 38.5619 103.307 39.0743C103.907 39.5866 104.208 40.386 104.208 41.4725V45.5403H102.273ZM100.1 45.6463C99.5438 45.6463 99.0668 45.5535 98.6693 45.368C98.2718 45.1737 97.967 44.9131 97.755 44.5863C97.543 44.2594 97.437 43.8929 97.437 43.4865C97.437 43.0625 97.5386 42.6915 97.7418 42.3735C97.9538 42.0555 98.285 41.8082 98.7355 41.6315C99.186 41.446 99.7734 41.3533 100.498 41.3533H102.393V42.559H100.723C100.237 42.559 99.9015 42.6385 99.716 42.7975C99.5394 42.9565 99.451 43.1553 99.451 43.3938C99.451 43.6588 99.5526 43.8708 99.7558 44.0298C99.9678 44.1799 100.255 44.255 100.617 44.255C100.962 44.255 101.271 44.1755 101.545 44.0165C101.818 43.8487 102.017 43.6058 102.141 43.2878L102.459 44.2418C102.309 44.7011 102.035 45.05 101.637 45.2885C101.24 45.527 100.727 45.6463 100.1 45.6463ZM108.994 45.6463C108.154 45.6463 107.501 45.4343 107.033 45.0103C106.564 44.5774 106.33 43.937 106.33 43.089V36.835H108.397V43.0625C108.397 43.3629 108.477 43.5969 108.636 43.7648C108.795 43.9238 109.011 44.0033 109.285 44.0033C109.612 44.0033 109.89 43.9149 110.12 43.7383L110.676 45.1958C110.464 45.3459 110.208 45.4608 109.908 45.5403C109.616 45.6109 109.312 45.6463 108.994 45.6463ZM105.231 40.1608V38.5708H110.173V40.1608H105.231ZM116.209 45.5403V44.149L116.077 43.8443V41.3533C116.077 40.9116 115.94 40.5671 115.666 40.3198C115.401 40.0724 114.99 39.9488 114.434 39.9488C114.054 39.9488 113.678 40.0106 113.307 40.1343C112.945 40.2491 112.636 40.4081 112.38 40.6113L111.638 39.167C112.026 38.8932 112.495 38.6812 113.042 38.531C113.59 38.3809 114.146 38.3058 114.712 38.3058C115.798 38.3058 116.642 38.5619 117.243 39.0743C117.843 39.5866 118.144 40.386 118.144 41.4725V45.5403H116.209ZM114.036 45.6463C113.48 45.6463 113.003 45.5535 112.605 45.368C112.208 45.1737 111.903 44.9131 111.691 44.5863C111.479 44.2594 111.373 43.8929 111.373 43.4865C111.373 43.0625 111.474 42.6915 111.678 42.3735C111.89 42.0555 112.221 41.8082 112.671 41.6315C113.122 41.446 113.709 41.3533 114.434 41.3533H116.328V42.559H114.659C114.173 42.559 113.837 42.6385 113.652 42.7975C113.475 42.9565 113.387 43.1553 113.387 43.3938C113.387 43.6588 113.488 43.8708 113.692 44.0298C113.904 44.1799 114.191 44.255 114.553 44.255C114.897 44.255 115.206 44.1755 115.48 44.0165C115.754 43.8487 115.953 43.6058 116.077 43.2878L116.395 44.2418C116.244 44.7011 115.971 45.05 115.573 45.2885C115.176 45.527 114.663 45.6463 114.036 45.6463ZM130.272 36.2653H132.419V45.5403H130.272V36.2653ZM126.059 45.5403H123.912V36.2653H126.059V45.5403ZM130.431 41.7375H125.9V39.9223H130.431V41.7375ZM137.475 45.6463C136.884 45.6463 136.354 45.5314 135.885 45.3018C135.426 45.0721 135.068 44.7232 134.812 44.255C134.556 43.778 134.428 43.1729 134.428 42.4398V38.4118H136.495V42.135C136.495 42.7269 136.619 43.1641 136.866 43.4468C137.122 43.7206 137.48 43.8575 137.939 43.8575C138.257 43.8575 138.54 43.7913 138.787 43.6588C139.035 43.5174 139.229 43.3054 139.37 43.0228C139.512 42.7313 139.582 42.3691 139.582 41.9363V38.4118H141.649V45.5403H139.688V43.5793L140.046 44.149C139.807 44.6437 139.454 45.0191 138.986 45.2753C138.527 45.5226 138.023 45.6463 137.475 45.6463ZM147.778 45.6463C147.15 45.6463 146.612 45.5138 146.161 45.2488C145.711 44.9838 145.366 44.5819 145.128 44.043C144.889 43.4954 144.77 42.8064 144.77 41.976C144.77 41.1369 144.894 40.4479 145.141 39.909C145.397 39.3702 145.75 38.9683 146.201 38.7033C146.651 38.4383 147.177 38.3058 147.778 38.3058C148.449 38.3058 149.05 38.4559 149.58 38.7563C150.118 39.0566 150.542 39.4806 150.852 40.0283C151.17 40.5759 151.329 41.2252 151.329 41.976C151.329 42.718 151.17 43.3629 150.852 43.9105C150.542 44.4582 150.118 44.8866 149.58 45.1958C149.05 45.4961 148.449 45.6463 147.778 45.6463ZM143.564 45.5403V35.7088H145.631V39.856L145.499 41.9628L145.538 44.0828V45.5403H143.564ZM147.42 43.9503C147.764 43.9503 148.069 43.8708 148.334 43.7118C148.608 43.5528 148.824 43.3275 148.983 43.036C149.151 42.7357 149.235 42.3824 149.235 41.976C149.235 41.5609 149.151 41.2075 148.983 40.916C148.824 40.6245 148.608 40.3993 148.334 40.2403C148.069 40.0813 147.764 40.0018 147.42 40.0018C147.075 40.0018 146.766 40.0813 146.492 40.2403C146.219 40.3993 146.002 40.6245 145.843 40.916C145.684 41.2075 145.605 41.5609 145.605 41.976C145.605 42.3824 145.684 42.7357 145.843 43.036C146.002 43.3275 146.219 43.5528 146.492 43.7118C146.766 43.8708 147.075 43.9503 147.42 43.9503Z" fill="#606061"/>
</svg>
