<?xml version="1.0" encoding="utf-8"?>
<!-- Generator: Adobe Illustrator 24.0.3, SVG Export Plug-In . SVG Version: 6.00 Build 0)  -->
<svg width="484" height="60" viewBox="0 0 484 60" fill="none" xmlns="http://www.w3.org/2000/svg">
<path d="M63.3521 2.4624C62.3407 1.01134 60.7468 0 59.0099 0H55.1074L68.2659 23.2829L55.1074 46.5657H59.0099C60.8897 46.5657 62.4836 45.5544 63.3521 44.1033L74.9275 23.2719L63.3521 2.44041V2.4624Z" fill="#BA1F40"/>
<path d="M64.6489 23.2936L51.7763 0.0107422H5.05671C2.16559 0.0107422 0 2.31924 0 5.06745V41.6626C0 44.4109 2.16559 46.7303 5.0677 46.7303H51.7873L64.6599 23.2936H64.6489Z" fill="#606061"/>
<path d="M31.0987 13.0264H27.625V33.7149H31.0987V13.0264Z" fill="white"/>
<path d="M20.6773 13.0264V28.0646L11.1355 13.0264H7.80469V33.7149H11.1355V18.5228L20.6773 33.7149H24.1511V13.0264H20.6773Z" fill="white"/>
<path d="M47.4335 13.0264V21.5568H37.8917V13.0264H34.418V33.7149H37.8917V25.0306H47.4335V33.7149H50.9072V13.0264H47.4335Z" fill="white"/>
<path d="M93.3844 5.61328H95.7562V16.2275H93.3844L88.3229 9.57071V16.2275H85.9512V5.61328H88.1762L93.3844 12.4411V5.61328Z" fill="#BB0E3D"/>
<path d="M105.941 16.2275L104.951 13.9312H100.501L99.5107 16.2275H96.9922L101.589 5.61328H103.887L108.484 16.2275H105.966H105.941ZM102.738 8.76456L101.406 11.8426H104.071L102.75 8.76456H102.738Z" fill="#BB0E3D"/>
<path d="M113.422 7.66528V16.2275H111.05V7.66528H108.043V5.61328H116.43V7.66528H113.422Z" fill="#BB0E3D"/>
<path d="M118.166 5.61328H120.538V16.2275H118.166V5.61328Z" fill="#BB0E3D"/>
<path d="M132.092 14.7619C131.016 15.8123 129.696 16.3376 128.118 16.3376C126.541 16.3376 125.221 15.8123 124.145 14.7619C123.069 13.7115 122.531 12.4046 122.531 10.8534C122.531 9.30214 123.069 7.99521 124.145 6.94478C125.221 5.89435 126.541 5.36914 128.118 5.36914C129.696 5.36914 131.016 5.89435 132.092 6.94478C133.168 7.99521 133.706 9.30214 133.706 10.8534C133.706 12.4046 133.168 13.7115 132.092 14.7619ZM131.285 10.8534C131.285 9.91285 130.979 9.0945 130.368 8.43492C129.757 7.76314 129.011 7.43335 128.131 7.43335C127.25 7.43335 126.492 7.76314 125.893 8.43492C125.294 9.10671 124.976 9.91285 124.976 10.8534C124.976 11.7938 125.282 12.6 125.893 13.2718C126.505 13.9313 127.25 14.2611 128.131 14.2611C129.011 14.2611 129.769 13.9313 130.368 13.2718C130.979 12.6122 131.285 11.8061 131.285 10.8534Z" fill="#BB0E3D"/>
<path d="M143.142 5.61328H145.514V16.2275H143.142L138.081 9.57071V16.2275H135.709V5.61328H137.934L143.142 12.4411V5.61328Z" fill="#BB0E3D"/>
<path d="M155.699 16.2275L154.709 13.9312H150.259L149.268 16.2275H146.75L151.347 5.61328H153.645L158.242 16.2275H155.724H155.699ZM152.496 8.76456L151.163 11.8426H153.829L152.508 8.76456H152.496Z" fill="#BB0E3D"/>
<path d="M159.451 16.2275V5.61328H161.823V14.1144H166.359V16.2275H159.451Z" fill="#BB0E3D"/>
<path d="M176.971 14.1395C178.133 14.1395 179.086 13.6753 179.832 12.7593L181.348 14.3227C180.138 15.6785 178.72 16.3625 177.081 16.3625C175.443 16.3625 174.098 15.8495 173.035 14.8113C171.971 13.773 171.445 12.4783 171.445 10.9027C171.445 9.32705 171.983 8.02012 173.059 6.95748C174.135 5.90705 175.455 5.38184 177.02 5.38184C178.769 5.38184 180.223 6.04141 181.397 7.37276L179.918 9.04612C179.172 8.11783 178.231 7.65369 177.118 7.65369C176.226 7.65369 175.468 7.94683 174.832 8.5209C174.196 9.10719 173.878 9.8889 173.878 10.8783C173.878 11.8676 174.172 12.6615 174.771 13.26C175.37 13.8585 176.091 14.1517 176.947 14.1517L176.971 14.1395Z" fill="#BB0E3D"/>
<path d="M190.713 16.2275L189.723 13.9312H185.272L184.282 16.2275H181.764L186.361 5.61328H188.659L193.256 16.2275H190.737H190.713ZM187.51 8.76456L186.177 11.8426H188.842L187.522 8.76456H187.51Z" fill="#BB0E3D"/>
<path d="M201.912 5.61328H204.284V16.2275H201.912L196.85 9.57071V16.2275H194.479V5.61328H196.704L201.912 12.4411V5.61328Z" fill="#BB0E3D"/>
<path d="M211.766 14.1395C212.928 14.1395 213.881 13.6753 214.627 12.7593L216.143 14.3227C214.933 15.6785 213.515 16.3625 211.876 16.3625C210.238 16.3625 208.893 15.8495 207.83 14.8113C206.766 13.773 206.24 12.4783 206.24 10.9027C206.24 9.32705 206.778 8.02012 207.854 6.95748C208.93 5.90705 210.25 5.38184 211.815 5.38184C213.563 5.38184 215.018 6.04141 216.192 7.37276L214.713 9.04612C213.967 8.11783 213.025 7.65369 211.913 7.65369C211.02 7.65369 210.262 7.94683 209.627 8.5209C208.991 9.10719 208.673 9.8889 208.673 10.8783C208.673 11.8676 208.967 12.6615 209.566 13.26C210.165 13.8585 210.886 14.1517 211.742 14.1517L211.766 14.1395Z" fill="#BB0E3D"/>
<path d="M225.677 5.61328V7.72635H220.383V9.91271H225.139V11.9281H220.383V14.1266H225.836V16.2275H218.012V5.61328H225.677Z" fill="#BB0E3D"/>
<path d="M236.584 9.14369C236.584 10.8415 235.912 11.9408 234.567 12.4415L237.256 16.2402H234.334L231.975 12.8568H230.337V16.2402H227.965V5.62598H231.999C233.65 5.62598 234.836 5.90691 235.533 6.45655C236.229 7.00619 236.584 7.91005 236.584 9.14369ZM233.723 10.4018C234.017 10.133 234.163 9.71776 234.163 9.14369C234.163 8.56962 234.017 8.17876 233.711 7.97112C233.405 7.76348 232.88 7.65355 232.109 7.65355H230.337V10.7926H232.073C232.88 10.7926 233.43 10.6583 233.735 10.4018H233.723Z" fill="#BB0E3D"/>
<path d="M243.027 5.61328H245.399V16.2275H243.027V5.61328Z" fill="#BB0E3D"/>
<path d="M255.447 5.61328H257.819V16.2275H255.447L250.385 9.57071V16.2275H248.014V5.61328H250.239L255.447 12.4411V5.61328Z" fill="#BB0E3D"/>
<path d="M262.919 7.73871C262.686 7.92192 262.576 8.17842 262.576 8.48378C262.576 8.78914 262.711 9.03342 262.992 9.21664C263.273 9.39985 263.909 9.60749 264.924 9.86399C265.938 10.1205 266.721 10.4869 267.271 10.9755C267.833 11.4763 268.102 12.1969 268.102 13.1496C268.102 14.1023 267.748 14.8718 267.026 15.4703C266.305 16.0688 265.376 16.362 264.202 16.362C262.515 16.362 260.999 15.7391 259.654 14.4932L261.072 12.7588C262.222 13.7603 263.273 14.2611 264.251 14.2611C264.691 14.2611 265.034 14.1634 265.278 13.9802C265.523 13.797 265.657 13.5405 265.657 13.2229C265.657 12.9053 265.523 12.6488 265.266 12.4656C265.009 12.2824 264.483 12.087 263.701 11.8916C262.466 11.5984 261.562 11.2198 260.987 10.7434C260.412 10.2671 260.131 9.53421 260.131 8.52042C260.131 7.50664 260.498 6.73714 261.219 6.1875C261.94 5.63785 262.845 5.36914 263.933 5.36914C264.642 5.36914 265.351 5.49128 266.061 5.73557C266.77 5.97985 267.393 6.32185 267.919 6.77378L266.721 8.50821C265.804 7.812 264.85 7.45778 263.86 7.45778C263.469 7.45778 263.151 7.5555 262.931 7.73871H262.919Z" fill="#BB0E3D"/>
<path d="M274.532 7.66528V16.2275H272.16V7.66528H269.152V5.61328H277.539V7.66528H274.532Z" fill="#BB0E3D"/>
<path d="M279.275 5.61328H281.647V16.2275H279.275V5.61328Z" fill="#BB0E3D"/>
<path d="M288.764 7.66528V16.2275H286.392V7.66528H283.385V5.61328H291.772V7.66528H288.764Z" fill="#BB0E3D"/>
<path d="M296.317 13.492C296.709 13.9806 297.247 14.2248 297.919 14.2248C298.591 14.2248 299.117 13.9806 299.508 13.492C299.9 13.0034 300.095 12.3316 300.095 11.4766V5.61378H302.467V11.5499C302.467 13.0889 302.039 14.2737 301.196 15.0921C300.34 15.9226 299.252 16.3257 297.931 16.3257C296.611 16.3257 295.511 15.9104 294.655 15.0798C293.799 14.2493 293.371 13.0645 293.371 11.5377V5.60156H295.743V11.4644C295.743 12.3194 295.938 12.979 296.33 13.4798L296.317 13.492Z" fill="#BB0E3D"/>
<path d="M309.424 7.66528V16.2275H307.052V7.66528H304.045V5.61328H312.432V7.66528H309.424Z" fill="#BB0E3D"/>
<path d="M321.833 5.61328V7.72635H316.54V9.91271H321.296V11.9281H316.54V14.1266H321.992V16.2275H314.168V5.61328H321.833Z" fill="#BB0E3D"/>
<path d="M92.524 41.0812C91.552 41.0812 90.646 40.9252 89.806 40.6132C88.978 40.2892 88.258 39.8332 87.646 39.2452C87.034 38.6572 86.554 37.9672 86.206 37.1752C85.87 36.3832 85.702 35.5132 85.702 34.5652C85.702 33.6172 85.87 32.7472 86.206 31.9552C86.554 31.1632 87.034 30.4732 87.646 29.8852C88.27 29.2972 88.996 28.8472 89.824 28.5352C90.652 28.2112 91.558 28.0492 92.542 28.0492C93.634 28.0492 94.618 28.2412 95.494 28.6252C96.382 28.9972 97.126 29.5492 97.726 30.2812L95.854 32.0092C95.422 31.5172 94.942 31.1512 94.414 30.9112C93.886 30.6592 93.31 30.5332 92.686 30.5332C92.098 30.5332 91.558 30.6292 91.066 30.8212C90.574 31.0132 90.148 31.2892 89.788 31.6492C89.428 32.0092 89.146 32.4352 88.942 32.9272C88.75 33.4192 88.654 33.9652 88.654 34.5652C88.654 35.1652 88.75 35.7112 88.942 36.2032C89.146 36.6952 89.428 37.1212 89.788 37.4812C90.148 37.8412 90.574 38.1172 91.066 38.3092C91.558 38.5012 92.098 38.5972 92.686 38.5972C93.31 38.5972 93.886 38.4772 94.414 38.2372C94.942 37.9852 95.422 37.6072 95.854 37.1032L97.726 38.8312C97.126 39.5632 96.382 40.1212 95.494 40.5052C94.618 40.8892 93.628 41.0812 92.524 41.0812ZM99.4972 40.8652V27.5092H102.305V40.8652H99.4972ZM104.911 40.8652V31.1812H107.719V40.8652H104.911ZM106.315 29.8312C105.799 29.8312 105.379 29.6812 105.055 29.3812C104.731 29.0812 104.569 28.7092 104.569 28.2652C104.569 27.8212 104.731 27.4492 105.055 27.1492C105.379 26.8492 105.799 26.6992 106.315 26.6992C106.831 26.6992 107.251 26.8432 107.575 27.1312C107.899 27.4072 108.061 27.7672 108.061 28.2112C108.061 28.6792 107.899 29.0692 107.575 29.3812C107.263 29.6812 106.843 29.8312 106.315 29.8312ZM116.211 31.0372C116.979 31.0372 117.663 31.1932 118.263 31.5052C118.875 31.8052 119.355 32.2732 119.703 32.9092C120.051 33.5332 120.225 34.3372 120.225 35.3212V40.8652H117.417V35.7532C117.417 34.9732 117.243 34.3972 116.895 34.0252C116.559 33.6532 116.079 33.4672 115.455 33.4672C115.011 33.4672 114.609 33.5632 114.249 33.7552C113.901 33.9352 113.625 34.2172 113.421 34.6012C113.229 34.9852 113.133 35.4772 113.133 36.0772V40.8652H110.325V31.1812H113.007V33.8632L112.503 33.0532C112.851 32.4052 113.349 31.9072 113.997 31.5592C114.645 31.2112 115.383 31.0372 116.211 31.0372ZM122.771 40.8652V31.1812H125.579V40.8652H122.771ZM124.175 29.8312C123.659 29.8312 123.239 29.6812 122.915 29.3812C122.591 29.0812 122.429 28.7092 122.429 28.2652C122.429 27.8212 122.591 27.4492 122.915 27.1492C123.239 26.8492 123.659 26.6992 124.175 26.6992C124.691 26.6992 125.111 26.8432 125.435 27.1312C125.759 27.4072 125.921 27.7672 125.921 28.2112C125.921 28.6792 125.759 29.0692 125.435 29.3812C125.123 29.6812 124.703 29.8312 124.175 29.8312ZM132.865 41.0092C131.821 41.0092 130.891 40.7992 130.075 40.3792C129.259 39.9472 128.617 39.3532 128.149 38.5972C127.693 37.8412 127.465 36.9832 127.465 36.0232C127.465 35.0512 127.693 34.1932 128.149 33.4492C128.617 32.6932 129.259 32.1052 130.075 31.6852C130.891 31.2532 131.821 31.0372 132.865 31.0372C133.885 31.0372 134.773 31.2532 135.529 31.6852C136.285 32.1052 136.843 32.7112 137.203 33.5032L135.025 34.6732C134.773 34.2172 134.455 33.8812 134.071 33.6652C133.699 33.4492 133.291 33.3412 132.847 33.3412C132.367 33.3412 131.935 33.4492 131.551 33.6652C131.167 33.8812 130.861 34.1872 130.633 34.5832C130.417 34.9792 130.309 35.4592 130.309 36.0232C130.309 36.5872 130.417 37.0672 130.633 37.4632C130.861 37.8592 131.167 38.1652 131.551 38.3812C131.935 38.5972 132.367 38.7052 132.847 38.7052C133.291 38.7052 133.699 38.6032 134.071 38.3992C134.455 38.1832 134.773 37.8412 135.025 37.3732L137.203 38.5612C136.843 39.3412 136.285 39.9472 135.529 40.3792C134.773 40.7992 133.885 41.0092 132.865 41.0092ZM144.759 40.8652V38.9752L144.579 38.5612V35.1772C144.579 34.5772 144.393 34.1092 144.021 33.7732C143.661 33.4372 143.103 33.2692 142.347 33.2692C141.831 33.2692 141.321 33.3532 140.817 33.5212C140.325 33.6772 139.905 33.8932 139.557 34.1692L138.549 32.2072C139.077 31.8352 139.713 31.5472 140.457 31.3432C141.201 31.1392 141.957 31.0372 142.725 31.0372C144.201 31.0372 145.347 31.3852 146.163 32.0812C146.979 32.7772 147.387 33.8632 147.387 35.3392V40.8652H144.759ZM141.807 41.0092C141.051 41.0092 140.403 40.8832 139.863 40.6312C139.323 40.3672 138.909 40.0132 138.621 39.5692C138.333 39.1252 138.189 38.6272 138.189 38.0752C138.189 37.4992 138.327 36.9952 138.603 36.5632C138.891 36.1312 139.341 35.7952 139.953 35.5552C140.565 35.3032 141.363 35.1772 142.347 35.1772H144.921V36.8152H142.653C141.993 36.8152 141.537 36.9232 141.285 37.1392C141.045 37.3552 140.925 37.6252 140.925 37.9492C140.925 38.3092 141.063 38.5972 141.339 38.8132C141.627 39.0172 142.017 39.1192 142.509 39.1192C142.977 39.1192 143.397 39.0112 143.769 38.7952C144.141 38.5672 144.411 38.2372 144.579 37.8052L145.011 39.1012C144.807 39.7252 144.435 40.1992 143.895 40.5232C143.355 40.8472 142.659 41.0092 141.807 41.0092ZM149.929 40.8652V27.5092H152.737V40.8652H149.929ZM163.249 40.8652V30.6412H159.217V28.2652H170.197V30.6412H166.165V40.8652H163.249ZM171.357 40.8652V31.1812H174.039V33.9172L173.661 33.1252C173.949 32.4412 174.411 31.9252 175.047 31.5772C175.683 31.2172 176.457 31.0372 177.369 31.0372V33.6292C177.249 33.6172 177.141 33.6112 177.045 33.6112C176.949 33.5992 176.847 33.5932 176.739 33.5932C175.971 33.5932 175.347 33.8152 174.867 34.2592C174.399 34.6912 174.165 35.3692 174.165 36.2932V40.8652H171.357ZM184.345 40.8652V38.9752L184.165 38.5612V35.1772C184.165 34.5772 183.979 34.1092 183.607 33.7732C183.247 33.4372 182.689 33.2692 181.933 33.2692C181.417 33.2692 180.907 33.3532 180.403 33.5212C179.911 33.6772 179.491 33.8932 179.143 34.1692L178.135 32.2072C178.663 31.8352 179.299 31.5472 180.043 31.3432C180.787 31.1392 181.543 31.0372 182.311 31.0372C183.787 31.0372 184.933 31.3852 185.749 32.0812C186.565 32.7772 186.973 33.8632 186.973 35.3392V40.8652H184.345ZM181.393 41.0092C180.637 41.0092 179.989 40.8832 179.449 40.6312C178.909 40.3672 178.495 40.0132 178.207 39.5692C177.919 39.1252 177.775 38.6272 177.775 38.0752C177.775 37.4992 177.913 36.9952 178.189 36.5632C178.477 36.1312 178.927 35.7952 179.539 35.5552C180.151 35.3032 180.949 35.1772 181.933 35.1772H184.507V36.8152H182.239C181.579 36.8152 181.123 36.9232 180.871 37.1392C180.631 37.3552 180.511 37.6252 180.511 37.9492C180.511 38.3092 180.649 38.5972 180.925 38.8132C181.213 39.0172 181.603 39.1192 182.095 39.1192C182.563 39.1192 182.983 39.0112 183.355 38.7952C183.727 38.5672 183.997 38.2372 184.165 37.8052L184.597 39.1012C184.393 39.7252 184.021 40.1992 183.481 40.5232C182.941 40.8472 182.245 41.0092 181.393 41.0092ZM195.401 31.0372C196.169 31.0372 196.853 31.1932 197.453 31.5052C198.065 31.8052 198.545 32.2732 198.893 32.9092C199.241 33.5332 199.415 34.3372 199.415 35.3212V40.8652H196.607V35.7532C196.607 34.9732 196.433 34.3972 196.085 34.0252C195.749 33.6532 195.269 33.4672 194.645 33.4672C194.201 33.4672 193.799 33.5632 193.439 33.7552C193.091 33.9352 192.815 34.2172 192.611 34.6012C192.419 34.9852 192.323 35.4772 192.323 36.0772V40.8652H189.515V31.1812H192.197V33.8632L191.693 33.0532C192.041 32.4052 192.539 31.9072 193.187 31.5592C193.835 31.2112 194.573 31.0372 195.401 31.0372ZM205.218 41.0092C204.39 41.0092 203.592 40.9132 202.824 40.7212C202.068 40.5172 201.468 40.2652 201.024 39.9652L201.96 37.9492C202.404 38.2252 202.926 38.4532 203.526 38.6332C204.138 38.8012 204.738 38.8852 205.326 38.8852C205.974 38.8852 206.43 38.8072 206.694 38.6512C206.97 38.4952 207.108 38.2792 207.108 38.0032C207.108 37.7752 207 37.6072 206.784 37.4992C206.58 37.3792 206.304 37.2892 205.956 37.2292C205.608 37.1692 205.224 37.1092 204.804 37.0492C204.396 36.9892 203.982 36.9112 203.562 36.8152C203.142 36.7072 202.758 36.5512 202.41 36.3472C202.062 36.1432 201.78 35.8672 201.564 35.5192C201.36 35.1712 201.258 34.7212 201.258 34.1692C201.258 33.5572 201.432 33.0172 201.78 32.5492C202.14 32.0812 202.656 31.7152 203.328 31.4512C204 31.1752 204.804 31.0372 205.74 31.0372C206.4 31.0372 207.072 31.1092 207.756 31.2532C208.44 31.3972 209.01 31.6072 209.466 31.8832L208.53 33.8812C208.062 33.6052 207.588 33.4192 207.108 33.3232C206.64 33.2152 206.184 33.1612 205.74 33.1612C205.116 33.1612 204.66 33.2452 204.372 33.4132C204.084 33.5812 203.94 33.7972 203.94 34.0612C203.94 34.3012 204.042 34.4812 204.246 34.6012C204.462 34.7212 204.744 34.8172 205.092 34.8892C205.44 34.9612 205.818 35.0272 206.226 35.0872C206.646 35.1352 207.066 35.2132 207.486 35.3212C207.906 35.4292 208.284 35.5852 208.62 35.7892C208.968 35.9812 209.25 36.2512 209.466 36.5992C209.682 36.9352 209.79 37.3792 209.79 37.9312C209.79 38.5312 209.61 39.0652 209.25 39.5332C208.89 39.9892 208.368 40.3492 207.684 40.6132C207.012 40.8772 206.19 41.0092 205.218 41.0092ZM211.523 40.8652V27.5092H214.331V40.8652H211.523ZM222.877 40.8652V38.9752L222.697 38.5612V35.1772C222.697 34.5772 222.511 34.1092 222.139 33.7732C221.779 33.4372 221.221 33.2692 220.465 33.2692C219.949 33.2692 219.439 33.3532 218.935 33.5212C218.443 33.6772 218.023 33.8932 217.675 34.1692L216.667 32.2072C217.195 31.8352 217.831 31.5472 218.575 31.3432C219.319 31.1392 220.075 31.0372 220.843 31.0372C222.319 31.0372 223.465 31.3852 224.281 32.0812C225.097 32.7772 225.505 33.8632 225.505 35.3392V40.8652H222.877ZM219.925 41.0092C219.169 41.0092 218.521 40.8832 217.981 40.6312C217.441 40.3672 217.027 40.0132 216.739 39.5692C216.451 39.1252 216.307 38.6272 216.307 38.0752C216.307 37.4992 216.445 36.9952 216.721 36.5632C217.009 36.1312 217.459 35.7952 218.071 35.5552C218.683 35.3032 219.481 35.1772 220.465 35.1772H223.039V36.8152H220.771C220.111 36.8152 219.655 36.9232 219.403 37.1392C219.163 37.3552 219.043 37.6252 219.043 37.9492C219.043 38.3092 219.181 38.5972 219.457 38.8132C219.745 39.0172 220.135 39.1192 220.627 39.1192C221.095 39.1192 221.515 39.0112 221.887 38.7952C222.259 38.5672 222.529 38.2372 222.697 37.8052L223.129 39.1012C222.925 39.7252 222.553 40.1992 222.013 40.5232C221.473 40.8472 220.777 41.0092 219.925 41.0092ZM232.006 41.0092C230.866 41.0092 229.978 40.7212 229.342 40.1452C228.706 39.5572 228.388 38.6872 228.388 37.5352V29.0392H231.196V37.4992C231.196 37.9072 231.304 38.2252 231.52 38.4532C231.736 38.6692 232.03 38.7772 232.402 38.7772C232.846 38.7772 233.224 38.6572 233.536 38.4172L234.292 40.3972C234.004 40.6012 233.656 40.7572 233.248 40.8652C232.852 40.9612 232.438 41.0092 232.006 41.0092ZM226.894 33.5572V31.3972H233.608V33.5572H226.894ZM235.868 40.8652V31.1812H238.676V40.8652H235.868ZM237.272 29.8312C236.756 29.8312 236.336 29.6812 236.012 29.3812C235.688 29.0812 235.526 28.7092 235.526 28.2652C235.526 27.8212 235.688 27.4492 236.012 27.1492C236.336 26.8492 236.756 26.6992 237.272 26.6992C237.788 26.6992 238.208 26.8432 238.532 27.1312C238.856 27.4072 239.018 27.7672 239.018 28.2112C239.018 28.6792 238.856 29.0692 238.532 29.3812C238.22 29.6812 237.8 29.8312 237.272 29.8312ZM245.89 41.0092C244.858 41.0092 243.94 40.7932 243.136 40.3612C242.344 39.9292 241.714 39.3412 241.246 38.5972C240.79 37.8412 240.562 36.9832 240.562 36.0232C240.562 35.0512 240.79 34.1932 241.246 33.4492C241.714 32.6932 242.344 32.1052 243.136 31.6852C243.94 31.2532 244.858 31.0372 245.89 31.0372C246.91 31.0372 247.822 31.2532 248.626 31.6852C249.43 32.1052 250.06 32.6872 250.516 33.4312C250.972 34.1752 251.2 35.0392 251.2 36.0232C251.2 36.9832 250.972 37.8412 250.516 38.5972C250.06 39.3412 249.43 39.9292 248.626 40.3612C247.822 40.7932 246.91 41.0092 245.89 41.0092ZM245.89 38.7052C246.358 38.7052 246.778 38.5972 247.15 38.3812C247.522 38.1652 247.816 37.8592 248.032 37.4632C248.248 37.0552 248.356 36.5752 248.356 36.0232C248.356 35.4592 248.248 34.9792 248.032 34.5832C247.816 34.1872 247.522 33.8812 247.15 33.6652C246.778 33.4492 246.358 33.3412 245.89 33.3412C245.422 33.3412 245.002 33.4492 244.63 33.6652C244.258 33.8812 243.958 34.1872 243.73 34.5832C243.514 34.9792 243.406 35.4592 243.406 36.0232C243.406 36.5752 243.514 37.0552 243.73 37.4632C243.958 37.8592 244.258 38.1652 244.63 38.3812C245.002 38.5972 245.422 38.7052 245.89 38.7052ZM258.963 31.0372C259.731 31.0372 260.415 31.1932 261.015 31.5052C261.627 31.8052 262.107 32.2732 262.455 32.9092C262.803 33.5332 262.977 34.3372 262.977 35.3212V40.8652H260.169V35.7532C260.169 34.9732 259.995 34.3972 259.647 34.0252C259.311 33.6532 258.831 33.4672 258.207 33.4672C257.763 33.4672 257.361 33.5632 257.001 33.7552C256.653 33.9352 256.377 34.2172 256.173 34.6012C255.981 34.9852 255.885 35.4772 255.885 36.0772V40.8652H253.077V31.1812H255.759V33.8632L255.255 33.0532C255.603 32.4052 256.101 31.9072 256.749 31.5592C257.397 31.2112 258.135 31.0372 258.963 31.0372ZM271.463 40.8652V38.9752L271.283 38.5612V35.1772C271.283 34.5772 271.097 34.1092 270.725 33.7732C270.365 33.4372 269.807 33.2692 269.051 33.2692C268.535 33.2692 268.025 33.3532 267.521 33.5212C267.029 33.6772 266.609 33.8932 266.261 34.1692L265.253 32.2072C265.781 31.8352 266.417 31.5472 267.161 31.3432C267.905 31.1392 268.661 31.0372 269.429 31.0372C270.905 31.0372 272.051 31.3852 272.867 32.0812C273.683 32.7772 274.091 33.8632 274.091 35.3392V40.8652H271.463ZM268.511 41.0092C267.755 41.0092 267.107 40.8832 266.567 40.6312C266.027 40.3672 265.613 40.0132 265.325 39.5692C265.037 39.1252 264.893 38.6272 264.893 38.0752C264.893 37.4992 265.031 36.9952 265.307 36.5632C265.595 36.1312 266.045 35.7952 266.657 35.5552C267.269 35.3032 268.067 35.1772 269.051 35.1772H271.625V36.8152H269.357C268.697 36.8152 268.241 36.9232 267.989 37.1392C267.749 37.3552 267.629 37.6252 267.629 37.9492C267.629 38.3092 267.767 38.5972 268.043 38.8132C268.331 39.0172 268.721 39.1192 269.213 39.1192C269.681 39.1192 270.101 39.0112 270.473 38.7952C270.845 38.5672 271.115 38.2372 271.283 37.8052L271.715 39.1012C271.511 39.7252 271.139 40.1992 270.599 40.5232C270.059 40.8472 269.363 41.0092 268.511 41.0092ZM276.632 40.8652V27.5092H279.44V40.8652H276.632ZM287.342 40.8652V28.2652H293.066C294.434 28.2652 295.64 28.5292 296.684 29.0572C297.728 29.5732 298.544 30.2992 299.132 31.2352C299.72 32.1712 300.014 33.2812 300.014 34.5652C300.014 35.8372 299.72 36.9472 299.132 37.8952C298.544 38.8312 297.728 39.5632 296.684 40.0912C295.64 40.6072 294.434 40.8652 293.066 40.8652H287.342ZM290.258 38.4712H292.922C293.762 38.4712 294.488 38.3152 295.1 38.0032C295.724 37.6792 296.204 37.2232 296.54 36.6352C296.888 36.0472 297.062 35.3572 297.062 34.5652C297.062 33.7612 296.888 33.0712 296.54 32.4952C296.204 31.9072 295.724 31.4572 295.1 31.1452C294.488 30.8212 293.762 30.6592 292.922 30.6592H290.258V38.4712ZM307.955 40.8652V38.9752L307.775 38.5612V35.1772C307.775 34.5772 307.589 34.1092 307.217 33.7732C306.857 33.4372 306.299 33.2692 305.543 33.2692C305.027 33.2692 304.517 33.3532 304.013 33.5212C303.521 33.6772 303.101 33.8932 302.753 34.1692L301.745 32.2072C302.273 31.8352 302.909 31.5472 303.653 31.3432C304.397 31.1392 305.153 31.0372 305.921 31.0372C307.397 31.0372 308.543 31.3852 309.359 32.0812C310.175 32.7772 310.583 33.8632 310.583 35.3392V40.8652H307.955ZM305.003 41.0092C304.247 41.0092 303.599 40.8832 303.059 40.6312C302.519 40.3672 302.105 40.0132 301.817 39.5692C301.529 39.1252 301.385 38.6272 301.385 38.0752C301.385 37.4992 301.523 36.9952 301.799 36.5632C302.087 36.1312 302.537 35.7952 303.149 35.5552C303.761 35.3032 304.559 35.1772 305.543 35.1772H308.117V36.8152H305.849C305.189 36.8152 304.733 36.9232 304.481 37.1392C304.241 37.3552 304.121 37.6252 304.121 37.9492C304.121 38.3092 304.259 38.5972 304.535 38.8132C304.823 39.0172 305.213 39.1192 305.705 39.1192C306.173 39.1192 306.593 39.0112 306.965 38.7952C307.337 38.5672 307.607 38.2372 307.775 37.8052L308.207 39.1012C308.003 39.7252 307.631 40.1992 307.091 40.5232C306.551 40.8472 305.855 41.0092 305.003 41.0092ZM317.084 41.0092C315.944 41.0092 315.056 40.7212 314.42 40.1452C313.784 39.5572 313.466 38.6872 313.466 37.5352V29.0392H316.274V37.4992C316.274 37.9072 316.382 38.2252 316.598 38.4532C316.814 38.6692 317.108 38.7772 317.48 38.7772C317.924 38.7772 318.302 38.6572 318.614 38.4172L319.37 40.3972C319.082 40.6012 318.734 40.7572 318.326 40.8652C317.93 40.9612 317.516 41.0092 317.084 41.0092ZM311.972 33.5572V31.3972H318.686V33.5572H311.972ZM326.886 40.8652V38.9752L326.706 38.5612V35.1772C326.706 34.5772 326.52 34.1092 326.148 33.7732C325.788 33.4372 325.23 33.2692 324.474 33.2692C323.958 33.2692 323.448 33.3532 322.944 33.5212C322.452 33.6772 322.032 33.8932 321.684 34.1692L320.676 32.2072C321.204 31.8352 321.84 31.5472 322.584 31.3432C323.328 31.1392 324.084 31.0372 324.852 31.0372C326.328 31.0372 327.474 31.3852 328.29 32.0812C329.106 32.7772 329.514 33.8632 329.514 35.3392V40.8652H326.886ZM323.934 41.0092C323.178 41.0092 322.53 40.8832 321.99 40.6312C321.45 40.3672 321.036 40.0132 320.748 39.5692C320.46 39.1252 320.316 38.6272 320.316 38.0752C320.316 37.4992 320.454 36.9952 320.73 36.5632C321.018 36.1312 321.468 35.7952 322.08 35.5552C322.692 35.3032 323.49 35.1772 324.474 35.1772H327.048V36.8152H324.78C324.12 36.8152 323.664 36.9232 323.412 37.1392C323.172 37.3552 323.052 37.6252 323.052 37.9492C323.052 38.3092 323.19 38.5972 323.466 38.8132C323.754 39.0172 324.144 39.1192 324.636 39.1192C325.104 39.1192 325.524 39.0112 325.896 38.7952C326.268 38.5672 326.538 38.2372 326.706 37.8052L327.138 39.1012C326.934 39.7252 326.562 40.1992 326.022 40.5232C325.482 40.8472 324.786 41.0092 323.934 41.0092ZM343.381 41.0812C342.409 41.0812 341.503 40.9252 340.663 40.6132C339.835 40.2892 339.115 39.8332 338.503 39.2452C337.891 38.6572 337.411 37.9672 337.063 37.1752C336.727 36.3832 336.559 35.5132 336.559 34.5652C336.559 33.6172 336.727 32.7472 337.063 31.9552C337.411 31.1632 337.891 30.4732 338.503 29.8852C339.127 29.2972 339.853 28.8472 340.681 28.5352C341.509 28.2112 342.415 28.0492 343.399 28.0492C344.491 28.0492 345.475 28.2412 346.351 28.6252C347.239 28.9972 347.983 29.5492 348.583 30.2812L346.711 32.0092C346.279 31.5172 345.799 31.1512 345.271 30.9112C344.743 30.6592 344.167 30.5332 343.543 30.5332C342.955 30.5332 342.415 30.6292 341.923 30.8212C341.431 31.0132 341.005 31.2892 340.645 31.6492C340.285 32.0092 340.003 32.4352 339.799 32.9272C339.607 33.4192 339.511 33.9652 339.511 34.5652C339.511 35.1652 339.607 35.7112 339.799 36.2032C340.003 36.6952 340.285 37.1212 340.645 37.4812C341.005 37.8412 341.431 38.1172 341.923 38.3092C342.415 38.5012 342.955 38.5972 343.543 38.5972C344.167 38.5972 344.743 38.4772 345.271 38.2372C345.799 37.9852 346.279 37.6072 346.711 37.1032L348.583 38.8312C347.983 39.5632 347.239 40.1212 346.351 40.5052C345.475 40.8892 344.485 41.0812 343.381 41.0812ZM354.629 41.0092C353.597 41.0092 352.679 40.7932 351.875 40.3612C351.083 39.9292 350.453 39.3412 349.985 38.5972C349.529 37.8412 349.301 36.9832 349.301 36.0232C349.301 35.0512 349.529 34.1932 349.985 33.4492C350.453 32.6932 351.083 32.1052 351.875 31.6852C352.679 31.2532 353.597 31.0372 354.629 31.0372C355.649 31.0372 356.561 31.2532 357.365 31.6852C358.169 32.1052 358.799 32.6872 359.255 33.4312C359.711 34.1752 359.939 35.0392 359.939 36.0232C359.939 36.9832 359.711 37.8412 359.255 38.5972C358.799 39.3412 358.169 39.9292 357.365 40.3612C356.561 40.7932 355.649 41.0092 354.629 41.0092ZM354.629 38.7052C355.097 38.7052 355.517 38.5972 355.889 38.3812C356.261 38.1652 356.555 37.8592 356.771 37.4632C356.987 37.0552 357.095 36.5752 357.095 36.0232C357.095 35.4592 356.987 34.9792 356.771 34.5832C356.555 34.1872 356.261 33.8812 355.889 33.6652C355.517 33.4492 355.097 33.3412 354.629 33.3412C354.161 33.3412 353.741 33.4492 353.369 33.6652C352.997 33.8812 352.697 34.1872 352.469 34.5832C352.253 34.9792 352.145 35.4592 352.145 36.0232C352.145 36.5752 352.253 37.0552 352.469 37.4632C352.697 37.8592 352.997 38.1652 353.369 38.3812C353.741 38.5972 354.161 38.7052 354.629 38.7052ZM374.218 31.0372C374.986 31.0372 375.664 31.1932 376.252 31.5052C376.852 31.8052 377.32 32.2732 377.656 32.9092C378.004 33.5332 378.178 34.3372 378.178 35.3212V40.8652H375.37V35.7532C375.37 34.9732 375.208 34.3972 374.884 34.0252C374.56 33.6532 374.104 33.4672 373.516 33.4672C373.108 33.4672 372.742 33.5632 372.418 33.7552C372.094 33.9352 371.842 34.2112 371.662 34.5832C371.482 34.9552 371.392 35.4292 371.392 36.0052V40.8652H368.584V35.7532C368.584 34.9732 368.422 34.3972 368.098 34.0252C367.786 33.6532 367.336 33.4672 366.748 33.4672C366.34 33.4672 365.974 33.5632 365.65 33.7552C365.326 33.9352 365.074 34.2112 364.894 34.5832C364.714 34.9552 364.624 35.4292 364.624 36.0052V40.8652H361.816V31.1812H364.498V33.8272L363.994 33.0532C364.33 32.3932 364.804 31.8952 365.416 31.5592C366.04 31.2112 366.748 31.0372 367.54 31.0372C368.428 31.0372 369.202 31.2652 369.862 31.7212C370.534 32.1652 370.978 32.8492 371.194 33.7732L370.204 33.5032C370.528 32.7472 371.044 32.1472 371.752 31.7032C372.472 31.2592 373.294 31.0372 374.218 31.0372ZM393.096 31.0372C393.864 31.0372 394.542 31.1932 395.13 31.5052C395.73 31.8052 396.198 32.2732 396.534 32.9092C396.882 33.5332 397.056 34.3372 397.056 35.3212V40.8652H394.248V35.7532C394.248 34.9732 394.086 34.3972 393.762 34.0252C393.438 33.6532 392.982 33.4672 392.394 33.4672C391.986 33.4672 391.62 33.5632 391.296 33.7552C390.972 33.9352 390.72 34.2112 390.54 34.5832C390.36 34.9552 390.27 35.4292 390.27 36.0052V40.8652H387.462V35.7532C387.462 34.9732 387.3 34.3972 386.976 34.0252C386.664 33.6532 386.214 33.4672 385.626 33.4672C385.218 33.4672 384.852 33.5632 384.528 33.7552C384.204 33.9352 383.952 34.2112 383.772 34.5832C383.592 34.9552 383.502 35.4292 383.502 36.0052V40.8652H380.694V31.1812H383.376V33.8272L382.872 33.0532C383.208 32.3932 383.682 31.8952 384.294 31.5592C384.918 31.2112 385.626 31.0372 386.418 31.0372C387.306 31.0372 388.08 31.2652 388.74 31.7212C389.412 32.1652 389.856 32.8492 390.072 33.7732L389.082 33.5032C389.406 32.7472 389.922 32.1472 390.63 31.7032C391.35 31.2592 392.172 31.0372 393.096 31.0372ZM404.252 41.0092C403.22 41.0092 402.302 40.7932 401.498 40.3612C400.706 39.9292 400.076 39.3412 399.608 38.5972C399.152 37.8412 398.924 36.9832 398.924 36.0232C398.924 35.0512 399.152 34.1932 399.608 33.4492C400.076 32.6932 400.706 32.1052 401.498 31.6852C402.302 31.2532 403.22 31.0372 404.252 31.0372C405.272 31.0372 406.184 31.2532 406.988 31.6852C407.792 32.1052 408.422 32.6872 408.878 33.4312C409.334 34.1752 409.562 35.0392 409.562 36.0232C409.562 36.9832 409.334 37.8412 408.878 38.5972C408.422 39.3412 407.792 39.9292 406.988 40.3612C406.184 40.7932 405.272 41.0092 404.252 41.0092ZM404.252 38.7052C404.72 38.7052 405.14 38.5972 405.512 38.3812C405.884 38.1652 406.178 37.8592 406.394 37.4632C406.61 37.0552 406.718 36.5752 406.718 36.0232C406.718 35.4592 406.61 34.9792 406.394 34.5832C406.178 34.1872 405.884 33.8812 405.512 33.6652C405.14 33.4492 404.72 33.3412 404.252 33.3412C403.784 33.3412 403.364 33.4492 402.992 33.6652C402.62 33.8812 402.32 34.1872 402.092 34.5832C401.876 34.9792 401.768 35.4592 401.768 36.0232C401.768 36.5752 401.876 37.0552 402.092 37.4632C402.32 37.8592 402.62 38.1652 402.992 38.3812C403.364 38.5972 403.784 38.7052 404.252 38.7052ZM417.325 31.0372C418.093 31.0372 418.777 31.1932 419.377 31.5052C419.989 31.8052 420.469 32.2732 420.817 32.9092C421.165 33.5332 421.339 34.3372 421.339 35.3212V40.8652H418.531V35.7532C418.531 34.9732 418.357 34.3972 418.009 34.0252C417.673 33.6532 417.193 33.4672 416.569 33.4672C416.125 33.4672 415.723 33.5632 415.363 33.7552C415.015 33.9352 414.739 34.2172 414.535 34.6012C414.343 34.9852 414.247 35.4772 414.247 36.0772V40.8652H411.439V31.1812H414.121V33.8632L413.617 33.0532C413.965 32.4052 414.463 31.9072 415.111 31.5592C415.759 31.2112 416.497 31.0372 417.325 31.0372ZM427.142 41.0092C426.314 41.0092 425.516 40.9132 424.748 40.7212C423.992 40.5172 423.392 40.2652 422.948 39.9652L423.884 37.9492C424.328 38.2252 424.85 38.4532 425.45 38.6332C426.062 38.8012 426.662 38.8852 427.25 38.8852C427.898 38.8852 428.354 38.8072 428.618 38.6512C428.894 38.4952 429.032 38.2792 429.032 38.0032C429.032 37.7752 428.924 37.6072 428.708 37.4992C428.504 37.3792 428.228 37.2892 427.88 37.2292C427.532 37.1692 427.148 37.1092 426.728 37.0492C426.32 36.9892 425.906 36.9112 425.486 36.8152C425.066 36.7072 424.682 36.5512 424.334 36.3472C423.986 36.1432 423.704 35.8672 423.488 35.5192C423.284 35.1712 423.182 34.7212 423.182 34.1692C423.182 33.5572 423.356 33.0172 423.704 32.5492C424.064 32.0812 424.58 31.7152 425.252 31.4512C425.924 31.1752 426.728 31.0372 427.664 31.0372C428.324 31.0372 428.996 31.1092 429.68 31.2532C430.364 31.3972 430.934 31.6072 431.39 31.8832L430.454 33.8812C429.986 33.6052 429.512 33.4192 429.032 33.3232C428.564 33.2152 428.108 33.1612 427.664 33.1612C427.04 33.1612 426.584 33.2452 426.296 33.4132C426.008 33.5812 425.864 33.7972 425.864 34.0612C425.864 34.3012 425.966 34.4812 426.17 34.6012C426.386 34.7212 426.668 34.8172 427.016 34.8892C427.364 34.9612 427.742 35.0272 428.15 35.0872C428.57 35.1352 428.99 35.2132 429.41 35.3212C429.83 35.4292 430.208 35.5852 430.544 35.7892C430.892 35.9812 431.174 36.2512 431.39 36.5992C431.606 36.9352 431.714 37.3792 431.714 37.9312C431.714 38.5312 431.534 39.0652 431.174 39.5332C430.814 39.9892 430.292 40.3492 429.608 40.6132C428.936 40.8772 428.114 41.0092 427.142 41.0092Z" fill="#606061"/>
</svg>
