<?xml version="1.0" encoding="UTF-8"?>
<svg id="Layer_1" data-name="Layer 1" xmlns="http://www.w3.org/2000/svg" viewBox="0 0 288 38">
  <defs>
    <style>
      .cls-1 {
        fill: #606061;
      }

      .cls-1, .cls-2, .cls-3, .cls-4 {
        stroke-width: 0px;
      }

      .cls-2 {
        fill: #bb0e3d;
      }

      .cls-3 {
        fill: #ba1f40;
      }

      .cls-4 {
        fill: #fff;
      }
    </style>
  </defs>
  <g id="NCI">
    <path class="cls-2" d="M65.08,1.6h1.49v6.67h-1.49l-3.18-4.18v4.18h-1.49V1.6h1.39l3.27,4.29V1.6Z"/>
    <path class="cls-2" d="M72.95,8.27l-.62-1.44h-2.79l-.62,1.44h-1.58l2.88-6.67h1.44l2.88,6.67h-1.58ZM70.94,3.59l-.84,1.94h1.67l-.83-1.94Z"/>
    <path class="cls-2" d="M77.65,2.89v5.38h-1.49V2.89h-1.89v-1.29h5.26v1.29h-1.89Z"/>
    <path class="cls-2" d="M80.62,1.6h1.49v6.67h-1.49V1.6Z"/>
    <path class="cls-2" d="M89.36,7.35c-.67.66-1.5.99-2.49.99s-1.82-.33-2.49-.99c-.67-.66-1.01-1.48-1.01-2.46s.34-1.8,1.01-2.46c.67-.66,1.5-.99,2.49-.99s1.82.33,2.49.99c.67.66,1.01,1.48,1.01,2.46s-.34,1.8-1.01,2.46ZM88.85,4.9c0-.59-.19-1.1-.57-1.52-.38-.42-.85-.63-1.41-.63s-1.03.21-1.41.63-.57.93-.57,1.52.19,1.1.57,1.52c.38.42.85.62,1.41.62s1.03-.21,1.41-.62c.38-.42.57-.92.57-1.52Z"/>
    <path class="cls-2" d="M96.29,1.6h1.49v6.67h-1.49l-3.18-4.18v4.18h-1.49V1.6h1.39l3.27,4.29V1.6Z"/>
    <path class="cls-2" d="M104.17,8.27l-.62-1.44h-2.79l-.62,1.44h-1.58l2.88-6.67h1.44l2.88,6.67h-1.58ZM102.16,3.59l-.84,1.94h1.67l-.83-1.94Z"/>
    <path class="cls-2" d="M106.52,8.27V1.6h1.49v5.34h2.84v1.33h-4.33Z"/>
    <path class="cls-2" d="M117.52,6.95c.73,0,1.33-.29,1.79-.87l.95.98c-.76.85-1.65,1.28-2.68,1.28s-1.87-.32-2.54-.97c-.66-.65-1-1.47-1-2.46s.34-1.81,1.02-2.47c.68-.66,1.51-.99,2.48-.99,1.09,0,2.01.42,2.75,1.25l-.93,1.05c-.47-.58-1.06-.88-1.75-.88-.56,0-1.04.18-1.44.55-.4.37-.6.86-.6,1.48s.19,1.12.56,1.49c.37.38.83.56,1.36.56Z"/>
    <path class="cls-2" d="M126.14,8.27l-.62-1.44h-2.79l-.62,1.44h-1.58l2.88-6.67h1.44l2.88,6.67h-1.58ZM124.13,3.59l-.84,1.94h1.67l-.83-1.94Z"/>
    <path class="cls-2" d="M133.16,1.6h1.49v6.67h-1.49l-3.18-4.18v4.18h-1.49V1.6h1.39l3.27,4.29V1.6Z"/>
    <path class="cls-2" d="M139.35,6.95c.73,0,1.33-.29,1.79-.87l.95.98c-.76.85-1.65,1.28-2.68,1.28s-1.87-.32-2.54-.97c-.66-.65-1-1.47-1-2.46s.34-1.81,1.02-2.47c.68-.66,1.5-.99,2.48-.99,1.09,0,2.01.42,2.75,1.25l-.93,1.05c-.47-.58-1.06-.88-1.75-.88-.56,0-1.04.18-1.44.55-.4.37-.6.86-.6,1.48s.19,1.12.56,1.49c.37.38.83.56,1.36.56Z"/>
    <path class="cls-2" d="M148.08,1.6v1.33h-3.32v1.37h2.99v1.27h-2.99v1.38h3.42v1.32h-4.91V1.6h4.81Z"/>
    <path class="cls-2" d="M154.92,3.82c0,1.07-.42,1.76-1.27,2.07l1.69,2.38h-1.83l-1.48-2.13h-1.03v2.13h-1.49V1.6h2.53c1.04,0,1.78.17,2.22.52s.66.91.66,1.69ZM153.12,4.61c.18-.17.28-.43.28-.79s-.09-.61-.29-.74-.52-.2-1-.2h-1.12v1.97h1.09c.51,0,.85-.08,1.04-.25Z"/>
    <path class="cls-2" d="M158.96,1.6h1.49v6.67h-1.49V1.6Z"/>
    <path class="cls-2" d="M166.75,1.6h1.49v6.67h-1.49l-3.18-4.18v4.18h-1.49V1.6h1.39l3.27,4.29V1.6Z"/>
    <path class="cls-2" d="M171.44,2.93c-.14.12-.21.27-.21.47s.09.35.26.46c.18.11.58.25,1.21.41s1.12.39,1.47.7c.35.31.52.77.52,1.36s-.22,1.08-.67,1.45-1.04.56-1.77.56c-1.06,0-2.01-.39-2.85-1.17l.89-1.09c.72.63,1.38.94,1.99.94.27,0,.49-.06.64-.18.16-.12.23-.28.23-.48s-.08-.36-.25-.48-.49-.24-.98-.36c-.78-.18-1.34-.42-1.7-.72s-.54-.76-.54-1.39.23-1.12.68-1.46c.45-.34,1.02-.52,1.7-.52.45,0,.89.08,1.34.23.44.15.83.37,1.16.65l-.75,1.09c-.58-.44-1.18-.66-1.79-.66-.25,0-.44.06-.59.18Z"/>
    <path class="cls-2" d="M178.73,2.89v5.38h-1.49V2.89h-1.89v-1.29h5.26v1.29h-1.89Z"/>
    <path class="cls-2" d="M181.71,1.6h1.49v6.67h-1.49V1.6Z"/>
    <path class="cls-2" d="M187.66,2.89v5.38h-1.49V2.89h-1.89v-1.29h5.26v1.29h-1.89Z"/>
    <path class="cls-2" d="M192.4,6.55c.25.31.58.46,1,.46s.75-.15,1-.46c.24-.31.37-.73.37-1.26V1.6h1.49v3.73c0,.97-.27,1.71-.8,2.23-.53.52-1.22.78-2.05.78s-1.52-.26-2.06-.78-.81-1.26-.81-2.22V1.6h1.49v3.68c0,.53.12.95.37,1.26Z"/>
    <path class="cls-2" d="M200.62,2.89v5.38h-1.49V2.89h-1.89v-1.29h5.26v1.29h-1.89Z"/>
    <path class="cls-2" d="M208.4,1.6v1.33h-3.32v1.37h2.99v1.27h-2.99v1.38h3.42v1.32h-4.91V1.6h4.81Z"/>
  </g>
  <g id="NIH_Luggage_Tag" data-name="NIH Luggage Tag">
    <path class="cls-1" d="M45.05,18.95L36.08,2.8H3.64C1.73,2.8.19,4.35.19,6.26v25.38c0,1.91,1.54,3.46,3.45,3.46h32.44l8.97-16.15Z"/>
    <path class="cls-3" d="M44.15,4.49c-.63-1.04-1.77-1.68-3-1.68h-2.68l9.09,16.15-9.09,16.15h2.68c1.23,0,2.37-.64,3-1.68l8.07-14.47-8.07-14.47Z"/>
    <rect class="cls-4" x="19.33" y="11.77" width="2.39" height="14.36"/>
    <polygon class="cls-4" points="14.54 11.77 14.54 22.3 7.97 11.77 5.57 11.77 5.57 26.13 7.97 26.13 7.97 15.6 14.54 26.13 16.94 26.13 16.94 11.77 14.54 11.77"/>
    <polygon class="cls-4" points="33.09 11.77 33.09 17.76 26.51 17.76 26.51 11.77 24.12 11.77 24.12 26.13 26.51 26.13 26.51 20.15 33.09 20.15 33.09 26.13 35.48 26.13 35.48 11.77 33.09 11.77"/>
  </g>
  <g>
    <path class="cls-1" d="M60.58,16.88c0-2.53,1.94-4.34,4.56-4.34,1.45,0,2.66.53,3.45,1.49l-1.25,1.15c-.56-.65-1.27-.98-2.11-.98-1.57,0-2.69,1.1-2.69,2.69s1.12,2.69,2.69,2.69c.84,0,1.55-.34,2.11-1l1.25,1.15c-.79.97-2,1.5-3.47,1.5-2.6,0-4.55-1.81-4.55-4.34Z"/>
    <path class="cls-1" d="M69.77,12.18h1.87v8.9h-1.87v-8.9Z"/>
    <path class="cls-1" d="M73.16,12.68c0-.59.47-1.04,1.16-1.04s1.16.43,1.16,1.01c0,.62-.47,1.08-1.16,1.08s-1.16-.46-1.16-1.04ZM73.39,14.63h1.87v6.45h-1.87v-6.45Z"/>
    <path class="cls-1" d="M83.59,17.38v3.69h-1.87v-3.41c0-1.04-.48-1.52-1.31-1.52-.9,0-1.55.55-1.55,1.74v3.19h-1.87v-6.45h1.79v.76c.5-.55,1.26-.85,2.13-.85,1.52,0,2.67.89,2.67,2.85Z"/>
    <path class="cls-1" d="M85.06,12.68c0-.59.47-1.04,1.16-1.04s1.16.43,1.16,1.01c0,.62-.47,1.08-1.16,1.08s-1.16-.46-1.16-1.04ZM85.29,14.63h1.87v6.45h-1.87v-6.45Z"/>
    <path class="cls-1" d="M88.42,17.85c0-1.94,1.5-3.32,3.6-3.32,1.36,0,2.42.59,2.89,1.64l-1.45.78c-.35-.61-.86-.89-1.45-.89-.95,0-1.69.66-1.69,1.79s.74,1.79,1.69,1.79c.59,0,1.1-.26,1.45-.89l1.45.79c-.47,1.03-1.54,1.63-2.89,1.63-2.1,0-3.6-1.38-3.6-3.32Z"/>
    <path class="cls-1" d="M101.7,17.4v3.68h-1.75v-.8c-.35.59-1.02.9-1.97.9-1.51,0-2.41-.84-2.41-1.95s.8-1.93,2.77-1.93h1.49c0-.8-.48-1.27-1.49-1.27-.68,0-1.39.23-1.86.6l-.67-1.31c.71-.5,1.75-.78,2.78-.78,1.97,0,3.11.91,3.11,2.87ZM99.83,19.04v-.66h-1.28c-.88,0-1.15.32-1.15.76,0,.47.4.78,1.06.78.62,0,1.16-.29,1.38-.88Z"/>
    <path class="cls-1" d="M103.4,12.18h1.87v8.9h-1.87v-8.9Z"/>
    <path class="cls-1" d="M116.11,17.4v3.68h-1.75v-.8c-.35.59-1.02.9-1.97.9-1.51,0-2.41-.84-2.41-1.95s.8-1.93,2.77-1.93h1.49c0-.8-.48-1.27-1.49-1.27-.68,0-1.39.23-1.86.6l-.67-1.31c.71-.5,1.75-.78,2.78-.78,1.97,0,3.11.91,3.11,2.87ZM114.24,19.04v-.66h-1.28c-.88,0-1.15.32-1.15.76,0,.47.4.78,1.06.78.62,0,1.16-.29,1.38-.88Z"/>
    <path class="cls-1" d="M124.41,17.38v3.69h-1.87v-3.41c0-1.04-.48-1.52-1.31-1.52-.9,0-1.55.55-1.55,1.74v3.19h-1.87v-6.45h1.79v.76c.5-.55,1.26-.85,2.13-.85,1.52,0,2.67.89,2.67,2.85Z"/>
    <path class="cls-1" d="M132.75,12.18v8.9h-1.79v-.74c-.47.56-1.15.84-2.02.84-1.82,0-3.23-1.29-3.23-3.32s1.4-3.32,3.23-3.32c.79,0,1.46.25,1.93.78v-3.13h1.87ZM130.91,17.85c0-1.12-.72-1.79-1.64-1.79s-1.66.67-1.66,1.79.72,1.79,1.66,1.79,1.64-.67,1.64-1.79Z"/>
    <path class="cls-1" d="M139.74,14.27h-2.69v-1.58h7.32v1.58h-2.69v6.81h-1.94v-6.81Z"/>
    <path class="cls-1" d="M149.15,14.53v1.73c-.16-.01-.28-.02-.42-.02-1.03,0-1.71.56-1.71,1.8v3.05h-1.87v-6.45h1.79v.85c.46-.62,1.22-.95,2.22-.95Z"/>
    <path class="cls-1" d="M155.94,17.4v3.68h-1.75v-.8c-.35.59-1.02.9-1.97.9-1.51,0-2.41-.84-2.41-1.95s.8-1.93,2.77-1.93h1.49c0-.8-.48-1.27-1.49-1.27-.68,0-1.39.23-1.86.6l-.67-1.31c.71-.5,1.75-.78,2.78-.78,1.97,0,3.11.91,3.11,2.87ZM154.07,19.04v-.66h-1.28c-.88,0-1.15.32-1.15.76,0,.47.4.78,1.06.78.62,0,1.16-.29,1.38-.88Z"/>
    <path class="cls-1" d="M164.23,17.38v3.69h-1.87v-3.41c0-1.04-.48-1.52-1.31-1.52-.9,0-1.55.55-1.55,1.74v3.19h-1.87v-6.45h1.79v.76c.5-.55,1.26-.85,2.13-.85,1.52,0,2.67.89,2.67,2.85Z"/>
    <path class="cls-1" d="M165.31,20.48l.62-1.34c.58.37,1.45.62,2.24.62.86,0,1.19-.23,1.19-.59,0-1.06-3.9.02-3.9-2.55,0-1.22,1.1-2.09,2.99-2.09.89,0,1.87.2,2.48.56l-.62,1.33c-.64-.36-1.27-.48-1.86-.48-.84,0-1.2.26-1.2.6,0,1.1,3.9.04,3.9,2.58,0,1.2-1.12,2.05-3.05,2.05-1.09,0-2.19-.3-2.79-.7Z"/>
    <path class="cls-1" d="M172.3,12.18h1.87v8.9h-1.87v-8.9Z"/>
    <path class="cls-1" d="M181.62,17.4v3.68h-1.75v-.8c-.35.59-1.02.9-1.97.9-1.51,0-2.41-.84-2.41-1.95s.8-1.93,2.77-1.93h1.49c0-.8-.48-1.27-1.49-1.27-.68,0-1.39.23-1.86.6l-.67-1.31c.71-.5,1.75-.78,2.78-.78,1.97,0,3.11.91,3.11,2.87ZM179.75,19.04v-.66h-1.28c-.88,0-1.15.32-1.15.76,0,.47.4.78,1.06.78.62,0,1.16-.29,1.38-.88Z"/>
    <path class="cls-1" d="M187.48,20.77c-.38.28-.95.41-1.52.41-1.52,0-2.41-.78-2.41-2.31v-2.65h-1v-1.44h1v-1.57h1.87v1.57h1.61v1.44h-1.61v2.63c0,.55.3.85.8.85.28,0,.55-.08.75-.24l.5,1.32Z"/>
    <path class="cls-1" d="M188.31,12.68c0-.59.47-1.04,1.16-1.04s1.16.43,1.16,1.01c0,.62-.47,1.08-1.16,1.08s-1.16-.46-1.16-1.04ZM188.54,14.63h1.87v6.45h-1.87v-6.45Z"/>
    <path class="cls-1" d="M191.67,17.85c0-1.94,1.5-3.32,3.55-3.32s3.54,1.38,3.54,3.32-1.49,3.32-3.54,3.32-3.55-1.38-3.55-3.32ZM196.86,17.85c0-1.12-.71-1.79-1.64-1.79s-1.65.67-1.65,1.79.72,1.79,1.65,1.79,1.64-.67,1.64-1.79Z"/>
    <path class="cls-1" d="M206.61,17.38v3.69h-1.87v-3.41c0-1.04-.48-1.52-1.31-1.52-.9,0-1.55.55-1.55,1.74v3.19h-1.87v-6.45h1.79v.76c.5-.55,1.26-.85,2.13-.85,1.52,0,2.67.89,2.67,2.85Z"/>
    <path class="cls-1" d="M214.01,17.4v3.68h-1.75v-.8c-.35.59-1.02.9-1.97.9-1.51,0-2.41-.84-2.41-1.95s.8-1.93,2.77-1.93h1.49c0-.8-.48-1.27-1.49-1.27-.68,0-1.39.23-1.86.6l-.67-1.31c.71-.5,1.75-.78,2.78-.78,1.97,0,3.11.91,3.11,2.87ZM212.14,19.04v-.66h-1.28c-.88,0-1.15.32-1.15.76,0,.47.4.78,1.06.78.62,0,1.16-.29,1.38-.88Z"/>
    <path class="cls-1" d="M215.7,12.18h1.87v8.9h-1.87v-8.9Z"/>
    <path class="cls-1" d="M61.11,25.18h3.81c2.75,0,4.63,1.66,4.63,4.2s-1.88,4.2-4.63,4.2h-3.81v-8.4ZM64.83,31.98c1.67,0,2.76-1,2.76-2.6s-1.09-2.6-2.76-2.6h-1.78v5.21h1.78Z"/>
    <path class="cls-1" d="M76.6,29.9v3.68h-1.75v-.8c-.35.59-1.02.9-1.97.9-1.51,0-2.41-.84-2.41-1.95s.8-1.93,2.77-1.93h1.49c0-.8-.48-1.27-1.49-1.27-.68,0-1.39.23-1.86.6l-.67-1.31c.71-.5,1.75-.78,2.78-.78,1.97,0,3.11.91,3.11,2.87ZM74.73,31.54v-.66h-1.28c-.88,0-1.15.32-1.15.76,0,.47.4.78,1.06.78.62,0,1.16-.29,1.38-.88Z"/>
    <path class="cls-1" d="M82.46,33.27c-.38.28-.95.41-1.52.41-1.52,0-2.41-.78-2.41-2.31v-2.65h-1v-1.44h1v-1.57h1.87v1.57h1.61v1.44h-1.61v2.63c0,.55.3.85.8.85.28,0,.55-.08.76-.24l.5,1.32Z"/>
    <path class="cls-1" d="M89.22,29.9v3.68h-1.75v-.8c-.35.59-1.02.9-1.97.9-1.51,0-2.41-.84-2.41-1.95s.8-1.93,2.77-1.93h1.49c0-.8-.48-1.27-1.49-1.27-.68,0-1.39.23-1.86.6l-.67-1.31c.71-.5,1.75-.78,2.78-.78,1.97,0,3.11.91,3.11,2.87ZM87.35,31.54v-.66h-1.28c-.88,0-1.15.32-1.15.76,0,.47.4.78,1.06.78.62,0,1.16-.29,1.38-.88Z"/>
    <path class="cls-1" d="M93.92,29.38c0-2.53,1.94-4.34,4.56-4.34,1.45,0,2.66.53,3.45,1.49l-1.25,1.15c-.56-.65-1.27-.98-2.11-.98-1.57,0-2.69,1.1-2.69,2.69s1.12,2.69,2.69,2.69c.84,0,1.55-.34,2.11-1l1.25,1.15c-.79.97-2,1.5-3.47,1.5-2.6,0-4.55-1.81-4.55-4.34Z"/>
    <path class="cls-1" d="M102.4,30.35c0-1.94,1.5-3.32,3.55-3.32s3.54,1.38,3.54,3.32-1.49,3.32-3.54,3.32-3.55-1.38-3.55-3.32ZM107.6,30.35c0-1.12-.71-1.79-1.64-1.79s-1.66.67-1.66,1.79.72,1.79,1.66,1.79,1.64-.67,1.64-1.79Z"/>
    <path class="cls-1" d="M121.64,29.88v3.69h-1.87v-3.41c0-1.04-.47-1.52-1.22-1.52-.84,0-1.43.54-1.43,1.69v3.24h-1.87v-3.41c0-1.04-.44-1.52-1.22-1.52-.83,0-1.42.54-1.42,1.69v3.24h-1.87v-6.45h1.79v.74c.48-.55,1.2-.84,2.03-.84.9,0,1.67.35,2.12,1.06.52-.66,1.35-1.06,2.33-1.06,1.54,0,2.64.89,2.64,2.85Z"/>
    <path class="cls-1" d="M134.23,29.88v3.69h-1.87v-3.41c0-1.04-.47-1.52-1.22-1.52-.84,0-1.43.54-1.43,1.69v3.24h-1.87v-3.41c0-1.04-.44-1.52-1.22-1.52-.83,0-1.42.54-1.42,1.69v3.24h-1.87v-6.45h1.79v.74c.48-.55,1.2-.84,2.03-.84.9,0,1.67.35,2.12,1.06.52-.66,1.35-1.06,2.33-1.06,1.54,0,2.64.89,2.64,2.85Z"/>
    <path class="cls-1" d="M135.51,30.35c0-1.94,1.5-3.32,3.55-3.32s3.54,1.38,3.54,3.32-1.49,3.32-3.54,3.32-3.55-1.38-3.55-3.32ZM140.7,30.35c0-1.12-.71-1.79-1.64-1.79s-1.65.67-1.65,1.79.72,1.79,1.65,1.79,1.64-.67,1.64-1.79Z"/>
    <path class="cls-1" d="M150.45,29.88v3.69h-1.87v-3.41c0-1.04-.48-1.52-1.31-1.52-.9,0-1.55.55-1.55,1.74v3.19h-1.87v-6.45h1.79v.76c.5-.55,1.26-.85,2.13-.85,1.52,0,2.67.89,2.67,2.85Z"/>
    <path class="cls-1" d="M151.52,32.98l.62-1.34c.58.37,1.45.62,2.24.62.86,0,1.19-.23,1.19-.59,0-1.06-3.9.02-3.9-2.55,0-1.22,1.1-2.09,2.99-2.09.89,0,1.87.2,2.48.56l-.62,1.33c-.64-.36-1.27-.48-1.86-.48-.84,0-1.2.26-1.2.6,0,1.1,3.9.04,3.9,2.58,0,1.2-1.12,2.05-3.05,2.05-1.09,0-2.19-.3-2.79-.7Z"/>
  </g>
</svg>