<svg width="243" height="38" viewBox="0 0 243 38" fill="none" xmlns="http://www.w3.org/2000/svg">
<g clip-path="url(#clip0_29_1680)">
<path d="M71.2011 0.274231H72.8605V7.70277H71.2011L67.6594 3.0474V7.70277H66V0.274231H67.5481L71.19 5.05211V0.274231H71.2011Z" fill="#BB0E3D"/>
<path d="M79.9663 7.70277L79.2757 6.09901H76.1685L75.4779 7.70277H73.7183L76.9258 0.274231H78.5296L81.7371 7.70277H79.9774H79.9663ZM77.7277 2.49054L76.7921 4.65117H78.6521L77.7277 2.49054Z" fill="#BB0E3D"/>
<path d="M85.2007 1.71093V7.70277H83.5412V1.71093H81.4363V0.274231H87.2945V1.71093H85.1895H85.2007Z" fill="#BB0E3D"/>
<path d="M88.5083 0.274231H90.1677V7.70277H88.5083V0.274231Z" fill="#BB0E3D"/>
<path d="M98.2422 6.67811C97.4961 7.41317 96.5717 7.7807 95.4691 7.7807C94.3665 7.7807 93.4421 7.41317 92.6959 6.67811C91.9497 5.94306 91.571 5.0298 91.571 3.93835C91.571 2.84691 91.9497 1.93365 92.6959 1.19859C93.4421 0.463537 94.3665 0.0960083 95.4691 0.0960083C96.5717 0.0960083 97.4961 0.463537 98.2422 1.19859C98.9884 1.93365 99.3671 2.84691 99.3671 3.93835C99.3671 5.0298 98.9884 5.94306 98.2422 6.67811ZM97.6742 3.94949C97.6742 3.2924 97.4626 2.7244 97.0394 2.25663C96.6162 1.78887 96.0928 1.55499 95.4691 1.55499C94.8454 1.55499 94.3219 1.78887 93.8987 2.25663C93.4755 2.7244 93.2639 3.2924 93.2639 3.94949C93.2639 4.60659 93.4755 5.17459 93.8987 5.64235C94.3219 6.11012 94.8454 6.33286 95.4691 6.33286C96.0928 6.33286 96.6162 6.09898 97.0394 5.64235C97.4626 5.17459 97.6742 4.61773 97.6742 3.94949Z" fill="#BB0E3D"/>
<path d="M105.96 0.274231H107.62V7.70277H105.96L102.419 3.0474V7.70277H100.759V0.274231H102.307L105.949 5.05211V0.274231H105.96Z" fill="#BB0E3D"/>
<path d="M114.737 7.70277L114.046 6.09901H110.939L110.248 7.70277H108.489L111.696 0.274231H113.3L116.508 7.70277H114.748H114.737ZM112.498 2.49054L111.563 4.65117H113.423L112.498 2.49054Z" fill="#BB0E3D"/>
<path d="M117.354 7.70277V0.274231H119.013V6.22152H122.176V7.70277H117.354Z" fill="#BB0E3D"/>
<path d="M129.605 6.23266C130.418 6.23266 131.086 5.90968 131.598 5.26372L132.656 6.35517C131.81 7.30183 130.819 7.78073 129.672 7.78073C128.524 7.78073 127.589 7.42434 126.843 6.70042C126.108 5.9765 125.729 5.06325 125.729 3.96066C125.729 2.85807 126.108 1.94482 126.865 1.20976C127.622 0.474707 128.547 0.107178 129.627 0.107178C130.841 0.107178 131.866 0.574942 132.69 1.49933L131.654 2.66874C131.131 2.02278 130.473 1.68867 129.705 1.68867C129.081 1.68867 128.547 1.88914 128.101 2.30121C127.656 2.71329 127.433 3.25902 127.433 3.94952C127.433 4.64003 127.645 5.19689 128.057 5.60897C128.469 6.03219 128.981 6.23266 129.571 6.23266H129.605Z" fill="#BB0E3D"/>
<path d="M139.205 7.70277L138.515 6.09901H135.407L134.717 7.70277H132.957L136.165 0.274231H137.768L140.976 7.70277H139.216H139.205ZM136.966 2.49054L136.031 4.65117H137.891L136.966 2.49054Z" fill="#BB0E3D"/>
<path d="M147.023 0.274231H148.683V7.70277H147.023L143.482 3.0474V7.70277H141.822V0.274231H143.37L147.012 5.05211V0.274231H147.023Z" fill="#BB0E3D"/>
<path d="M153.917 6.23266C154.73 6.23266 155.399 5.90968 155.911 5.26372L156.969 6.35517C156.122 7.30183 155.131 7.78073 153.984 7.78073C152.837 7.78073 151.901 7.42434 151.155 6.70042C150.42 5.9765 150.042 5.06325 150.042 3.96066C150.042 2.85807 150.42 1.94482 151.178 1.20976C151.935 0.474707 152.848 0.107178 153.94 0.107178C155.153 0.107178 156.178 0.574942 157.002 1.49933L155.967 2.66874C155.443 2.02278 154.786 1.68867 154.018 1.68867C153.394 1.68867 152.859 1.88914 152.414 2.30121C151.968 2.71329 151.745 3.25902 151.745 3.94952C151.745 4.64003 151.957 5.19689 152.369 5.60897C152.781 6.03219 153.294 6.23266 153.884 6.23266H153.917Z" fill="#BB0E3D"/>
<path d="M163.64 0.274231V1.75548H159.943V3.28129H163.273V4.69571H159.943V6.23265H163.752V7.70277H158.283V0.274231H163.64Z" fill="#BB0E3D"/>
<path d="M171.258 2.7467C171.258 3.93838 170.79 4.70685 169.844 5.05211L171.726 7.70277H169.688L168.039 5.33054H166.892V7.70277H165.233V0.274231H168.051C169.209 0.274231 170.033 0.463564 170.523 0.853367C171.013 1.24317 171.258 1.86686 171.258 2.73556V2.7467ZM169.265 3.62654C169.465 3.43721 169.576 3.14764 169.576 2.7467C169.576 2.34576 169.476 2.06733 169.253 1.92254C169.031 1.77776 168.674 1.6998 168.14 1.6998H166.892V3.89383H168.106C168.674 3.89383 169.053 3.80473 169.265 3.6154V3.62654Z" fill="#BB0E3D"/>
<path d="M175.758 0.274231H177.417V7.70277H175.758V0.274231Z" fill="#BB0E3D"/>
<path d="M184.434 0.274231H186.093V7.70277H184.434L180.892 3.0474V7.70277H179.232V0.274231H180.78L184.422 5.05211V0.274231H184.434Z" fill="#BB0E3D"/>
<path d="M189.657 1.75549C189.501 1.88913 189.423 2.05619 189.423 2.27894C189.423 2.50168 189.523 2.66874 189.713 2.79125C189.913 2.91376 190.359 3.06968 191.06 3.24788C191.762 3.42607 192.308 3.68223 192.697 4.02748C193.087 4.37274 193.277 4.88505 193.277 5.54215C193.277 6.19924 193.032 6.74497 192.53 7.15705C192.029 7.56912 191.372 7.78073 190.559 7.78073C189.379 7.78073 188.321 7.34638 187.385 6.47767L188.376 5.26371C189.178 5.96536 189.913 6.31062 190.593 6.31062C190.893 6.31062 191.138 6.24379 191.305 6.11015C191.484 5.9765 191.561 5.7983 191.561 5.57556C191.561 5.35281 191.472 5.17462 191.283 5.04097C191.094 4.90732 190.737 4.77368 190.192 4.64003C189.323 4.43956 188.699 4.17227 188.298 3.83815C187.897 3.50403 187.697 2.99172 187.697 2.29007C187.697 1.58843 187.953 1.0427 188.454 0.664036C188.955 0.28537 189.59 0.0848999 190.348 0.0848999C190.849 0.0848999 191.339 0.173998 191.84 0.341056C192.33 0.508115 192.764 0.753134 193.132 1.06498L192.297 2.27894C191.651 1.7889 190.982 1.54388 190.303 1.54388C190.025 1.54388 189.813 1.6107 189.646 1.74435L189.657 1.75549Z" fill="#BB0E3D"/>
<path d="M197.776 1.71093V7.70277H196.116V1.71093H194.011V0.274231H199.87V1.71093H197.765H197.776Z" fill="#BB0E3D"/>
<path d="M201.095 0.274231H202.754V7.70277H201.095V0.274231Z" fill="#BB0E3D"/>
<path d="M207.721 1.71093V7.70277H206.062V1.71093H203.957V0.274231H209.815V1.71093H207.71H207.721Z" fill="#BB0E3D"/>
<path d="M213 5.78716C213.279 6.13242 213.646 6.29948 214.114 6.29948C214.582 6.29948 214.949 6.13242 215.228 5.78716C215.495 5.44191 215.64 4.97414 215.64 4.38387V0.274231H217.299V4.42842C217.299 5.50873 216.999 6.33289 216.408 6.91202C215.818 7.49116 215.05 7.78073 214.125 7.78073C213.201 7.78073 212.432 7.49116 211.831 6.91202C211.23 6.33289 210.929 5.50873 210.929 4.43956V0.274231H212.588V4.37273C212.588 4.96301 212.722 5.43077 213 5.77603V5.78716Z" fill="#BB0E3D"/>
<path d="M222.155 1.71093V7.70277H220.496V1.71093H218.391V0.274231H224.249V1.71093H222.144H222.155Z" fill="#BB0E3D"/>
<path d="M230.82 0.274231V1.75548H227.122V3.28129H230.452V4.69571H227.122V6.23265H230.931V7.70277H225.463V0.274231H230.82Z" fill="#BB0E3D"/>
<path d="M49.9616 19.5974L39.9715 1.61072H3.84235C1.71513 1.61072 0 3.33699 0 5.4642V33.7305C0 35.8577 1.71513 37.584 3.84235 37.584H39.9715L49.9616 19.5974Z" fill="#606061"/>
<path d="M48.9593 3.49294C48.2576 2.33467 46.988 1.62189 45.6181 1.62189H42.6333L52.757 19.6085L42.6333 37.5952H45.6181C46.988 37.5952 48.2576 36.8824 48.9593 35.7241L57.947 19.6085L48.9593 3.49294Z" fill="#BA1F40"/>
<path d="M23.9784 11.6008H21.3167V27.5939H23.9784V11.6008Z" fill="white"/>
<path d="M15.982 11.6008V23.3283L8.66488 11.6008H5.99194V27.5939H8.66488V15.8664L15.982 27.5939H18.655V11.6008H15.982Z" fill="white"/>
<path d="M36.6417 11.6008V18.272H29.3134V11.6008H26.6516V27.5939H29.3134V20.9338H36.6417V27.5939H39.3035V11.6008H36.6417Z" fill="white"/>
<path d="M71.643 22.162C70.914 22.162 70.2345 22.045 69.6045 21.811C68.9835 21.568 68.4435 21.226 67.9845 20.785C67.5255 20.344 67.1655 19.8265 66.9045 19.2325C66.6525 18.6385 66.5265 17.986 66.5265 17.275C66.5265 16.564 66.6525 15.9115 66.9045 15.3175C67.1655 14.7235 67.5255 14.206 67.9845 13.765C68.4525 13.324 68.997 12.9865 69.618 12.7525C70.239 12.5095 70.9185 12.388 71.6565 12.388C72.4755 12.388 73.2135 12.532 73.8705 12.82C74.5365 13.099 75.0945 13.513 75.5445 14.062L74.1405 15.358C73.8165 14.989 73.4565 14.7145 73.0605 14.5345C72.6645 14.3455 72.2325 14.251 71.7645 14.251C71.3235 14.251 70.9185 14.323 70.5495 14.467C70.1805 14.611 69.861 14.818 69.591 15.088C69.321 15.358 69.1095 15.6775 68.9565 16.0465C68.8125 16.4155 68.7405 16.825 68.7405 17.275C68.7405 17.725 68.8125 18.1345 68.9565 18.5035C69.1095 18.8725 69.321 19.192 69.591 19.462C69.861 19.732 70.1805 19.939 70.5495 20.083C70.9185 20.227 71.3235 20.299 71.7645 20.299C72.2325 20.299 72.6645 20.209 73.0605 20.029C73.4565 19.84 73.8165 19.5565 74.1405 19.1785L75.5445 20.4745C75.0945 21.0235 74.5365 21.442 73.8705 21.73C73.2135 22.018 72.471 22.162 71.643 22.162ZM81.2343 22V20.5825L81.0993 20.272V17.734C81.0993 17.284 80.9598 16.933 80.6808 16.681C80.4108 16.429 79.9923 16.303 79.4253 16.303C79.0383 16.303 78.6558 16.366 78.2778 16.492C77.9088 16.609 77.5938 16.771 77.3328 16.978L76.5768 15.5065C76.9728 15.2275 77.4498 15.0115 78.0078 14.8585C78.5658 14.7055 79.1328 14.629 79.7088 14.629C80.8158 14.629 81.6753 14.89 82.2873 15.412C82.8993 15.934 83.2053 16.7485 83.2053 17.8555V22H81.2343ZM79.0203 22.108C78.4533 22.108 77.9673 22.0135 77.5623 21.8245C77.1573 21.6265 76.8468 21.361 76.6308 21.028C76.4148 20.695 76.3068 20.3215 76.3068 19.9075C76.3068 19.4755 76.4103 19.0975 76.6173 18.7735C76.8333 18.4495 77.1708 18.1975 77.6298 18.0175C78.0888 17.8285 78.6873 17.734 79.4253 17.734H81.3558V18.9625H79.6548C79.1598 18.9625 78.8178 19.0435 78.6288 19.2055C78.4488 19.3675 78.3588 19.57 78.3588 19.813C78.3588 20.083 78.4623 20.299 78.6693 20.461C78.8853 20.614 79.1778 20.6905 79.5468 20.6905C79.8978 20.6905 80.2128 20.6095 80.4918 20.4475C80.7708 20.2765 80.9733 20.029 81.0993 19.705L81.4233 20.677C81.2703 21.145 80.9913 21.5005 80.5863 21.7435C80.1813 21.9865 79.6593 22.108 79.0203 22.108ZM89.4719 14.629C90.0479 14.629 90.5609 14.746 91.0109 14.98C91.4699 15.205 91.8299 15.556 92.0909 16.033C92.3519 16.501 92.4824 17.104 92.4824 17.842V22H90.3764V18.166C90.3764 17.581 90.2459 17.149 89.9849 16.87C89.7329 16.591 89.3729 16.4515 88.9049 16.4515C88.5719 16.4515 88.2704 16.5235 88.0004 16.6675C87.7394 16.8025 87.5324 17.014 87.3794 17.302C87.2354 17.59 87.1634 17.959 87.1634 18.409V22H85.0574V14.737H87.0689V16.7485L86.6909 16.141C86.9519 15.655 87.3254 15.2815 87.8114 15.0205C88.2974 14.7595 88.8509 14.629 89.4719 14.629ZM97.9001 22.108C97.1171 22.108 96.4196 21.9505 95.8076 21.6355C95.1956 21.3115 94.7141 20.866 94.3631 20.299C94.0211 19.732 93.8501 19.0885 93.8501 18.3685C93.8501 17.6395 94.0211 16.996 94.3631 16.438C94.7141 15.871 95.1956 15.43 95.8076 15.115C96.4196 14.791 97.1171 14.629 97.9001 14.629C98.6651 14.629 99.3311 14.791 99.8981 15.115C100.465 15.43 100.884 15.8845 101.154 16.4785L99.5201 17.356C99.3311 17.014 99.0926 16.762 98.8046 16.6C98.5256 16.438 98.2196 16.357 97.8866 16.357C97.5266 16.357 97.2026 16.438 96.9146 16.6C96.6266 16.762 96.3971 16.9915 96.2261 17.2885C96.0641 17.5855 95.9831 17.9455 95.9831 18.3685C95.9831 18.7915 96.0641 19.1515 96.2261 19.4485C96.3971 19.7455 96.6266 19.975 96.9146 20.137C97.2026 20.299 97.5266 20.38 97.8866 20.38C98.2196 20.38 98.5256 20.3035 98.8046 20.1505C99.0926 19.9885 99.3311 19.732 99.5201 19.381L101.154 20.272C100.884 20.857 100.465 21.3115 99.8981 21.6355C99.3311 21.9505 98.6651 22.108 97.9001 22.108ZM105.824 22.108C104.996 22.108 104.267 21.946 103.637 21.622C103.016 21.298 102.535 20.857 102.193 20.299C101.851 19.732 101.68 19.0885 101.68 18.3685C101.68 17.6395 101.846 16.996 102.179 16.438C102.521 15.871 102.985 15.43 103.57 15.115C104.155 14.791 104.816 14.629 105.554 14.629C106.265 14.629 106.904 14.782 107.471 15.088C108.047 15.385 108.502 15.817 108.835 16.384C109.168 16.942 109.334 17.6125 109.334 18.3955C109.334 18.4765 109.33 18.571 109.321 18.679C109.312 18.778 109.303 18.8725 109.294 18.9625H103.394V17.734H108.187L107.377 18.0985C107.377 17.7205 107.3 17.392 107.147 17.113C106.994 16.834 106.783 16.618 106.513 16.465C106.243 16.303 105.928 16.222 105.568 16.222C105.208 16.222 104.888 16.303 104.609 16.465C104.339 16.618 104.128 16.8385 103.975 17.1265C103.822 17.4055 103.745 17.7385 103.745 18.1255V18.4495C103.745 18.8455 103.831 19.1965 104.002 19.5025C104.182 19.7995 104.429 20.029 104.744 20.191C105.068 20.344 105.446 20.4205 105.878 20.4205C106.265 20.4205 106.603 20.362 106.891 20.245C107.188 20.128 107.458 19.9525 107.701 19.7185L108.821 20.9335C108.488 21.3115 108.07 21.604 107.566 21.811C107.062 22.009 106.481 22.108 105.824 22.108ZM110.682 22V14.737H112.694V16.789L112.41 16.195C112.626 15.682 112.973 15.295 113.45 15.034C113.927 14.764 114.507 14.629 115.191 14.629V16.573C115.101 16.564 115.02 16.5595 114.948 16.5595C114.876 16.5505 114.8 16.546 114.719 16.546C114.143 16.546 113.675 16.7125 113.315 17.0455C112.964 17.3695 112.788 17.878 112.788 18.571V22H110.682ZM120.36 22V12.55H124.451C125.297 12.55 126.026 12.6895 126.638 12.9685C127.25 13.2385 127.722 13.63 128.055 14.143C128.388 14.656 128.555 15.268 128.555 15.979C128.555 16.681 128.388 17.2885 128.055 17.8015C127.722 18.3055 127.25 18.6925 126.638 18.9625C126.026 19.2325 125.297 19.3675 124.451 19.3675H121.575L122.547 18.409V22H120.36ZM126.368 22L124.005 18.571H126.341L128.73 22H126.368ZM122.547 18.652L121.575 17.626H124.329C125.004 17.626 125.508 17.482 125.841 17.194C126.174 16.897 126.341 16.492 126.341 15.979C126.341 15.457 126.174 15.052 125.841 14.764C125.508 14.476 125.004 14.332 124.329 14.332H121.575L122.547 13.2925V18.652ZM133.689 22.108C132.861 22.108 132.132 21.946 131.502 21.622C130.881 21.298 130.4 20.857 130.058 20.299C129.716 19.732 129.545 19.0885 129.545 18.3685C129.545 17.6395 129.711 16.996 130.044 16.438C130.386 15.871 130.85 15.43 131.435 15.115C132.02 14.791 132.681 14.629 133.419 14.629C134.13 14.629 134.769 14.782 135.336 15.088C135.912 15.385 136.367 15.817 136.7 16.384C137.033 16.942 137.199 17.6125 137.199 18.3955C137.199 18.4765 137.195 18.571 137.186 18.679C137.177 18.778 137.168 18.8725 137.159 18.9625H131.259V17.734H136.052L135.242 18.0985C135.242 17.7205 135.165 17.392 135.012 17.113C134.859 16.834 134.648 16.618 134.378 16.465C134.108 16.303 133.793 16.222 133.433 16.222C133.073 16.222 132.753 16.303 132.474 16.465C132.204 16.618 131.993 16.8385 131.84 17.1265C131.687 17.4055 131.61 17.7385 131.61 18.1255V18.4495C131.61 18.8455 131.696 19.1965 131.867 19.5025C132.047 19.7995 132.294 20.029 132.609 20.191C132.933 20.344 133.311 20.4205 133.743 20.4205C134.13 20.4205 134.468 20.362 134.756 20.245C135.053 20.128 135.323 19.9525 135.566 19.7185L136.686 20.9335C136.353 21.3115 135.935 21.604 135.431 21.811C134.927 22.009 134.346 22.108 133.689 22.108ZM140.991 22.108C140.37 22.108 139.772 22.036 139.196 21.892C138.629 21.739 138.179 21.55 137.846 21.325L138.548 19.813C138.881 20.02 139.272 20.191 139.722 20.326C140.181 20.452 140.631 20.515 141.072 20.515C141.558 20.515 141.9 20.4565 142.098 20.3395C142.305 20.2225 142.409 20.0605 142.409 19.8535C142.409 19.6825 142.328 19.5565 142.166 19.4755C142.013 19.3855 141.806 19.318 141.545 19.273C141.284 19.228 140.996 19.183 140.681 19.138C140.375 19.093 140.064 19.0345 139.749 18.9625C139.434 18.8815 139.146 18.7645 138.885 18.6115C138.624 18.4585 138.413 18.2515 138.251 17.9905C138.098 17.7295 138.021 17.392 138.021 16.978C138.021 16.519 138.152 16.114 138.413 15.763C138.683 15.412 139.07 15.1375 139.574 14.9395C140.078 14.7325 140.681 14.629 141.383 14.629C141.878 14.629 142.382 14.683 142.895 14.791C143.408 14.899 143.835 15.0565 144.177 15.2635L143.475 16.762C143.124 16.555 142.769 16.4155 142.409 16.3435C142.058 16.2625 141.716 16.222 141.383 16.222C140.915 16.222 140.573 16.285 140.357 16.411C140.141 16.537 140.033 16.699 140.033 16.897C140.033 17.077 140.109 17.212 140.262 17.302C140.424 17.392 140.636 17.464 140.897 17.518C141.158 17.572 141.441 17.6215 141.747 17.6665C142.062 17.7025 142.377 17.761 142.692 17.842C143.007 17.923 143.291 18.04 143.543 18.193C143.804 18.337 144.015 18.5395 144.177 18.8005C144.339 19.0525 144.42 19.3855 144.42 19.7995C144.42 20.2495 144.285 20.65 144.015 21.001C143.745 21.343 143.354 21.613 142.841 21.811C142.337 22.009 141.72 22.108 140.991 22.108ZM149.27 22.108C148.442 22.108 147.713 21.946 147.083 21.622C146.462 21.298 145.98 20.857 145.638 20.299C145.296 19.732 145.125 19.0885 145.125 18.3685C145.125 17.6395 145.292 16.996 145.625 16.438C145.967 15.871 146.43 15.43 147.015 15.115C147.6 14.791 148.262 14.629 149 14.629C149.711 14.629 150.35 14.782 150.917 15.088C151.493 15.385 151.947 15.817 152.28 16.384C152.613 16.942 152.78 17.6125 152.78 18.3955C152.78 18.4765 152.775 18.571 152.766 18.679C152.757 18.778 152.748 18.8725 152.739 18.9625H146.84V17.734H151.632L150.822 18.0985C150.822 17.7205 150.746 17.392 150.593 17.113C150.44 16.834 150.228 16.618 149.958 16.465C149.688 16.303 149.373 16.222 149.013 16.222C148.653 16.222 148.334 16.303 148.055 16.465C147.785 16.618 147.573 16.8385 147.42 17.1265C147.267 17.4055 147.191 17.7385 147.191 18.1255V18.4495C147.191 18.8455 147.276 19.1965 147.447 19.5025C147.627 19.7995 147.875 20.029 148.19 20.191C148.514 20.344 148.892 20.4205 149.324 20.4205C149.711 20.4205 150.048 20.362 150.336 20.245C150.633 20.128 150.903 19.9525 151.146 19.7185L152.267 20.9335C151.934 21.3115 151.515 21.604 151.011 21.811C150.507 22.009 149.927 22.108 149.27 22.108ZM158.385 22V20.5825L158.25 20.272V17.734C158.25 17.284 158.111 16.933 157.832 16.681C157.562 16.429 157.143 16.303 156.576 16.303C156.189 16.303 155.807 16.366 155.429 16.492C155.06 16.609 154.745 16.771 154.484 16.978L153.728 15.5065C154.124 15.2275 154.601 15.0115 155.159 14.8585C155.717 14.7055 156.284 14.629 156.86 14.629C157.967 14.629 158.826 14.89 159.438 15.412C160.05 15.934 160.356 16.7485 160.356 17.8555V22H158.385ZM156.171 22.108C155.604 22.108 155.118 22.0135 154.713 21.8245C154.308 21.6265 153.998 21.361 153.782 21.028C153.566 20.695 153.458 20.3215 153.458 19.9075C153.458 19.4755 153.561 19.0975 153.768 18.7735C153.984 18.4495 154.322 18.1975 154.781 18.0175C155.24 17.8285 155.838 17.734 156.576 17.734H158.507V18.9625H156.806C156.311 18.9625 155.969 19.0435 155.78 19.2055C155.6 19.3675 155.51 19.57 155.51 19.813C155.51 20.083 155.613 20.299 155.82 20.461C156.036 20.614 156.329 20.6905 156.698 20.6905C157.049 20.6905 157.364 20.6095 157.643 20.4475C157.922 20.2765 158.124 20.029 158.25 19.705L158.574 20.677C158.421 21.145 158.142 21.5005 157.737 21.7435C157.332 21.9865 156.81 22.108 156.171 22.108ZM162.208 22V14.737H164.22V16.789L163.936 16.195C164.152 15.682 164.499 15.295 164.976 15.034C165.453 14.764 166.033 14.629 166.717 14.629V16.573C166.627 16.564 166.546 16.5595 166.474 16.5595C166.402 16.5505 166.326 16.546 166.245 16.546C165.669 16.546 165.201 16.7125 164.841 17.0455C164.49 17.3695 164.314 17.878 164.314 18.571V22H162.208ZM171.373 22.108C170.59 22.108 169.892 21.9505 169.28 21.6355C168.668 21.3115 168.187 20.866 167.836 20.299C167.494 19.732 167.323 19.0885 167.323 18.3685C167.323 17.6395 167.494 16.996 167.836 16.438C168.187 15.871 168.668 15.43 169.28 15.115C169.892 14.791 170.59 14.629 171.373 14.629C172.138 14.629 172.804 14.791 173.371 15.115C173.938 15.43 174.356 15.8845 174.626 16.4785L172.993 17.356C172.804 17.014 172.565 16.762 172.277 16.6C171.998 16.438 171.692 16.357 171.359 16.357C170.999 16.357 170.675 16.438 170.387 16.6C170.099 16.762 169.87 16.9915 169.699 17.2885C169.537 17.5855 169.456 17.9455 169.456 18.3685C169.456 18.7915 169.537 19.1515 169.699 19.4485C169.87 19.7455 170.099 19.975 170.387 20.137C170.675 20.299 170.999 20.38 171.359 20.38C171.692 20.38 171.998 20.3035 172.277 20.1505C172.565 19.9885 172.804 19.732 172.993 19.381L174.626 20.272C174.356 20.857 173.938 21.3115 173.371 21.6355C172.804 21.9505 172.138 22.108 171.373 22.108ZM180.16 14.629C180.736 14.629 181.249 14.746 181.699 14.98C182.158 15.205 182.518 15.556 182.779 16.033C183.04 16.501 183.17 17.104 183.17 17.842V22H181.064V18.166C181.064 17.581 180.934 17.149 180.673 16.87C180.421 16.591 180.061 16.4515 179.593 16.4515C179.26 16.4515 178.958 16.5235 178.688 16.6675C178.427 16.8025 178.22 17.014 178.067 17.302C177.923 17.59 177.851 17.959 177.851 18.409V22H175.745V11.983H177.851V16.7485L177.379 16.141C177.64 15.655 178.013 15.2815 178.499 15.0205C178.985 14.7595 179.539 14.629 180.16 14.629ZM188.943 22V12.55H193.236C194.262 12.55 195.167 12.748 195.95 13.144C196.733 13.531 197.345 14.0755 197.786 14.7775C198.227 15.4795 198.447 16.312 198.447 17.275C198.447 18.229 198.227 19.0615 197.786 19.7725C197.345 20.4745 196.733 21.0235 195.95 21.4195C195.167 21.8065 194.262 22 193.236 22H188.943ZM191.13 20.2045H193.128C193.758 20.2045 194.303 20.0875 194.762 19.8535C195.23 19.6105 195.59 19.2685 195.842 18.8275C196.103 18.3865 196.233 17.869 196.233 17.275C196.233 16.672 196.103 16.1545 195.842 15.7225C195.59 15.2815 195.23 14.944 194.762 14.71C194.303 14.467 193.758 14.3455 193.128 14.3455H191.13V20.2045ZM204.349 22V20.5825L204.214 20.272V17.734C204.214 17.284 204.074 16.933 203.795 16.681C203.525 16.429 203.107 16.303 202.54 16.303C202.153 16.303 201.77 16.366 201.392 16.492C201.023 16.609 200.708 16.771 200.447 16.978L199.691 15.5065C200.087 15.2275 200.564 15.0115 201.122 14.8585C201.68 14.7055 202.247 14.629 202.823 14.629C203.93 14.629 204.79 14.89 205.402 15.412C206.014 15.934 206.32 16.7485 206.32 17.8555V22H204.349ZM202.135 22.108C201.568 22.108 201.082 22.0135 200.677 21.8245C200.272 21.6265 199.961 21.361 199.745 21.028C199.529 20.695 199.421 20.3215 199.421 19.9075C199.421 19.4755 199.525 19.0975 199.732 18.7735C199.948 18.4495 200.285 18.1975 200.744 18.0175C201.203 17.8285 201.802 17.734 202.54 17.734H204.47V18.9625H202.769C202.274 18.9625 201.932 19.0435 201.743 19.2055C201.563 19.3675 201.473 19.57 201.473 19.813C201.473 20.083 201.577 20.299 201.784 20.461C202 20.614 202.292 20.6905 202.661 20.6905C203.012 20.6905 203.327 20.6095 203.606 20.4475C203.885 20.2765 204.088 20.029 204.214 19.705L204.538 20.677C204.385 21.145 204.106 21.5005 203.701 21.7435C203.296 21.9865 202.774 22.108 202.135 22.108ZM211.142 22.108C210.287 22.108 209.621 21.892 209.144 21.46C208.667 21.019 208.428 20.3665 208.428 19.5025V13.1305H210.534V19.4755C210.534 19.7815 210.615 20.02 210.777 20.191C210.939 20.353 211.16 20.434 211.439 20.434C211.772 20.434 212.055 20.344 212.289 20.164L212.856 21.649C212.64 21.802 212.379 21.919 212.073 22C211.776 22.072 211.466 22.108 211.142 22.108ZM207.308 16.519V14.899H212.343V16.519H207.308ZM218.44 22V20.5825L218.305 20.272V17.734C218.305 17.284 218.165 16.933 217.886 16.681C217.616 16.429 217.198 16.303 216.631 16.303C216.244 16.303 215.861 16.366 215.483 16.492C215.114 16.609 214.799 16.771 214.538 16.978L213.782 15.5065C214.178 15.2275 214.655 15.0115 215.213 14.8585C215.771 14.7055 216.338 14.629 216.914 14.629C218.021 14.629 218.881 14.89 219.493 15.412C220.105 15.934 220.411 16.7485 220.411 17.8555V22H218.44ZM216.226 22.108C215.659 22.108 215.173 22.0135 214.768 21.8245C214.363 21.6265 214.052 21.361 213.836 21.028C213.62 20.695 213.512 20.3215 213.512 19.9075C213.512 19.4755 213.616 19.0975 213.823 18.7735C214.039 18.4495 214.376 18.1975 214.835 18.0175C215.294 17.8285 215.893 17.734 216.631 17.734H218.561V18.9625H216.86C216.365 18.9625 216.023 19.0435 215.834 19.2055C215.654 19.3675 215.564 19.57 215.564 19.813C215.564 20.083 215.668 20.299 215.875 20.461C216.091 20.614 216.383 20.6905 216.752 20.6905C217.103 20.6905 217.418 20.6095 217.697 20.4475C217.976 20.2765 218.179 20.029 218.305 19.705L218.629 20.677C218.476 21.145 218.197 21.5005 217.792 21.7435C217.387 21.9865 216.865 22.108 216.226 22.108ZM71.643 36.162C70.914 36.162 70.2345 36.045 69.6045 35.811C68.9835 35.568 68.4435 35.226 67.9845 34.785C67.5255 34.344 67.1655 33.8265 66.9045 33.2325C66.6525 32.6385 66.5265 31.986 66.5265 31.275C66.5265 30.564 66.6525 29.9115 66.9045 29.3175C67.1655 28.7235 67.5255 28.206 67.9845 27.765C68.4525 27.324 68.997 26.9865 69.618 26.7525C70.239 26.5095 70.9185 26.388 71.6565 26.388C72.4755 26.388 73.2135 26.532 73.8705 26.82C74.5365 27.099 75.0945 27.513 75.5445 28.062L74.1405 29.358C73.8165 28.989 73.4565 28.7145 73.0605 28.5345C72.6645 28.3455 72.2325 28.251 71.7645 28.251C71.3235 28.251 70.9185 28.323 70.5495 28.467C70.1805 28.611 69.861 28.818 69.591 29.088C69.321 29.358 69.1095 29.6775 68.9565 30.0465C68.8125 30.4155 68.7405 30.825 68.7405 31.275C68.7405 31.725 68.8125 32.1345 68.9565 32.5035C69.1095 32.8725 69.321 33.192 69.591 33.462C69.861 33.732 70.1805 33.939 70.5495 34.083C70.9185 34.227 71.3235 34.299 71.7645 34.299C72.2325 34.299 72.6645 34.209 73.0605 34.029C73.4565 33.84 73.8165 33.5565 74.1405 33.1785L75.5445 34.4745C75.0945 35.0235 74.5365 35.442 73.8705 35.73C73.2135 36.018 72.471 36.162 71.643 36.162ZM80.0244 36.108C79.2504 36.108 78.5619 35.946 77.9589 35.622C77.3649 35.298 76.8924 34.857 76.5414 34.299C76.1994 33.732 76.0284 33.0885 76.0284 32.3685C76.0284 31.6395 76.1994 30.996 76.5414 30.438C76.8924 29.871 77.3649 29.43 77.9589 29.115C78.5619 28.791 79.2504 28.629 80.0244 28.629C80.7894 28.629 81.4734 28.791 82.0764 29.115C82.6794 29.43 83.1519 29.8665 83.4939 30.4245C83.8359 30.9825 84.0069 31.6305 84.0069 32.3685C84.0069 33.0885 83.8359 33.732 83.4939 34.299C83.1519 34.857 82.6794 35.298 82.0764 35.622C81.4734 35.946 80.7894 36.108 80.0244 36.108ZM80.0244 34.38C80.3754 34.38 80.6904 34.299 80.9694 34.137C81.2484 33.975 81.4689 33.7455 81.6309 33.4485C81.7929 33.1425 81.8739 32.7825 81.8739 32.3685C81.8739 31.9455 81.7929 31.5855 81.6309 31.2885C81.4689 30.9915 81.2484 30.762 80.9694 30.6C80.6904 30.438 80.3754 30.357 80.0244 30.357C79.6734 30.357 79.3584 30.438 79.0794 30.6C78.8004 30.762 78.5754 30.9915 78.4044 31.2885C78.2424 31.5855 78.1614 31.9455 78.1614 32.3685C78.1614 32.7825 78.2424 33.1425 78.4044 33.4485C78.5754 33.7455 78.8004 33.975 79.0794 34.137C79.3584 34.299 79.6734 34.38 80.0244 34.38ZM94.6621 28.629C95.2381 28.629 95.7466 28.746 96.1876 28.98C96.6376 29.205 96.9886 29.556 97.2406 30.033C97.5016 30.501 97.6321 31.104 97.6321 31.842V36H95.5261V32.166C95.5261 31.581 95.4046 31.149 95.1616 30.87C94.9186 30.591 94.5766 30.4515 94.1356 30.4515C93.8296 30.4515 93.5551 30.5235 93.3121 30.6675C93.0691 30.8025 92.8801 31.0095 92.7451 31.2885C92.6101 31.5675 92.5426 31.923 92.5426 32.355V36H90.4366V32.166C90.4366 31.581 90.3151 31.149 90.0721 30.87C89.8381 30.591 89.5006 30.4515 89.0596 30.4515C88.7536 30.4515 88.4791 30.5235 88.2361 30.6675C87.9931 30.8025 87.8041 31.0095 87.6691 31.2885C87.5341 31.5675 87.4666 31.923 87.4666 32.355V36H85.3606V28.737H87.3721V30.7215L86.9941 30.141C87.2461 29.646 87.6016 29.2725 88.0606 29.0205C88.5286 28.7595 89.0596 28.629 89.6536 28.629C90.3196 28.629 90.9001 28.8 91.3951 29.142C91.8991 29.475 92.2321 29.988 92.3941 30.681L91.6516 30.4785C91.8946 29.9115 92.2816 29.4615 92.8126 29.1285C93.3526 28.7955 93.9691 28.629 94.6621 28.629ZM108.767 28.629C109.343 28.629 109.852 28.746 110.293 28.98C110.743 29.205 111.094 29.556 111.346 30.033C111.607 30.501 111.737 31.104 111.737 31.842V36H109.631V32.166C109.631 31.581 109.51 31.149 109.267 30.87C109.024 30.591 108.682 30.4515 108.241 30.4515C107.935 30.4515 107.66 30.5235 107.417 30.6675C107.174 30.8025 106.985 31.0095 106.85 31.2885C106.715 31.5675 106.648 31.923 106.648 32.355V36H104.542V32.166C104.542 31.581 104.42 31.149 104.177 30.87C103.943 30.591 103.606 30.4515 103.165 30.4515C102.859 30.4515 102.584 30.5235 102.341 30.6675C102.098 30.8025 101.909 31.0095 101.774 31.2885C101.639 31.5675 101.572 31.923 101.572 32.355V36H99.4658V28.737H101.477V30.7215L101.099 30.141C101.351 29.646 101.707 29.2725 102.166 29.0205C102.634 28.7595 103.165 28.629 103.759 28.629C104.425 28.629 105.005 28.8 105.5 29.142C106.004 29.475 106.337 29.988 106.499 30.681L105.757 30.4785C106 29.9115 106.387 29.4615 106.918 29.1285C107.458 28.7955 108.074 28.629 108.767 28.629ZM117.08 36.108C116.306 36.108 115.617 35.946 115.014 35.622C114.42 35.298 113.948 34.857 113.597 34.299C113.255 33.732 113.084 33.0885 113.084 32.3685C113.084 31.6395 113.255 30.996 113.597 30.438C113.948 29.871 114.42 29.43 115.014 29.115C115.617 28.791 116.306 28.629 117.08 28.629C117.845 28.629 118.529 28.791 119.132 29.115C119.735 29.43 120.207 29.8665 120.549 30.4245C120.891 30.9825 121.062 31.6305 121.062 32.3685C121.062 33.0885 120.891 33.732 120.549 34.299C120.207 34.857 119.735 35.298 119.132 35.622C118.529 35.946 117.845 36.108 117.08 36.108ZM117.08 34.38C117.431 34.38 117.746 34.299 118.025 34.137C118.304 33.975 118.524 33.7455 118.686 33.4485C118.848 33.1425 118.929 32.7825 118.929 32.3685C118.929 31.9455 118.848 31.5855 118.686 31.2885C118.524 30.9915 118.304 30.762 118.025 30.6C117.746 30.438 117.431 30.357 117.08 30.357C116.729 30.357 116.414 30.438 116.135 30.6C115.856 30.762 115.631 30.9915 115.46 31.2885C115.298 31.5855 115.217 31.9455 115.217 32.3685C115.217 32.7825 115.298 33.1425 115.46 33.4485C115.631 33.7455 115.856 33.975 116.135 34.137C116.414 34.299 116.729 34.38 117.08 34.38ZM126.83 28.629C127.406 28.629 127.919 28.746 128.369 28.98C128.828 29.205 129.188 29.556 129.449 30.033C129.71 30.501 129.841 31.104 129.841 31.842V36H127.735V32.166C127.735 31.581 127.604 31.149 127.343 30.87C127.091 30.591 126.731 30.4515 126.263 30.4515C125.93 30.4515 125.629 30.5235 125.359 30.6675C125.098 30.8025 124.891 31.014 124.738 31.302C124.594 31.59 124.522 31.959 124.522 32.409V36H122.416V28.737H124.427V30.7485L124.049 30.141C124.31 29.655 124.684 29.2815 125.17 29.0205C125.656 28.7595 126.209 28.629 126.83 28.629ZM134.139 36.108C133.518 36.108 132.92 36.036 132.344 35.892C131.777 35.739 131.327 35.55 130.994 35.325L131.696 33.813C132.029 34.02 132.42 34.191 132.87 34.326C133.329 34.452 133.779 34.515 134.22 34.515C134.706 34.515 135.048 34.4565 135.246 34.3395C135.453 34.2225 135.557 34.0605 135.557 33.8535C135.557 33.6825 135.476 33.5565 135.314 33.4755C135.161 33.3855 134.954 33.318 134.693 33.273C134.432 33.228 134.144 33.183 133.829 33.138C133.523 33.093 133.212 33.0345 132.897 32.9625C132.582 32.8815 132.294 32.7645 132.033 32.6115C131.772 32.4585 131.561 32.2515 131.399 31.9905C131.246 31.7295 131.169 31.392 131.169 30.978C131.169 30.519 131.3 30.114 131.561 29.763C131.831 29.412 132.218 29.1375 132.722 28.9395C133.226 28.7325 133.829 28.629 134.531 28.629C135.026 28.629 135.53 28.683 136.043 28.791C136.556 28.899 136.983 29.0565 137.325 29.2635L136.623 30.762C136.272 30.555 135.917 30.4155 135.557 30.3435C135.206 30.2625 134.864 30.222 134.531 30.222C134.063 30.222 133.721 30.285 133.505 30.411C133.289 30.537 133.181 30.699 133.181 30.897C133.181 31.077 133.257 31.212 133.41 31.302C133.572 31.392 133.784 31.464 134.045 31.518C134.306 31.572 134.589 31.6215 134.895 31.6665C135.21 31.7025 135.525 31.761 135.84 31.842C136.155 31.923 136.439 32.04 136.691 32.193C136.952 32.337 137.163 32.5395 137.325 32.8005C137.487 33.0525 137.568 33.3855 137.568 33.7995C137.568 34.2495 137.433 34.65 137.163 35.001C136.893 35.343 136.502 35.613 135.989 35.811C135.485 36.009 134.868 36.108 134.139 36.108ZM142.731 36V26.55H147.024C148.05 26.55 148.955 26.748 149.738 27.144C150.521 27.531 151.133 28.0755 151.574 28.7775C152.015 29.4795 152.235 30.312 152.235 31.275C152.235 32.229 152.015 33.0615 151.574 33.7725C151.133 34.4745 150.521 35.0235 149.738 35.4195C148.955 35.8065 148.05 36 147.024 36H142.731ZM144.918 34.2045H146.916C147.546 34.2045 148.091 34.0875 148.55 33.8535C149.018 33.6105 149.378 33.2685 149.63 32.8275C149.891 32.3865 150.021 31.869 150.021 31.275C150.021 30.672 149.891 30.1545 149.63 29.7225C149.378 29.2815 149.018 28.944 148.55 28.71C148.091 28.467 147.546 28.3455 146.916 28.3455H144.918V34.2045ZM158.137 36V34.5825L158.002 34.272V31.734C158.002 31.284 157.863 30.933 157.584 30.681C157.314 30.429 156.895 30.303 156.328 30.303C155.941 30.303 155.559 30.366 155.181 30.492C154.812 30.609 154.497 30.771 154.236 30.978L153.48 29.5065C153.876 29.2275 154.353 29.0115 154.911 28.8585C155.469 28.7055 156.036 28.629 156.612 28.629C157.719 28.629 158.578 28.89 159.19 29.412C159.802 29.934 160.108 30.7485 160.108 31.8555V36H158.137ZM155.923 36.108C155.356 36.108 154.87 36.0135 154.465 35.8245C154.06 35.6265 153.75 35.361 153.534 35.028C153.318 34.695 153.21 34.3215 153.21 33.9075C153.21 33.4755 153.313 33.0975 153.52 32.7735C153.736 32.4495 154.074 32.1975 154.533 32.0175C154.992 31.8285 155.59 31.734 156.328 31.734H158.259V32.9625H156.558C156.063 32.9625 155.721 33.0435 155.532 33.2055C155.352 33.3675 155.262 33.57 155.262 33.813C155.262 34.083 155.365 34.299 155.572 34.461C155.788 34.614 156.081 34.6905 156.45 34.6905C156.801 34.6905 157.116 34.6095 157.395 34.4475C157.674 34.2765 157.876 34.029 158.002 33.705L158.326 34.677C158.173 35.145 157.894 35.5005 157.489 35.7435C157.084 35.9865 156.562 36.108 155.923 36.108ZM164.93 36.108C164.075 36.108 163.409 35.892 162.932 35.46C162.455 35.019 162.217 34.3665 162.217 33.5025V27.1305H164.323V33.4755C164.323 33.7815 164.404 34.02 164.566 34.191C164.728 34.353 164.948 34.434 165.227 34.434C165.56 34.434 165.844 34.344 166.078 34.164L166.645 35.649C166.429 35.802 166.168 35.919 165.862 36C165.565 36.072 165.254 36.108 164.93 36.108ZM161.096 30.519V28.899H166.132V30.519H161.096ZM172.228 36V34.5825L172.093 34.272V31.734C172.093 31.284 171.954 30.933 171.675 30.681C171.405 30.429 170.986 30.303 170.419 30.303C170.032 30.303 169.65 30.366 169.272 30.492C168.903 30.609 168.588 30.771 168.327 30.978L167.571 29.5065C167.967 29.2275 168.444 29.0115 169.002 28.8585C169.56 28.7055 170.127 28.629 170.703 28.629C171.81 28.629 172.669 28.89 173.281 29.412C173.893 29.934 174.199 30.7485 174.199 31.8555V36H172.228ZM170.014 36.108C169.447 36.108 168.961 36.0135 168.556 35.8245C168.151 35.6265 167.841 35.361 167.625 35.028C167.409 34.695 167.301 34.3215 167.301 33.9075C167.301 33.4755 167.404 33.0975 167.611 32.7735C167.827 32.4495 168.165 32.1975 168.624 32.0175C169.083 31.8285 169.681 31.734 170.419 31.734H172.35V32.9625H170.649C170.154 32.9625 169.812 33.0435 169.623 33.2055C169.443 33.3675 169.353 33.57 169.353 33.813C169.353 34.083 169.456 34.299 169.663 34.461C169.879 34.614 170.172 34.6905 170.541 34.6905C170.892 34.6905 171.207 34.6095 171.486 34.4475C171.765 34.2765 171.967 34.029 172.093 33.705L172.417 34.677C172.264 35.145 171.985 35.5005 171.58 35.7435C171.175 35.9865 170.653 36.108 170.014 36.108ZM186.449 26.55H188.636V36H186.449V26.55ZM182.156 36H179.969V26.55H182.156V36ZM186.611 32.1255H181.994V30.276H186.611V32.1255ZM193.734 36.108C193.131 36.108 192.591 35.991 192.114 35.757C191.646 35.523 191.281 35.1675 191.02 34.6905C190.759 34.2045 190.629 33.588 190.629 32.841V28.737H192.735V32.5305C192.735 33.1335 192.861 33.579 193.113 33.867C193.374 34.146 193.738 34.2855 194.206 34.2855C194.53 34.2855 194.818 34.218 195.07 34.083C195.322 33.939 195.52 33.723 195.664 33.435C195.808 33.138 195.88 32.769 195.88 32.328V28.737H197.986V36H195.988V34.002L196.353 34.5825C196.11 35.0865 195.75 35.469 195.273 35.73C194.805 35.982 194.292 36.108 193.734 36.108ZM204.176 36.108C203.537 36.108 202.988 35.973 202.529 35.703C202.07 35.433 201.719 35.0235 201.476 34.4745C201.233 33.9165 201.112 33.2145 201.112 32.3685C201.112 31.5135 201.238 30.8115 201.49 30.2625C201.751 29.7135 202.111 29.304 202.57 29.034C203.029 28.764 203.564 28.629 204.176 28.629C204.86 28.629 205.472 28.782 206.012 29.088C206.561 29.394 206.993 29.826 207.308 30.384C207.632 30.942 207.794 31.6035 207.794 32.3685C207.794 33.1245 207.632 33.7815 207.308 34.3395C206.993 34.8975 206.561 35.334 206.012 35.649C205.472 35.955 204.86 36.108 204.176 36.108ZM199.883 36V25.983H201.989V30.2085L201.854 32.355L201.895 34.515V36H199.883ZM203.812 34.38C204.163 34.38 204.473 34.299 204.743 34.137C205.022 33.975 205.243 33.7455 205.405 33.4485C205.576 33.1425 205.661 32.7825 205.661 32.3685C205.661 31.9455 205.576 31.5855 205.405 31.2885C205.243 30.9915 205.022 30.762 204.743 30.6C204.473 30.438 204.163 30.357 203.812 30.357C203.461 30.357 203.146 30.438 202.867 30.6C202.588 30.762 202.367 30.9915 202.205 31.2885C202.043 31.5855 201.962 31.9455 201.962 32.3685C201.962 32.7825 202.043 33.1425 202.205 33.4485C202.367 33.7455 202.588 33.975 202.867 34.137C203.146 34.299 203.461 34.38 203.812 34.38Z" fill="#606061"/>
</g>
<defs>
<clipPath id="clip0_29_1680">
<rect width="243" height="38" fill="white"/>
</clipPath>
</defs>
</svg>
