<svg width="20" height="19" viewBox="0 0 20 19" fill="none" xmlns="http://www.w3.org/2000/svg">
<path d="M14.6526 12.0407C17.0421 8.48934 16.0863 3.7086 12.5362 1.31824C8.98604 -1.07213 4.20703 -0.115983 1.81752 3.43542C-0.571988 6.98682 0.383815 11.7676 3.93394 14.1579C6.52826 15.9336 9.94184 15.9336 12.5362 14.1579L16.9738 18.5972C17.5883 19.1435 18.5441 19.1435 19.0902 18.5289C19.6364 17.9825 19.6364 17.0947 19.0902 16.48L14.6526 12.0407ZM8.23505 12.5188C5.57246 12.5188 3.45604 10.4016 3.45604 7.73808C3.45604 5.07453 5.57246 2.95735 8.23505 2.95735C10.8976 2.95735 13.0141 5.07453 13.0141 7.73808C13.0141 10.4016 10.8976 12.5188 8.23505 12.5188Z" fill="white"/>
</svg>
