<svg width="195" height="201" viewBox="0 0 195 201" fill="none" xmlns="http://www.w3.org/2000/svg">
<g filter="url(#filter0_d_335_15910)">
<path d="M94.5 157C125.704 157 151 131.704 151 100.5C151 69.2959 125.704 44 94.5 44C63.2959 44 38 69.2959 38 100.5C38 131.704 63.2959 157 94.5 157Z" fill="white"/>
</g>
<path d="M107.914 50.4341C80.2637 43.0253 51.8429 59.434 44.4341 87.0841C37.0253 114.734 53.434 143.155 81.0841 150.564C108.734 157.973 137.155 141.564 144.564 113.914C151.973 86.2637 135.564 57.8429 107.914 50.4341Z" fill="url(#paint0_linear_335_15910)"/>
<path d="M64.9114 124.687C64.7391 124.514 64.5954 124.299 64.5919 124.208C64.5885 124.117 64.1122 120.512 63.5334 116.196L62.4811 108.349L61.9003 108.266C60.829 108.113 59.8577 107.422 59.3234 106.433C59.0537 105.935 59.0466 105.791 59.0107 100.1C58.9694 93.5508 59.0107 93.1125 59.8254 91.4574C60.6661 89.7496 62.5633 88.0787 64.2739 87.5396C64.6277 87.4281 64.9899 87.3141 65.0788 87.2862C65.1879 87.252 65.0995 87.0376 64.8069 86.6262C63.2306 84.4101 63.0282 81.8473 64.2459 79.521C65.0539 77.9773 66.9152 76.5159 68.5539 76.1385C69.2908 75.9688 71.0053 75.9684 71.7404 76.1377C72.8324 76.3894 73.9395 77.0244 74.8171 77.9027C77.2127 80.3 77.4926 83.846 75.5046 86.6131C75.2043 87.0311 75.1105 87.2521 75.2191 87.2862C75.3079 87.3141 75.6747 87.4296 76.0341 87.543C76.598 87.7208 77.2463 88.0629 78.3213 88.7499C78.553 88.898 78.6637 88.8596 79.3095 88.4072C79.7095 88.127 80.4667 87.7617 80.9922 87.5953C81.5177 87.429 81.9487 87.2542 81.9499 87.207C81.9512 87.1597 81.8193 86.9588 81.6568 86.7604C79.8982 84.6132 79.7558 81.3476 81.3173 78.9716C82.5718 77.0628 84.5822 76 86.9385 76C88.8999 76 90.5067 76.7224 91.87 78.2172C94.0084 80.5618 94.1278 84.2614 92.1455 86.7519C91.8792 87.0864 91.814 87.2476 91.9301 87.2843C93.1175 87.6593 93.4711 87.7983 94.0506 88.1178L94.7285 88.4915L95.5181 88.0654C95.9523 87.8311 96.5373 87.5714 96.818 87.4883C97.0988 87.4053 97.401 87.3145 97.4897 87.2866C97.5971 87.2527 97.5075 87.0479 97.2207 86.6723C95.2891 84.1417 95.4313 80.5459 97.5551 78.2172C98.9172 76.7238 100.528 75.9988 102.478 76.0015C103.753 76.0033 104.549 76.1884 105.623 76.7331C109.29 78.5938 110.36 83.596 107.767 86.7614C107.418 87.1877 107.462 87.3059 108.012 87.4267C108.635 87.5636 109.462 87.9461 110.215 88.4457L110.895 88.8974L111.662 88.4016C112.293 87.9935 113.31 87.5464 114.206 87.283C114.314 87.2512 114.225 87.0343 113.934 86.6262C112.358 84.4101 112.156 81.8473 113.373 79.521C114.181 77.9773 116.042 76.5159 117.681 76.1385C118.418 75.9688 120.133 75.9684 120.868 76.1377C121.96 76.3894 123.067 77.0244 123.944 77.9027C126.34 80.3 126.62 83.846 124.632 86.6131C124.332 87.0311 124.238 87.2521 124.346 87.2862C124.435 87.3141 124.797 87.4281 125.151 87.5396C126.862 88.0786 128.759 89.7496 129.6 91.4574C130.414 93.1125 130.456 93.5508 130.414 100.1C130.38 105.493 130.36 105.956 130.14 106.37C129.594 107.396 128.607 108.111 127.523 108.266L126.944 108.349L125.892 116.196C125.313 120.512 124.837 124.117 124.833 124.208C124.83 124.299 124.686 124.514 124.514 124.686L124.201 125H119.276H114.352L114.039 124.686C113.866 124.514 113.723 124.299 113.719 124.208C113.716 124.117 113.24 120.511 112.661 116.195L111.609 108.347L110.907 108.31L110.204 108.272L109.145 116.221C108.562 120.592 108.007 124.32 107.911 124.505C107.816 124.69 107.645 124.877 107.531 124.92C107.417 124.964 105.128 125 102.444 125H97.5643L97.2872 124.705C97.0372 124.439 96.905 123.624 95.9386 116.403C95.3493 111.999 94.8324 108.361 94.7899 108.318C94.7474 108.276 94.6769 108.277 94.6332 108.32C94.5896 108.364 94.0731 112.002 93.4854 116.404C92.52 123.635 92.39 124.436 92.1388 124.704L91.8608 125H86.9207C81.2773 125 81.5311 125.049 81.3272 123.915C81.2641 123.564 80.7645 119.901 80.2171 115.775L79.2216 108.272L78.5188 108.31L77.8159 108.347L76.764 116.195C76.1855 120.511 75.7093 124.117 75.7059 124.208C75.7024 124.299 75.5587 124.514 75.3864 124.686L75.0732 125H70.1489H65.2246L64.9114 124.687ZM73.6593 122.735C73.6593 122.682 74.141 119.053 74.7282 114.671C75.7872 106.767 75.7986 106.7 76.1377 106.408C76.4187 106.167 76.627 106.114 77.3082 106.114C78.3794 106.114 78.8355 105.884 79.0107 105.253C79.1825 104.634 79.1848 95.3937 79.0135 94.1835C78.6604 91.6895 76.7347 89.7646 74.2323 89.4044C73.0823 89.2389 67.2306 89.2373 66.0657 89.4023C63.588 89.753 61.6352 91.7058 61.2844 94.1835C61.1131 95.3937 61.1154 104.634 61.2873 105.253C61.4624 105.884 61.9186 106.114 62.9898 106.114C63.671 106.114 63.8793 106.167 64.1603 106.408C64.4994 106.7 64.5107 106.767 65.5698 114.671C66.157 119.053 66.638 122.682 66.6387 122.735C66.6387 122.787 68.219 122.83 70.149 122.83C72.079 122.83 73.6586 122.787 73.6593 122.735ZM90.4246 122.48C90.4636 122.287 90.9269 118.856 91.4541 114.855C92.5917 106.225 92.4932 106.843 92.7901 106.476C92.9953 106.222 93.1826 106.171 94.1301 106.108C95.9315 105.989 95.7898 106.489 95.8362 100.082C95.863 96.3933 95.829 94.4524 95.7285 93.9283C95.2555 91.462 93.3671 89.7264 90.7849 89.3846C90.1321 89.2982 88.3519 89.2664 86.1274 89.3015C82.8983 89.3524 82.4526 89.3853 81.8111 89.6203C81.0133 89.9126 79.9967 90.5126 80.0675 90.6494C81.2994 93.0298 81.3095 93.1038 81.3113 99.7342C81.3126 103.363 81.2645 105.459 81.1733 105.787C81.0713 106.155 81.0727 106.412 81.1786 106.744C81.2992 107.123 83.3559 122.164 83.3559 122.667C83.3559 122.796 84.0983 122.83 86.8549 122.83H90.3538L90.4246 122.48ZM106.069 122.652C106.069 122.391 108.095 107.25 108.174 106.915C108.314 106.326 108.722 106.114 109.72 106.114C110.527 106.114 110.693 106.073 111.036 105.784L111.429 105.454V99.7189C111.429 94.2868 111.415 93.9433 111.169 93.2124C110.47 91.1393 108.77 89.7123 106.629 89.4029C105.465 89.2346 99.4639 89.2368 98.4214 89.4059C97.9699 89.4792 97.3247 89.6577 96.9878 89.8026L96.3752 90.0662L96.6124 90.4022C97.0757 91.0587 97.6525 92.3421 97.8381 93.1295C97.99 93.7734 98.0263 95.0663 98.0256 99.798C98.0243 105.432 98.0142 105.691 97.7643 106.242C97.6211 106.558 97.3848 106.943 97.2391 107.098L96.9741 107.381L97.9602 114.818C98.5025 118.909 98.976 122.385 99.0124 122.543L99.0787 122.83H102.574C105.482 122.83 106.069 122.8 106.069 122.652ZM122.787 122.735C122.787 122.682 123.268 119.053 123.855 114.671C124.915 106.767 124.926 106.7 125.265 106.408C125.546 106.167 125.754 106.114 126.435 106.114C127.507 106.114 127.963 105.884 128.138 105.253C128.31 104.634 128.312 95.3937 128.141 94.1835C127.788 91.6895 125.862 89.7646 123.36 89.4044C122.202 89.2378 116.349 89.2378 115.197 89.4043C114.279 89.537 113.249 89.941 112.722 90.3753L112.42 90.6238L112.807 91.3895C113.667 93.0939 113.662 93.0408 113.662 99.7342C113.662 104.29 113.623 105.863 113.505 106.069C113.38 106.287 113.383 106.415 113.522 106.707C113.618 106.907 114.109 110.201 114.613 114.026C115.118 117.851 115.591 121.397 115.665 121.905L115.798 122.83H119.292C121.213 122.83 122.786 122.787 122.787 122.735ZM71.9206 86.7384C72.6862 86.3997 73.7362 85.4042 74.1138 84.6589C74.727 83.4489 74.727 81.8219 74.1138 80.6119C73.7364 79.8672 72.693 78.8776 71.8993 78.5118C71.4231 78.2923 71.0574 78.2342 70.1489 78.2337C69.1583 78.2332 68.9039 78.2805 68.2978 78.5782C66.4681 79.4768 65.4604 81.3779 65.7694 83.3484C65.9219 84.3207 66.3657 85.1431 67.1174 85.8463C68.183 86.8429 68.953 87.1217 70.4255 87.0436C70.9674 87.0149 71.5766 86.8905 71.9206 86.7384ZM88.7473 86.6858C90.0954 86.0686 91.0023 84.8611 91.2935 83.2953C91.6818 81.207 90.2357 78.9641 88.1006 78.3434C86.0689 77.7528 83.712 78.8574 82.8023 80.8265C82.4074 81.6812 82.4074 83.5896 82.8023 84.4443C83.8294 86.6675 86.5482 87.6926 88.7473 86.6858ZM103.769 86.8993C105.021 86.5274 106.083 85.6129 106.626 84.4375C107.019 83.587 107.016 81.6778 106.621 80.8212C106.231 79.9767 105.314 79.045 104.446 78.6113C103.801 78.2888 103.565 78.2422 102.56 78.238C101.576 78.2338 101.308 78.2818 100.685 78.5738C99.322 79.2126 98.4226 80.4108 98.1316 81.9755C98.0133 82.6119 98.0253 82.893 98.2018 83.6146C98.8257 86.1654 101.308 87.6301 103.769 86.8993ZM121.048 86.7384C121.813 86.3997 122.863 85.4042 123.241 84.6589C123.636 83.8794 123.797 82.8205 123.656 81.9224C123.502 80.9415 123.058 80.1265 122.283 79.4019C121.301 78.483 120.661 78.2345 119.276 78.2337C118.286 78.2332 118.031 78.2805 117.425 78.5782C115.595 79.4768 114.588 81.3779 114.897 83.3484C115.049 84.3207 115.493 85.1431 116.245 85.8463C117.31 86.8429 118.08 87.1217 119.553 87.0436C120.095 87.0149 120.704 86.8905 121.048 86.7384Z" fill="white"/>
<defs>
<filter id="filter0_d_335_15910" x="-5.17817" y="0.821835" width="199.356" height="199.356" filterUnits="userSpaceOnUse" color-interpolation-filters="sRGB">
<feFlood flood-opacity="0" result="BackgroundImageFix"/>
<feColorMatrix in="SourceAlpha" type="matrix" values="0 0 0 0 0 0 0 0 0 0 0 0 0 0 0 0 0 0 127 0" result="hardAlpha"/>
<feOffset/>
<feGaussianBlur stdDeviation="21.5891"/>
<feColorMatrix type="matrix" values="0 0 0 0 0.137255 0 0 0 0 0.121569 0 0 0 0 0.12549 0 0 0 0.2 0"/>
<feBlend mode="normal" in2="BackgroundImageFix" result="effect1_dropShadow_335_15910"/>
<feBlend mode="normal" in="SourceGraphic" in2="effect1_dropShadow_335_15910" result="shape"/>
</filter>
<linearGradient id="paint0_linear_335_15910" x1="64.7689" y1="58.0311" x2="124.229" y2="142.967" gradientUnits="userSpaceOnUse">
<stop stop-color="#A5B659"/>
<stop offset="1" stop-color="#00728C"/>
</linearGradient>
</defs>
</svg>
