<svg width="30" height="30" viewBox="0 0 30 30" fill="none" xmlns="http://www.w3.org/2000/svg">
<path fill-rule="evenodd" clip-rule="evenodd" d="M15 30C23.2843 30 30 23.2843 30 15C30 6.71573 23.2843 0 15 0C6.71573 0 0 6.71573 0 15C0 23.2843 6.71573 30 15 30ZM24.3766 6.00002H22.7042L22.5903 6.12962C22.1176 6.66743 21.6451 7.20508 21.1725 7.74256L16.6507 12.8853C16.6341 12.9042 16.6174 12.9229 16.5999 12.9424C16.588 12.9557 16.5757 12.9695 16.5628 12.9839C16.5409 12.9529 16.5193 12.9222 16.4978 12.8917C16.4461 12.8185 16.3953 12.7465 16.3447 12.6744L13.5602 8.7096C12.9364 7.82139 12.3127 6.93317 11.6891 6.04496C11.6823 6.03511 11.6759 6.02481 11.6695 6.01456C11.6665 6.00969 11.6635 6.00482 11.6604 6.00002H6.04453C6.04232 6.00002 6.04011 6.00002 6.03791 6.00001C6.02691 5.99998 6.016 5.99996 6.00495 6.0006C6.00372 6.0006 6.00258 6.00347 6.00147 6.00627C6.00098 6.00752 6.00049 6.00875 6 6.00971C6.02111 6.0387 6.04238 6.06761 6.06366 6.09653C6.10763 6.15627 6.15161 6.21604 6.19416 6.2766L8.4894 9.5434L10.638 12.6033C11.1269 13.2996 11.6158 13.9956 12.1047 14.6917C12.3471 15.0368 12.5895 15.3819 12.8319 15.727C12.8793 15.7946 12.9267 15.8623 12.9742 15.9299C13.1104 16.1244 13.2467 16.3189 13.3847 16.5122C13.4128 16.5519 13.4092 16.574 13.3783 16.609C12.2325 17.9107 11.0873 19.213 9.94215 20.5153L9.54845 20.963C9.08787 21.4866 8.62733 22.0104 8.16678 22.5341C7.45632 23.342 6.74585 24.1499 6.03523 24.9578C6.028 24.9659 6.01965 24.9732 6.01133 24.9803C6.00758 24.9836 6.00383 24.9868 6.0002 24.9901C6.00436 24.9912 6.0085 24.9925 6.01264 24.9938C6.02168 24.9966 6.03068 24.9994 6.03978 24.9994C6.58742 24.9998 7.13485 24.9998 7.68249 24.9998C7.69721 24.9821 7.71178 24.9642 7.72636 24.9463C7.75667 24.9091 7.78698 24.8719 7.81866 24.836C8.75665 23.7689 9.69487 22.7019 10.6331 21.6349C10.9592 21.264 11.2854 20.8931 11.6115 20.5221L14.1274 17.6611C14.1339 17.6538 14.1404 17.6467 14.1485 17.6379C14.1526 17.6335 14.1571 17.6286 14.1623 17.6229C14.1809 17.6487 14.1977 17.6716 14.2139 17.6948L16.6455 21.157C17.026 21.6988 17.4064 22.2407 17.7868 22.7826C18.1672 23.3244 18.5476 23.8663 18.9281 24.4081C18.9907 24.4973 19.0535 24.5865 19.1162 24.6757C19.1787 24.7646 19.2413 24.8535 19.3038 24.9425C19.313 24.9556 19.3213 24.9693 19.3296 24.983C19.333 24.9887 19.3363 24.9943 19.3398 24.9998H24.9557C24.9689 24.9998 24.9822 25.0002 24.9953 24.9994C24.9965 24.9993 24.9977 24.9963 24.9988 24.9935C24.9993 24.9923 24.9997 24.9911 25.0002 24.9901C24.9756 24.956 24.9509 24.9219 24.9262 24.8879C24.8719 24.8131 24.8177 24.7384 24.7647 24.6628C23.6455 23.0699 22.5267 21.4769 21.4079 19.8838L21.3995 19.8718C20.6441 18.7962 19.8888 17.7205 19.1335 16.6449C18.6552 15.9638 18.177 15.2826 17.6987 14.6015C17.6682 14.5582 17.6378 14.5147 17.6074 14.4713C17.5175 14.343 17.4277 14.2147 17.3363 14.0875C17.3133 14.0556 17.3121 14.0372 17.3394 14.0062C18.0306 13.2222 18.7208 12.4372 19.4109 11.6524L19.5696 11.4719L23.992 6.44181C24.0805 6.34128 24.1682 6.24012 24.2559 6.13901C24.2961 6.09265 24.3363 6.0463 24.3766 6.00002ZM8.29636 7.25655C8.29181 7.2499 8.28678 7.24255 8.28099 7.23415L8.28079 7.23396H8.34294C8.45998 7.23396 8.57702 7.23396 8.69406 7.23396C9.39664 7.23399 10.0993 7.23401 10.8019 7.23318C10.8383 7.23318 10.8612 7.24228 10.8832 7.27308C12.4442 9.45963 14.0062 11.6456 15.5682 13.8316L15.5705 13.8348C16.3353 14.9051 17.1001 15.9755 17.865 17.0457C18.3162 17.6772 18.7675 18.3086 19.2187 18.94C20.3596 20.5365 21.5004 22.1331 22.6412 23.7296L22.6739 23.7754C22.6793 23.7828 22.6841 23.7908 22.6896 23.8001C22.6926 23.805 22.6958 23.8104 22.6994 23.8162C22.6929 23.8167 22.6871 23.8172 22.6816 23.8176C22.6706 23.8186 22.6613 23.8193 22.6519 23.8193L22.3 23.8193C21.5926 23.8193 20.8854 23.8193 20.1782 23.8201C20.1425 23.8203 20.1221 23.8087 20.102 23.7804C18.9311 22.1403 17.7594 20.5008 16.5877 18.8613L12.988 13.8235L9.01704 8.26608C8.93111 8.14581 8.84515 8.02554 8.75918 7.90526C8.6127 7.70033 8.4662 7.49536 8.31978 7.29032C8.31242 7.28003 8.30533 7.26966 8.29636 7.25655Z" fill="#F1D40E"/>
</svg>
